<?xml version="1.0" encoding="utf-8"?>
<!-- Generator: Adobe Illustrator 21.1.0, SVG Export Plug-In . SVG Version: 6.00 Build 0)  -->
<svg version="1.1" id="Layer_1" xmlns="http://www.w3.org/2000/svg" xmlns:xlink="http://www.w3.org/1999/xlink" x="0px" y="0px"
	 viewBox="0 0 400 300" style="enable-background:new 0 0 400 300;" xml:space="preserve">
<style type="text/css">
	.st0{fill-rule:evenodd;clip-rule:evenodd;fill:#236003;}
</style>
<g>
	<path class="st0" d="M372.8,41.2c4,8.1,5.7,23.3,1.2,31.4c-0.1,11.2-4.6,34.2,2.5,45.2c-0.4,7.5,2.6,15.8,4.4,24.8
		c3.2,16.3,7.3,32.3,10.6,49.6c1.5,8,5.2,19.8,4.4,25.5c-0.6,3.9-4.9,7.1-6.9,10.9c-2.2,4.2-2.9,9-6.9,10.2
		c-5.8-3.4-12.1-6.2-18.1-9.5c0.2-31.2-8.8-65.2-13.7-97c-16.2,32.7-28.7,69-43.6,102.8c-2.4,5.5-5.4,11.2-7.5,16.8
		c-3.8,10.3-4.8,22.2-12.5,28.4c-0.8,6.3-4,9.9-6.2,14.6c-42.3-5.5-77.5-23.2-114.7-35c-25.7-8.2-51.3-13.6-76.7-24.8
		c-7.9-3.5-15.1-8.6-23.1-10.9c-8.8-2.6-17.7-4.4-26.2-7.3c-11.6-4-22.2-8.3-34.9-12.4c-0.4-8.1,3.1-8.5,1.9-14.6
		c11.9-21.9,23.1-43.9,34.9-65.6c2.2-4.1,5.8-7,8.1-10.9c3.4-5.9,5.7-12.5,9.4-18.2c7-11,13.8-22.5,21.2-33.5
		c3.9-5.8,5.6-11.7,8.7-18.2c5.4-11.2,14.1-20.2,18.1-34.3c3.2-1.6,5.7,0.7,6.9-5.1c31.2,1.3,66.4,10.9,100.4,13.9
		c26.9,2.3,54.2,11.6,81,13.9c15.7,1.3,31.7,1.9,46.8,4.4C351.4,37.6,361.8,40.6,372.8,41.2z M122.2,10.6
		C122.6,11,122,10.3,122.2,10.6L122.2,10.6z M139,9.8c-0.5,0.2-1.2,0-1.2,0.7C138.3,10.4,139,10.5,139,9.8z M109.8,13.5
		C110.2,14,109.5,13.2,109.8,13.5L109.8,13.5z M22.5,174.7c2.4,1.3,2.4,5.5,3.1,8.8c33.2,16.6,70,28.1,107.2,38.6
		c11.8,3.4,23,10.3,34.9,13.9c8.4,2.5,16.8,4.6,24.9,7.3c24.5,8.1,49.6,14.9,74.2,23.3c9.4-11.3,15.2-26.1,22.4-39.4
		c2.5-4.5,6.1-8.7,8.1-13.1c2.3-5,3.5-10.9,5.6-16c8.8-20.9,20.3-40.6,28.7-62c4.1-10.6,7.8-18.5,11.8-28.4
		c5.6-13.7,12.1-25.7,18.1-37.9c3-6.1,8.1-11.5,8.1-19c-80.6-18.4-171.5-21-252.5-37.2C83.2,64.3,54,120.9,22.5,174.7z M109.1,14.9
		C107.4,17.2,111,12.9,109.1,14.9L109.1,14.9z M178.3,20.8C178.7,21.3,178.1,20.5,178.3,20.8L178.3,20.8z M369.1,63.1
		c-19.6,32.2-32.8,72.2-49.9,106.5c-5.8,11.7-11.6,24-15,36.5c14.8-31.9,30.7-62.6,44.3-94.8c4.6-10.9,11.7-20.9,13.7-33.5
		c4.2-5,6.5-12.3,10-18.2c-0.1-0.9,0.1-2.1-0.6-2.2C370.4,58.8,369.8,61,369.1,63.1z M364.7,109c0-1.1,0.2-6-0.6-3.6
		C364.1,106.4,363.8,111.3,364.7,109z M367.8,106.1C368.2,106.6,367.6,105.8,367.8,106.1L367.8,106.1z M367.2,134.6
		c0.2-8.1,2.9-20.9,0-27.7C367.4,116.7,364.6,128.2,367.2,134.6z M363.5,113.4C363.9,113.9,363.2,113.1,363.5,113.4L363.5,113.4z
		 M358.5,114.9C359.2,117.7,359.2,112,358.5,114.9L358.5,114.9z M364.7,120C365.1,120.4,364.4,119.7,364.7,120L364.7,120z
		 M363.5,122.9C363.9,123.4,363.2,122.6,363.5,122.9L363.5,122.9z M368.4,219.2c0,0.8,0.3,1.9,0.6,0.7c3.8-3.4,0.9,4.8,3.1,4.4
		c1.2,0.3,1.6,1.6,3.1,1.5c-0.4-2,1.3-1.4,1.9-2.2c-5.1-17.2-2.9-38-10-52.5c1.9-16.8-4.6-35.1-10.6-47.4
		C356.4,156.9,365.5,189.6,368.4,219.2z M370.3,142.6c0.6-5.6,2.1-10.4,0-14.6C370.5,132.6,368.8,137.5,370.3,142.6z M372.2,169.6
		c-0.8-9.5,5-20.2,0.6-27C373.5,152.6,368.1,162.2,372.2,169.6z M369.1,149.9C369.8,152.7,369.8,147,369.1,149.9L369.1,149.9z
		 M375.3,184.9c1.5-9.4,4.8-19.2,0.6-27.7C376.1,166.7,371,177.2,375.3,184.9z M330.4,165.2C330.8,165.7,330.2,164.9,330.4,165.2
		L330.4,165.2z M324.8,168.8c0,0,0,0.7,0,0.7C321.8,173.5,327.8,168.2,324.8,168.8z M281.2,260c-1.6,3.7-4.7,8.5-3.7,13.1
		c3.2-1.6,4.9-6.8,6.2-10.2c12.5-31.2,28-60.8,40.5-90.4c0.7,0,0.5-0.9-0.6-0.7C310.7,200.9,293.2,231,281.2,260z M377.8,200.2
		c-0.9-9.7,6.8-17.5,1.2-24.1C378.2,184.7,375.8,193.9,377.8,200.2z M323.6,182C324,182.4,323.3,181.6,323.6,182L323.6,182z
		 M19.4,184.1c0.6,0,0.7,0.6,1.2,0.7c-0.1-1.2,0.1-2.5-1.2-2.2C19.4,183.2,19.4,183.7,19.4,184.1z M380.9,215.5
		c-0.7-10.5,7-20.1,1.2-27.7C381.1,195.9,375.7,209.1,380.9,215.5z M319.8,189.3C320.5,192.1,320.5,186.4,319.8,189.3L319.8,189.3z
		 M18.7,200.2C19.2,200.7,18.5,199.9,18.7,200.2L18.7,200.2z M382.8,224.3c0.8-7.3,7.5-17.1,3.1-23.3
		C384.8,208.1,381.5,216.7,382.8,224.3z M59.3,209.7C59.7,210.1,59,209.4,59.3,209.7L59.3,209.7z M301.7,209.7
		C302.2,210.1,301.5,209.4,301.7,209.7L301.7,209.7z M62.4,209.7c-0.5,0.2-1.2,0-1.2,0.7C61.6,210.2,62.4,210.4,62.4,209.7z
		 M385.9,224.3c1.5-4.1,5.1-9.6,3.7-14.6C388.9,214.6,385.3,220.2,385.9,224.3z M78,214.8c-4.4-1.5-10.7-4.5-15-3.6
		C67.9,211.9,73.8,215.5,78,214.8z M301.1,233.7c2.3-5.6,6.2-13.1,6.9-18.2C305.7,221.2,301.9,228.8,301.1,233.7z M68,221.3
		C68.4,221.8,67.7,221,68,221.3L68,221.3z M71.1,222.1c0.6-1.8-3.6-0.2-1.2,0C70.9,222,72.6,223.3,71.1,222.1z M286.8,239.6
		c-3.4,6.6-10.3,12.2-8.7,19c5.8-9.3,14.4-25.4,18.1-37.2C291.8,226.2,290,233.4,286.8,239.6z M106,226.4
		C106.4,226.9,105.8,226.1,106,226.4L106,226.4z M148.4,240.3c-8.9-3.8-20.4-7.7-30.5-10.9c-2.3-0.7-9-4-8.1-2.2
		C122.8,230.9,134.9,239.5,148.4,240.3z M377.2,229.4C377.9,232.2,377.9,226.5,377.2,229.4L377.2,229.4z M299.9,235.9
		C300.3,236.4,299.6,235.6,299.9,235.9L299.9,235.9z M122.2,241c-0.7,0.1-1.8-0.1-1.9,0.7C121.1,241.6,122.1,241.9,122.2,241z
		 M124.1,241.8c-0.5,0.2-1.2,0-1.2,0.7C123.3,242.3,124.1,242.5,124.1,241.8z M127.8,243.2c-0.5,0.2-1.2,0-1.2,0.7
		C127.1,243.8,127.8,243.9,127.8,243.2z M184.6,251.2C185,251.7,184.3,250.9,184.6,251.2L184.6,251.2z M191.4,252.7
		c-1.9-0.7-3.7-1.5-5.6-2.2C186.2,252.6,190.3,254,191.4,252.7z M203.9,257.1c-0.4-0.4-3-1.7-3.1,0
		C202.3,256.1,203.3,259.2,203.9,257.1z M292.4,259.3c0.1-0.9,1.1-1.7,0-2.2C292.3,257.9,291.3,258.7,292.4,259.3z M219.5,262.2
		c-2.6-1.1-12-4.2-10-2.9c2.1,1,3.7,2.4,6.9,2.2c0,1,0.3,1.6,0.6,2.2c13.1,3.5,26.6,10.2,38.6,12.4
		C244.2,272.1,230.4,266.6,219.5,262.2z M273.1,268c2.4-0.4,5.3-6.2,3.1-7.3C274.4,262.3,273.5,264.9,273.1,268z M291.1,260.7
		C287.5,266.7,291.5,265,291.1,260.7L291.1,260.7z M245.6,268.7c-1.2-2.6-9.7-4-10-2.9C239.2,266.5,242.5,267.5,245.6,268.7z
		 M210.1,268c-0.7,0.1-1.8-0.1-1.9,0.7C209,268.6,210,268.9,210.1,268z M247.5,268c-0.5,0.2-1.2,0-1.2,0.7
		C246.8,268.6,247.5,268.7,247.5,268z M288,268.7C288.4,269.2,287.8,268.4,288,268.7L288,268.7z M212.6,268.7
		c-0.7,0.1-1.8-0.1-1.9,0.7C211.5,269.4,212.5,269.6,212.6,268.7z M214.5,270.2C219.3,272.3,211.1,268.1,214.5,270.2L214.5,270.2z
		 M217.6,271.7C218,272.1,217.3,271.4,217.6,271.7L217.6,271.7z M271.8,273.1c1.1-0.2,3.1,0.7,2.5-1.5
		C272.9,271.5,272,271.8,271.8,273.1z M235.7,280.4c-0.5,0.2-1.2,0-1.2,0.7C234.9,281,235.7,281.1,235.7,280.4z M238.8,281.1
		c-0.7,0.1-1.8-0.1-1.9,0.7C237.7,281.8,238.7,282,238.8,281.1z"/>
	<path class="st0" d="M160.9,35.4c0.9,3.7-3.5,3.8-2.5,8.8c-2.1,4-6.1,6.7-8.7,11.7c-0.6,1.2-0.4,3.8-1.2,5.1
		c-1.6,2.5-4.5,4.3-6.2,7.3c-4.6,7.9-12,27.8-21.2,28.4c-4.9,0.3-13.3-5.8-20.6-6.6c-4.2-0.4-7.7,0.1-11.8-2.9
		c-1.6-2.3,1.7-4.6,0-7.3c9.2-13.1,15.4-29.6,24.9-42.3c0.5-4.5,3-6.7,4.4-10.2C130.1,27.3,149.4,32.1,160.9,35.4z M119.1,35.4
		c2.5-0.3,3.2,1.5,4.4-0.7c-1.5-0.4-2.2-1.8-3.1-2.9C119.7,32.7,119.7,34.4,119.1,35.4z M135.3,38.3c2.3,0.1,3.6-1.2,4.4-2.9
		C137,34.9,136.2,36.7,135.3,38.3z M146.5,37.6C146.9,38,146.3,37.2,146.5,37.6L146.5,37.6z M122.8,48.5
		C119,49.3,121.3,52,122.8,48.5L122.8,48.5z M142.8,58c1.6,0.1,2-1.1,2.5-2.2C143.7,55.7,143.3,56.9,142.8,58z M114.7,65.3
		c4.8-0.8,12.1-6.2,11.2-8.8C122.7,60,118.1,61.9,114.7,65.3z M107.3,63.8c0.1-0.9,1.1-1.6,0-2.2C107.2,62.5,106.1,63.3,107.3,63.8z
		 M140.3,61.6c-0.5,0.2-1.2,0-1.2,0.7C139.5,62.2,140.3,62.3,140.3,61.6z M105.4,64.5C105.8,65,105.1,64.2,105.4,64.5L105.4,64.5z
		 M134.7,73.3c0.9-1.9,2.6-2.8,3.1-5.1C135.6,68.1,133.8,72.2,134.7,73.3z M119.1,76.9C119.5,77.4,118.8,76.6,119.1,76.9L119.1,76.9
		z M109.8,82.8c2.7-1.5,8.3-3.4,8.1-5.8C115.7,79.5,111.6,79.8,109.8,82.8z M124.1,84.2c2-0.5,4.7-0.3,5-2.9
		C127.1,81.9,125.4,82.8,124.1,84.2z M95.4,82.8C95.8,83.2,95.2,82.5,95.4,82.8L95.4,82.8z"/>
	<path class="st0" d="M274.3,55.8c-9.8,24.3-20.9,47-34.9,66.4c-16.8,2.9-33.7-7-43.6-8c0.6-13.7,9.5-23.4,15-34.3
		c5.7-11.3,10.2-23.3,17.5-32.8c12.8-3.4,26.6,2.8,42.4,2.2C271.3,52,273.4,53.2,274.3,55.8z M250,52.1
		C250.9,54.6,251.6,49.3,250,52.1L250,52.1z M258.7,55.1c0.1-1.4,2.1-0.5,1.9-2.2C258.8,51.9,256.9,54.2,258.7,55.1z M264.3,55.8
		c0.4,0,0.8,0,1.2,0c0-0.9,0.8-1,0.6-2.2c-0.4,0-0.8,0-1.2,0C264.9,54.5,264.2,54.6,264.3,55.8z M246.9,58.7
		c1.7,0.5,6.1-1.4,8.1-2.9C251.8,56.2,248.2,56,246.9,58.7z M225.7,59.4c1.6-0.1,2.2-1.3,3.1-2.2C226.9,56.9,226.3,58.2,225.7,59.4z
		 M268.7,60.2C269.4,63,269.4,57.3,268.7,60.2L268.7,60.2z M241.9,60.9c-0.5,0.2-1.2,0-1.2,0.7C241.1,61.5,241.9,61.6,241.9,60.9z
		 M251.3,63.1C251.7,63.6,251,62.8,251.3,63.1L251.3,63.1z M241.9,72.6c4.2-1.9,15.1-3.6,13.1-8C251,67.6,245.6,69.1,241.9,72.6z
		 M239.4,66C239.8,66.5,239.1,65.7,239.4,66L239.4,66z M219.5,72.6c0.9-0.9,2.5-0.9,3.1-2.2C220.9,70,218.4,72.2,219.5,72.6z
		 M239.4,71.1C237.4,72.5,242.5,69,239.4,71.1L239.4,71.1z M253.7,76.2c3.5-1,7.1-1.9,8.1-5.8C259,72.1,255.9,73.6,253.7,76.2z
		 M237.5,72.6C237.9,73,237.3,72.3,237.5,72.6L237.5,72.6z M240.7,73.3C241.1,73.8,240.4,73,240.7,73.3L240.7,73.3z M239.4,74
		C239.8,74.5,239.1,73.7,239.4,74L239.4,74z M223.2,81.3c2.9-2,11-1.7,9.3-6.6C229.5,77.8,225.2,79.1,223.2,81.3z M243.8,80.6
		c2.8,0.4,7.2-4.4,6.2-3.6C247.8,78,244.9,78.3,243.8,80.6z M237.5,77.7C237.9,78.1,237.3,77.4,237.5,77.7L237.5,77.7z M235.7,78.4
		C234,80.6,237.6,76.4,235.7,78.4L235.7,78.4z M251.3,85.7c1.6,0.6,3.8-1.8,2.5-2.2C253.6,85,251.4,84.2,251.3,85.7z M241.3,85.7
		C241.7,86.2,241,85.4,241.3,85.7L241.3,85.7z M239.4,86.4C239.8,86.9,239.1,86.1,239.4,86.4L239.4,86.4z M250,86.4
		C250.4,86.9,249.7,86.1,250,86.4L250,86.4z M231.3,87.1c-0.7,0.1-1.8-0.1-1.9,0.7C230.2,87.8,231.2,88,231.3,87.1z M228.2,88.6
		C228.6,89.1,227.9,88.3,228.2,88.6L228.2,88.6z M228.2,93c3.3-0.3,6.6-0.6,8.1-2.9c-2.3,0.6-3.7,2.3-3.7,0
		C231.9,92,228.9,91.1,228.2,93z M254.4,91.5C254.8,92,254.1,91.2,254.4,91.5L254.4,91.5z M251.9,96.6
		C250.7,99.4,253.5,92.8,251.9,96.6L251.9,96.6z M214.5,100.3C219.3,99.1,217.1,96.4,214.5,100.3L214.5,100.3z M233.8,103.9
		c0.7,1.8,3.2-1.1,1.9-1.5C235.7,103.7,233.9,102.9,233.8,103.9z M204.5,106.8C204.9,107.3,204.2,106.5,204.5,106.8L204.5,106.8z
		 M213.9,109c0.1-2,3.5-0.3,3.1-2.9C215.5,106.1,212.6,108.2,213.9,109z M238.8,111.9c0-1.2,1.7-0.4,1.9-1.5
		C239.4,109.9,237.2,111.6,238.8,111.9z M235,117C233,118.4,238.1,115,235,117L235,117z"/>
	<path class="st0" d="M345.4,65.3c0.6,2.2-1.4,1.3-2.5,1.5c0.3,1.4,2.4,0.6,1.9,2.9c-5.5,22.3-18.9,35.2-26.8,54.7
		c-0.5,2.1,0.9,1.9,0.6,3.7c-5.2,3.7-9.4,8.5-13.7,13.1c-12.6-4.9-27.9-6.8-40.5-11.7c-5.5-6.3-0.4-12.9,3.1-20.4
		c7.6-16.4,17.2-46.4,29.3-54C311.4,60,333.2,59.7,345.4,65.3z M311.1,67.5c4.3-0.7,6.9-0.5,9.4-2.2
		C317.9,64.1,313.5,66.2,311.1,67.5z M319.8,71.1c2.6-1.6,6.4-1.7,8.1-4.4C324.4,67.2,321.9,68.9,319.8,71.1z M334.2,68.9
		c0-1.3-0.5-1.9-1.2-2.2C332,67.8,332,69.5,334.2,68.9z M310.5,67.5c-0.5,0.2-1.2,0-1.2,0.7C309.7,68,310.5,68.2,310.5,67.5z
		 M331.7,68.2c-0.4-0.2-2.4-1.8-2.5,0C329.6,68.4,331.6,70,331.7,68.2z M306.1,76.9c3.6-3,10.3-2.5,13.1-6.6
		C314.3,71.5,307.4,74.1,306.1,76.9z M289.3,72.6C286.2,73.5,288.3,76,289.3,72.6L289.3,72.6z M304.2,73.3
		C302.2,74.7,307.3,71.2,304.2,73.3L304.2,73.3z M303,74c-4.1,1.5-8.8,2.4-11.2,5.8C295.8,78.3,299.5,76.3,303,74z M327.9,75.5
		C324.6,77.4,330.3,74.1,327.9,75.5L327.9,75.5z M339.1,79.9c0.5-0.8,2-6,0.6-4.4C340.2,77.3,337.3,78.8,339.1,79.9z M325.4,76.9
		C325.8,77.4,325.2,76.6,325.4,76.9L325.4,76.9z M323.6,78.4c0.1-0.9,1-1.5-0.6-1.5c-4.9,4.7-13.1,5.6-18.1,10.2
		C311.7,87.7,317.1,80.7,323.6,78.4z M332.3,80.6c0.3-1.4,1.3-1.8,1.2-3.6C331.7,76.1,330.9,80,332.3,80.6z M303.6,81.3
		c2-0.6,6.9-1.6,5.6-3.6C308.2,79.9,304.3,78.8,303.6,81.3z M323.6,82c1.6-0.3,2.9-1,3.7-2.2C325.4,79.8,324.1,80.5,323.6,82z
		 M281.8,85.7c1.9-0.2,5.4-2.4,3.7-4.4C285,83.6,282.3,83.4,281.8,85.7z M286.2,90.8c4.3-1.8,11.6-7.7,13.1-8
		C293.5,83.8,289.9,87.4,286.2,90.8z M321.1,83.5c1.1,0,1.6-0.6,1.9-1.5C321.9,82,321.3,82.6,321.1,83.5z M324.2,82.8
		c-10.9,9.9-29,11.3-39.3,21.9c6.9-2.8,13.9-6.8,21.2-10.2c7-3.3,15.8-4.3,19.9-11.7C325.4,82.8,324.8,82.8,324.2,82.8z M327.3,90.1
		c0.5-1.7,2.4-1.6,2.5-3.6c-0.6,0-1.2,0-1.9,0C328.6,88.3,325.2,89,327.3,90.1z M335.4,86.4C332.3,87.4,334.4,89.9,335.4,86.4
		L335.4,86.4z M304.2,89.3C304.6,89.8,304,89,304.2,89.3L304.2,89.3z M303,90.1C303.4,90.5,302.7,89.8,303,90.1L303,90.1z
		 M332.9,90.1C331.2,92.3,334.8,88.1,332.9,90.1L332.9,90.1z M304.9,101c6.7-2.2,16.1-5,17.5-10.9C317.4,94.8,310.1,96.7,304.9,101z
		 M290.5,93C290.9,93.5,290.3,92.7,290.5,93L290.5,93z M278.1,93.7C279,96.1,279.6,90.9,278.1,93.7L278.1,93.7z M331,93.7
		C331.4,94.2,330.8,93.4,331,93.7L331,93.7z M286.8,94.4C283.6,96.2,288.9,96.3,286.8,94.4L286.8,94.4z M324.8,95.2
		C325.2,95.6,324.5,94.9,324.8,95.2L324.8,95.2z M277.4,103.2c2.1-1.2,6.8-3.2,5.6-5.8C282,99.8,277.1,101.6,277.4,103.2z
		 M307.3,103.9c1,2.5-0.1,2.2-1.2,3.6c2.4-0.9,7.5-2.4,7.5-3.6c-1.2-0.7-2.1,2.2-2.5,0c2.3-0.9,7.6-5.4,6.9-5.1
		C313.7,99.7,311.3,102.7,307.3,103.9z M317.3,102.5C317.7,102.9,317.1,102.2,317.3,102.5L317.3,102.5z M282.4,113.4
		c6.2-2.7,16.2-4.8,18.1-10.2C297.1,106.7,284.7,108.7,282.4,113.4z M272.4,106.1C273.4,108.5,274,103.3,272.4,106.1L272.4,106.1z
		 M278.7,107.6c2,0.2,6-1.2,5-2.2C281.6,106.7,280,104.8,278.7,107.6z M276.8,120.7c10.1-3.7,20-7.7,28.7-13.1
		C295.4,111.3,285.7,115.5,276.8,120.7z M300.5,114.9c1-1.5,4.1-0.6,4.4-2.9C303.3,112.4,299.2,113.5,300.5,114.9z M317.3,114.9
		c-0.1-1.4,0.7-1.6,0.6-2.9c-0.6,0-1.2,0-1.9,0C316.2,113.3,316.5,114.4,317.3,114.9z M302.4,118.5c4.4-1.2,8.4-2.8,11.2-5.8
		C309.4,114.1,304.7,114.9,302.4,118.5z M294.3,117C294.7,117.5,294,116.7,294.3,117L294.3,117z M292.4,117.8
		C292.8,118.3,292.1,117.5,292.4,117.8L292.4,117.8z M289.9,119.2c0.7-0.4,1.4-0.8,1.9-1.5C290.9,117.7,288.3,118.9,289.9,119.2z
		 M288.7,119.2c-0.5,0.2-1.2,0-1.2,0.7C287.9,119.8,288.6,119.9,288.7,119.2z M286.2,120.7C286.6,121.2,285.9,120.4,286.2,120.7
		L286.2,120.7z M313,122.9c1.7,0.5,1.2-1.5,1.9-2.2C313.5,120.6,312.9,121.3,313,122.9z M309.8,122.9
		C310.3,123.4,309.6,122.6,309.8,122.9L309.8,122.9z M301.7,126.5c2.7,0.3,3.9-1.3,5-2.9C304.7,124.2,303,125.1,301.7,126.5z
		 M276.8,125.8c0.6,0,1.2,0,1.9,0c0-0.5,0-1,0-1.5c-0.6,0-1.2,0-1.9,0C276.8,124.8,276.8,125.3,276.8,125.8z M283.7,127.3
		c2.5-0.4,4.6-1.4,6.2-2.9C287.1,124.5,284.2,124.5,283.7,127.3z M292.4,126.5c-0.4,2,1.3,1.4,1.9,2.2c-0.6-1.4,1.9-2.4,0-2.9
		C294.2,126.6,293.3,126.6,292.4,126.5z M305.5,129.4C305.9,129.9,305.2,129.1,305.5,129.4L305.5,129.4z M304.2,130.2
		C304.6,130.7,304,129.9,304.2,130.2L304.2,130.2z M304.9,136.7c-0.7-0.6-1.7-1-3.1-0.7C300.8,138.2,305,137.9,304.9,136.7z"/>
	<path class="st0" d="M131.6,95.2C131.3,94.9,132,95.6,131.6,95.2L131.6,95.2z"/>
	<path class="st0" d="M116,113.4c-0.5,6.8-4.5,12.3-7.5,17.5c-8.8,15.3-19.4,29.5-26.8,47.4c-0.6,0.6-1.4,0.8-2.5,0.7
		c-0.7,2.1-1,4.2-1.2,5.1c-11.4,3.9-25.7-7.4-35.5-10.2c-1.4-2.9,0.5-5.5-0.6-8c10.6-19.2,22-37.4,32.4-56.9c2.7-0.4,4.3-2.2,5-5.1
		C91.2,101.7,107.9,108.6,116,113.4z M87.3,109.8C88.9,112.6,88.2,107.3,87.3,109.8L87.3,109.8z M102.9,112.7
		c-0.5-0.6-1.8,0.5-1.9,0.7C100.4,114.7,103.3,113.2,102.9,112.7z M99.2,119.2C99.6,119.7,98.9,118.9,99.2,119.2L99.2,119.2z
		 M102.3,125.1C103,128,103,122.2,102.3,125.1L102.3,125.1z M91.7,133.1C92.1,133.6,91.4,132.8,91.7,133.1L91.7,133.1z M78,141.1
		c1.1,0.2,3.7-1.4,1.9-2.2C79.8,140.3,77.8,139.4,78,141.1z M89.2,140.4C89.6,140.9,88.9,140.1,89.2,140.4L89.2,140.4z M76.7,141.8
		C77.1,142.3,76.5,141.5,76.7,141.8L76.7,141.8z M76.1,142.6c-0.5,0.2-1.2,0-1.2,0.7C75.3,143.1,76.1,143.3,76.1,142.6z M74.2,143.3
		c-0.5,0.2-1.2,0-1.2,0.7C73.5,143.9,74.2,144,74.2,143.3z M81.7,144C76.9,146.4,83.7,143,81.7,144L81.7,144z M71.1,145.5
		C71.5,146,70.8,145.2,71.1,145.5L71.1,145.5z M77.3,147.7C77.7,148.2,77.1,147.4,77.3,147.7L77.3,147.7z M78.6,156.4
		c0.5-1.1,3.9-2.6,2.5-3.6C80.5,153.9,77.2,155.4,78.6,156.4z M84.2,157.2C88,156.3,85.8,153.6,84.2,157.2L84.2,157.2z M63,165.2
		C63.4,165.7,62.7,164.9,63,165.2L63,165.2z M60.5,166.6C60.9,167.1,60.2,166.3,60.5,166.6L60.5,166.6z M59.3,167.4
		C59.7,167.8,59,167.1,59.3,167.4L59.3,167.4z M69.9,171c1.6-0.4,5.2-2.2,3.7-3.6C73.2,169.6,70.2,168.8,69.9,171z M79.8,169.6
		C80.2,170,79.6,169.3,79.8,169.6L79.8,169.6z M64.9,173.9c1.4,0.2,2.3-0.2,2.5-1.5C66.3,172.6,64.2,171.7,64.9,173.9z M71.7,175.4
		C72.1,175.9,71.5,175.1,71.7,175.4L71.7,175.4z M69.2,177.6c-0.7,0.1-1.8-0.1-1.9,0.7C68.1,178.2,69.1,178.4,69.2,177.6z"/>
	<path class="st0" d="M168.3,128.7c-8,25.2-21,44.5-31.8,66.4c0.4,1.5,3.2,0.2,2.5,2.9c-2.5,1.5-4.9,3-7.5,4.4
		c-1.5-0.4-3.2-0.6-3.1-2.9c-1.1,2.1-4.2,1.8-5.6,3.6c-7-3.6-17.3-9.8-25.6-7.3c-3.5-0.7-4.8-4.2-6.9-6.6
		c6-12.9,13.1-25.2,20.6-37.9c5.6-9.5,7.6-20.6,13.7-27.7C135.2,111.2,155.1,123.7,168.3,128.7z M135.3,125.8
		C138.5,124,133.2,123.9,135.3,125.8L135.3,125.8z M149.6,129.4c1.2-0.1,2.1-0.5,2.5-1.5C150.7,127.8,149.8,128.2,149.6,129.4z
		 M138.4,130.2c1.1,0,1.6-0.6,1.9-1.5C139.2,128.7,138.7,129.3,138.4,130.2z M145.3,138.9c-0.1-1,3.6-0.9,1.2-2.2
		C146.6,137.7,142.9,137.7,145.3,138.9z M124.1,143.3C116,148,123.6,145.3,124.1,143.3L124.1,143.3z M139.7,143.3
		C140.1,143.8,139.4,143,139.7,143.3L139.7,143.3z M117.9,148.4C116.2,150.6,119.8,146.4,117.9,148.4L117.9,148.4z M120.3,152.8
		C121.1,155.7,121.1,149.9,120.3,152.8L120.3,152.8z M119.1,155C119.5,155.5,118.8,154.7,119.1,155L119.1,155z M126,163
		C126.4,163.5,125.7,162.7,126,163L126,163z M134.1,163c-0.4,2.7,3.2,0.1,3.7-0.7C135.9,161.7,135.5,163,134.1,163z M123.5,171
		C117.3,174.6,124.8,171.4,123.5,171L123.5,171z M126,176.1c1.8-0.8,4.2-0.9,4.4-3.6C127.1,171.7,127.2,174.6,126,176.1z
		 M116.6,181.2c-0.5,0.2-1.2,0-1.2,0.7C115.8,181.8,116.6,181.9,116.6,181.2z M95.4,190c1.4-0.8,3.8-0.5,5-1.5
		c0-1.3-0.5-1.9-1.2-2.2C99.4,189.3,94.3,186,95.4,190z M136.6,187.1C137.3,189.9,137.3,184.2,136.6,187.1L136.6,187.1z"/>
	<path class="st0" d="M226.3,143.3c-1.2,18.3-10,27.3-17.5,40.1c-6,10.4-11.4,20.8-16.8,32.1c-2.3,0.8-3.5,2.8-5,4.4
		c-12.5,1.8-23-5.6-35.5-8c-1.2-3.4-0.6-7.9-3.7-7.3c1.5-11.4,8-22.3,14.3-33.5c8.4-14.9,12.1-32.5,26.2-39.4
		c10.2,2.2,19.1,5.9,30.5,6.6C221.3,139.9,223.6,141.9,226.3,143.3z M192,138.9c0.9-0.1,2.3,0.3,2.5-0.7
		C193.7,137.2,192.2,137.2,192,138.9z M187,138.9c-0.7,0.1-1.8-0.1-1.9,0.7C185.9,139.5,186.9,139.8,187,138.9z M188.3,147
		c1-2.2,4.6-1.4,5-4.4C191.4,143.3,187.6,145.6,188.3,147z M185.2,145.5c0.1-1,1-1.2,1.2-2.2C185.1,142.7,183.6,145.2,185.2,145.5z
		 M180.8,149.1c-0.1-1,2.5-2.2,0.6-2.9C181.5,147.2,178.9,148.4,180.8,149.1z M194.5,148.4c-3.5,1.5-6.8,3.2-9.4,5.8
		C189.1,153.2,191.4,150.4,194.5,148.4z M190.8,155.7c-3.2,2.7,9-3.2,9.4-5.1C195.2,153,192,154.6,190.8,155.7z M177.7,153.5
		C178.1,154,177.4,153.2,177.7,153.5L177.7,153.5z M218.2,155C218.6,155.5,218,154.7,218.2,155L218.2,155z M215.1,156.4
		C215.5,156.9,214.8,156.1,215.1,156.4L215.1,156.4z M198.9,158.6c-0.3-1,2.4-1.8,0.6-2.2C199.6,157.2,196.8,157.9,198.9,158.6z
		 M184.6,159.3c1.6-0.3,2.9-1,3.7-2.2C186.7,157.5,185.4,158.2,184.6,159.3z M183.3,160.1C178.5,162.5,185.3,159.1,183.3,160.1
		L183.3,160.1z M197,164.5c1.6,1.5,5.3-1.1,3.7-2.9C200.3,163.4,197.2,162.2,197,164.5z M210.7,165.2c2.5,0.2,6.5-1.6,5-3.7
		C214.6,163.4,211.9,163.3,210.7,165.2z M181.4,165.2C181.8,165.7,181.2,164.9,181.4,165.2L181.4,165.2z M170.8,168.1
		c0.4,0,0.8,0,1.2,0c0-0.5,0-1,0-1.5c-0.4,0-0.8,0-1.2,0C170.8,167.1,170.8,167.6,170.8,168.1z M177.7,167.4
		C175.7,168.7,180.8,165.3,177.7,167.4L177.7,167.4z M169.6,168.8C170,169.3,169.3,168.5,169.6,168.8L169.6,168.8z M175.2,168.8
		C175.6,169.3,174.9,168.5,175.2,168.8L175.2,168.8z M204.5,170.3C204.9,170.8,204.2,170,204.5,170.3L204.5,170.3z M183.9,171
		C184.3,171.5,183.7,170.7,183.9,171L183.9,171z M173.3,177.6c3.2,0.4,7.5-3.8,10-6.6C180,173.2,175.3,173.8,173.3,177.6z
		 M202.6,171.7C203,172.2,202.4,171.4,202.6,171.7L202.6,171.7z M170.8,173.9C169.1,176.2,172.7,171.9,170.8,173.9L170.8,173.9z
		 M190.8,178.3c1.5-0.4,3.2-0.6,3.1-2.9C192.4,175.8,190.7,176,190.8,178.3z M177.1,183.4C177.5,183.9,176.8,183.1,177.1,183.4
		L177.1,183.4z M164,184.1C164.4,184.6,163.7,183.8,164,184.1L164,184.1z M162.7,184.9C163.1,185.4,162.5,184.6,162.7,184.9
		L162.7,184.9z M184.6,184.9C181.3,186.6,186.7,186.8,184.6,184.9L184.6,184.9z M166.5,198.7c4.4-4.6,11.4-6.1,15-11.7
		C175.6,189.5,168.2,193.9,166.5,198.7z M200.1,189.3C201,191.7,201.7,186.4,200.1,189.3L200.1,189.3z M183.9,195.8
		c0.2-1.5,2.3-0.7,2.5-2.2C185.5,193.8,181.9,194.6,183.9,195.8z M172.7,201.7c2.6-0.6,4.3-2.3,6.9-2.9c0-0.5,0-1,0-1.5
		c-0.6,0-0.7-0.6-1.2-0.7C177.4,199.4,173.7,198.9,172.7,201.7z M192,203.1c1.3,0.6,2.8-1.9,1.2-2.2
		C193.1,202,192.3,202.1,192,203.1z M177.7,204.6c-0.7,0.1-1.8-0.1-1.9,0.7C176.6,205.2,177.6,205.4,177.7,204.6z M187,206
		C187.5,206.5,186.8,205.7,187,206L187,206z M175.2,212.6c1-2.2-3.2-1.9-3.1-0.7C173.8,211.3,173.7,212.9,175.2,212.6z M182.7,214
		c1.1,0,1.6-0.6,1.9-1.5C183.5,212.5,183,213.1,182.7,214z M182.1,213.3c-0.7,0.1-1.8-0.1-1.9,0.7
		C180.9,213.9,182,214.2,182.1,213.3z"/>
	<path class="st0" d="M298.6,159.3c4.2,16.6-4.4,27.4-10.6,41.6c-2.8,6.4-5,14.2-8.1,19.7c-1.3,2.3-3.7,4.1-5,6.6
		c-2.1,3.8-3.2,9.1-5.6,12.4c-1.2,1.7-6.6,3.9-7.5,6.6c-13.5,3.6-22.3-6.1-34.3-9.5c-10-2.8-16.5-1.8-22.4-8.8
		c13.1-25.9,24.7-50.2,38.6-75.8c2.8-0.9,5.7-2.1,8.1-5.1C267.1,151.5,284.9,153,298.6,159.3z M255.6,154.2c1.4,0.2,2.3-0.2,2.5-1.5
		C256.9,152.9,256,153.3,255.6,154.2z M262.5,155.7c1.1-0.4,3.7,0.9,3.7-0.7C264.8,154.7,262.8,153.3,262.5,155.7z M274.3,157.2
		c-0.9,0.1-2.3-0.3-2.5,0.7C272.8,157.8,274.1,158.2,274.3,157.2z M254.4,161.5c2.7,0.1,3.9-1.7,5-3.6
		C257.2,158.5,255.9,160.2,254.4,161.5z M263.1,160.1C263.5,160.6,262.8,159.8,263.1,160.1L263.1,160.1z M284.3,159.3
		c-0.7,0.1-1.8-0.1-1.9,0.7C283.2,160,284.2,160.2,284.3,159.3z M262.5,163.7c-1.2,4.4-6.1,4.5-8.1,8c3.8-2.5,10.7-5.4,11.8-8.8
		C266.1,164.6,263.6,163.3,262.5,163.7z M278.7,163c-0.5,0.2-1.2,0-1.2,0.7C277.9,163.6,278.7,163.7,278.7,163z M290.5,169.6
		c-0.3-1.1,2.4-1.8,0.6-2.2C291.2,168.1,288.5,168.8,290.5,169.6z M238.8,172.5c1.3-1.7,4.1-1.5,5-3.6
		C242.4,167.4,237.8,171.2,238.8,172.5z M258.1,174.7c4.5-0.8,8.5-2.2,10.6-5.8C265,169.7,258,174.2,258.1,174.7z M273.7,170.3
		C274.1,170.8,273.4,170,273.7,170.3L273.7,170.3z M270.6,172.5c1.1,0,1.6-0.6,1.9-1.5C271.4,171,270.8,171.6,270.6,172.5z
		 M253.1,172.5C251.4,174.7,255,170.5,253.1,172.5L253.1,172.5z M250.6,196.5c13.1-7.1,25.6-14.8,36.2-24.8
		C273.2,178.3,262.9,188.5,250.6,196.5z M255.6,177.6c-0.3-1.1,2.4-1.8,0.6-2.2C256.3,176.1,253.6,176.9,255.6,177.6z M235,178.3
		c0.1-0.9,1.1-1.7,0-2.2C235,177,233.9,177.8,235,178.3z M260,179C260.4,179.5,259.7,178.7,260,179L260,179z M236.3,196.5
		c7.9-4.8,17.8-11.3,22.4-17.5C251.6,184.8,240.5,189.9,236.3,196.5z M240.7,206c6.8,0.9,10.1-8.6,18.7-8c8-6.4,17.2-11.5,24.9-18.2
		C268.1,189.7,257.2,197.4,240.7,206z M231.9,183.4c0.1-0.9,1.1-1.7,0-2.2C231.8,182.1,230.8,182.9,231.9,183.4z M235.7,187.8
		c2.3-0.9,9.6-2.2,6.2-5.1C240.2,184.9,237.1,185.3,235.7,187.8z M263.7,183.4C264.1,183.9,263.5,183.1,263.7,183.4L263.7,183.4z
		 M281.8,186.3c-0.5,0.2-1.2,0-1.2,0.7C281,186.9,281.8,187,281.8,186.3z M268.7,195.1c4.4-0.8,9.3-4.6,10-7.3
		C275.5,190.4,271.9,192.5,268.7,195.1z M231.3,190.7C229.3,192.1,234.4,188.6,231.3,190.7L231.3,190.7z M278.7,194.4
		c2,0.6,3.7-2.8,2.5-3.6C280.5,192.2,278.4,191.9,278.7,194.4z M250,192.2C248.3,194.4,251.9,190.2,250,192.2L250,192.2z
		 M244.4,197.3c1.2-1.5,2.8-2.5,4.4-3.6C246.4,193.3,243,195.6,244.4,197.3z M233.8,197.3C231.8,198.6,236.9,195.2,233.8,197.3
		L233.8,197.3z M269.3,200.2C269.7,200.7,269.1,199.9,269.3,200.2L269.3,200.2z M226.3,210.4c6.3-1.6,9.9-6.4,14.3-10.2
		C235.5,202.3,227.4,208.5,226.3,210.4z M246.9,213.3c6.5-0.2,8.4-5.7,15-5.8c0.8-2.4,7.6-4.9,5-6.6
		C260.9,205.9,253.4,209,246.9,213.3z M272.4,206.8c1.2-1.5,2.9-2.4,3.7-4.4C274.1,202.4,270.6,204.6,272.4,206.8z M248.1,222.1
		c5.9-3.8,12.3-7,17.5-11.7C259.5,213.5,251,217.6,248.1,222.1z M246.3,213.3c-0.5,0.2-1.2,0-1.2,0.7
		C245.5,213.9,246.2,214,246.3,213.3z M267.5,216.2C267.9,216.7,267.2,215.9,267.5,216.2L267.5,216.2z M271.2,220.6
		c1.3,0.6,2.8-1.9,1.2-2.2C272.4,219.6,270.9,219,271.2,220.6z M230.1,219.9C222.8,223,231,220.6,230.1,219.9L230.1,219.9z
		 M252.5,225.7c2.1-1.2,7.5-2.4,6.2-5.1C257,222.7,253.9,223.3,252.5,225.7z M216.3,222.8C216.8,223.3,216.1,222.5,216.3,222.8
		L216.3,222.8z M246.3,222.8C246.7,223.3,246,222.5,246.3,222.8L246.3,222.8z M249.4,226.4C250.1,229.3,250.1,223.6,249.4,226.4
		L249.4,226.4z M257.5,227.9c-0.5,0.2-1.2,0-1.2,0.7C256.7,228.5,257.5,228.6,257.5,227.9z M224.4,230.1c-1.1,0.4-3.7-0.9-3.7,0.7
		C221.8,230.4,224.4,231.7,224.4,230.1z M248.1,233.7c2,0.6,2-1.1,2.5-2.2C249.4,231.9,247.9,231.8,248.1,233.7z M263.1,235.2
		c1.6-0.1,3.2-0.1,3.1-2.2C264.6,233.1,263,233.1,263.1,235.2z M236.9,235.2C237.3,235.7,236.7,234.9,236.9,235.2L236.9,235.2z
		 M243.1,238.1c0.4,0,0.8,0,1.2,0c0-0.5,0-1,0-1.5c-0.4,0-0.8,0-1.2,0C243.1,237.1,243.1,237.6,243.1,238.1z M255,240.3
		c1.5,0.1,2.6-0.4,3.1-1.5C257.5,238.1,254.9,238.2,255,240.3z M248.8,239.6C249.2,240.1,248.5,239.3,248.8,239.6L248.8,239.6z
		 M261.9,241.8C262.3,242.2,261.6,241.5,261.9,241.8L261.9,241.8z"/>
	<path class="st0" d="M196.4,37.6c-0.8,4.2,13.2,2.1,16.8,5.8c-1.9,11.1-8,19.7-12.5,28.4c-6.5,12.6-14.6,23.1-20.6,37.2
		c-10,2.7-16.3-3.2-24.3-5.1c-5-1.2-10.6,0.3-11.8-5.8c5.7-17.6,18.3-32.3,26.8-48.9c2.8-5.5,4.6-11.4,10-12.4
		C186.2,35.8,191,41.2,196.4,37.6z M188.3,48.5c1.3-2.7,6-1.3,6.2-5.1C190.7,42.6,188.2,47.1,188.3,48.5z M180.2,44.8
		C178.2,46.2,183.3,42.8,180.2,44.8L180.2,44.8z M201.4,45.6c-0.6,2.7,3.5,1.6,3.1,0C202.9,45.5,202.6,44.2,201.4,45.6z M183.9,50.7
		c0.7-0.4,1.4-0.8,1.9-1.5C185,49.1,182.4,50.4,183.9,50.7z M203.9,52.1c2.3,0,3.3-1.4,4.4-2.9C205.9,49.2,204.7,50.4,203.9,52.1z
		 M192.7,52.1c1.5-0.2,2.7-0.8,3.1-2.2C194.3,50.2,193.1,50.7,192.7,52.1z M182.1,51.4C180.4,53.6,184,49.4,182.1,51.4L182.1,51.4z
		 M191.4,52.9C191.8,53.3,191.1,52.6,191.4,52.9L191.4,52.9z M191.4,58c1.5,0,4.4-2.1,3.1-2.9C194,56.7,191.6,56,191.4,58z
		 M168.3,61.6C171.4,60.6,169.3,58.2,168.3,61.6L168.3,61.6z M187.7,60.2C188.6,62.6,189.2,57.3,187.7,60.2L187.7,60.2z M176.4,60.9
		C176.9,61.4,176.2,60.6,176.4,60.9L176.4,60.9z M173.3,63.1c1.1,0,1.6-0.6,1.9-1.5C174.1,61.6,173.6,62.2,173.3,63.1z M165.9,68.2
		c0.1-1.2,1.6-0.6,1.2-2.2C165.8,65.4,164.3,67.9,165.9,68.2z M169.6,73.3c3.2-1,10.1-5,8.1-7.3C175.6,69.1,171.7,70.1,169.6,73.3z
		 M187,68.2C187.5,68.7,186.8,67.9,187,68.2L187,68.2z M179.6,74.7c1.4-2.6,6.9-4,6.2-6.6C184.3,70.5,178.9,72.3,179.6,74.7z
		 M161.5,74.7C160.3,77.5,163.1,70.9,161.5,74.7L161.5,74.7z M176.4,76.9c1.3,0.6,2.8-1.9,1.2-2.2C177.5,75.8,176.7,76,176.4,76.9z
		 M175.2,77.7C175.6,78.1,174.9,77.4,175.2,77.7L175.2,77.7z M184.6,78.4C185,78.9,184.3,78.1,184.6,78.4L184.6,78.4z M183.3,79.1
		c-0.5,0.2-1.2,0-1.2,0.7C182.5,79.7,183.3,79.8,183.3,79.1z M157.1,82c1.1,0.2,3.7-1.4,1.9-2.2C158.9,81.2,156.9,80.4,157.1,82z
		 M180.8,80.6C179.1,82.8,182.7,78.6,180.8,80.6L180.8,80.6z M165.9,83.5c1.3,0.6,2.8-1.9,1.2-2.2C166.9,82.4,166.1,82.5,165.9,83.5
		z M174,87.9c0.9-0.9,2.5-0.9,3.1-2.2C175.4,85.3,172.9,87.5,174,87.9z M149.6,95.9c2.2-0.8,2.4-4,3.7-5.8
		C151.4,91.1,149.8,92.7,149.6,95.9z"/>
</g>
</svg>
