<?xml version="1.0" encoding="utf-8"?>
<!-- Generator: Adobe Illustrator 21.1.0, SVG Export Plug-In . SVG Version: 6.00 Build 0)  -->
<svg version="1.1" id="Layer_1" xmlns="http://www.w3.org/2000/svg" xmlns:xlink="http://www.w3.org/1999/xlink" x="0px" y="0px"
	 viewBox="0 0 500 470" style="enable-background:new 0 0 500 470;" xml:space="preserve">
<style type="text/css">
	.st0{fill-rule:evenodd;clip-rule:evenodd;fill:#236003;}
</style>
<g>
	<path class="st0" d="M434.1,154.5c-0.4-11.6-7-21.1-17.1-23.1c-17-3.3-22.9,13.1-30.4,23.2c-11.7,1-23.9,1.4-34.9,3.3
		c-2.8-32.1-3.3-79.7-22.3-106.9c-4.4-6.3-16.1-19.6-22.2-23c-22.2-12.6-48.6-2.1-61.5,5.2c-16,9-29.5,27.5-41.6,46
		c-6.6,10.1-15.6,17.8-20.3,28.8C116.9,82.4,59,114.4,74,178.9c-15.4,15.9-0.3,35.3,20,35c5,5.9,11.7,10.8,16.1,17.2
		c-13.2,7.3-28.4,14.3-41.3,22.2c-18.5,11.3-35.7,23.3-50.5,39.6c-3.9,4.3-9,9.8-10.3,12.5c-20,39.8,43.9,48.9,78.7,50.1
		c1.2-0.8,2.7-1.4,4.3-1.3c8,0.3,16-0.3,23.9-1.3c0.6-0.1,1.2-0.1,1.9,0c8.7-2,17.6-3.4,26.5-5.2c3.5,32.6,12.4,64.8,29.1,91.5
		c0,0.2-0.1,0.5-0.1,0.7c-0.1,0.5,0.5,0.8,0.9,0.7c0.2,0.3,0.3,0.6,0.5,0.8c0.6,1,1.3,1.9,2,2.8c-0.1,0.6-0.1,1.2-0.1,1.9
		c-0.1,1,1.4,1.6,1.8,0.6c0.1-0.1,0.1-0.2,0.1-0.3c1.2,1.4,2.6,2.7,4.1,3.9c0,0.1,0,0.3,0,0.5c0,0.9,0.9,1.1,1.6,0.9
		c1.2,1,2.5,1.9,3.8,2.8c0.2,0.4,0.6,0.6,1,0.6c4,2.6,8.4,4.7,13,6.2c0.3,0.8,1.4,1.1,2.1,0.6c6.4,1.7,13,2.2,19.1,0.8
		c17.8-4.1,31.7-15.3,43.5-28.6c9.6-1.6,22.1-1.8,26.7-8.8c4.8-7.4,0.6-15.3-2.6-23.2c8-11.9,15-24.4,21.3-37.4
		c8.8,4,20.2,5.1,28.8,6.7c12,2.3,24.2,8,36.9,8.5c16.3,0.6,37.1,0,46.7-6.9c7.1-5.2,15.3-22.6,18.7-31c4.8-11.7,0.7-16.9-2.2-27.1
		c-6.2-21-14.6-37.6-24.7-54c7.2-5.6,16.2-15.2,27.1-21.8c2.8-1.7,6-1.3,8.6-3.2c6.7-4.9,14.9-13.5,21.8-20
		c7.2-6.8,17.6-16.6,20.3-23.1C503.9,166.6,461.2,156.2,434.1,154.5z M439.7,332.8c2.1,1.1-0.6,5.2-0.4,7.6
		C437.1,337.6,439.2,336.7,439.7,332.8z M417.9,137.3c2.1,0,2.5,1.1,3.8,1.6C421.7,140.6,415.9,139.6,417.9,137.3z M418.2,152.6
		c0,3-4.6-0.1-5.4,1.9c-1-0.4-0.3-1.9-1.6-2.2C413.5,150.4,416.5,149.5,418.2,152.6z M389.5,257.1c-14.9,8.7-31,15.9-48.7,20.9
		c5.5-22.9,9.5-45.9,12.7-68.4c10.2,8.8,17.6,19.5,27.2,28.8c0.9,1.3,0.5,3.5,0,5.7C386.5,246.5,389,251.2,389.5,257.1z
		 M379.8,271.6c1.7-3,5.6-3.2,8-5.2C388.8,267.7,380.9,272.9,379.8,271.6z M177.5,436.4c0.4,0.4,0.8,0.7,1.3,1
		C177.5,441.9,177.2,441.5,177.5,436.4z M177.6,433.7c0-1.3,0.1-2.6,0.2-4.2c0-0.9-1.2-1.1-1.5-0.3c-0.3,1-0.6,1.8-0.8,2.5
		c-0.4-0.4-0.8-0.9-1.2-1.3c0.3-2.9,0.8-6.8,0.8-8c1.9,2.9,3.9,5.6,6,8c-0.3,0.1-0.6,0.3-0.7,0.7c-0.4,1.6-0.7,3-1,4.2
		C178.7,434.7,178.1,434.2,177.6,433.7z M174.1,433.3c0.1,0.1,0.3,0.3,0.4,0.5C174.3,434.1,174.2,433.9,174.1,433.3z M146.4,342.5
		c0-0.2-0.1-0.3-0.1-0.5c0.4-0.2,0.8-0.4,1.3-0.4c0,0.4,0.1,0.8,0.1,1.1C147.2,342.6,146.8,342.5,146.4,342.5z M136.3,237.7
		c0-0.3,0.1-0.6,0.1-0.9c-0.1-0.1-0.2-0.2-0.3-0.3c-0.4-0.5-0.7-1-1-1.5c-0.8-1.7,0-3.9,1.6-4.9c0.5-0.3,1.1-0.5,1.7-0.6
		c0.2-0.6,0.4-1.1,0.6-1.8c3.7-1.4,7.6-2.6,11.4-3.9c0,0,0,0.1,0,0.1c-1.5,7.6-2.6,15.3-3.6,23.1
		C143.2,243.7,139.6,240.6,136.3,237.7z M192.3,127.5c1.2-1.4,2.5-2.7,3.7-4c9.5,3.1,16.3,7.9,26.5,10.5c-2-2-4.9-3.4-8.3-4.4
		c19.3,3,37.2,18,55.8,21.4c2.5,3.5,7,5.8,10.6,8.6c-3,0.3-9.4-4.2-14.2-5.4c8.7,7,18.6,8.4,27.8,14.5
		c-41.7,13.5-84.1,26.1-125.3,40.3c3.1-15.8,6.8-31.4,11.3-46.8c3.1-10.4,6-21.2,9.7-31.6c0.6-1.2,1.2-2.4,1.9-3.6
		C191.9,127.1,192.2,127.3,192.3,127.5z M307.6,177.7c12.3,6.4,22.4,14.2,33.6,21.3c-1.2,11.1-2.7,24.7-4.9,38.7
		c-3.2,15.4-6.9,30.7-11.2,45.9c-25.1,13.7-55.1,20.5-89.4,31c-24.7-16.8-53-31.1-72.8-51.1c1.4,0.8,2.2,1.8,3.6,2.5
		c-1.7-2-3.8-4.1-6.1-6.4c0.6-4.8,1.3-9.7,2.1-14.5c1.3-9.1,2.9-18.1,4.6-27.2C212.4,202.4,259.2,188.9,307.6,177.7z M343.7,213.7
		c1.2,9.4-1.7,29.6-6.6,38.3c0.1-0.4,0.1-0.8,0.2-1.3C340.3,240.3,340.3,227.8,343.7,213.7z M231.6,444.6
		C231.6,444.6,231.6,444.6,231.6,444.6c-1.4,0.4-2.8,0.7-4.2,0.9c-0.1-0.1-0.1-0.3-0.2-0.4c3.2-0.9,6.4-2.2,9.7-3.8
		c-0.4,0.7-0.7,1.5-1.1,2.1C234.4,443.9,233,444.3,231.6,444.6z M164.2,388.9c-2.9-14.6-5.2-29.6-7.1-44.7
		c16.4-4.1,33.6-5.5,48.2-12.2c12.9,1,21.2-4.3,32.3-5.7c18.9,11,39.4,20.9,59.2,31.3c-5.9,12.8-12.2,25.3-19.8,37.3
		c-6.5-0.7-7.1-1.6-13.2-3.4c-0.8,4.2-10.4,6.5-13.4,12.9c-3.7,8.1-3.1,16.7,1.1,22.5c-17.1,15.6-40.5,26-61.6,8.9
		C176.4,424.6,169.3,406,164.2,388.9z M224.5,315.4c-18.6,8.1-43.5,13.1-68.7,16.8c-0.2-1.9-0.3-3.9-0.5-5.8
		c1.3-19.7,3.2-37.7,3.4-49.9c0-0.2-0.1-0.3-0.3-0.4c0.2-2.1,0.5-4.2,0.8-6.3C180.2,286.3,203.1,302,224.5,315.4z M204.1,299.4
		c7.7,2.5,18.4,10.2,25.4,16C219.8,309.7,212.4,306.6,204.1,299.4z M155.5,222c-0.2,1.9-0.5,3.8-0.7,5.7c-1.4,5.3-2.7,10.6-3.9,15.9
		c0.4-3.5,0.8-7.1,1.3-10.6c0.8-3.6,1.6-7.2,2.5-10.8C155,222.1,155.3,222.1,155.5,222z M154.9,254.3c0-0.1-0.1-0.1-0.2-0.1
		c1.4-7.6,2.7-15.3,3.9-22.9c0.3-1.1,0.5-2.3,0.8-3.4c-0.2,1.3-0.4,2.5-0.5,3.8C157.5,239.1,156.1,246.7,154.9,254.3z M153.3,265.1
		c0,0.2,0,0.4-0.1,0.6C153.2,265.4,153.2,265.2,153.3,265.1C153.3,265,153.3,265,153.3,265.1z M151.1,263.2
		c-0.5,3.3-0.9,6.7-1.3,10.1C150.1,269.9,150.6,266.5,151.1,263.2C151.1,263.2,151.1,263.2,151.1,263.2z M150,278.3
		c0.8-3.8,1.6-7.6,2.4-11.4c-0.1,2-0.1,4-0.2,6c-0.9,7.1-1.8,14.2-2.5,21.2c-0.1,1.6-0.3,3.2-0.5,4.8c-0.3-6.8-0.3-13.6,0.2-20.3
		C149.6,278.7,149.9,278.6,150,278.3z M186.7,123.6C186.7,123.7,186.7,123.7,186.7,123.6c-4.6,11.5-8.7,23.3-12.2,35.2
		c-0.5,1.1-1,2.2-1.5,3.4c2.3-9.5,4.8-19,7.8-28.2C182.6,130.5,184.6,127,186.7,123.6z M170.7,172c0,0.1,0,0.2-0.1,0.4
		C170.7,172.3,170.7,172.2,170.7,172C170.7,172,170.7,172,170.7,172z M160.4,206.1c-0.5,2.1-1,4.2-1.6,6.3c-0.3,0.1-0.5,0.2-0.8,0.3
		c0.3-2.1,0.6-4.3,1-6.4c1.1-4,2.4-8,3.7-12C161.9,198.3,161.1,202.2,160.4,206.1z M319.8,301.9c-0.7,2.3-1.5,4.5-2.2,6.8
		c-5.4,13-10.6,26-16.2,38.7c-18.2-6.5-33.1-15.3-49.2-23.3C272.5,313.7,299.6,312.5,319.8,301.9z M300.5,361.8
		c0.6,0.2,1.1,0.3,1.7,0.5c-4.7,11.6-10,23-16.1,34c-1-0.3-2-0.6-3-0.8C289.7,384.8,295.5,373.4,300.5,361.8z M265.4,411.8l0.2-0.9
		l0.5,0.1C265.8,411.2,265.6,411.5,265.4,411.8z M255.6,430.8c-1.2,2.1-2.2,3.6-1.8,1.1c0.1-0.7-0.3-1.1-0.7-1.4
		c0.4-0.3,0.7-0.6,1.1-0.9C254.6,430,255.1,430.4,255.6,430.8z M254.9,433.5C254.9,433.5,255,433.5,254.9,433.5c0,0.1,0,0.1-0.1,0.1
		C254.9,433.6,254.9,433.5,254.9,433.5z M307.4,348.7c-0.3,0-0.5-0.1-0.8-0.2c1.2-2.3,2.3-4.7,3.4-7.1
		C309.2,343.9,308.3,346.3,307.4,348.7z M202.6,445.6c-0.1-0.2-0.1-0.4-0.2-0.5c1.4,0.4,2.8,0.8,4.1,1.1c-0.1,0-0.3,0-0.5,0
		C204.8,446,203.7,445.8,202.6,445.6z M201.2,444.7c-0.4,0.1-0.7,0.2-0.9,0.5c-2.2-0.5-4.4-1-6.4-1.8c0.1-0.6,0.1-1.3,0.2-2
		C196.4,442.7,198.7,443.9,201.2,444.7z M193.9,446c-0.3,0.9-0.5,1.7-0.7,2.3c0.1-0.6,0.3-1.4,0.4-2.4
		C193.7,445.9,193.8,446,193.9,446z M199.4,447.9c-1,4.5-1.9,4.3-2.5-0.7C197.7,447.4,198.6,447.6,199.4,447.9z M205.9,449.4
		c-3.8,8.1-3,5.5-3-0.6C203.8,449,204.8,449.2,205.9,449.4z M224.6,445.8c-0.1,0.1-0.1,0.1-0.1,0.2c-0.7,0.1-1.5,0.2-2.2,0.2
		C223,446.1,223.8,446,224.6,445.8z M240.4,440.3c-0.1-0.3-0.2-0.5-0.4-0.7c3.1-1.7,6.2-3.8,9.3-6.2c-0.9,1.4-1.9,2.9-2.8,4.3
		c-0.4-0.9-1.8-1.5-2.5-0.5c-1.1,1.4-1.7,2.7-2.1,3.7c-0.4,0.2-0.9,0.4-1.3,0.6C240.6,441.2,240.6,440.8,240.4,440.3z M312.8,339.9
		c4.4-12.4,9.2-25,13.9-37.9c0.1-0.1,0.3-0.1,0.5-0.2c-4.7,14.4-10.2,28.5-15.9,42.4C311.8,342.9,312.3,341.4,312.8,339.9z
		 M343.1,188.8c-6.1-5.3-15.7-8.2-19.6-14.9c6.6-1.4,14.2-1.5,19.9-4.1C347.9,174.8,344.1,180.2,343.1,188.8z M316.8,171.7
		c0.3-1,0.1-1.7-0.7-2c2-0.8,4.4,0.2,9,0.6C322.7,171.2,320.3,172.2,316.8,171.7z M181.9,208.6c1.5-1.8,4.6-1.4,6.5-2.7
		C190.2,207.7,184.2,208.6,181.9,208.6z M206.5,200.6c3.9-2.7,9.6-3.1,14.1-5.1C220.3,198.6,211.4,200,206.5,200.6z M222.6,195.9
		c2.3-2.3,6-2.6,9.6-3C234.2,192.3,225.6,195.7,222.6,195.9z M234.3,192.3c15.8-6.6,34.1-9.8,50.3-15.8
		C273.1,184.2,251.8,188.7,234.3,192.3z M290.8,175.6c0.5-1.6,2.1-1.8,4.2-1.2C295.6,177.4,292.6,175.7,290.8,175.6z M203.6,92.4
		c-0.3,0.4-0.6,0.7-0.9,1.1c0.3-0.4,0.5-0.8,0.7-1.1C203.5,92.4,203.6,92.4,203.6,92.4z M170.8,158.3c-1.8,7.4-3.6,14.8-5.2,22.3
		c-1.2,3-2.2,6.1-3.3,9.2c0.9-3.8,1.7-7.7,2.8-11.5c0-0.1-0.1-0.1-0.1,0c-2.2,6.6-3.9,13.2-5.4,19.9c-1,3-1.9,6-2.8,9
		c0.4-2.1,0.9-4.3,1.3-6.4c3.7-16.4,8.1-32.8,14.2-48.4C171.9,154.4,171.4,156.4,170.8,158.3z M147.2,328.8c0,1.5,0.1,3,0.1,4.5
		c-0.6,0.1-1.2,0.1-1.8,0.2c-1.2-13.5-1.4-26.9-0.9-40.4C144.8,305,145.7,317,147.2,328.8z M164,414.2c0.2-0.2,0.4-0.4,0.3-0.7
		c-2.5-10.7-4.5-21.3-5.9-31.8c2.4,7.9,5.1,15.8,8.1,23.5c2.4,6.3,5.2,11.9,8.4,16.9c-0.2-0.1-0.4-0.1-0.4,0.2
		c-0.2,2.5-0.4,5-0.7,7.5C169.7,425.2,166.6,420,164,414.2z M181.2,436.5c0,0,0,0.1,0,0.2c0,0,0,0,0,0
		C181.2,436.6,181.2,436.6,181.2,436.5z M186.3,437.1c-0.4-1.2-2.3-1-2.5,0.2c-0.1,0.3-0.2,0.5-0.4,0.8c-0.2-1.9-0.4-3.9-0.7-5.9
		c2.8,2.9,5.7,5.5,8.8,7.6c-0.4,0.8-0.7,1.6-1,2.3c-1.2-0.5-2.3-1-3.4-1.6C186.9,439.4,186.6,438.3,186.3,437.1z M189.5,444.2
		c-2,4.6-1.5,3.4-2-1C188.2,443.5,188.8,443.8,189.5,444.2z M186.5,450c-0.8-0.5-1.5-1.1-2.1-1.6C186,440.5,186.3,445.5,186.5,450z
		 M191.6,445.2c0,0,0.1,0,0.1,0.1c-0.2,1.4-0.6,4.5-0.6,7.6c-0.4-0.2-0.9-0.5-1.3-0.8C190.8,448.4,191.4,446.2,191.6,445.2z
		 M195.7,455c-0.5-0.2-1-0.5-1.5-0.7C195.2,450.2,195.7,450.5,195.7,455z M200.8,456.8c-0.7-0.2-1.4-0.4-2-0.7
		C202.4,448.9,201.2,451.8,200.8,456.8z M205.8,458c-0.3-0.1-0.6-0.1-1-0.2C206.2,453.9,206.3,451.6,205.8,458z M209.3,449.9
		c0.6,0.1,1.1,0.2,1.8,0.3C209.5,454.2,208.9,456.9,209.3,449.9z M216.2,450.6c-0.2,0.1-0.4,0.2-0.5,0
		C215.9,450.6,216.1,450.6,216.2,450.6z M222.5,450.5c-1.2,2.7-2.1,4.4-1.6,0.1C221.4,450.5,222,450.5,222.5,450.5z M227.1,450
		c0.2-0.1,0.4-0.1,0.7-0.1C226.3,452.2,226.6,451.9,227.1,450z M236.1,447.9c0.8-0.2,1.5-0.5,2.3-0.8c0.1,0,0.1,0.1,0.2,0.1
		c-1.5,0.9-2.9,1.9-4.2,2.9C235,449.4,235.6,448.6,236.1,447.9z M337.3,292.1c8.5-4.2,17.6-7.6,26.7-10.9
		c-5.5,5.1-16.7,9.8-27.1,12.7C337,293.3,337.1,292.7,337.3,292.1z M350,212.4c-0.6,2.7-1.3,5.5-1.8,8.2c0.6-4.8,0.9-9.6,0.9-14.6
		c0.5,0.4,1,0.8,1.6,1.2C350.4,209,350.2,210.7,350,212.4z M349.9,195.7c-0.2-5.4,0.2-11.2,1.1-17.4c0.5,6.2,0.6,12.4,0.3,18.6
		C350.8,196.5,350.4,196.1,349.9,195.7z M344.5,203.3c0.8,2,1,12.2-1.2,6.5L344.5,203.3z M326,63.7c-6.8-4.8-9.9-12-17.3-16.4
		C316.8,47.9,326.5,54.7,326,63.7z M308,45.2c-0.2,0.9-1.3,0.5-2.1,0.6C306.1,44.9,307.2,45.3,308,45.2z M305.1,44.7
		c-3-0.8-4.1-2.8-6.4-4C300.2,37.5,308.3,39.9,305.1,44.7z M287.3,31.1c-0.5,2-2.8,1.5-5.2,1C281.7,28.8,285.4,31.2,287.3,31.1z
		 M277.7,39.8c-3.7,3.5-11.6,7.1-17,4.6c-7.5,3.7-14.5,13.9-22.5,13.1C245.9,45.7,260,41.1,277.7,39.8z M265.1,53.8
		c3.3-0.5,2.1,1.9,3.6,2.6c15.5-8.1,40,1.8,49.6,10.8c9.6,9,15.7,24.6,20.2,39.8c4.3,14.7,11.1,31.8,6.9,51.8
		c-12.7,2-25.4,4-36.7,7.8c-29.9-20.7-70.5-38.7-106.9-52.4c3.3-7.7,8.3-13.2,15-16.4c1.5-4.1-2.9,0.9-1.5-3.1
		C229.5,77.6,244,61.2,265.1,53.8z M111.3,111.2c-0.8,0.7-2,1.1-3.3,1.3C105.7,111.7,110.1,110.8,111.3,111.2z M110.2,129.1
		c0.9,3.5-4.9,7.8-7,11.1C99.3,135.6,107.5,132.1,110.2,129.1z M77.4,176.7c-2.5-0.8-0.1-4.9-2-6.1
		C77.1,168.8,78.6,173.9,77.4,176.7z M90.4,132.3c2.5-6.6,7.7-9.5,14-10.8C99.3,124.1,96.6,134.6,90.4,132.3z M92,168.8
		c2.3,0.1,0.6,2.9,2.5,3.3C92.3,174.7,88.7,169.8,92,168.8z M130.9,120.4c9.8-2.6,20.3,1,29.4-0.5c-3.8-2.8-13-3.1-17.6-3.1
		c6.8-2.7,15.1-3.4,25.5-1.2c2.6,0.2,2.2,2.4,2.3,4.2c3.7,1.4,5.7-2.5,8,0.5c-0.1,0.1-0.1,0.3-0.2,0.4c1.1,0.1,2.1,0.3,3,0.6
		c0.2,0.1,0.4,0.1,0.5,0.2c-1.7,4.2-3.2,8.6-4.5,13c-13.4,23.9-20,53.3-25.2,80.3c-1.2,0.4-2.4,0.8-3.6,1.3
		c-4.5,2.1-8.9,4.2-13.1,6.8c-2.2,1.4-4.5,1.7-6.6,1.3c-2,0.7-4.2,1.2-6.5,1.4c-2.7-7.1-13-10.9-13.7-19.6
		c-0.7-9.6,8.3-19.7-0.1-27.6c-2.1-1.4-5.8-1.7-7.5-3.2c-0.9-6.8-5.1-13.8-3.4-20.6C99.2,147.9,119.9,123.3,130.9,120.4z
		 M97.1,190.7l3,0.5c-0.3,1.3-0.6,2.6,0.5,3C99,196.4,95.4,193.3,97.1,190.7z M98.5,211.9c8,4,9.1,12.6,17.2,16.4
		C109.6,226.8,99.4,216.8,98.5,211.9z M20.2,316.1c-1-2.8-1.6-8.8,1-11.3c1.1,0.7,0.8,6.4,3.4,3.5C27.3,312.1,20.1,312.1,20.2,316.1
		z M26,300.9c-2.3-3.9,2.6-7.9,4.7-9.6C34.5,293.1,27.1,298.2,26,300.9z M28.4,327.1c2.9,1.7,3.5,4.8,7,6
		C32.3,334.8,27.3,330.8,28.4,327.1z M41.1,335.1c8.9-1.8,15.4,5.1,23,7C56.1,343.5,46.8,340.6,41.1,335.1z M73.1,342.7
		c0.5-2,2.8-1.5,5.2-1C77.2,343,75.5,343.3,73.1,342.7z M29.8,318.8c-3.4-26.9,23.6-32.8,28.8-48.3c18.7-13.7,38.8-25.6,60.8-34.9
		c3.9,0.2,3.6,3.1,6.4,4c-0.2,0.6-0.4,1.2-0.6,1.8c1.4,0.6,2.8,1.7,3.8,3.4c0.7,1.2,1.4,2.4,1.9,3.6c0.2-0.7,0.4-1.4,0.7-2.1
		c4.4,4.1,9.1,8.1,13.9,12.2c-0.3,2.2-0.7,4.3-1,6.5c-2.9,21.5-4,45.1-2.5,68.9c-7.6,1-15.1,1.8-22.3,2.6
		c-8.4,2.3-16.8,3.9-25.4,3.1C69.5,339.8,42.6,334.6,29.8,318.8z M110.8,346.6c7.4-2.3,15.6-3.5,24.8-3.2
		C128.1,345.6,121.4,348.6,110.8,346.6z M136.6,343.5c1.1-1.2,2.8-1.5,5.3-1C140.8,343.8,139,344.1,136.6,343.5z M148,346.4
		c0.4,4.1,1.2,8.2,2.1,12.2c0.4,4.5,0.8,9,1.5,13.5c0,0.5,0.1,1,0.1,1.5c-2-8.9-3.5-17.9-4.7-26.9
		C147.3,346.6,147.6,346.5,148,346.4z M169.9,428.6c1.1,1.3,2.2,2.6,3.4,3.9c-0.1,0.7-0.2,1.4-0.3,2.1
		C171.8,432.7,170.9,430.7,169.9,428.6z M174.7,437.4c0.5-1,0.8-1.8,1.1-2.3c0.2,0.1,0.3,0.3,0.5,0.4c0,0.8-0.1,2.1-0.3,3.9
		C175.6,438.8,175.1,438.1,174.7,437.4z M178.8,443c0.6-1.4,1.2-2.8,1.7-4.2c0.2,0.1,0.4,0.2,0.5,0.4c0,1.8,0.1,4.2,0.3,6.4
		C180.4,444.8,179.6,444,178.8,443z M209.1,458.6c2-4.5,3.4-11,3.1-2.5c-0.1,1.2,1.9,1.7,2.5,0.8c4.3-6.1,3-5.8,1.8,0.8
		c-0.1,0.5,0.2,0.9,0.5,1.2C214.5,458.9,211.9,458.9,209.1,458.6z M219.4,458.6c3.4-4.2,5.3-13.1,4.7-3c-0.1,1.6,2,2.3,2.8,0.9
		c0.9-1.4,1.7-2.7,2.6-4.1c0.1,0.9,1,1.5,1.8,1.3c0,0.4,0.4,0.7,0.8,0.4c3.4-2.7,7.3-4.9,11.2-7.1c0.7,0.3,1.5,0.2,1.9-0.6
		c0.1-0.3,0.3-0.5,0.4-0.8c3.1-1.8,6-3.7,8.9-5.9c-0.9,0.9-1.8,1.9-2.8,2.8C242.4,451.7,231.1,457.3,219.4,458.6z M369.9,372.8
		c6.6-3.8,21.3-2.4,28.6-1.6C390.1,373.9,379.1,374.4,369.9,372.8z M399.4,371.4c0.7-2.9,4.7-1.2,6.5-2.6
		C408.3,371.2,401.4,370.9,399.4,371.4z M409.5,365.5c2.7-4,7.1-5.7,9.8-9.7C419.5,359.1,415.1,366.1,409.5,365.5z M412.9,352.8
		c8.5-7.4,8.3-24.7,9.8-38.3C427.4,327.3,423.6,349.8,412.9,352.8z M425.2,300.7c1.6,1.2,3.1,2.3,2.1,5.1
		C425.5,304.8,425.1,302.9,425.2,300.7z M427.5,355.4c-0.6-2.5,3-9,4.3-12.6C434.1,347.5,429.3,352.4,427.5,355.4z M432.5,322
		c0.2-0.9,1.3-0.5,2.1-0.6C434.4,322.3,433.3,321.9,432.5,322z M427.6,326.8c2-2.6,0.1,4.2,0,5.7
		C425.5,335.1,427.4,328.4,427.6,326.8z M431.2,300.8c-1.6-4.4-5.9-7.1-7-11.7C427.6,292.3,431.5,295.2,431.2,300.8z M408.6,354
		c-1.3-3.3,4.7-6.7,5.1-11.5C415.9,347,409.6,350,408.6,354z M414.2,334c-3.6,11.2-15.7,25.9-27.8,31.3c-13.2,5.8-46.3-0.4-60.9-9.9
		c-3.1,1.2-6.6,0.5-9.9-0.7c8.1-18.3,14.6-37.4,20.1-56.8c21.2-8.5,42.1-21.5,61.6-27.9c6.2,2.9,5.1,9.9,7.3,15.6
		C411,301.6,420,316.3,414.2,334z M421.3,294.2c-0.7,1.3-0.9-0.2-2-0.4C419.7,292.8,421.4,293.3,421.3,294.2z M418.8,285.2
		c-6.6-2.2-11.4-12.6-14.7-19.8C411.4,270.5,413.5,278.9,418.8,285.2z M417.4,276.4c-0.7-4.2-6.4-5-6.4-9.7
		C416,267.2,418.5,277.3,417.4,276.4z M448.2,234.2c0.9-1.8,2.6-2.6,3.7-4.1C453.2,230.4,451,235.7,448.2,234.2z M446,223.4
		c-7.1,6.7-15.9,15.2-22.6,18.9c-2,1.1-5.7,0.9-8.5,2.3c-3.1,1.6-4.7,5.3-7.8,4.3c-16.1-17.1-34.4-32.8-52.3-48.8
		c0.1-0.8,0.2-1.5,0.3-2.3c0.1-0.8-1.1-1-1.4-0.2c-0.1,0.4-0.2,0.9-0.3,1.3c-0.5-0.5-1-0.9-1.5-1.4c0.2-6.8-0.1-13.6-0.8-20.3
		c0.4-2.5,0.8-5,1.4-7.6c10.8-3,25.1-1.3,35.3-5.1c11.1,14.3,40.2,25.5,47.4,0.8c12.6,1.5,20.1,6.4,28.4,10.8
		C471.8,197.3,460.7,209.6,446,223.4z M468.9,208.4c-2.5-0.7,1.6-1.4,0.7-3.7C472.7,206.1,470.1,206.9,468.9,208.4z"/>
	<path class="st0" d="M232.1,80.3c-0.8,0.1-2-0.3-2.1,0.6C230.8,80.8,231.9,81.2,232.1,80.3z"/>
	<path class="st0" d="M166.3,120.1c-1.5,0.3-4.9-2-5.1,0.1C162.8,119.9,166.2,122.1,166.3,120.1z"/>
	<path class="st0" d="M229,137c0.1-0.9-1.5-1.5-2-0.3C228.2,136.7,228.3,138.2,229,137z"/>
	<path class="st0" d="M230.8,138.2C230.5,137.8,231.4,139,230.8,138.2L230.8,138.2z"/>
	<path class="st0" d="M236.7,139.3C230.6,137.1,234,141.7,236.7,139.3L236.7,139.3z"/>
	<path class="st0" d="M239.5,140.7c-0.8,0.1-2-0.3-2.1,0.6C238.1,141.2,239.3,141.6,239.5,140.7z"/>
	<path class="st0" d="M251.5,146.7c-3-0.8-5.4-1.9-7.5-3.2C243.6,146,249.9,148.2,251.5,146.7z"/>
	<path class="st0" d="M471,219.2C471.6,220,470.7,218.8,471,219.2L471,219.2z"/>
	<path class="st0" d="M471.7,221.2C472.9,217.6,469.9,226.6,471.7,221.2L471.7,221.2z"/>
	<path class="st0" d="M471.2,229.7C470.9,229.3,471.7,230.5,471.2,229.7L471.2,229.7z"/>
	<path class="st0" d="M262.5,153.4c0.2-3-10.7-6.2-9.3-4.5C256.2,150.4,258.2,152.7,262.5,153.4z"/>
	<path class="st0" d="M238.7,269.3c21.6,5.9,37,3.2,48.2-9.5c11.5-13,10.2-38.1-4.5-48.5c-21.6-15.2-57.2-2.4-62.3,20.4
		C216.7,247.6,225.5,259.3,238.7,269.3z M239.5,242.8C240,243.5,239.1,242.3,239.5,242.8L239.5,242.8z M241.4,237.4
		C242,238.1,241.1,236.9,241.4,237.4L241.4,237.4z M241.2,244c1.4-1.9,6.7,0.5,5.6,2.9C244.6,246.2,242.9,245.1,241.2,244z
		 M253.3,250c-1.7-0.5-2-2-1.3-4.1c1.3,0.2,2.6,0.5,3.9,0.7C255.6,248.5,253.1,247.3,253.3,250z M257.4,249.8
		C260.5,246.6,258.3,253.1,257.4,249.8L257.4,249.8z M279.1,235.5C279.7,236.2,278.8,235.1,279.1,235.5L279.1,235.5z M279.8,231.8
		c-1.3-1.1-1.7-2.7-1.1-5C280,227.9,280.4,229.6,279.8,231.8z M271.5,233.2C273.3,229.8,272,237.1,271.5,233.2L271.5,233.2z
		 M270.7,237.8C267.9,241.9,273.6,233.5,270.7,237.8L270.7,237.8z M265.4,221.6c4.4,3.3-1.5,11.4-2.6,14.8c-2.1,0.1-1.6-1.7-1.5-3.1
		c-2.5,1.6-1.8,7.4-7,5.4c1.9-2.7,2.8-7.9,2-11.1C260.6,227.3,262.4,223.6,265.4,221.6z M257.5,221.2
		C257.1,220.7,258,221.9,257.5,221.2L257.5,221.2z M255,217.9c1,0.2,2,0.4,3,0.5c0.3,1.4-4.2,1.6-1.5,2.6
		C254.8,223.8,253.8,219.6,255,217.9z M254.8,224.5c0.1,6.2-3.8,11-5.9,16.1c-2.4-0.3-4.8-0.7-5.7-2
		C247,233.8,247.1,223.9,254.8,224.5z M242.8,224.3c2.1,0.5-0.3,4,0,5.7c2.4-0.9,2.3-5.2,4.2-6.9c3.9,2.3-1.3,7.7-2.8,10
		c-2.8-3.8-1.5-0.1-5.1,0.1C239.1,228.5,241.6,227.3,242.8,224.3z M236.2,244.1c-1.3-0.5-0.4-2.5-0.3-3.9
		C239.9,240.6,236,242.2,236.2,244.1z"/>
</g>
</svg>
