<svg id="Layer_1" data-name="Layer 1" xmlns="http://www.w3.org/2000/svg" viewBox="0 0 300 600"><defs><style>.cls-1{fill:#236003;fill-rule:evenodd;}</style></defs><title>svge_battery</title><path class="cls-1" d="M225.13,33.34c-.54,8.6-2.57,10.32-1.13,19.19,20.67-.66,31.79,8.77,48.78,12,7.17,7.43,13.08,9.94,14.74,22.79.32,2.45-1.64,5.82-1.13,8.39.92,4.68,5,8.65,5.68,12,2,10.74-.45,23.8,0,34.79,4.47,112.35,0,249.16-1.14,377.89-.95,7.44-3.42,12.51-1.13,20.39-4.35,10.2-13.06,15.78-15.88,27.59-25,23-71.42,27.77-118,26.39-28.83-.86-47.46-1.66-76-6-19-2.88-29.42-10.47-44.24-21.59-16.79-12.61-21.18-14-23.82-39.59-3.51-33.93.19-77.9-2.27-117.57-2.55-41.07-2.54-92.88-2.27-144,.2-38.54-1.44-77.23,1.14-117.56,2.13-33.43-2.4-59.63,19.28-73.18C45.62,71,55.31,58.09,75.39,56.13c-1.7-21,9.59-31.81,27.22-37.19C138.47,8,201.95,8,225.13,33.34ZM199,32.14c-26.28-.71-69.22-8.07-89.62,4.8-6.89-.89-10.51,1.68-13.61,4.79,15.37,25.65,83.43,19.88,111.17,6C205.1,41.73,203.14,35.79,199,32.14ZM89,70.53c-.37-4.8,1.46-11.93-3.4-12,1.34,7.22-1.17,22.91,10.21,22.8,0-10.75,1-13.92,2.27-24a16.48,16.48,0,0,0-5.67-6C91.62,58.09,94.76,69,89,70.53Zm17,16.79c-.69-10.61,3.1-17,1.13-26.4-1.45-.06-1.57-1.53-3.4-1.2C103,67.12,97.21,84.4,106,87.33Zm4.54,1.2c2.64,1.61,6.44,2,9.07,3.6.05-5.69-5-12.24-2.27-16.8C123,88.64,139.16,97,158.2,92.13c-1.21-8.31,2.62-22-2.26-26.39-4.81,5.15,4.64,18-3.4,19.19-4.46-4.59-1.32-11.56-1.14-18-16.09.1-28.56-3.91-42-3.6C114.07,67.54,107.9,82.24,110.56,88.53Zm70.33-22.79c1.59,24.47.43,2.42,2.27-2.4-1.45-.06-1.58-1.54-3.4-1.2C179.3,63.82,180.83,64.73,180.89,65.74Zm-5.68,14.39c-.56-5.8,1.61-14.49-2.26-16.79C172.24,69.52,168.47,79.07,175.21,80.13Zm-9.07,12c-.5-6.05,1.61-17.76,1.13-27.59h-3.4C162.71,72.41,160.53,90.46,166.14,92.13ZM227.4,70.53c-.26,6.12-3.8,8.78-5.68,13.2-41,21.88-107,24.92-142.93-3.61-3.22-2.55-4.17-5.74-7.94-7.2C57.4,67.76,36.68,81.35,30,90.93c2.36,6.7,3.77,14.4,13.61,13.2-3.23,7.66,7,5.48,9.08,10.79,4.86.27,4.62-4,9.08-1.19,58.88,20.73,156.28,20,200.78-12,2.39-7.08,7.58-11.18,6.81-21.6C259.83,73.57,244.11,72.31,227.4,70.53ZM184.29,87.33h2.28c.68-.06,1.34-.17,1.13-1.2-1.62-.29-1.91-2-3.4-2.4ZM173,90.93h2.26c1.28-1.74,1.23-2.93-1.13-3.6A5.86,5.86,0,0,1,173,90.93Zm99.82,2.4c1.65,4,2.82-4.67,0,0Zm-254.1,20.4c.62,26.83,2,57.63,3.4,82.78,5.51,101.29,2.58,193.37,11.34,290.32,1,10.8-2.18,26.56,7.94,34.79-4.88-25.28-1.09-46.92-1.13-70.78-.1-48-5.07-94.66-5.67-136.75C33.7,254.41,32.91,202.26,30,143.72c-.26,2.12,1.14,6-2.27,4.79,2.2-19.72,3.55-35.13-3.4-46.78C23.79,107.13,21.17,110.36,18.68,113.72Zm182.63,37.19c-.34-2,1.53-3.23,2.27-1.2,2,5-3.35,18.85-3.4,19.19-.91,5.93.61,17.75,2.27,4.8,1.48,60.52-7.61,128-4.54,197.94.8,18,2.18,32.82,1.13,45.58-.31,3.82,2.93,12.46-3.39,13.2,1.61-18,2.06-46.59-1.14-68.38-5.62,18.21.2,41.52-4.54,58.78-1.55-94.64,14.67-212.29,3.4-289.12-48.24,3.13-100.51,8-139.53-9.6-6.19-2.79-10.17-10.35-18.15-8.39-6.16,12.95-1,25.69,0,39.59,2.53,36.54-1.68,77.27,0,114,.47,10.24,4.14,20.23,4.54,31.19,2.51,70.41-.54,147.66,5.67,225.54,7.48,3.68,14.91,7.41,27.22,6,7.79,9.11,17.08,3.94,27.23,7.21,3.62,1.16,7.09,3.83,10.21,4.79,10.62,3.3,18.07-5.55,27.22-1.2-31.28,13.42-63.72-7.14-93-10.8-2.19,13,12.39,17,22.68,20.4,29,9.57,68.68,11.51,94.15,2.4,9.55-3.41,20.69-6.48,30.62-10.8,9.31-4,24.75-6.53,22.69-18-20,6.51-44.76,22.14-63.52,15.59,6.82-1.58,14.75-2,21.56-3.6-2.23-5.45-13,2.39-14.76-2.4,21.58-5.17,47.42-5.85,60.12-20.4.49-3.37-4.22,3-4.53-1.2.72-2.44,5.74-.34,4.53-4.79,0-115.81-1-239.91-1.13-357.5,0-6.21,4.4-15.36-2.27-20.39-5.75,4.64-9.43,19.62-13.61,15.59,0-.66-.91-1.36-1.13,0C203.94,145.3,197.19,150.14,201.31,150.91ZM224,131.71Zm-26.09,0c-.88.27-2.24,0-2.26,1.2C196.51,132.65,197.87,132.88,197.9,131.71Zm29.5,19.19c-.79-4.76,2-13.28-2.27-14.4C225.93,141.28,223.15,149.8,227.4,150.91Zm-27.22-9.6Zm59,69.58c.37-20.87,4-53.29-2.27-70.79C256,163.41,253.73,186.74,259.17,210.89Zm-27.24-66c1.32,4.74,1.32-4.74,0,0Zm7.95,4.8Zm-7.95,26.39c-.83-7.12,4.21-13.63,1.14-21.59C231.63,162.27,230.1,168.87,231.93,176.1ZM11.87,168.9ZM13,248.09c-.7-22.35,1.21-53.48-1.13-75.58C11.29,191.8,8.11,227.38,13,248.09ZM272.78,177.3c1.31,4.74,1.32-4.74,0,0ZM199,188.1c.74.79-.47-.5,0,0Zm38.57,3.6Zm1.14,2.4c-1,7.09.64-4.82,0,0Zm0,4.79c-2.75,4,3.79-2.9,0,0Zm0,4.8c-1,7.09.64-4.82,0,0Zm0,4.8c.73.79-.48-.5,0,0Zm18.15,19.19Zm0,9.59c.14-1.57.16-8.68-1.13-4.8C255.61,234.06,255.59,241.17,256.89,237.28Zm12.48-1.2c-1,7.1.64-4.81,0,0Zm-14.76,8.4c3.17,1.92,3.15-5.18,1.14-4.8C256,242,254.47,242.33,254.62,244.49Zm6.81-1.2c-1.5,0-1-2.1-2.26-2.4C257.86,243.35,260.94,246.61,261.43,243.28Zm-6.81,31.19c4.48,11-4.33,22.24,2.28,28.8,2.23-17.7,5.48-40,2.27-56.39C257.42,257,258.75,265.58,254.62,274.48Zm1.14-18c1.31-1.28.42-5.53-1.14-7.2C255.27,251.39,253.25,256.33,255.76,256.48Zm-245-3.6c1.31,4.74,1.31-4.74,0,0Zm224.6,1.2h2.27v-2.4h-2.27Zm19.28,4.8c-1,7.09.66-4.82,0,0Zm-18.15,7.19c0-1.76.43-9.81-1.14-6C235.36,261.84,234.91,269.89,236.47,266.08Zm-214.39,4.8c-2-3.07-1.1,9.29-1.13,15.6,0,8.16-.84,17.6,1.13,21.59C23.7,298.34,21.59,286.51,22.08,270.88Zm213.26,3.6c-2.29,10.51.76-3.44,0,0Zm-5.67,69.58c4.19-16.65,1.86-44.81,0-61.18C228.93,306.74,229.85,322.36,229.67,344.06ZM15.27,303.27c0,11.28,5.57,5.38,0,0Zm232.54,1.19Zm7.95,2.4c.74.79-.48-.5,0,0Zm1.13,30c-2.88,5.27,4.08,6.84,0,0ZM15.27,339.25Zm0,3.61Zm1.14,8.4Zm246.16,3.6c-2.34,16.24-4.87,43.46,0,56.39C262.86,392.72,263.36,361.29,262.56,354.85Zm-251.83,9.6Zm228,3.61c1.31,4.74,1.31-4.74,0,0ZM13,388.45c-1.35-3.77.08-17.72-2.27-19.2C12,375.06,8,386.54,13,388.45Zm216.67-15.6c.74.79-.48-.5,0,0Zm9.08,1.2c-1.69,8.94.79-4.26,0,0Zm15.87,3.6c-2.29,10.51.76-3.45,0,0ZM238.75,380c.73.78-.48-.5,0,0ZM11.87,392c1.32,4.74,1.32-4.74,0,0ZM234.2,404c1.32,4.74,1.32-4.74,0,0Zm0,6c-1,7.1.66-4.81,0,0Zm27.22,3.61c-1,7.09.65-4.82,0,0Zm-27.22,7.19Zm27.22,14.4c.75.79-.47-.5,0,0Zm0,33.6c-.19-8.65,3.06-24,0-30C262.14,448.16,258.08,464.64,261.43,468.82Zm-28.35-19.21c1.3-1.51,2.27-9.45,0-10.79C232.61,441.24,230.26,447.72,233.07,449.62Zm18.14-6ZM24.35,450.82c-1,7.1.65-4.81,0,0Zm206.46,10.8c3.77,1.47,2.78-8.11,1.13-8.4C232.49,457,229.89,457.46,230.8,461.62Zm9.08-4.8ZM26.62,489.21c-1.25-9.09,2.66-30-2.27-31.19C27.46,464.7,20.33,483.13,26.62,489.21Zm213.26-30c-1.69,8.95.8-4.26,0,0Zm9.08,2.4c.73.79-.48-.5,0,0Zm0,15.59c-.86-4.19,3.43-9.06,0-12C247.57,467,246.73,475.55,249,477.22Zm4.53,7.2c5.73-.46,2.63-12.56,1.13-14.4A53,53,0,0,1,253.49,484.41Zm-13.61-10.79Zm0,2.4Zm-211,42c4-5.66,1.23-19.1-1.13-27.59C27.27,498.52,24.44,512,28.88,518Zm200.78-10.8c3.49.89,2.18-3.3,5.67-2.41-.55-5-3.4-7.6-4.53-12C228.63,495.71,230.08,502.45,229.67,507.21Zm21.55,12c2.15.28,2.51-1.35,4.54-1.19-.15-3-.17-5.79,1.13-7.2C252.63,511.09,252.47,515.73,251.22,519.2ZM228.53,524q4.94-.81,5.68-6c-1.53-.38-2.17-1.71-4.53-1.2C228.67,521.05,229.53,519.76,228.53,524Zm-195.1,2.4c-.52-3.45-1.31-6.61-4.54-7.21C29.09,523,29.68,526.37,33.42,526.41Zm5.67,2.4c2.74,6.16,2.93-4.13,0,0Zm0,6ZM235.33,536c.75.79-.47-.5,0,0ZM34.56,542c-2.8.45-3.36-7.49-5.67-3.59C31.69,537.95,32.24,545.9,34.56,542ZM55,556.4c.21-5-5.4-3.9-7.94-6C48.45,553.7,50.61,556.21,55,556.4Zm116.83,2.4c-34.84,6.39-81.4,6.6-111.16-4.79C84.31,575.94,143,573.93,171.81,558.8Zm5.68-1.2Zm-1.13,0c-.88.27-2.24,0-2.27,1.2C175,558.52,176.32,558.76,176.35,557.6Zm9.07,3.6Zm-5.67,0c-5.84,2.9,3.9,3.1,0,0Zm-121.38,3.6c-.88.27-2.24,0-2.27,1.2C57,565.73,58.35,566,58.38,564.79ZM188.84,572c3.17-3.43,11.17-1.78,12.47-7.2C195.1,567,163.36,573.69,188.84,572Zm-30.64,2.39Zm-54.44,7.21Zm108.9,4.8c-7.28-1.39-2.5,3.67,0,0Z"/><path class="cls-1" d="M142.32,76.53c0-1.17,1.39-.93,2.27-1.2C144.56,76.49,143.2,76.26,142.32,76.53Z"/><path class="cls-1" d="M27.75,150.91c1.32-4.74,1.32,4.74,0,0Z"/><path class="cls-1" d="M26.62,158.11c1.32-4.74,1.32,4.74,0,0Z"/><path class="cls-1" d="M161.6,156.91c.58,8.21-2,13.07-1.13,21.6,8.66,5.18,17.74-2.57,27.22-3.61,3.49,4.93,2.06,16,2.27,21.6-4.58,8.74-16.33,9.92-26.09,13.2-3.3,8.47,4.47,20.95-3.4,27.59-9.46-.41-18.18,0-25,2.4-.09-12.4.31-22.91-3.4-33.59-10.11-2.9-23.67-2.15-30.62-8.4.38-9.66-.84-15.29,0-22.8,11.08-.11,17.52,4.67,29.49,3.61,3.24-5.65,1-10.12,1.13-18C139.78,155.53,148.73,157.53,161.6,156.91Zm-20.42,13.2c-.16-1.59,4.61-3.62,1.13-4.79C141.69,166.06,137.71,168.93,141.19,170.1Zm-1.13,19.2c.74.79-.48-.51,0,0Zm-22.69,8.39c1.75-3.62-5.87-3.16-5.68-1.2C114.43,196,114.16,198.69,117.37,197.7Zm15.88,2.4c.74.79-.48-.5,0,0Z"/><path class="cls-1" d="M195.64,478.42c1.43,7.25-2.3,16.47,0,25.19-13.63,11.29-46.4,12.31-72.6,9.59,3.29-11.19-6.66-18.78-2.27-30,5.88.75,6,5.53,11.34,1.2C151.7,494.87,180.1,486.65,195.64,478.42Z"/></svg>