<svg id="Layer_1" data-name="Layer 1" xmlns="http://www.w3.org/2000/svg" viewBox="0 0 500 500"><defs><style>.cls-1{fill:#236003;fill-rule:evenodd;}</style></defs><title>Artboard 1</title><path class="cls-1" d="M408.55,87.42c1.84,1.92,1.07,3,2.17,4.74-7.64,3.18-10.86,11.47-14.16,17.79,6.76-.86,10-7.81,12.9-11.77,3.43,12-15.64,13-16.81,21.62-6-.87-12.51,9.89-19.18,13.93-8.15,4.92-15.05,2.86-22.61,5.89-.85-23.45,20-44.82,44.73-53.83,2.83,2.31,5.92,2.37,8.78,4.43C405.5,89,406.5,86.74,408.55,87.42Zm-27.14,34.77c12.11-6.81,14.36-20,17.41-31.34C391.88,98.64,387.38,112.16,381.41,122.18ZM388,94c2.4,3.64-3.14,4.86-1.53,8.26,1.94-3.48,6.49-6.16,5.1-10.66ZM377,99.3c.26,12.89-10.07,22.53-13.92,34.16,11.14-9.48,15.06-26,22.12-38.63C382.48,96.24,379.52,99.65,377,99.3Zm7.32,7.48c.11-1.52,2.71-2.28,1.59-4.17C384.11,103.28,383.13,107.12,384.33,106.79Zm-6.69,14.83c1.67-3,3.77-5.83,4.37-9.13C379.78,112.77,376.34,120.29,377.64,121.61Zm-4.8-19.5c-5.68,6.64-14.57,12.58-12.65,18.83-.92-1.81,2.35-2.21,2.85-.87.08.88-.75,4.31.65,3.68C367.34,116.73,371.46,109.83,372.84,102.11Zm.1,26.8c2.94-1.27,4.31-6,2.46-6.82C375.5,124.64,373.59,126.59,372.94,128.91Zm-15.25-5.25c-.09.73,0-.47,0,0Zm.58,8.9c-1.81,2.42,2.89-.74,0,0ZM354.5,132c-.91,1.81,2.84,3,2.12.64C355.82,133.17,355.26,131.75,354.5,132Z"/><path class="cls-1" d="M219.29,22.7c.19,1.24,2.51.3,2.53,1.73,2.69,13.1,9.11,25.52,13.48,40.62,3.26-4.6,0-10,.84-19.87C229.23,39.1,225,21.75,226,13.19c4.3,6.36,3.93,15.68,7.58,24.2,4.63-7.08-5.75-17,0-19.88,7,17.56,4,40.17,7.59,59.64-6.61,5-2.38,21.19-11,24.2-12.7-16.69-19-43.47-16-73.46C219.46,22.58,219,11.46,226,8,227.7,10.18,219.22,16.45,219.29,22.7Zm-1.69,13c8.38,11.28,10,29.53,17.69,41.49-2.57-17.31-12.53-34.36-16.85-52.72C217.58,26.23,217.56,30.75,217.61,35.66Zm15.17,51c-2.32-14.65-10.22-31-16-44.95A148.84,148.84,0,0,0,232.77,86.66ZM221,71.1c.55.56-.35-.37,0,0Zm.84,1.73c1,3.42,1-3.42,0,0Zm.84,2.59Zm.84,1.73c-.71,5.11.48-3.47,0,0ZM226,84.06c1,3.42,1-3.41,0,0Zm5.06,10.37c-.7-2.44,1.19-2.24.84-4.32a3.89,3.89,0,0,1-2.53-.86C229.23,91.73,229.62,93.64,231.09,94.43Z"/><path class="cls-1" d="M480.38,235.16c-1.2.25-.18,2.59-1.57,2.67-12.64,3.34-24.45,10.48-39,15.62,4.63,3.14,9.78-.42,19.39,0,5.6-7.36,22.31-12.49,30.69-11.78-6,4.68-15.1,4.73-23.23,8.85,7.11,4.42,16.34-6.66,19.37-.89-16.79,8-38.95,5.9-57.75,10.43-5.2-6.55-20.74-1.49-24.06-10.15,15.69-13.76,41.5-21.36,70.84-19.68,5.4,5.12,16.2,4.17,19.89,11.2C493,243.21,486.47,234.8,480.38,235.16ZM467.68,234c-10.62,9.09-28.31,11.54-39.62,20,16.74-3.39,32.9-14.36,50.6-19.61C476.87,233.56,472.47,233.74,467.68,234Zm-49,17.81c14.16-3,29.72-11.85,43.06-18.41A140.67,140.67,0,0,0,418.69,251.82ZM433.32,239c-.52.6.34-.38,0,0Zm-1.64.94c-3.29,1.15,3.37.85,0,0Zm-2.49,1c-.52.59.34-.38,0,0Zm-1.65.94Zm-6.62,2.9c-3.28,1.15,3.37.85,0,0ZM411,250.44c2.35-.83,2.23,1.11,4.25.67a4.15,4.15,0,0,1,.73-2.63C413.59,248.42,411.75,248.9,411,250.44Z"/><path class="cls-1" d="M324.31,32.78l1.53.73c5.3,26.75-12,60.92-31.42,77.47-4.84-5.12-2.69-12.08-2.41-19.26,4,3.26.68,9.29,3.38,13,1.5-10.32,1-19.91,2.56-30.23-3.32,3.64-3.25,11.61-4.81,16.76-4.86-21,14-42.95,25.89-59.13,2.66,10.93-3,25-1.64,36.39C322.83,58.06,321.34,44.52,324.31,32.78ZM312.15,84.17c3.07-14.37,2.26-27.3,2.66-40.68C312.44,55.09,310.11,72.08,312.15,84.17Zm-2.84-34.72c.27.75-.17-.48,0,0Zm-3.71,43c3.88-2.71.78-5.65,1.26-8.93,1.49-11.18,2.93-22.34,1.75-32.54A203.36,203.36,0,0,0,305.6,92.48ZM302.83,74c-1.09-4.37,1.47-10.09,0-14.31l-4.27,9.41C301.58,69.74,300.93,75.09,302.83,74Zm-1.06,2.35c-.52,3.52,2.29-2.67,0,0Zm-.45,11.23c0-2.72,1.88-11.15.2-6.58-2.27,6.16-.95,11.31-.64,17.8C303.08,96.33,301.27,91.35,301.31,87.58Z"/><path class="cls-1" d="M476.46,340.06l-.58,1.63c-25.51,7.73-60.2-7-78-25.38,4.56-5.39,11.5-3.8,18.5-4.14-2.81,4.41-9,1.5-12.38,4.58,10.15.65,19.42-.66,29.58,0-3.83-3.08-11.56-2.31-16.7-3.46,20-6.79,42.93,10.53,59.68,21.32-10.38,3.67-24.51-.89-35.49,1.48C451.78,340.74,464.79,338,476.46,340.06Zm-51-8c14.23,1.9,26.7-.06,39.73-.81C453.76,329.86,437.05,329,425.49,332.09ZM459,326.18Zm-42.11-.06c3,3.74,5.55.32,8.78.51,11,.55,22,1.06,31.76-1A188.53,188.53,0,0,0,416.85,326.12Zm17.71-4.43c4.14-1.49,9.93.62,13.89-1.26l-9.51-3.54C438.58,320,433.33,319.84,434.56,321.69Zm-2.38-.89c-3.46-.22,2.8,2.11,0,0Zm-10.94.53c2.65-.21,11,1,6.41-.37-6.19-1.78-11.07,0-17.35.89C412.9,323.88,417.57,321.6,421.24,321.32Z"/><path class="cls-1" d="M277.06,349c-5.9,1.15-8.72,5.47-15.17,6.05.32-1.47-.66-1.63-1.68-1.74C265.64,352.15,271.49,347.24,277.06,349Z"/><path class="cls-1" d="M234.93,357.66a2.33,2.33,0,0,1-2.53,1.73C232,357.54,233.6,357.74,234.93,357.66Z"/><path class="cls-1" d="M367.22,196.9a181.75,181.75,0,0,1,8.42,25.92c1.92,7.83,6.37,16.62,6.74,25.06.42,9.61-1.87,25-3.37,35.44-5.19,36.11-28,71-52.24,86.42a180.51,180.51,0,0,1-32,15.57c-40.13,14.39-94.5,1.1-121.33-17.29-17.28-11.83-30.75-28-43-47.54-22.59-36.14-19.29-90.42-2.53-130.51,7.73-18.49,20.69-33.31,38.76-45.81,15.11-10.45,30.76-16,50.56-20.75,32.32-7.76,62.82-1.7,88.48,13,10,5.7,20.94,11.74,28.65,18.15C348.55,166.36,356.27,183.41,367.22,196.9ZM248.41,123.43c-5.4-1-1.85,2.64,0,0Zm2.53,0c-.65.19-1.66,0-1.69.86C249.9,124.1,250.91,124.27,250.94,123.43Zm13.48.86c-1,.14-2.39-.14-2.53.87C262.88,125,264.28,125.31,264.42,124.3Zm.85.87Zm63.2,73.47c-1.9-.65-.33-4.85-.85-6.92-11.61-9.12-12.44-29.3-27-35.44-.77,3.15,3.66,5.39.85,7.78-4.11-15.6-16.52-17.52-32.86-21.61-15.73-3.93-34.4-10.12-53.09-6.92-41.43,7.09-62.92,37.53-80,67.41-1.39,10.65-7.14,20.56-5.9,31.11-7.62,18.15,2.35,38.49,3.37,56.18,5.77,14.24,12.32,28.76,23.59,38.89,8.16,7.33,18.73,8,31.18,11.23,9.62,2.5,18.37,6.88,27.8,6.91,19.74.09,39.88-5.37,59-6-22.69,8.05-54.19,6.9-81.73,11.24,18,4.69,49.4-3.32,66.57.86-2.68,4.1-3.1,2.6-6.74.86-2,4.06-12.43,3.94-15.17,4.33,1.51-3.07,7.83-1.19,10.11-3.45-15.28,1.25-30.89-.69-45.5,2.59,9.69-1.53,17.5,2.32,27,.87,2.75,1.48-3.29,3.4.84,3.45,24.82-.24,47.85-5.17,61.51-20.74,27.57-31.43,50.17-78.5,46.34-135.69-2.47-3.23-4.36-7-7.58-9.51.14,9.09,4.83,18.08,1.68,27.65-1-8.06-.17-17.09-4.21-21.61,1.54,36.78-7.49,78.17-25.28,99.39,15-25.9,28-70.09,21.06-109.77C327.63,190.87,325.5,201,328.46,198.63Zm-139-62.23Zm116.28,16.42a31.73,31.73,0,0,0-5.9-3.46C299.8,152,304.74,154,305.71,152.82Zm28.65,44.08c-4.93-13.38-13.23-27.92-21.91-34.57C319.37,174.24,325.81,186.65,334.36,196.9Zm-7.59-28.53c2.57,2.36-2.3-2.63,0,0Zm9.27,7.79c-1.72-.55-.23-4.37-3.37-3.46C332.63,174.55,334.64,178.64,336,176.16Zm2.53,20.74c3.81-11.92-6.76-16-11-22.47C330.63,182.57,336.65,187.63,338.57,196.9Zm3.37-13c1,3.41,1-3.41,0,0Zm4.21,68.28c-2.53,10-2.84,17.39-7.58,24.2,6.28-21.16,12.74-56.78.84-76.93,10.35,45.3-11.72,92.74-28.65,122.73C331.16,304.42,345.3,281.87,346.15,252.22Zm-.84-49.27Zm11.8,32.85c-.55-10.66-5.22-23.84-11-32,5.29,14.61,4.47,34,5.06,49.27,4.92-6.15.5-17.2,2.52-25.92C357.48,227.35,353.36,235.59,357.11,235.79Zm11.79-22.47c-.71,5.12.49-3.46,0,0Zm-12.64,7.78Zm.85,5.19c1,3.41,1-3.41,0,0Zm11.79,3.46Zm-15.17,35.44c3.45-6.4,4.8-21.73,2.53-28.53C355.58,246.26,352.79,257.41,353.73,265.18Zm6.74-26.8c.55.56-.35-.36,0,0Zm-9.26,20.74c1,3.41,1-3.42,0,0Zm21.91,4.32c1,3.42,1-3.41,0,0Zm-32,38.9c7.36-6.58,14.65-25.3,15.17-38.9C350.53,273.57,348.23,291.18,341.1,302.35Zm32-36.3Zm-27,13Zm-2.53,8.65Zm-.84,2.59Zm-9.27,12.1c.56.56-.35-.36,0,0Zm-36.23,38c11.85-8.3,28.05-16.75,31.18-31.11C318.47,320,307,329.31,297.28,340.37Zm43.82-28.52Zm-1.68,1.73Zm-12.64,12.1c1.9-3.25,6.92-7.86,5.9-11.24C330.34,317.25,326.15,322.72,326.77,325.68Zm4.21.86c2-3.49,8.23-7.09,6.74-11.23C336.14,319.17,330.19,323.11,331,326.54Zm-33.7,18.15c4.42-1.29,21-9.49,21.07-18.15C312.27,333.56,304.47,338.82,297.28,344.69ZM202.91,349c-10.45-2.25-22.44-7.51-32-7.78C178.82,346.08,191.28,350.86,202.91,349Zm74.15,11.23c9.12.44,18.7-8,17.69-10.38C289.5,354,281.45,355.25,277.06,360.25Zm-93.53-9.51c-.65.19-1.66,0-1.68.87C182.5,351.42,183.5,351.58,183.53,350.74Zm113.75,6.92c3.81-1,9.53-4.6,9.27-6.92C304,353.64,298.89,353.84,297.28,357.66Zm-109.54-6c-.66.19-1.66,0-1.69.86C186.71,352.28,187.72,352.45,187.74,351.61Zm108.7,6c-.65.19-1.66,0-1.69.87C295.41,358.34,296.42,358.5,296.44,357.66ZM192.8,359.39c.55.57-.36-.36,0,0Zm100.27,0Zm17.7,1.73Zm-96.06.86Zm11.79-.86c-1,.13-2.39-.15-2.53.86C225,361.84,226.37,362.13,226.5,361.12ZM261,368a13.74,13.74,0,0,0,10.11-3.46C266.78,364.69,263.05,365.48,261,368Zm11.79-2.59c.55.56-.35-.37,0,0Zm29.49,0Zm-92.69,1.73c2-2.08-2.76-2.24-2.53-.86C207.11,366.25,210,366.84,209.65,367.17Zm32,2.59c4.72,0,8.5-1.08,11-3.45C247.81,366.26,243.84,367.09,241.67,369.76Zm10.11,1.73c-.66.19-1.66,0-1.69.86C250.75,372.16,251.76,372.33,251.78,371.49Z"/><path class="cls-1" d="M298.12,306.66c4.13,4.29,7.21-10.42,13.48-12.1-10.79,19.19-22.42,37.51-47.19,42.35C278.19,330.2,299.09,317.59,298.12,306.66Z"/><path class="cls-1" d="M283.8,343c-1.27,1-2.06,2.5-4.21,2.6C280.16,343.85,281.83,343.25,283.8,343Z"/><path class="cls-1" d="M450.22,168.44c-7.88,2.54-14.73,7.75-22.18,11.33-10,4.79-21.74,6.22-32.86,7.19a1.33,1.33,0,0,0,.52-1.45l3.07-3.44a1.29,1.29,0,0,0-.09-1.85,73.85,73.85,0,0,1,9.64-11.9c9.06-9.34,21.14-15.13,33.15-19.22.42-.14.31-.83-.15-.71-19.55,4.9-35.64,16.29-46.27,33.68-2.31,2-4.66,3.9-7.13,5.72-1.14.84-.05,2.31,1.09,2.19a1.56,1.56,0,0,0,.82.18c12.38-1,24.46-2.71,36.28-6.71,8.75-3,15.89-9.51,24.66-12.35C452.36,170.56,451.84,167.91,450.22,168.44Z"/><path class="cls-1" d="M443.18,147.68c-6.56,4.35-11.6,10.05-16,16.3,1.58-2.84,3.12-5.71,4.53-8.65h0l.14-.3c.67-1.42-1.39-2.13-2.22-1.13-3.75,4.52-7.18,9.24-10.49,14.06,1.61-3.62,3.15-7.28,4.56-11a1.2,1.2,0,0,0-1.9-1.3,66.15,66.15,0,0,0-10.32,13.57c.73-1.57,1.43-3.15,2.07-4.77.47-1.21-1.14-1.82-1.85-.94a79.6,79.6,0,0,0-6.87,10.28.46.46,0,0,0-.46.18,18.66,18.66,0,0,0-2.22,4.15l-.45.82c-1.5,2.79-2.86,5.62-4.16,8.51a.89.89,0,0,0,1.58.8c2.13-3.67,4.1-7.41,6.16-11.08a69.69,69.69,0,0,0-3.92,9.64,1.11,1.11,0,0,0,2,1c5.34-8.46,9.46-17.6,15.63-25.36a223.91,223.91,0,0,1-11.1,22.82c-.77,1.38,1.15,2.73,2,1.38,3.9-6.11,7.81-12.18,11.93-18.12A96.32,96.32,0,0,0,414,185.09a1.29,1.29,0,0,0,2.27,1.15c7.52-12.1,14.05-25.36,25.36-34.12-3,11.65-10.75,21.21-15.63,32.09a1.33,1.33,0,0,0,1.14,1.75c1.53.22,2.29-1.3,3.13-2.41a.7.7,0,0,0-.88-1q-3.11,2,1.2-2c.89-1.64,1.8-3.27,2.74-4.88,1.93-3.35,3.92-6.66,5.78-10A52.29,52.29,0,0,0,445.08,149,1.32,1.32,0,0,0,443.18,147.68Z"/><path class="cls-1" d="M450.55,162.56a42.27,42.27,0,0,0-6.81,4.91,48.12,48.12,0,0,1,8-10.2c.6-.69-.22-1.72-.95-1.09-5.29,4.54-9.61,9.9-11.95,16.63-.42,1.21,1.36,2.17,2,1a26.16,26.16,0,0,1,7.63-8.13,25.72,25.72,0,0,0-3.65,7.61c-.15.63.56,1.29,1.1.76,2.73-2.71,3.83-7,5.56-10.39C451.81,163,451.26,162.16,450.55,162.56Z"/><path class="cls-1" d="M434.77,161.1c-4.86,5.48-13.4,17.23-10.38,25.22.18.47.77.22.83-.17.67-4.18,1.06-7.92,2.67-11.9a60.43,60.43,0,0,1,7.49-12.61C435.67,161.27,435.09,160.74,434.77,161.1Z"/><path class="cls-1" d="M455.11,149.38c-4-3.88-11.21-1.18-15.45.8a.09.09,0,0,0,.07.16,30.54,30.54,0,0,1,6.77-1.76c3-.41,5.43.71,8.29,1.31C455.05,149.94,455.36,149.63,455.11,149.38Z"/><path class="cls-1" d="M459,162.17c.08-.07,0-.2-.11-.12a176,176,0,0,1-16.14,12.79c-14.88,5.5-31.4,11.76-47.4,10.69-1.26-.08-1.74,2-.45,2.3a32.44,32.44,0,0,0,5.39.73l-3.08.32c-1.4.16-1.18,2.42.18,2.5a61.29,61.29,0,0,0,18.46-1.82c10.77-1.42,21.36-4.27,28.78-12.68a1.3,1.3,0,0,0-.11-1.95A153.15,153.15,0,0,0,459,162.17Zm-28.18,20a62.77,62.77,0,0,1-9.12,3.77c-2.25.47-4.54.83-6.85,1.13A129.41,129.41,0,0,0,430.79,182.21Z"/><path class="cls-1" d="M460.92,154.87c-2.18,5.58-6.24,9.92-10.5,13.94a.17.17,0,0,0,.22.25c4.45-4,8.31-8.42,10.33-14.18C461,154.86,460.94,154.84,460.92,154.87Z"/><path class="cls-1" d="M427.9,409c-14.55-.44-32.23-5.38-42.75-16.29-4.93-5.12-19.38-20.6-17.71-28.91,0,0,0,0,0,0-5.5,2.36,10.35,23,12,25.19,11.14,15.1,30.47,22,48.49,22.69C429.55,411.7,429.55,409.05,427.9,409Z"/><path class="cls-1" d="M428,406.1c-15.51-19.5-33.62-42.53-60.62-40.62-.94.07-1,1.55,0,1.52,27.34-.75,42.43,22.35,58.76,41C427.32,409.32,429.08,407.43,428,406.1Z"/><path class="cls-1" d="M391.58,370.18c-1.42-.42-28.76-6.54-23.53.31.13.16.38,0,.38-.16-.14-5.61,26.82,3.17,30.3,4.67,16.31,7.07,20.15,24.77,30.27,37.45.44.55,1.35,0,1.14-.68C424.2,393,410.25,375.73,391.58,370.18Z"/><path class="cls-1" d="M427.9,409.17c-19.08-2.57-57.18-20.58-57.19-43.75a.11.11,0,0,0-.22,0c-2.94,11.17,9,21,16.46,26.84,11.43,9,26.46,17.25,40.95,19.23C429.33,411.67,429.31,409.36,427.9,409.17Z"/><path class="cls-1" d="M429.58,412.67c-5.4-5.1-7.86-12-9.76-19-.52-2.45-1.11-4.89-1.88-7.3a1.23,1.23,0,0,0-2.37.66c.69,2.67,1.36,5.38,2.09,8.06.29,2.42.78,7.31.11,6.39-3.37-4.58-5.79-10-7.88-15.47q-1.11-3.1-2.3-6.18c-.57-1.47-2.91-.85-2.35.67a191.62,191.62,0,0,1,6.9,21.1,48.84,48.84,0,0,1-7.2-9.93c-2.26-6.62-4.9-13.09-7.76-19.52-.61-1.37-2.75-.39-2.34,1a96.43,96.43,0,0,0,7.56,19.15c.52,1.55,1.05,3.08,1.53,4.65a110.17,110.17,0,0,1-9-15.2c-1.34-3.36-2.67-6.73-4-10.12-.58-1.53-2.94-1-2.45.7A72.58,72.58,0,0,0,393,383.71c1.84,4.55,3.68,9.12,5.46,13.7-6.1-9.12-10.19-19.57-17.54-27.88-.76-.86-2.07,0-1.81,1.08a66.18,66.18,0,0,0,3.51,10.77c1.51,3.47,10,17.37,1.52,5.72-4.53-6.23-6.06-14.25-10.18-20.66a.43.43,0,0,0-.77.33c.09.4.17.8.26,1.19s.75.32.7-.09c1.09,9.86,7.76,21,14.82,27.69.7.65,2.16,0,1.73-1-1.46-3.64-3-7.22-4.63-10.79a75.35,75.35,0,0,1-4-10.21c-.17-.51,4.11,6.84,5,8.43,4.71,8.09,8.26,16.45,14.49,23.51a1.19,1.19,0,0,0,2-1.18c-.84-2.37-1.72-4.71-2.61-7.06q2.47,3.64,5.11,7.24a1.32,1.32,0,0,0,2.39-1c-.27-1.14-.63-2.24-.94-3.35a44.29,44.29,0,0,0,6,6.24,1.25,1.25,0,0,0,2.07-1.24c-.35-1.56-.75-3.09-1.15-4.63a55.29,55.29,0,0,0,5.46,7.49,1.22,1.22,0,0,0,2.07-.88c0-.24-.06-.47-.09-.71a29.66,29.66,0,0,0,5.94,8.15C429,415.63,430.78,413.8,429.58,412.67Z"/><path class="cls-1" d="M263.43,478.26c-.39-.71-.73-1.43-1.1-2.14a1.38,1.38,0,0,0,.89-2.18c-11.79-15.54-11.72-39.13-3.75-56.43.68-1.47-1.42-2.77-2.15-1.29-.63,1.27-1.12,2.6-1.65,3.91a5.26,5.26,0,0,1,.14-.54c-.12.34-.22.68-.34,1A63,63,0,0,0,251,446.93c-3.32-14.34-2.48-29.44,5.31-42.11.28-.46-.41-.86-.71-.43-13.86,19.85-8.67,46.07,1.39,67q.24,3.49,2,4,1.11,2.11,2.26,4.12A1.24,1.24,0,0,0,263.43,478.26Z"/><path class="cls-1" d="M273.56,447.75c-.12-3.26-.22-6.51-.3-9.75a2.23,2.23,0,0,0,0-.86c0-.77,0-1.56-.05-2.33a1.28,1.28,0,0,0-2.56,0c0,.82-.07,1.69-.15,2.58-1.85-5.57-3.89-10.93-5.81-15.84-.29-.73-1.5-.72-1.45.2.33,5.72.89,11.41,1.4,17.11a185.05,185.05,0,0,0-5.14-20.46.3.3,0,0,0-.59.16c4.74,20.5,7.92,41.1,1.63,61.65-.43,1.4,1.61,1.91,2.1.6,0-.12.08-.24.13-.37.41,5.16,2.08,9.75,5.92,13.2a1.22,1.22,0,0,0,1.91-.25C278.74,479.91,277.6,463.42,273.56,447.75ZM270,441.34c-.6,3.34-1.54,7-2.54,10.8.09-8.67-.25-20.12-3-27.21C266.45,430.19,268.36,435.69,270,441.34Zm-4,40.53c-.45-4,.38-8.57,1-12.42,1-6.52,2.65-12.92,4.12-19.34.41,13,.36,25.53-2.53,38.28a1.37,1.37,0,0,0,0,.47C267.31,488,266.32,485.52,265.91,481.87Zm4.89,6.23c2.34-8.44,3-17.15,3.08-25.93a70.28,70.28,0,0,1-1.13,20.62A14.9,14.9,0,0,1,270.8,488.1Z"/><path class="cls-1" d="M264.26,433.92a.27.27,0,0,0-.32-.19l0,0c-.2.08-.27.44,0,.49-1.62-.29-6.62,25.83-6.57,29.14a1.06,1.06,0,0,0,2.09.29c.74-2.55,1.76-5,2.39-7.57a.25.25,0,0,0-.45-.19c-.43.78-.88,1.53-1.32,2.3.65-4.46,1.65-8.87,2.59-13.26C263.23,442.12,265.44,436.84,264.26,433.92Z"/><path class="cls-1" d="M272.22,467c-4.69,4.81-4.49,6-3-2.56a109.79,109.79,0,0,0,1.88-14.07.77.77,0,0,0-1.31-.55,35.44,35.44,0,0,0-4.13,5.92,78,78,0,0,0,2.26-11.08c.09-.89-1.32-1.07-1.51-.22-1.45,6.83-4,13.37-5.17,20.3-.22,1.27,1.54,2.26,2.16.93a41.24,41.24,0,0,0,1.94-4.66c-1.06,2.93,4.41-10,3.67-5.37-.9,5.67-2.7,11-3,16.76a1.17,1.17,0,0,0,1.15,1.18c2.22-.14,3.37-.75,4.11-3-1.44,5.19-4.33,9.52-2.25,15a.55.55,0,0,0,1.08-.15c.43-6.24,2.23-11.69,3.3-17.77A.7.7,0,0,0,272.22,467Z"/><path class="cls-1" d="M339.91,465a6.33,6.33,0,0,0-2.26-1.67.77.77,0,0,0-.49-.07,48.31,48.31,0,0,0-2-5.26c-2.87-5.66-5.45-11.47-7.94-17.31-2.62-6.15-17.77-37.87-6.71-41.51a.31.31,0,0,0-.08-.61c-11.47.18-1.76,25.79-.26,30.37a243,243,0,0,0,11,26.65c1.56,3.33,3.6,11.17,7.77,11.67C340.17,467.4,340.62,465.77,339.91,465Z"/><path class="cls-1" d="M338.52,423.51c-1.36-3.88-17.82-23.78-17.22-24.59,0-.05,0-.11-.09-.06-2.76,2.37,5.24,9.88,6.37,11.22,15,17.8,11.58,36.7,12.27,58.2a.5.5,0,0,0,1,.13C345.64,454.22,343.39,437.37,338.52,423.51Z"/><path class="cls-1" d="M349.2,469c-8-7.09-18.19-11.47-24.49-20.47-8.28-11.83-10.22-32.94-6.14-46.23.21-.67-.77-.91-1-.28-5.21,14.37-2.22,30.37,3.25,44.23,4.66,11.82,17.82,16.77,26.6,24.57C348.65,471.92,350.44,470.08,349.2,469Z"/><path class="cls-1" d="M341.38,421.74A74.52,74.52,0,0,0,336.6,413a1.11,1.11,0,0,0-1.05-.53,98.65,98.65,0,0,0-13.42-15.27.11.11,0,0,0-.15.16,137.54,137.54,0,0,1,12.4,16.35,1.08,1.08,0,0,0,.18.51,76.66,76.66,0,0,1,9.29,20.72,36.3,36.3,0,0,1,1.19,7.28,1.42,1.42,0,0,0-.38.78,140,140,0,0,0-1.22,17.88,1.11,1.11,0,0,0-.37.89,16.22,16.22,0,0,0,.84,5.25c0,.09.09.12.13.2a1.1,1.1,0,0,0,.35.51,1,1,0,0,0,.47.13,1.43,1.43,0,0,0,.31,0,1,1,0,0,0,.21-.06,1.16,1.16,0,0,0,1-.83,71.75,71.75,0,0,0,1.3-7.49c.45,4.09.92,8.33,1.08,12,.06,1.31,2.12,1.74,2.35.32C353.81,454.37,349.74,436.91,341.38,421.74ZM348,446.88c-.09-1.34-.25-2.66-.41-4,.14.51.32,1,.46,1.52a68.73,68.73,0,0,1,1.7,11.78C349.21,453.08,348.59,450,348,446.88Z"/><path class="cls-1" d="M339.77,461.46c-3.16-12.18-.49-24.13,0-36.45a1,1,0,0,0-1.9-.26,78.89,78.89,0,0,0-2.41,11.8c-.4,3.46-.86,6.92-1.34,10.38,0-9.64.72-19.09-.82-28.69-.15-.94-1.49-.82-1.73,0a109.66,109.66,0,0,0-2.81,14.05c-.59,4-3.17,10.18-2.83,14.09-1-11.89,1.39-24.15,1.58-36.05a.65.65,0,0,0-1.27-.18,91.12,91.12,0,0,0-3.55,15.09c-.32,1.9-.5,13.55-.64,7.6-.19-8.07-2.52-21.14,2.7-28,.3-.39-.19-.94-.54-.55-6.82,7.37-3.83,23.81-3.75,32.93a.84.84,0,0,0,1.64.23c1.21-5.23,2-10.45,2.75-15.75.27-1.93,1.73-13.81,1-3.5-.81,10.81-2.47,21.2-1.54,32.08.08.9,1.43,1.55,1.87.52,3.86-9.23,4.34-19,6.25-28.76-.9,4.56.2,10.47.06,15.18-.18,6.28-.54,12.49-.31,18.78a1.09,1.09,0,0,0,2.13.3,93.83,93.83,0,0,0,2.36-13c-.5,6.2-.65,12.34,1.16,18.71A1,1,0,0,0,339.77,461.46Z"/><path class="cls-1" d="M206.63,411.05c-.22-2.35-.5-4.69-.9-7a.44.44,0,0,0-.87.1c.09,1.63.14,3.23.19,4.83a1,1,0,0,0-.81,1.25c.34,1.35.61,2.67.88,4,0,14.79-2.21,28.79-7.95,42.95-1,2.26-2.1,4.44-3.26,6.6-1.89,3.25-3.94,6.39-6.1,9.44a4.72,4.72,0,0,0-1.86,2.59q-1.46,2-3,3.86a1.26,1.26,0,0,0,2,1.59c.28-.33.54-.69.82-1A.94.94,0,0,0,187,480c11.41-13.81,19.56-28.39,21.27-45.64C209.85,426.41,209.71,418.44,206.63,411.05Z"/><path class="cls-1" d="M184,450.43A62.65,62.65,0,0,1,193.81,428c5.89-6.07,12.77-11.32,19.17-16.54a1,1,0,0,0-.94-1.72c-9,3.69-16.64,11-22.18,20l-.36.38c-.72.79-1.36,1.58-2,2.36,4.14-10.11,11.34-22.15,18.56-20.94.18,0,.27-.26.09-.32-8.82-2.8-16.69,14.71-19.86,20.88a37.47,37.47,0,0,0-1.91,4.49c-11.25,16.44-9.16,33.31-3.65,53.07a1,1,0,0,0,1.74.67h0c.06-.07.15-.09.19-.18s0-.1,0-.14c2.28-3.16,1.59-1.93,3.26-6,.42-1-1-2-1.67-1s-1.16,1.81-1.71,2.73v-.06c1.23-2.56,4.78-10.82,6.77-14.06.75-1.21-.95-2.63-1.71-1.4a36.78,36.78,0,0,0-2.26,4.2c.86-7.28-1.14-15-1.61-22.65C183.86,451.29,183.95,450.87,184,450.43Zm-1.89,33.31c-1.5-5.84-4.61-13.56-5-16.16-1.31-8.37,1.46-16.52,5.33-23.83a60.55,60.55,0,0,0-.83,6.67c-2,9.57-1.9,19.39,1.12,28a1,1,0,0,0,.83.61C183,480.54,182.57,482.13,182.14,483.75Z"/><path class="cls-1" d="M201.7,436.52a.9.9,0,0,0-1.79,0,63.14,63.14,0,0,1-1.8,7.68,50.31,50.31,0,0,1-.86-11c0-1.11-1.61-1.44-1.7-.28-.52,6.88-.63,13.78-1.59,20.58-.82-6-2.31-11.89-2.93-18a.76.76,0,0,0-1.5.17c1.06,10.27,3.05,21,1.65,31.31a44.88,44.88,0,0,1-3.25-11.46,121.86,121.86,0,0,0-.54-16.53c-.08-.83-1.42-.9-1.46,0a88.72,88.72,0,0,0,.42,16.1c-.15,3.78-.54,7.55-1.05,11.29-1.21-7-2.76-13.91-3.26-21,0-.4-.6-.32-.6.07.07,8.76,2.2,17.25,3.17,25.92a.74.74,0,0,0,1.47,0A94.57,94.57,0,0,0,187.52,461a40.93,40.93,0,0,0,3.32,9,.8.8,0,0,0,1.52-.18,51.17,51.17,0,0,0,.95-9.5.88.88,0,0,0,1.19-.59,87.16,87.16,0,0,0,2.05-14.82c.19,1,.39,2,.64,3a.86.86,0,0,0,1.6,0,74.8,74.8,0,0,0,2.27-8.28l.32.51c.44.73,1.52,0,1.24-.71Z"/><path class="cls-1" d="M146.23,380.82c-1.1,3.83-2.22,7.58-3.39,11.29a49.09,49.09,0,0,0,.14-5.47,1.13,1.13,0,0,0-2.25,0c.17,26.82-19.76,41.9-37.11,58.74-.81.78,0,2.5,1.15,2,23.44-10,40.59-41,42.27-66.48C147.07,380.44,146.36,380.38,146.23,380.82Z"/><path class="cls-1" d="M149,382.52c-7.17-3.76-14.54,2-20.1,6.49-.26.21-.47.44-.72.65-17,9.79-29.37,35.14-23.31,52,.27.76,1.34,1.28,2,.53,6.36-7.82,6.6-18.34,8.52-27.95a43.2,43.2,0,0,1,7.72-16.56,45.09,45.09,0,0,1,22.16-10.17c1.06-.16.66-1.66-.23-1.77a24.85,24.85,0,0,0-10.57,1.13A24.58,24.58,0,0,1,149,382.62.05.05,0,0,0,149,382.52ZM112.1,419.89c-.54,3-1.06,6.05-1.67,9.07-.52,2.53-3.23,13.34-4.7,7.19-2-8.37,1.85-17.47,5.79-24.53a51.21,51.21,0,0,1,5.78-8.25A60.35,60.35,0,0,0,112.1,419.89Z"/><path class="cls-1" d="M121.32,400.53c0-.16-.19-.2-.28-.12-2.56,2.25-3.2,7.67-3.92,10.8a59,59,0,0,0-1.65,17.07.91.91,0,0,0,1.81,0,15,15,0,0,1,1-4.8c.12-.38-.4-.57-.6-.26s-.35.56-.51.84a84.61,84.61,0,0,1,1.41-12.44C119.23,407.89,120.85,404.23,121.32,400.53Z"/><path class="cls-1" d="M121.58,419.88c-.31.71-.61,1.39-.9,2.08.09-9.81.69-21,5.47-28.66.16-.25-.18-.49-.39-.31-3.77,3.46-4.51,9.78-5.36,14.58a129.85,129.85,0,0,0-1.9,21.52,1.07,1.07,0,0,0,2.14,0c.21-3.09,1.19-5.86,1.74-8.86C122.46,419.76,121.79,419.39,121.58,419.88Z"/><path class="cls-1" d="M141.34,388.72v0c0-.43,0-.86-.06-1.29a1,1,0,0,0-1.89-.52,41.59,41.59,0,0,0-4.18,8.14,66.52,66.52,0,0,0,.18-6.8c0-.66-1-1.06-1.31-.36a147.35,147.35,0,0,0-5.88,16.45c.8-4.47,1.61-8.95,2.26-13.48.08-.59-.75-1.1-1-.45l-2.21,5c-.18.42.39.78.62.37-1,3.46-1.6,7-2.32,10.55a140.12,140.12,0,0,0-2.39,16.2c-.13,1.43,2,1.67,2.39.34,2.75-10.71,4.35-21.59,8.59-31.84-1.51,3.66-1.76,10.75-2.66,15.48-.85,4.52-1.56,9-2,13.58a1.25,1.25,0,0,0,2.45.34c1.78-9.5,2.33-20.83,7.25-29.43a53.34,53.34,0,0,1-1.73,9.75q-.81,3-1.59,5.94a1.27,1.27,0,0,0,2.45.69c.58-2,1.15-4,1.74-6.05,0,.27,0,.54-.05.81a1.07,1.07,0,0,0,2.1.29c1.25-4.2,1.17-8.66,1.87-13A1.36,1.36,0,0,0,141.34,388.72Z"/><path class="cls-1" d="M162.88,62.79c-2.82-4.19-11-18.9-16.94-17.42-.83.21-.9,1.63,0,1.8,7,1.23,14.72,16.66,18.13,22.05,8.1,12.8,9.19,28.6,13.47,42.89L176.24,111c-2.59-2.4-5.22-4.75-7.83-7.13-4.41-4-8.66-8.16-12.72-12.54-11.74-12.64-17-27.74-13.28-45a.22.22,0,0,0-.42-.12c-9.13,32.12,17.44,51.48,37.59,71.09.78.75,2.36,0,1.92-1.15C174.71,98,173.87,79.15,162.88,62.79Z"/><path class="cls-1" d="M145.71,44.23a1.27,1.27,0,0,0-.66,2.44c17.17,6.1,26.63,21.71,31.35,39,1.89,6.9,2.67,15.62,3.41,22.51-.62-5.79-1.58-11.52-2.74-17.22-4.13-20.25-14.46-41.17-36.47-43.52-.52-.06-.64.85-.12.93,28.37,4.4,34.47,38,37,62.39.14,1.35,2.27,1.93,2.52.35C184,86.38,172,50.8,145.71,44.23Z"/><path class="cls-1" d="M148.35,74.43c-.59-6.93-1.23-13.86-1.48-20.82-.1-2.79.5-6.53-.37-9.19h0a.31.31,0,0,0-.13-.15.27.27,0,0,0-.17-.05.26.26,0,0,0-.18.05.34.34,0,0,0-.13.15h0c-.66,2-.29,4.65-.32,6.74a248.75,248.75,0,0,0,1.33,26.94.89.89,0,0,0,1.78,0,18.35,18.35,0,0,0,.37-3.26A.46.46,0,0,0,148.35,74.43Z"/><path class="cls-1" d="M184.9,115.28c-2.39-6.84-4.58-11.48-4-19.22.13-1.61-2.19-1.79-2.64-.37a48.89,48.89,0,0,1-2.17,6.29c1.2-3.13-.36-8.66-.79-12.46-.16-1.37-2.31-2-2.57-.35q-.58,3.9-1.38,7.76c-2.14,11.07-1-4.4-.94-5.86.08-6.5.24-12.61-.75-19-.21-1.39-2.1-1.1-2.46,0a68.35,68.35,0,0,0-2.86,14.91,246,246,0,0,0-2-26.27,1.06,1.06,0,0,0-2.06,0c-.84,4.27-1.64,8.54-2.12,12.87a94.62,94.62,0,0,0-2.4-20.17c-.2-.78-1.52-.88-1.64,0-.67,4.71-1.19,9.4-1.62,14.13-.32,3.51,1,23.39-.28,11.32-.73-7.15-3.58-21.16.83-27.37.38-.54-.49-1.23-.91-.72-6.43,7.95-2.46,25.44-1.56,34.7.12,1.25,2.11,1.77,2.31.32,1.13-8,4.17-20.28,2.24-27.91,2.45,9.7,1.41,20.41,1.47,30.67-.45,1.36-.43,2.31,0,2.89,0,1.57.13,3.12.27,4.64a1.22,1.22,0,0,0,2.44,0c0-4.38.17-8.74.39-13.11.15-3,.34-26.21,1.65-12.64,1.06,11,.53,22.09,1,33.1.06,1.45,2.28,1.9,2.58.35,1.74-9,1.55-18.28,3.49-27.28-1.91,8.83-1,20,.36,28.91.23,1.45,2.07,1,2.49,0a57.41,57.41,0,0,0,2.38-7.46,55,55,0,0,0,1.46,7.47,1.33,1.33,0,0,0,2.56,0l.08-.21a19,19,0,0,0,.51,4.3c.61,2.27,3.09,4,4,6.53C182.84,117.72,185.5,117,184.9,115.28Z"/><path class="cls-1" d="M116.6,110.23a50.43,50.43,0,0,0-8.76-9.41,59,59,0,0,0-10.72-8.9c-3.42-2.26-13.66-9.64-17.93-5.8-.17.16,0,.42.23.31,4.75-2.63,13.2,2.85,20.23,9.08A40.66,40.66,0,0,0,80.92,91.3a1.51,1.51,0,0,0-.39,2.94c11.34,3.77,22.64,8.45,31.92,15.88,5.66,9.83,7.89,21.26,13.38,31.11.3,2.09.55,4.18.67,6.26.1,1.8,2.84,1.81,2.74,0,0-.38-.07-.76-.1-1.14.55.73,1.12,1.45,1.72,2.15a1.4,1.4,0,0,0,2.38-1C132.85,131.11,126.41,119.18,116.6,110.23ZM129.25,142c-.25-.33-.45-.7-.69-1a74,74,0,0,0-5.79-20.07c.25.35.53.64.78,1a43.21,43.21,0,0,1,4.64,10C128.84,133.81,133.26,147.54,129.25,142Z"/><path class="cls-1" d="M131.72,146.31c-13.43-7.25-24.84-15.64-35.06-27.19a106.63,106.63,0,0,1-7.83-10.42c-1-1.46-10.59-15.53-4-14.13A.14.14,0,0,0,85,94.3C74.9,87.87,86.19,108,87.21,109.67c10.12,16.12,23.56,27.59,39.54,36.89-10.13-.32-18.41-11.16-25.63-17.35C91,120.55,85.58,110.59,80.76,98.43a4.06,4.06,0,0,0-.93-2.34c-.92-1.35-3.39-.56-2.76,1.19,5.29,14.59,12,25.72,23.6,35.7,8.74,7.52,18.06,19,30.73,15.82A1.39,1.39,0,0,0,131.72,146.31Z"/><path class="cls-1" d="M126,147.52a13.69,13.69,0,0,1-1.39-8.2,1.51,1.51,0,0,0-2.73-.87,121.54,121.54,0,0,1,1.86-12.6,1.49,1.49,0,0,0-2.86-.81c-1.61,4.14-3.41,8.19-5.19,12.26.09-7.22.78-14.42.91-21.65,0-1.67-2.51-2.06-2.85-.4a141,141,0,0,1-4.29,15.93,176,176,0,0,1,1.46-22.5c.25-1.76-2.19-2.58-2.68-.75-1.62,6.14-3.3,12.24-5.23,18.26a175.19,175.19,0,0,1,1.46-22.43c.23-1.65-2.09-2.42-2.51-.71-1.16,4.78-2.58,9.45-3.77,14.19a132.24,132.24,0,0,1,.69-15.46c.13-1.42-2.23-1.75-2.43-.34a105.16,105.16,0,0,1-2.13,10.93s-2.19,7.23-2.22,7.17c-1.43-4.35-1.49-9.18-1.82-13.72,0,.36-.74-8.62.11-7.25a.11.11,0,0,0,.2-.08,9.76,9.76,0,0,0-1.16-3.56.62.62,0,0,0-1.15.32c.42,9.52-.15,18.89,2.74,28.06a1.11,1.11,0,0,0,2.14,0c.92-2.54,1.76-5.08,2.54-7.63a75.25,75.25,0,0,0,.74,10.93,1.27,1.27,0,0,0,2.44,0,80.37,80.37,0,0,1,1.73-8.43c-.25,5.4-.31,10.81-.32,16.24a1.35,1.35,0,0,0,2.64.37c1.46-3.92,2.75-7.88,4-11.86-.25,5.45-.32,10.92-.32,16.39,0,1.35,2.08,2.14,2.66.74,1.45-3.51,2.71-7.06,3.83-10.64a134.55,134.55,0,0,0-.17,14.79,1.47,1.47,0,0,0,2.89.4c1-2.59,2.14-5.13,3.26-7.67-.31,2.94-.54,5.89-.6,8.9,0,1.45,2.15,2.2,2.79.78.25-.58.54-1.13.82-1.69a24.64,24.64,0,0,0,1.36,4.14C124.16,150.91,126.76,149.33,126,147.52Z"/><path class="cls-1" d="M104.28,196.29C85.39,170,54.14,169.75,27.91,182.82a1.53,1.53,0,0,0-1.64.87c-1.12.59-2.24,1.16-3.33,1.79s-.68,2.68.67,2.55a38.74,38.74,0,0,1,4.62-.13,18.48,18.48,0,0,0,1.18,1.62v0a1.42,1.42,0,0,0,1.66,1.75c.09.09.18.17.27.25L31,192a1.44,1.44,0,0,0,2.08,1.64l.43-.25c.5.38,1,.75,1.52,1.1,0,.09.06.16.1.25a1.34,1.34,0,0,0,1.34.69,37.4,37.4,0,0,0,5.78,2.9,72.74,72.74,0,0,0,44.62,3,34.06,34.06,0,0,0,9.87-3.67c1.6-.88.2-3.26-1.4-2.47a56.75,56.75,0,0,1-15.64,4.83A77.83,77.83,0,0,1,62,195.58c-9.8-3.79-18.64-8.56-29-10.28v-1.09a1.39,1.39,0,0,0-.42-1c1.29-.49,2.85-1.12,4.77-1.95,7-3,14.62-4.29,22.19-4.78,17.71-1.15,31.7,8.75,44.22,20.25C104,196.94,104.51,196.62,104.28,196.29Zm-61.79-4.35a1.4,1.4,0,0,0-1.11-1.74c3.8,1.15,7.52,2.58,11.21,4.07a1.35,1.35,0,0,0-.32-.07C49.51,194.21,41.65,196.21,42.48,191.94Zm-2.07-1.63c-2.73,1.25-3.15,2.34-4.43-.3a1.35,1.35,0,0,0-2-.41l-.06-.06.81-1a60.66,60.66,0,0,1,6.52,1.58A1.59,1.59,0,0,0,40.41,190.31Zm31.07,10.61A61.74,61.74,0,0,1,46,197.08h6.3a1.45,1.45,0,0,0,.73-2.64C59.18,196.94,65.28,199.51,71.49,200.92Z"/><path class="cls-1" d="M36.47,184.91c-.16-.16-.41.09-.25.25L37,186c.16.17.41-.09.25-.25Z"/><path class="cls-1" d="M97.3,191.9a1.4,1.4,0,0,0-2.43-.22l-.57.81a34.39,34.39,0,0,1-3.84.09,1.29,1.29,0,0,0-1.28,1c-4.61,2.36-3.58.57-.64-7.36.6-1.63-1.92-2.31-2.53-.72a26.89,26.89,0,0,1-4.58,8.93,37.8,37.8,0,0,1,1.51-10.67,1.28,1.28,0,0,0-2.47-.7c-1.32,4.85-2.65,9.68-4.21,14.45.51-1.55-.39-8.61-.59-13.4.06-1.32.1-2.64.13-4s-2.2-1.78-2.45-.34c0,.12,0,.23,0,.34h0s0,0,0,.07a43.62,43.62,0,0,0-.55,8.92,66.21,66.21,0,0,1-1.48,8.44q-4.24,1.61-4-3.29a36.21,36.21,0,0,1-1.44-10.41c.13-2.05.24-4.12.4-6.17.11-1.43-2.26-1.77-2.46-.35,0,.12,0,.23,0,.35h0c0,.12,0,.25,0,.37a42.4,42.4,0,0,0-.3,4.43c-.32,4.79-.59,9.58-.88,14.37.24-4-3-12.68-3.5-16.73-.17-1.55-2.47-1.64-2.42,0,.13,4.29.41,8.57.7,12.85,0-.44-3.49-8.53-4.6-12.17-.29-1.15-.56-2.29-.92-3.45a1.17,1.17,0,0,0-2.26.64c.31,1.2.66,2.36,1,3.52-.47.71-.18,1.84.9,3.43a72.36,72.36,0,0,1,1.21,10.57c-.3-4.57-4.72-9.92-5.72-14.87-.28-1.4-2.36-.81-2.08.59s.52,2.64.74,3.75a.54.54,0,0,0,0,.09c0,.13.07.27.1.41,3.61,18.27-.59-3.21-9.47-3.74a.14.14,0,0,0-.13.17l.21.67c0,.06.11.05.11,0,.19,2.23,8.86,10.58,10.31,12.71a.9.9,0,0,0,1.68-.47c0-.87,0-1.73-.06-2.6,1.39,2.56,3.06,5,4.56,7.26a1.13,1.13,0,0,0,2.09-.58c0-2.21-.17-4.37-.35-6.52a56.31,56.31,0,0,0,3,5.49,1.18,1.18,0,0,0,2.2-.61c0-.3,0-.6,0-.91A34.73,34.73,0,0,0,62.32,202a1.26,1.26,0,0,0,2.34-.65c.18-2,.28-4,.42-6a47.31,47.31,0,0,0,3.62,9.12,1.23,1.23,0,0,0,2.13,0,33.53,33.53,0,0,0,2.93-7.23c.33,1.49.68,3,1.15,4.48a1.26,1.26,0,0,0,2.43,0c.52-1.37,1-2.75,1.48-4.13,0,.18,0,.35,0,.52A1.3,1.3,0,0,0,81,199a40.05,40.05,0,0,0,2.78-3.67c-.08.63-.16,1.24-.25,1.91-.13,1.07,1.21,1.62,2,1.17,3.12-1.79,4.26-3.69,3.61.92-.18,1.26,1.21,2.41,2.24,1.33.43-.46.82-.9,1.22-1.34a.63.63,0,0,0,.12-.05A22.2,22.2,0,0,0,98,193.91,1.37,1.37,0,0,0,97.3,191.9Z"/><path class="cls-1" d="M89,248.35a53,53,0,0,0-27-.91,42.82,42.82,0,0,0-13.69-1.72c-13.4.28-26.52,5-36.18,14.29-.67.42-1,.79-1.05,1.14-.92.94-1.85,1.87-2.7,2.9C7.26,265.4,9,267.2,10.23,266c.94-.88,1.9-1.73,2.88-2.55a30.67,30.67,0,0,0-3.39,4.15,1.41,1.41,0,0,0,.81,2c14.15,5.23,51.59,7.9,66.4-6A27,27,0,0,1,79.15,266c1.15,1.39,3-.61,1.94-2-.48-.6-1-1.15-1.47-1.7l.39.37c1.19,1.2,3-.67,1.82-1.87-.5-.5-1-.93-1.46-1.4A18.48,18.48,0,0,0,82.93,252a1.22,1.22,0,0,0-2.08-.89,43.17,43.17,0,0,1-4.45,4.72,42.87,42.87,0,0,0-11.25-7.18,64.07,64.07,0,0,1,23.62.43A.36.36,0,0,0,89,248.35Zm-40,5.12c8.17.23,16.26,2.21,22.73,6.17C57.74,269,40.73,267,23.31,266.41c5.58.2,17.18-9,22.43-11.54C46.8,254.36,47.86,253.93,48.92,253.47ZM46.1,270a121.75,121.75,0,0,1-22.17-.33,66.79,66.79,0,0,1-9.31-1.61c-4.6-1.08,5.62-7.2,7.76-8.47C28.33,256.08,36,254,44,253.52c-8.64,3.84-17.13,8.63-25.72,13a1.15,1.15,0,0,0,.55,2.11c17,.29,34.22,3.33,50.29-3.87a29.27,29.27,0,0,0,5.2-3.28l.21.17a22.14,22.14,0,0,1-2.39,1.91C64.71,268.25,54.53,269.26,46.1,270Z"/><path class="cls-1" d="M58.55,252.48c-10.92,2.94-20.62,9-30.61,14.21-.88.47-.25,2.05.68,1.66l.21-.09h0c3.95-1.63,7.82-3.43,11.61-5.43a.28.28,0,0,0-.21-.51l-.83.27a186.87,186.87,0,0,1,19.29-9.5C59.07,252.93,58.94,252.38,58.55,252.48Z"/><path class="cls-1" d="M69.65,256.39c-7.34,2.16-14.38,5.18-21.48,8,5.56-3,11-6.08,16.31-9.51.5-.32.17-1.25-.42-1a23.5,23.5,0,0,0-4,1.85.32.32,0,0,0-.14.37c-.19.09-.39.18-.59.28-3.2,1.67-6.36,3.4-9.57,5.06-5.64,2.92-11.38,5.64-17.09,8.4-1,.5-.3,2.2.77,1.88,9.58-2.76,17.89-8.18,27.1-11.92a43.9,43.9,0,0,1,7-2.12c1.26-.27-4.22,2.73-3.73,2.43-4.9,3-10.19,5.28-15.22,8-1.06.58-.33,2.41.82,2,1.94-.68,3.87-1.43,5.79-2.2a1.2,1.2,0,0,0,1.4,1.49c4.36-.84,8.07-2.18,10.94-5.41.67-.44,1.34-.87,2-1.37.9-.68.4-2.25-.79-1.92-1.82.51-3.61,1.1-5.39,1.73a41.31,41.31,0,0,0,6.79-5.27A.49.49,0,0,0,69.65,256.39Z"/><path class="cls-1" d="M61,252.7a.08.08,0,0,0,0,.17c4.71.19,8.19,2,11.78,5a.22.22,0,0,0,.31-.32C70.09,254,65.46,252.68,61,252.7Z"/><path class="cls-1" d="M97.94,324.88c-.45-.32-.89-.58-1.34-.86,0-.35.06-.68.06-1a1.42,1.42,0,0,0-2.76-.47c-25.59-12.16-50.33,33-57.26,52.34a1.37,1.37,0,0,0,1.3,1.75c12.45-1.36,24.28-7.15,34.25-15.49,15.88-6,29.41-17.47,24.42-35.25,0-.07-.07-.09-.1-.15s0-.09,0-.14c.26.14.52.26.79.42C98,326.41,98.6,325.35,97.94,324.88Zm-4.64-.75c-7.73,21.9-24.8,37.8-48.22,38.18C53.77,345.18,72.41,316.57,93.31,324.12ZM47,372.1c-3.76,1.28-8.44,4.76-5.79-1.62.76-1.82,1.62-3.59,2.48-5.36a.86.86,0,0,0,.15,0,1.35,1.35,0,0,0,1.26.91c.9,0,1.85,0,2.81,0s2.1-.09,3.15-.18a79.35,79.35,0,0,0,12.66-2.12A66.43,66.43,0,0,1,47,372.1Zm33.53-18A42.49,42.49,0,0,0,94.69,334.8C94,343.15,88.24,349.51,80.53,354.06Z"/><path class="cls-1" d="M90.21,335.41a29.25,29.25,0,0,1-4,4.77c.61-4.6,2.81-8.44,5.14-12.58a1,1,0,0,0-1.77-1.06c-4.7,6.29-8,13.54-12.3,20,3-7.27,7.08-14.07,9.24-21.73a.87.87,0,0,0-1.45-.86c-7.25,8-11.75,17.81-16.76,27.32,2.55-8.1,6.21-15.84,8.64-24a.85.85,0,0,0-1.54-.67c-3.67,5.88-7.39,11.73-10.87,17.72,1.94-4.55,3.93-9.09,5.85-13.64.3-.72-.52-1.54-1.13-.89a103.49,103.49,0,0,0-12.7,17.68c1.58-4.29,3.15-8.58,5-12.76.31-.72-.68-1.35-1-.63-4.29,8.69-7.37,17.94-11.57,26.69a1.1,1.1,0,0,0,1.89,1.13c2.92-4.89,5.38-10,8.06-15.06,2.57-4.83,7.25-9.91,9.13-14.26-4.71,10.87-10.57,21-13.74,32.51a1.22,1.22,0,0,0,2.35.67c4.17-11,9.85-21.31,15.94-31.31-3.28,8.2-7.16,16.09-8.7,24.94a1.18,1.18,0,0,0,2.15.93c5.81-9.61,9.83-20.21,15.89-29.66,6.68-10.41-1.76,4.9-3.1,7.38a68.26,68.26,0,0,0-6.21,14.81,1.21,1.21,0,0,0,2,1.19c3.86-4.25,6.66-9.18,9.4-14.16a20.53,20.53,0,0,0-.25,3.5,1.26,1.26,0,0,0,.7,1c-.38.58-.76,1.16-1.11,1.76a.89.89,0,0,0,1.38,1.09,36.81,36.81,0,0,0,7.59-10.61A1.22,1.22,0,0,0,90.21,335.41Z"/></svg>