<svg id="Layer_1" data-name="Layer 1" xmlns="http://www.w3.org/2000/svg" viewBox="0 0 420 470"><defs><style>.cls-1{fill:#236003;fill-rule:evenodd;}</style></defs><title>svge_biofuel</title><path class="cls-1" d="M371.64,175Z"/><path class="cls-1" d="M306.81,215c-5.08-7.63-15.23-12.63-18.42-21.23C293.82,200.85,306.56,206.88,306.81,215Z"/><path class="cls-1" d="M301.12,226.59C292.37,217,280,208.2,270,198.55c-2.83-2.74-7.76-5.91-6.92-9.74,7.41,1.11,8.81,9.06,14.73,12.89,2.11,1.37,5,1.59,7.15,3a89.18,89.18,0,0,1,19.81,18.47C303.79,224.6,302.13,225.15,301.12,226.59Z"/><path class="cls-1" d="M293.79,239.06c-22.7-19.54-52.54-40.67-76.72-60.86-7.1-5.93-17-11-19.52-19.64,18.37,7.49,31.49,21,46.59,31.81,7.72,5.53,16.11,10.42,23.23,16.21,10,8.11,18.64,17.74,31.68,22.6C299.88,233.41,295.25,236.16,293.79,239.06Zm-6.5-11.5Zm-53.13-40.24c15.21,13.84,34.06,28.55,51.92,39.32C271.68,213.72,253,197.77,234.16,187.32Zm-1.6-2.25Zm-.54-.75c-3.19-3.36-2.16.5,0,0Zm-5.94-2.06c-4.23-4.47-3.27-.53,0,0Zm-6.56-5.32Zm-2.42-1.83Zm-7.78-6.24c2,.44,4,5.42,5.79,2.65C213,171.07,211.14,167.81,209.33,168.87Z"/><path class="cls-1" d="M260.77,280.61c-3.25-1.4-5.74-3.19-9.7-4.23-11-13.44-33.68-20.89-38.81-37.36,4.49-14.36,3.69-31.61,11.44-38.13,25.47,13.86,48.32,29.06,65.78,47C286.46,268.07,272,272,260.77,280.61Zm16.83-25c-12.5-2.41-19.49,2.94-30.64,2.45-6.54-4-10-9.23-9.82-15.42,7.3-3.6,20.56,1.18,26.19-4.77-12.23-7.87-21.22-20.13-37.76-24.08-1.78,11.55-9.87,26.1-2.73,34.67,10.31,8.35,20.92,16.54,31.93,24.52C264.17,270.23,282.66,268.82,277.6,255.57Zm-1.13-7.1c-.54.28.35-.17,0,0Zm-12.78,26Zm2.08-26.15c1.39-.25,1.83,2.31,2.7.66C268.1,248.74,266.23,246.92,265.77,248.35Zm-1.21-.91Zm-9.14,5.21a2.41,2.41,0,0,0,3.52.23C256.75,252.66,256.52,250.84,255.42,252.65Zm-2.17.09c-3.82.56,2,2.08,0,0Zm-27.9-44c-2.83,0,2.5,1.33,0,0Zm-3.31,4.78c-.66,3.93-3,9.86-.93,9.69C221,221.31,224.7,216.29,222.05,213.51Z"/><path class="cls-1" d="M287.57,194.15c-2-1.72-5.79-2.49-5.08-5.58C283.89,190.58,288.27,191.05,287.57,194.15Z"/><path class="cls-1" d="M238.63,383.08c-.44,1.48-2.55.62-4.33.19C235.17,382.39,236.73,382.49,238.63,383.08Z"/><path class="cls-1" d="M222.23,438.6c2.5,1.33-2.83,0,0,0Z"/><path class="cls-1" d="M281.67,189c-.63,1.39-2.63-.6-1.74-1.67C281.5,187.37,280.63,188.68,281.67,189Z"/><path class="cls-1" d="M273.61,216.16c-.34.7-1.48.27-1.35-.32C272.77,215.06,272.85,216,273.61,216.16Z"/><path class="cls-1" d="M271.06,214.92c1.54,2.16-1.53-2.17,0,0Z"/><path class="cls-1" d="M269.18,213.84c2.5,1.33-2.83,0,0,0Z"/><path class="cls-1" d="M228.9,382c-.73,1.85-3.66.61-5.83.44C225,380.54,225.42,381.55,228.9,382Z"/><path class="cls-1" d="M217.81,380.49c-3.16,1.43-11.47-1.45-14.46-2.28C206.41,376.49,213.08,379.86,217.81,380.49Z"/><path class="cls-1" d="M169.09,421.92c-5.65-.34-11-5.25-16-7.62C158.81,414.59,164.22,419.48,169.09,421.92Z"/><path class="cls-1" d="M154.31,412.12c2.28,2.09-2.45.31,0,0Z"/><path class="cls-1" d="M151.23,410.13c-.46,1.43-2.33-.39-2.71-.66C149.39,407.82,149.83,410.38,151.23,410.13Z"/><path class="cls-1" d="M146.1,407.64c-10.69-5.42-20.06-16-25.14-26C128.38,390.82,136.28,399.73,146.1,407.64Z"/><path class="cls-1" d="M153.49,292.27c-2.67.16-4.73,1.19-8,.53C147.29,291.62,151.63,290.83,153.49,292.27Z"/><path class="cls-1" d="M127.19,370.79c-1.57,0-.69-1.35-1.74-1.66C126.08,367.73,128.08,369.73,127.19,370.79Z"/><path class="cls-1" d="M124.14,365.71a5.79,5.79,0,0,1-3.58-5.84C122.05,361.66,123.75,363.35,124.14,365.71Z"/><path class="cls-1" d="M140.63,292.23Z"/><path class="cls-1" d="M119.91,380.18c-.48-.78-2.45-.79-1.61-2.25Q120.56,378.3,119.91,380.18Z"/><path class="cls-1" d="M111.14,366.25c3-.9,3.07,2.07,2.66,3.75C111.92,369.27,112.81,367.1,111.14,366.25Z"/><path class="cls-1" d="M124.89,295.21A114.54,114.54,0,0,1,111,302.36c-3.74,3.65-5.5,10.07-9.64,13.15C103.64,300.92,113.72,297.31,124.89,295.21Z"/><path class="cls-1" d="M101.6,381.9c1.15,2.37-1.92-2,0,0Z"/><path class="cls-1" d="M81.56,370.2a136.51,136.51,0,0,0,11.31,26.94c-.34,1.5-.67.59-1.49.26C88.7,388,80.19,381.66,81.56,370.2Z"/><path class="cls-1" d="M95.18,364.23c-4.18-6.38-5.25-14.36-6.77-22.11C91.55,349,93.19,356.73,95.18,364.23Z"/><path class="cls-1" d="M48.6,36.06c2,1.21-2,.22-2.84-.07C43.74,34.78,47.74,35.77,48.6,36.06Z"/><path class="cls-1" d="M410.8,325.25c-.74,2.11-3.48,1.38-3.31,4.78-11,3.91-13.1,16-20.06,23.62-9.05,10-20.71,17.82-30,26.17-.4,1.28.4,5.78.85,8.26-12.77,5.35-24.33,12.39-36.65,18.35.92,3.79,7.68,4.58,7.88,8.74-6.58,6.23-16.26,9.53-25.35,13-12.66,4.87-24.22,10.35-39.43,12.09,0,2.93,4.1,6.4,3,8.17-.6,2.3-4.88-.58-4.37,3.27-13.82-.86-25.69,1-41.54-2.68-1.43,2.78.72,3.72-.07,6.18-6.91,1.18-17.9,1.73-25.7-3.17-3.88,3.57-.66,5.7-.93,9.69-17.39.49-33.62-4.71-50.11-11.6-2,.11-.53,5-3.16,4.19C126.56,445,107.48,438,94.27,426.62c-3.83-3.31-9.09-9.92-18-11.21-3,1.88.64,5.82-1.85,7.6-11.16-11.57-23.28-27.44-27.76-44.58-3.33-12.79-6.37-24.51.64-40.76,3.27-7.56,9.73-14.75,15.16-21.11-3.58-16-18.74-28.24-27.22-43.83-3.25-6-5.9-14.16-8.92-22a109.23,109.23,0,0,1-7.4-37.14c-.3-9.48-1.13-18.7,1.73-30.58,2.52-10.43,6.8-21.15,10.55-31.52,3.49-9.69,11-18.07,17.26-26.8,5.78-8,9-16.33,17.72-19.85C70.79,96.61,78.23,94,86.55,88.72c4.63-2.93,20.12-9.54,19.7-16.28C106,67.72,96.7,65.86,91.87,64,81.47,59.91,70.5,54,58.72,50.31c-15.49-4.82-29-5.06-43.39-6.86-5-5.93-4.4-13.3-5.86-20,6.87-1,14.2,1.65,22,3.51s19.76,5.17,25.26,4.92,8.79-5.33,12.7-8.06c15.88,2.74,31.59,15.53,44.94,24,6.45,4.09,15.32,12.75,23.65,14.45,5.63,1.15,17.32-1.79,25.63-2.43,21.4-1.65,43.09.3,64.3,3.27,21.87,3.07,51.56,9.93,73.16,19.69a253.49,253.49,0,0,1,60.59,39c16.9,14.63,34.82,27.73,40.29,48.88,13.31,20.32,19,57.2-1,80.36-6.73,7.8-17.92,17.36-26.65,18.3-2.12.24-4.82-.72-7.7-.64-1.95.06-4.13,1.07-6,1-14-.36-29.73-8.15-42.06-15.22-8.53,4.75-11.14,17.85-22.44,18.71-12.09,8.63-28.31,11.48-41.14,19.1-17.16-11.81-29.57-26.07-49-36.74-1.66-2.73-1.87-6.2-3.55-8.93,3-16.36,3.75-28.09,2-43.52-5.87-6.47-13-14.7-22.95-17.38.26-7.3-4.53-12-7.91-17.43-.87-3.66-1.16-7.87-2.15-11.69s-3.68-7.16-3.27-10.09c-6.64-9.93-20-25.85-6.43-38.14-8.29-6.31-15.69-13.09-24.68-19-2.84-.85-3.26,1.69-5.44,1.77-10.15-1.58-23.26,8-31.85,13.31C68,124,45.84,155,38.25,204.65,32.53,242,47.1,271.94,65.82,296.93c7.73-3.59,4.4-14.58,7.3-21.16,4.66-10.59,16.12-24,25.29-30.41,21.31-14.85,55.8-10.9,82.7,4,5.6,3.12,9.22,9.2,14.45,14.07,2.92,2.73,6.86,4.32,9.12,6.56,12.19,12.1,21.21,26.39,32.59,36.47,15.34,9.47,36.94,21.74,58.76,23,.08,3.51-3.52,1.85-3.45,5.36,9.15,0,19.55,1.69,28.29,1.32,3.85-.16,7-2.49,10.3-1.21,2.67,1.87,2.83,5,1.38,9,9.87,1.58,15.66-2.58,23.75-3.51,1.21-.92,1.45-3.18,2.49-4.35,2.37,2.87,8.56-.41,8.06,5.07,2.55-4.77,15.55-5.67,21.8-10.19,2.19.23,1.29,2.45,3.24,1.41,5.49-2.22,8.25-8.29,13.41-11C407.64,322.44,407.93,324.51,410.8,325.25ZM381.6,354.09c3.46-3.52,8.8-8.57,9.65-13.15C387.19,343.62,382.45,349.51,381.6,354.09Zm-17.67,16.77c-3.77-.33-4.16,4.11-8,3.62.2-1.12-2.14-1-1.59-2.25-.52-2.21,4.95-2.6,2.23-6.28,14.12-7.31,24.18-18.45,36-30.28-8.12,4.81-18.69,6.17-27.48,10-1.89-2.2-2.22-2-4.83-3.66-9.63,3.73-18.63,8.35-29.65,10.14-3.12-4,.66-10.14.73-14.71-3-.6-2.84,3.33-5.73,2.94-11,.52-24.9,6.82-38.34,1.81,0-.87-.87-1.26-.93-2.08.42-3.6,3.21-3.87,3.89-7.11-4.3-2-9.72-.86-13.94-1.53-14.34-2.32-26.5-10.45-33.25-16.17-8.26-7-13.38-10.83-21.3-18.21-4.52-4.22-10.62-7.64-14.35-11.56-1.81-1.9-2.44-4.68-4.12-6.59-6.67-7.59-20-15.94-29.26-20.77-4-4.56-12-7.87-18.29-10-24.66-8.56-45.26,3.2-58,15-1.3,6.49-7.56,9.12-10.07,14.9-5,11.49-5.61,25.31-6.83,36.77,17.35,18.37,42.53,32.71,72,44.84-2,1,.43,1.49.77,2.67,5.18.92,7.05,3.54,11.73,4.72,1.74.87.2-2.88,1.93-2,3.49,8.44,28,6.08,34,13.24-3-1.72-18.29-4.44-27.82-6.16,13.65,11.41,31.24,20.78,47.56,30.81,5.24.7,8.85,3,11.87,4.13,6,2.21,14,1.84,15.63,6.3-36-8.49-60.68-26.64-81.38-44.64a461.29,461.29,0,0,1-51.2-21.79c-1.38,5,4.78,8.8,3.51,12-2.31-4.15-8-9.12-5.92-13.84-3.52-1.44-6.12-3.33-9.56-4.81-.41,7.89,2.79,13.93,5.85,20-.42,5.39,2.76,12.32,6.3,15.18-.91-.38-.45-1.47-.92-2.08,1.83,2.1,2.44,3.94.74,5.76-4-2.21-3.86-6.54-6.25-9.58,1.56,11.87,13.85,13.07,14.88,24.09-12.67-11.06-18.81-25.47-23.74-40.51.12-1.14,1.08-1.1,1.24-2.17-5.47-6.06-3.52-15.94-13.84-19.49-11.26,8.18-7.44,27.89-7,37.36-5.82-11.9-4.23-32.13,4.69-39.77-2.74-1.5-3.68-1.25-6.22-.9C75.11,337.27,69,348,67.75,359.4c-1.07,9.57,3.13,18.13,2.53,24.8-8.49-15.79-2.39-40.81,6.27-58-1.61,3.26-6.45,3.34-8.74,6.54-6.79,9.49-3.12,28-5.61,37.7C64.94,378.08,66,386.59,71,393c1.84-2.51-1.67-4.91.76-6,21.15,13.34,33.36,37.53,60.19,49.39,6.32,2.81,11,3.1,16.59,5.29,3.57,1.4,6.62,4.3,10.09,5.56,8.77,3.18,16.69,1.29,25.41,4.33-.21-3.48-1.79-6.24-3.55-8.92-2.41-2-6.1,1.18-6.46-2.82,6.56-1.32,9.08,4.89,14.18,3.45q-2.54-.48-3.09-2c10.58,1,21.35,7.34,33.11,5,.34-3.41-1.69-5.62-2.19-8.6,2.25,4.08,11.91,7.12,17.26,5.45-4.23-.72-7.27-2.06-9-4.06a40.28,40.28,0,0,0,34.54-.88c-.93-1.43-3.15-4.84-.6-6.34,3.53.23,1.74,3.19,4,4.07,1.44-2.62-1.5-3-.06-5.6,22.62.14,40.35-6.59,56.66-15.32.26.89,1.18,1.44,2.42,1.83,1.4-1.17,2.24-3.13,3.84-4-4.09-2.58-6.5-6.11-9.51-7.9,3.26-.79,2.67-2.11,4.13-5.2,9-6.74,21.18-8.95,31.85-13.31.76-2.26-2.44-2.49-1.7-4.75C354.8,378.44,359,374.19,363.92,370.86Zm15.89-15.35c-1.83,1.91,2.55-2.66,0,0ZM359.59,371c5.24-6.26,15.14-10.11,17.81-17.35C372.44,360.13,360.63,364.18,359.59,371Zm10.87-112a24.36,24.36,0,0,1,15.65-5.49c2.24-6,9.06-8.13,12.34-12.49,6.25-8.34,8.29-23.83,7.88-35.27-1.07-29.79-26.22-59.19-49-77.67-6.8-5.51-15-9.45-19.57-16.55C299,87.27,243.4,68.59,194.89,66.77c-5,2.18-17.12-1.58-16.47,5.91,9.79-.88,21.25.25,30.32,1.81,9.89,1.7,20.92,1.23,30.7,3.14,23.37,4.59,51.22,14.93,68.89,25.48,13.65,8.16,26.59,13.94,34.66,22.09a33.06,33.06,0,0,1,14.6,13.48c25.57,22.25,51.21,56.65,36.59,96.34-9.6,11.9-20.12,22.49-43.66,14.77-4.34-2.73-11.38-9.64-16.45-5.87C334.08,256.47,357.78,258.31,370.46,259Zm-3.36,107.67c1.72.28,4.4-2.11,3.55-2.85C369.57,364.92,367.92,365.22,367.09,366.67Zm-1.11,1.6c-1.83,1.9,2.54-2.66,0,0Zm23.6-155.45c0-1.82-1.06-4.26-1.27-6.51-1.2-12-6.72-26.59-16.32-38.7-19.35-24.43-41.6-46.89-77.77-62.36-7.56-3.23-15.06-7.24-22-9.69-7.82-2.78-17.31-4-25.51-6.85C235.55,84.89,222.84,82.91,210,81c-14.85-2.21-32.71-3.24-42.94.07,6.52,2.55,9.59,10.81,16.22,12.63,4.89,1.35,9.06-1.72,15.18-.64a1582.48,1582.48,0,0,1,142,115.84c1.59,6.33-3.82,15.07-7.3,21.15C354,251.76,389.31,243.9,389.59,212.82Zm-64.5,188.24c3.48-1.92,7.6-2.93,10.63-5.46C331.31,395.69,325.44,397.88,325.08,401.07Zm13.27-54.42Zm-2.31.68Zm16.69-100.71c1.15.21,6,1.81,4.2.41C355.79,246.81,350.89,245.21,352.73,246.62Zm7.41-94.91c-1.67-2.1,1.4,2.23,0,0ZM288.7,430c.64,0,3.72-.33,1.78-1.43C290.77,429.93,286.76,428.92,288.7,430Zm4.38-91.31c6.73.29,14.18,1.63,19.38-.24C305.89,337.88,295.28,335.76,293.08,338.71ZM278.25,431.8a10.77,10.77,0,0,0,7.47-1.27C283.22,430.94,279.46,429.57,278.25,431.8Zm49.47-200c0-.5.27-1.16-.39-1.34C327.38,231,327.08,231.66,327.73,231.84ZM324.56,236ZM269,434.51c2.26-.23,5,.29,6.11-1.61A9.58,9.58,0,0,0,269,434.51ZM42.81,33.42c-.42-.07-.82-.11-.82.42.62,0,1.42.59,2,.5-3.59.57-13.67-4.79-17.83-3.12-.34,1.37-.67,2.73-1,4.1C51.07,41.94,72.9,45.83,98.34,55c1,1.36,3.15,2.14,4.16,3.5,15.44,3.56,20.11,14,33.79,16.92,9.83,12.54,30.63,19.74,41.31,33-4.39,1.93-4.94,10.54-11.39,11.49a159.23,159.23,0,0,1,17.37,52c10.32,6.28,20.47,12.67,28.73,20,1.61,17.9-3.19,35.3-4.6,54.06,10.31,8.3,24.86,19.54,36.61,28.77,7.37,5.78,12.28,13.2,21.57,8.35,1.29-1.69-2.08-1-.78-2.66,29.43-12.49,52.78-34.52,63.42-69.48-1.11-5.05-7.75-7.28-8.37-12.58-14.09-11.71-29.26-27.21-44.35-38.1-5.55-4-11.64-7.34-16.37-12.05-13.6-13.49-29.75-25.72-45.85-37.84-5.94-4.48-11.62-9.13-17.19-11.63-4.55-2-8.56-.38-13.25-1.37-5-1-6.06-3.62-9.95-6.15-2.3-1.5-5.21-1.91-7.67-3.73-2-1.47-3-3.93-5.07-5.58a147.43,147.43,0,0,0-31.19-18.76c-7.46-7.5-21.54-13-32.68-18.51-10.07-5-18.69-11.27-29.63-13.43-1.44,2.45,2.67,2,1,4.59-3.58,3.78-11.35,5.25-18.31,1.73,1.05-.57,2.32-.65,1.25-2.17C47.4,34,45.09,35.23,42.81,33.42ZM327,202.52c-1.66-2.1,1.41,2.23,0,0Zm-17,52.27Zm-44.37,182c-2.83,0,2.5,1.32,0,0Zm-4,4.61c-.54.27.34-.18,0,0Zm-13.72,3.47c1.43,1.82,11.73,3.76,12.87,0C257,442.76,250.3,442.61,247.89,444.86ZM274.4,327.33ZM238,447.4c-5.34-.53,6.52,2.5,7,.48C242.06,447.76,241.26,447.16,238,447.4Zm11.92-131c2.53,5,15.83,9.9,21.14,10.12C262.41,324,257.52,319.47,249.89,316.39Zm54.75-209.84c-2.84,0,2.5,1.33,0,0ZM219,445.88c1.66.51,2.34-.38,3.13-1.09C220.12,443.75,219.83,445.17,219,445.88Zm-4.56,7c1.28.23,2.35.16,3-.51C216.24,452.16,214.22,450.9,214.48,452.83Zm82.34-349.43c-.54.28.35-.17,0,0Zm-1.21-.91ZM210.46,448.75c-.53.28.35-.17,0,0ZM209,449c-2.82,0,2.51,1.33,0,0Zm57.21-299.13c1.33.51.93,1.91,2.28,2.41C269.32,150.93,266.55,148.91,266.18,149.88ZM190.88,444c-.88,1.33,3.53,2.52,5.27,1.9C193.54,445.69,193.49,444.18,190.88,444Zm.21,5c-1,1.74-2.71,2.46-3.31,4.77,1.23.56.81,2,3.1,2C191.84,453.14,193.44,450.88,191.09,449Zm72.13-301.7Zm-.68-.17c0-.49.27-1.16-.38-1.34C262.2,146.29,261.9,147,262.55,147.13ZM217,289.78c-.91,1.22,3.11,2.18,1.21.92C217.73,290.23,215.73,288.22,217,289.78ZM160,453.19c.87.3,4.86,1.28,2.85.08C162,453,158,452,160,453.19Zm-13-8.14c1.81,1,6.52,3.11,8,2.56C152.81,446.83,149.69,443.87,147,445.05Zm-5.69-.14c2.4,1.37,3.8,2.76,6.61,2.23C146.58,446.27,142.16,444.34,141.31,444.92ZM229.54,68.41ZM125.15,437.87c4.06,1.53,11,6.36,13.74,5.22C134.27,441.06,128.72,436,125.15,437.87ZM164,246.47c4.76,3.52,11.48,8.76,16,10.71C175.17,253.48,169.94,246.36,164,246.47Zm-13.33,113.3c-4.82-2.1,2.3,1,0,0Zm63.1-294Zm-3.52-.24c-2.83,0,2.5,1.33,0,0Zm-6.27,14a1.93,1.93,0,0,0,2.32-.68A1.93,1.93,0,0,0,203.94,79.52Zm-67.06,275c-2.83,0,2.49,1.33,0,0ZM206.69,65.31ZM135,353.47c-2.83,0,2.5,1.33,0,0Zm7.6-110.36c5-.73,12.25,3.72,16.35,3.37C154.38,244.87,147.51,240.64,142.59,243.11ZM196.82,64.76c-3.87-1.46,2.62,1,0,0Zm-115.07,334c5.94,9.92,15.34,20.77,28.13,25.46C99.36,416.32,91.43,407.1,81.75,398.77ZM189.05,79c.2-.77,1.32-.25,1.64-.84C189.46,77.14,187.25,78.28,189.05,79Zm-8.63-14.5c4.07,1,11,1.84,10.84-.46C188,64.62,183.78,64,180.42,64.49ZM120,241.94c5.44-1.77,13-.6,18.45-2.32C131,238,121.73,238.09,120,241.94ZM171.39,72.21c3,.79,4.16-1,4.52-3.86C173.52,68.22,170.13,69.66,171.39,72.21ZM125.25,243.85c1.28.22,2.35.17,3-.52C126.74,242.79,125.66,242.86,125.25,243.85Zm-7.36,3.78c-6.48-2.38-14.59,3.41-15.15,9.33,3.81-8.88,18.26-6.67,21.83-13.28-2.6-.26-3.85,1.4-6.65.86C117.15,246.29,119.87,246.66,117.89,247.63ZM101.36,336c-.54.27.34-.18,0,0ZM165.07,68.81c-2.54,1.47,2.06,2.38,0,0ZM96.92,333.64c1,.4,2.6,3,3.91,1.58C99,335.23,98.68,332,96.92,333.64ZM78.51,409.14ZM111,243.48a54.42,54.42,0,0,0,7.61-1.86A9.66,9.66,0,0,0,111,243.48ZM74,404.31c-.54.27.34-.18,0,0Zm-1.71,7c0-.49.27-1.15-.39-1.33C71.9,410.49,71.6,411.15,72.25,411.33Zm-11.73-37c-.74,4.48,2.69,9.53,1.2,12.69-3.79-3.68-2.36-12.77-6.46-14.59,1.29,10.46,6.4,21.92,16.89,24.58C65.9,391.06,64.07,380.06,60.52,374.38Zm4.67,27.8c1.23.12,1.42,3.26,2.42,1.83C66.85,403.63,66.66,400.49,65.18,402.17Zm-1.41-5.93c-.12,1.42.08,2.69,1.31,3.42C65.19,398.25,65,397,63.77,396.24ZM91,267.1c3.95-1.59,8.94-9.83,8.15-12.89C96.11,257.58,90.66,261.69,91,267.1Zm-12.45,54c-.54.27.34-.18,0,0Zm6.18-40c0-1.91,1.59-1.44,1.53-3.35C84.28,276.38,83.67,280.81,84.7,281.08ZM83,285c-.54-1.92,2.56-2.53.85-3.51C83.25,281.77,81.59,284.39,83,285ZM70.44,327.81c.56-.78,1.36-1.23,1.92-2C71,325,69.06,327.28,70.44,327.81Zm11.5-53c-.38-1.25,2.49-1.46.57-2.35C82.22,272.79,80.28,274.32,81.94,274.82ZM57.73,359.43c-1,3.42.06,5.77.84,8.27C59.7,364.21,59.15,361.6,57.73,359.43Zm7.81-29.09Zm2.9-14.8Zm-8.74,27c-.81,3.82-2.29,8,.42,10C59.49,347.85,61.87,345.13,59.7,342.56Zm3.49-8.45Zm-5.71,23.41Zm19.45-82.67Zm-1.29,5.26c-.05-1.91,1.59-1.43,1.53-3.34C75.22,275.41,74.61,279.84,75.64,280.1Zm-15,61.44c1.48-.19.9-2.92-.4-1.34.41.14.78.29.54.76C60.43,340.87,59.93,341.25,60.66,341.55ZM123.3,84.66c0-.49.27-1.16-.39-1.34C123,83.82,122.65,84.48,123.3,84.66Zm-54.83,216c.57-.78,1.36-1.23,1.93-2C68.47,298.08,66.2,299.74,68.47,300.67ZM113.84,82.36c3,.19,2.91,1.91,5.12,2.48C120.39,82.71,114.94,81.49,113.84,82.36ZM51.27,356.62c.13,1.12-1.67,3.24-.19,3.67A2.24,2.24,0,0,0,51.27,356.62ZM108.62,89.14c-2.62-1.25-2.74-.6-6.08-1.48C90,94.36,78.2,102.12,68,112.09c1.37,4.27-4.94,3.78-2.25,6.27-1.71.94-2.05-1-3.52-.24-.29,5.18-5.31,7.63-7.86,11.72-4.59,7.34-6.95,16.05-10.86,24-7.1,14.41-14.87,33.17-13.37,51.91C39.76,147.48,69,102.39,116.22,87.27c-1.28-1.74-7-3.95-8.25-1.39A1.73,1.73,0,0,1,108.62,89.14Zm-53,243.74Zm-9.81,25.51ZM27.49,231.17c-.33,2.22-.22,4.21,1.56,5.34C28.32,234.83,29.59,232.13,27.49,231.17Zm-1.62-10.94c.89,2.44-.9,6.26,1.66,7.85C28.07,225.23,27.48,220.28,25.87,220.23ZM50.3,128.86c-2.83,0,2.5,1.33,0,0Zm-1.14,4.68c1.7-3.56-1.75-1.79,0,0ZM26.3,218.48Zm-.11-2.5c-.54.27.34-.18,0,0ZM63.53,33.51a.6.6,0,0,0,.29-1.17C63.73,33,62.62,33,63.53,33.51ZM18.36,39.84c1.48-2.92-1.88-1.19,0,0Zm-.95-10.77c-.1.39-.19.78-.28,1.17.67.16.68.67,1.21.91.21-.74,1.06-.6,1.09-1.59Z"/><path class="cls-1" d="M304.82,375.66c-2.26,2.57-6,1.13-9,1.54-14.34,2-27.64,8.08-44.5,6.5-.74-.3-.23-.68.14-.58C270.71,382.66,284.81,375,304.82,375.66Z"/><path class="cls-1" d="M210,330.24c-6.74,4.48-17,5.75-27.05,8.28-6.54,1.65-12.21,6.48-18.77,6.58-7.08.11-14.15-1.73-20.44-1.27s-12.28,3.82-20.33,1.25c10.38-.94,20.64-4,31.6-3.45,4,.2,7.84,1.56,11.9,1,7.23-.92,14.38-4.78,21.61-6.51C196.23,334.33,203.07,332,210,330.24Z"/><path class="cls-1" d="M137.86,406.25c-4.27-1-8-6.78-11.11-10.15C131.53,396.89,133.33,403.63,137.86,406.25Z"/><path class="cls-1" d="M134,293.09c-1.38,1.46-3.66,1.67-6.11,1.61C130,294.23,131.56,293.09,134,293.09Z"/><path class="cls-1" d="M100.68,379.83c-1.29-1.22-1.29-3.1-2.52-4.34C98.83,375,101.24,378,100.68,379.83Z"/></svg>