<svg id="Layer_1" data-name="Layer 1" xmlns="http://www.w3.org/2000/svg" viewBox="0 0 500 500"><defs><style>.cls-1{fill:#236003;fill-rule:evenodd;}</style></defs><title>svge_biofuel</title><path class="cls-1" d="M469.82,254.74c1.5.77-.07,1.35-.33,2.19C468,256.15,469.57,255.58,469.82,254.74Z"/><path class="cls-1" d="M402.37,321.61Z"/><path class="cls-1" d="M374.06,431.71c.86.15.56,1,.67,1.59C373.87,433.15,374.17,432.3,374.06,431.71Z"/><path class="cls-1" d="M371.94,433.63Z"/><path class="cls-1" d="M377.79,376.22c3.4,1.38-3.65.32,0,0Z"/><path class="cls-1" d="M368.94,435.42c-.34.76-1.85.23-2,1.19C364.52,435.93,367.24,434.31,368.94,435.42Z"/><path class="cls-1" d="M362.59,435.22c3.39,1.38-3.66.32,0,0Z"/><path class="cls-1" d="M332.9,383.71c-1.55,2-5.92.83-9.25.85C324.75,382.09,329.88,384.06,332.9,383.71Z"/><path class="cls-1" d="M332.7,354.54c-.86-.15-.56-1-.67-1.6C332.89,353.09,332.59,353.94,332.7,354.54Z"/><path class="cls-1" d="M317.52,382.9c-1.78,1.44-6.85-.75-9.93-.74C308,378.31,317.19,379.66,317.52,382.9Z"/><path class="cls-1" d="M281.14,370c1.77,0,.8,3.52-1.22,2.05.07-.49.14-1,.22-1.46C280.88,370.83,281,370.43,281.14,370Z"/><path class="cls-1" d="M294.2,264.35Z"/><path class="cls-1" d="M275.39,384.08q-.16,1.1-.33,2.19c-10.85-2.33-14.45,3.35-24.06,2.38C258,385.93,264.29,382.33,275.39,384.08Z"/><path class="cls-1" d="M270.68,372.91Z"/><path class="cls-1" d="M269.67,373.51c.57,2.33-2.18,1-3.78.93C266.29,373.18,267.67,373,269.67,373.51Z"/><path class="cls-1" d="M264,374.9c-2.07.27-2.75,2.07-5.67,1.39C259.31,374.83,260.9,374,264,374.9Z"/><path class="cls-1" d="M246.42,388.71c-.5,1.65-2.63,1.32-3.68.2C243.17,388,245.07,388.64,246.42,388.71Z"/><path class="cls-1" d="M241,388.65c.41-.26-.66.38,0,0Z"/><path class="cls-1" d="M237.28,388.84c3.4,1.38-3.65.32,0,0Z"/><path class="cls-1" d="M215.22,390Z"/><path class="cls-1" d="M221.48,323.71Z"/><path class="cls-1" d="M206.61,380.52c3.4,1.37-3.65.32,0,0Z"/><path class="cls-1" d="M211,332.61c.86.15.55,1,.68,1.59C210.85,334.06,211.15,333.21,211,332.61Z"/><path class="cls-1" d="M208.59,336.73c.87.15.56,1,.67,1.6C208.41,338.18,208.71,337.33,208.59,336.73Z"/><path class="cls-1" d="M204.94,342.91c-2.61-2.15,3.58-2.48,0,0Z"/><path class="cls-1" d="M202.72,345.57c-2.61-2.16,3.58-2.49,0,0Z"/><path class="cls-1" d="M200.83,346c1.31,3.46-4.21,6.69-6,9.57C193.94,352.59,199.25,349.13,200.83,346Z"/><path class="cls-1" d="M169.24,368.21c3.4,1.37-3.65.32,0,0Z"/><path class="cls-1" d="M182.85,112.46c.54,7.9-5.61,16.58-13.44,16.67-25,.28-30.27-37.38-3.22-33.36C175.28,97.12,182.28,104.13,182.85,112.46ZM173.49,114c1-1.43,3-1.76,3.34-4-3.69-1.79-.73-4.79-3.37-8-5.55-1.87-6.67,1.15-11,.6-.33-2.35,2.66-1,2.33-3.39C144,97.71,150,124.7,170.5,121.82c-1-7.17-11.13-8.89-11.19-16.62,9.81.06,10.51,10.33,16,15.09C178.67,117.95,173.23,116.59,173.49,114Z"/><path class="cls-1" d="M114.71,61.92c1.95.17,0,2.65.34,3.79C113.1,65.54,115,63.06,114.71,61.92Z"/><path class="cls-1" d="M475.35,315.34c1.7,2.65,5.84,4,6.26,6.91.48,3.27-3.5,4.83-5,9-.65,1.81.63,3.75.24,4.52-.65,1.29-3.43,1.93-4.11,3.12-2.22,3.83-1.6,7.85-4.42,11.29-2,2.44-5.31,4.35-7.45,7.11-7.12,9.17-16.66,19.1-21.54,28.16.56,2.11,7.48.41,6.81,3.26-15.93,12.79-39.17,17.49-61.79,22.89,2.82,4.31,3.06,10.15,11.07,11.37-8.5,9.35-27.24,7.38-41.65,10.21,1.22,4.37,6.25,6.47,7.5,10.84-7.9,5.76-23.79,2.69-31.4,8.76-13.55-.67-30.93,1.55-49-1.36-2.46.45,4.49,4.33,1,5.39-12.76,7.68-30.71-6.37-47.28-7.07a15.62,15.62,0,0,1-3.66,6.18c-12.63-3-29.1-8.55-40.73-14.31-4.14,2.69-1.07,7.52-3.31,10-5.1,1.66-12.12-1.59-17.62-4.13-34.74-16.08-62.59-38.95-82.34-65.36-18.5-17.28-44.76-30.26-53.1-53.51-2.5-7-.8-16.18-1.74-24.92-2.37-22,1-44.85,15.64-61.92,2.26-.16,3.06-4.18,5.68-1.39.63-1.7-1.39-1.83-.34-3.79,17.77-15,44.6-20,71.25-25.22,49.55-2.4,103.39,10.37,141.87-3.45,2.65-1.25.61-2.39,2.44-4.12,3,1,3.89-.25,5.56-.66,12.38-12,24.15-29.85,20.7-47-1.77-8.81-15.53-24.45-28.94-26-12.19-1.41-24.59-4.06-30.42,2.18-11.32,34-59.82,27.06-105.59,23.07-3.94,3.48-6.1,0-12.15,1.92,3.07,7.47-5.7,8.36-6,15.55-23-.62-31.4-9.4-27.62-28.78-21.95-2.09-45-1.19-67.44-6.35-3.81-4.86-2.49-9.46-1.95-17.47,2.45-.13,3.6-1.71,5-3,22.56,1.92,41.73.08,62.86.43q2-13.52,4-27c-16-4.85-40.6-2.64-59.53-4.42-3.34-1.69-.79,3.11-3.12,2.53-6.9-5.84-8.28-23.51,2.15-26.58C31,64.37,27.48,71.59,28.71,76c18.87,1.53,37.19,2.46,56.74,4.74,2.87-2.91-.62-6.95.75-11.09-9.69,1.4-23.1-2.15-36-3.14-7.27-.56-18.38,2.7-17.62-4.13C50.82,63,70,64.23,87.86,64.63c-2.7-10.19,5.71-22.52-.09-29.9,10.8.63,24.92,3.13,34.11,3.6,3.38,2,1,7.39,2,10.77,9.21,11.34,31.83,7.29,51.41,9.93C194,61.55,209,68.51,224.41,72.34c2.79,5,7.61,6.2,10.28,10.51,3.11,5,1.77,14.24,8.3,17.67,4.24,2.23,14.67,1.32,22.41,2.61,4.47.74,10.3,1.9,13.27,2.73,13.87,3.87,17.28,11.16,28.58,16.23,7.19,11.06,19.52,23.1,20.62,39,.6,8.53-3.1,21.86-6.48,31.16C299.06,253.61,210,238.36,134.3,236c-16.4,2-32.93,4-44.55,11.27-1.9,1.11-2.25-.25-4.46-.66C78.53,258,66,268.21,64.44,282.3c-1.53,13.76,1.26,28.45,6.37,42.79,8.13,7.72,13.26,22.35,28.71,21.48,3.32-.18,16.38-5.76,19.48-8.3,3.35-2.73,5.31-8.78,9.21-12.82,1.67-1.73,4.7-2.62,6.12-4.32,6.46-7.75,10.35-19.12,15.86-26.77,2.44-3.39,6.31-5.42,7.66-8.56,1-3,.08-4.93.2-7.45,4-.19,2.56,2.91,5.92,3.13,10.52-6,14.85-14.62,25.69-19.33,6.64-2.88,15.32-4.15,20.59-9.62,3.09,4.09,5,1.47,7.48,4.86,5-2.38,21.08-1.07,22.94-7,6.94,1.58,7.52,7.41,13.39,8,8.31.79,17.72-6.9,27.51-7.1,3.26,5.12,7.92,8.38,7,14.49,12,1.37,21.41-6.18,35.08-9,9.24,2.47,11.53,9.09,17.09,13.76,7.28-2.18,14-5,22.72-5.57,2.64,3.64,7.69,7.49,7.5,10.84,5.61-2.37,11,0,16.61-1.26,14.53-3.18,26-15,34.7-24.7,9.25,4,8.79,13.83,18.33,17.68,19-5.43,26.09-22.46,37.12-34.79,3.53.77,5.15-.57,9,.6,4.77,4.26,2.08,13,6.51,17.41C489.44,272.74,485.11,296.09,475.35,315.34Zm-88.22,89.93c-1.94.69-3.45,1.86-5.79,2.12-2.31-1.73-1.26-5.46-1.47-8.44,20.07-2,39-5.17,52.34-14.59a17.68,17.68,0,0,1-5.81-3.86c-1.94.41-1.32,3.65-4.11,3.12.29-2,.59-3.9.87-5.84,5.5,1.53,6.95-1.42,7.23-5.64,20-9.12,30-32.06,37.85-51.88-4.44,0-5.43-2.08-5.7-4.58,12.55-17.49,13.74-46.35,16.63-68.51-5.33,3.79-11.11,7.61-13.68,12.16a3.62,3.62,0,0,1,1.33-2.79c-3.5.11-4.79,2.67-6.23,5,3.37.42,1.11-3.21,4.68-.8-7.64,9.73-22.72,11.25-32,19.12-8.17-5-.2-16-8.86-20-10.87,11.84-25.78,19.21-48.32,18.18-2.48.09-2.67,2.72-5.78,2.13-4.14-1.53-2.31-6.62-8.05-7.18a16.91,16.91,0,0,1-9.56,9c-2.83-3.77-7.95-4.06-15.29-7.52-4.67,2.89-13.45,1.11-16.84-3.27,2.85-.83,5.87-1.47,7-4.18-1.27-1.69-1.89-3.76-4.81-4.46,0,1.74,1.43,3.44-1.44,3.52-2.38-.35-1.59-2.6-4.13-2.86-9.06,5.84-23,10.41-35.42,5.17.08-1.61,1.07-2.21,3-1.79-.6-2.52-2.53-4.26-2.59-7.11-6.11-1.07-9.89.43-14.71.79-.33,2.74.69,2.23-.66,4.38-11.05,2.46-19.19-2-27.32-6.33-2.93.07-2,2.18-3.11,2.52-12.38-.32-18.5,6.27-28.62,8.43-4.7-3.4,2.12-3.93.31-8.18-6.65,1.68-12.15,8.42-20,6-.53,3.1-3.15,3.9-6.12,4.31-14.21,14.12-20.94,36.49-35,50.82,1.61.15,2,1,1.45,2.46-1.12,2.73-3.21,4.4-5.44,5.91-5.24,15.79-25.16,19.91-33.57,29.35,9-2.88,18.23-9.94,24.7-12.74-4.32,8.57-14.85,10.28-23.92,13.61,1.4,7.6,14.6,8.15,22.88,11.64,8.94-4.79,23.05-3.25,31.75-5-6.3,5-19.93,1.84-27.28,5.63,11.07,5.27,23.62,2.3,31.1,5.4-1.67-.32-6.64-.07-4.68.8,5.76,1.7,13,.19,19,1.34,1.56.3,2.7,2.08,4.24,2.13s8.38-4,7.36-.4c3.92-1.68,13.55-2.37,7.13,1.07,19,1.57,31.7-10.67,45.22-9.68-3.58.77-12.57,3-8.34,7,2.61-.46,8-1.62,11.47-3.51,0,3.68.57-.7,1.89-.46s.62,1.41,1.56,1.73c18.73,1.86,27.64-4.76,41.33-8,6.81-1.63,14.23-1,17.36-6.37-3.36-1.92-3.29,4.2-5.57.66,5.35-3.87,12.86-2.18,17.59-7.83,1.13.21,1.1,1.13,2.57,1.13,16.63-9.44,37.34-14.4,53-25,9.84.08,13.8-10.87,21.59-10.22-6.7,9.35-22.19,9-28.37,18.92-19.08,4.48-31.24,16.6-51.32,20-5.27,9.06-21.19,9.53-28.49,13.67,4,2,10.24,2.77,12.83,5.66-7.71-.09-14.35-5.18-21.19-4.66-5.24.4-11.31,4.67-18.14,5.5-5.93.73-8.06-3-12.82.33,1.49.52,2.45-.74,2.68.4-13.49,4.69-32,3.81-48.25,5.48,7.5,3.3,13.17,7.68,19.2,11.84,28.91,7.69,61.91,17,90.11,19.45-39.81-.31-77.35-12.91-108.51-24.44-1.86-.08-1.25,2.6-3.12,2.53-27.63-6.55-52.6-6.92-80.06-13.46,8.72,8.77,19.22,16.49,28.17,25.13a159.46,159.46,0,0,1-20.44-15.76c-1,2.18,4.51,3.89,1,5.38-6.12-8.11-12.43-19.65-26-21.08C122,395,144.14,418.06,170.85,424.49c1.59,2.38,3.29,4.69,7.37,5.59,1.65-4.1-1.66-5.22-3.47-7.25l5.35.8c2.69-3.75,1.76-5.23,3.77-6.91,12.26,7.77,24.13,15.78,37.62,22.81,4.59-3.45,2.87-7.14,1.64-11,12,5.68,27.35,15.85,42.4,15.31-2.6-.88,1.09-1.43.44-2.93-4.62-3.9-13.1-5.5-16.75-10,5.67,1.06,8.32,3.91,13.83,5.06,11.74-3.51,28.11,6.35,40.12,0,14.53,6.72,26.56,2.5,39.9,1.49-1.43-7-1.41-11,3.41-16.68,4.11,1.47,12.78,1.23,16.49-.52-1.07-.25-2.08-.53-1.57-1.73,5.3-1.61,11.82,3,15.6-.66-1.57-2.39-3.34-4.66-2.36-8.57C378.39,408.09,388,408.76,387.13,405.27Zm82.07-61c-.68-3.08,3.92-4.68,1.87-6.45C470.77,339.86,466.66,342,469.2,344.31Zm-11.61-80.94Zm-24.07,2.38c-1.44,2,2.4,4.23,3.24,2.73C434.38,268.34,436.48,265.53,433.52,265.75ZM389,404.8Zm-30.59,21.58Zm-1.89.46c-3.65.32,3.4,1.37,0,0Zm-5.57.66Zm-5.36-153.23c6.07.73,12.11-3.07,13.47-4.71C354.31,270.82,348.52,271,345.61,274.27ZM312.34,441.91c-2.67-2.67-3.1,2.3,0,0Zm19.87-175.62c-2.73-2.22,1.79,2.77,0,0Zm-4.55,6c1.6.07,4.36,1.41,3.79-.93C329.77,271.26,328.39,271.44,327.66,272.34ZM303.53,141c13.22,21.09,1.84,52.7-18.08,66-7.87,5.28-20.85,10.67-31.17,13.27-17.78,4.49-38.24,2.17-60.4,1.43-15.24-.5-31.66,1.5-48.15-1.22-10.42,1.65-24.93,4.6-33.31,3.24-2.8,3.81-10.51,1.75-13.82.92.54.12,1,.27.78.86C93.44,230.73,84.81,230,78,234.27c-1.19.75-3.3,4.72-5.44,5.92-1.21-1.41-3.52-.27-5.47-.07-1.49,3.3-7.92,5.54-11.56,10.23-8.07,10.41-18.85,37.35-5,39.6.59-29.49,20-52.77,50.21-55.26C146.56,217.35,227,236.92,275,221.88c8.63-2.71,21.11-9.23,25.93-14.81,2.51-2.92,2.38-6.9,4.2-9.83s5.4-4.69,6.56-7.24c2.42-5.32.84-12.76,5.19-16.41-1.33-4.44.73-11.8.06-18.67-2.5-.51-2.49,2.44-4.57.07-3.09-25.67-28.74-37.88-60.55-46.41-.5,2.23-2.68,6.19-1.42,9.5C274.93,121,294.41,126.42,303.53,141Zm12,41.41c-.11-.59.19-1.44-.67-1.6C315,181.36,314.71,182.21,315.57,182.36Zm-.09-29.9ZM292,187.8c-.11-.6.19-1.44-.67-1.6C291.4,186.8,291.1,187.65,292,187.8Zm-3.89-71.57c4.85,2.88,2.62-1.45,0,0ZM271.35,228.06c-3.66.32,3.4,1.37,0,0ZM247.62,380.67c3.58-2.48-2.61-2.15,0,0Zm38.88-266.17ZM268.35,229.85c-10.67-1.12-7.11,2.81,0,0ZM242.62,383.66c-3.65.32,3.4,1.37,0,0ZM281.72,116c-.66.39.41-.25,0,0Zm-21.2,141.79c-3.66.32,3.39,1.37,0,0Zm-2.32-27.25c-.65.39.42-.25,0,0ZM235.81,380.4c-3.65.32,3.4,1.37,0,0Zm-14.14,3.12c-3.65.32,3.4,1.37,0,0Zm-2.67-.4Zm-19.83,4.51c1.5.13,8,1.61,5.47.07C203.13,387.56,196.61,386.09,199.16,387.63Zm4.7,5.18Zm40.93-286c-3.65.32,3.4,1.37,0,0ZM243,112.49c-.66.39.42-.25,0,0Zm-51.9,273.94c-3.65.32,3.4,1.38,0,0Zm36.41-274c.25,2.07-2,5.63-.1,6.71C228.93,117.18,229.35,114.13,227.54,112.42Zm-.35-3.79Zm-2.95-16.88a7,7,0,0,0,2,4.79C226.64,94.31,226,92.69,224.25,91.75ZM181.55,383.5c-.11.73-.86.76-1.11,1.33,1.41.14,3.08.56,2.89-1.06ZM175,433.33c-3.12.62,3.21,2.34,0,0Zm45.22-308.56C226,108.91,222.07,92,213,81.84c-10.23-3.46-21-7.64-32.46-8.59-3.29-.27-6.92,1-10.14.72-3.05-.27-5.69-2.4-8.7-2.79-11.19-1.48-27.88,1.34-36.67,1.25a530,530,0,0,0-2,55.74c21.83,16.63,68.34,15.4,91.86,7.76C213.71,131.15,218.81,128.65,220.22,124.77Zm-48.79,308c-5.18-1.4,3.52,1,0,0Zm6.43-49.1c-3.65.32,3.4,1.38,0,0Zm-9,5.38c.83,1.94,5.36.89,6.35.2C173.86,389.35,169.8,386.31,168.85,389.07ZM163,428.54c-.34,1.75,6.36,4.92,6,2.39C165.31,431.12,166.62,428.35,163,428.54ZM210.36,142Zm-12,7.17c2.19.44,3.76.18,4.68-.79Q199.72,147.68,198.34,149.14ZM159.39,428ZM200.1,143.43c-3.65.32,3.4,1.37,0,0ZM150.23,422.15c.11-.73-.59-1-.67-1.59,4.22-1.31,6.77,3.27,9.7,2.2-11.37-6.53-24.45-15.58-33.28-21.41C131.73,408.82,145.67,418.41,150.23,422.15Zm6.59,4.73Zm39.73-278Zm-3.91-4.32c1.65-.17,3.76.17,4.68-.8C195.12,143.32,193,143,192.64,144.56ZM160.46,378.1Zm27.84-229c1.32.19,7.26,1.37,4.57-.06C191.57,148.89,185.62,147.71,188.3,149.14Zm-5.7-4.59c3.46.41,7.75,1.74,9.14-.13C188.07,143.77,184.83,143.6,182.61,144.55Zm-36.4,237.4c3.77-.22,7,3.34,9.81,1.47C152.6,383.57,145.77,379.8,146.21,381.95Zm15.9-88c2.35,1.08,3.21-3.69,2.33-3.39C163.84,291.87,161.69,291.47,162.11,293.91ZM160.89,296Zm-4,8.37c.12-2.48,4.9-4.18,2.77-6.31C158,299.15,153.53,302.92,156.9,304.34Zm24.38-157c-8.2-1.05-4.81,2.68,0,0ZM143.65,380.82c-6.49-2.08,3.09,1,0,0Zm-1.57-1.73c-3.65.32,3.4,1.37,0,0Zm-6,3.59c-3.65-1.82-7.3-3.64-13.06-4.19.15-2.22-3.81.14,0,0,3,2.66,10.94,5.88,16.62,4.72Zm30-237.6c2.44-.43,6,.43,7.47-1.12C170,144.39,168.1,142.23,166.11,145.07Zm-19,169.77c-.66.39.41-.25,0,0Zm-1.33,2.79c-2.12,2.53,2.93-3.51,0,0Zm6.36-256.09c10.3,2.65,21.53,4.72,29.77,2.21C174,62.94,160.33,60.17,152.15,61.54ZM132,379.09c-.65.39.42-.25,0,0ZM129.48,378Zm37-308.3c3.83.67,5.74,1.81,9,.6C172.7,70.32,167.93,68.18,166.45,69.66Zm-48.09,279c5.76-3.57,16.25-6.46,16.56-13.21C131.51,341.61,121,344.48,118.36,348.65ZM162,148.19ZM118.61,395.76Zm-18-19.87c4,6.73,11.33,15,17.33,18.28C112.8,388.13,108.32,378.16,100.61,375.88Zm6.68-2c.92,3.36,11.44,3.46,11.49,2.47C114.38,375.87,112.21,374.06,107.29,373.89Zm28.07-230.42c7.59.42,12.71,1.22,17.27.34C145.75,141.29,140.55,142.05,135.35,143.46ZM115.57,349c-.65.4.42-.25,0,0Zm-5,3ZM152,62.27c-20.38-4-3.81,2.53,0,0ZM133.57,143.2c-2.77,1.86,3-1.59,0,0Zm-31.69,212c-3.65.32,3.39,1.37,0,0Zm31.45-216.47Zm-1.78-.26c-3.65.32,3.4,1.37,0,0Zm-40,236.87c-.67.39.41-.25,0,0Zm29.29-226.51c.9.12,1.32-1.11.22-1.46C121.07,148.14,119.63,148.26,120.87,148.77Zm10.45-82.13ZM118.17,99.8c1.13,4.34-3.88,12,.16,17.21C119.44,110.94,123.22,104,118.17,99.8Zm-7.55,7.84c.45-3.48,3-6.5,3.31-10,.83-9.53-2.85-19.07-.3-28.44,3.82-2.63,5.44-9.47,3.85-13.62-.24,2.27-1,4-2.54,4.85.67-4.89,2.79-12.71,1.84-18.41-4.17,2.17-9.43.31-17.28-.34,5.63,9.61-2.31,24.08-1.78,36.35.14,3.26,2.25,6.32,2.25,9.31,0,5.45-2.69,10.12-3.29,15.94-.49,4.7,1.14,9.54.6,14.29-1.84,16.06-4.29,28.87-2.77,42.92,4.85-.33,10.72.47,14.71-.79C115.8,142.59,108.47,124.36,110.61,107.64ZM75.77,346.77Zm-5,3c-2.42-2.4,2.1,2.59,0,0Zm.52-9.64Zm-7.35.39c-1,2.16,2.94,1.35,1.24,3.92l3.57.54C69.5,342.08,64.84,342.41,63.94,340.51Zm-2.73,18.27c-3.65.32,3.4,1.38,0,0Zm-3.42-25.91c1.65.56,1.3,2.33,4.24,2.13.19-.93,1.3-.84,1.22-2.06C62,331.53,59.14,332,57.79,332.87Zm-.26-10.5c-1,2.16-.84,1.31-.55,3.66,2,.51,3.38.32,3.79-.93C59.1,324.54,60.49,322.16,57.53,322.37Zm-1.16,20c-.66.38.42-.25,0,0ZM69.53,236A2.11,2.11,0,0,0,71,238.45,2.09,2.09,0,0,0,69.53,236ZM86.6,128c0-.88.47-2.05-.57-2.32C86,126.51,85.57,127.68,86.6,128ZM49.82,313c2.14,2,2.39,5.22,5.37,6.78-.31-2.34,1.86-1.92,1.55-4.25C55.52,314.43,51.26,311.75,49.82,313ZM82.27,132.54c-.66.39.42-.25,0,0ZM44.07,290.47c-3.32,7.31,12.11,9.77,6.06,14.36-2.05-1.22-1.88-3.76-4.81-4.46.36,4,2.69,10.37,8.72,8.77C53.69,301.14,51.38,294.31,44.07,290.47ZM64,126.81c-7-4.21-33.2-8.72-35.88,2.11,16,4.17,33.18,3.49,47,2.55-3.11-2.2.1-2.8,2.33-3.39C74.91,124.89,66.19,123.11,64,126.81ZM52.42,289.47c-.8-3.21,3.39-5.26,1.1-7.3C51.17,282.76,51.24,289.72,52.42,289.47ZM44,309.14c-.08,1.16-.49,2.51,1.46,2.46.07-.49.14-1,.22-1.46C44.79,310,44.71,309.38,44,309.14Zm-2.35-39.21c6-8.17-1.19-8,0,0Zm-4,27c-.11-.6.2-1.45-.67-1.6C37.06,296,36.76,296.82,37.62,297ZM39.2,79c3.51.16,13.29,2.79,12.59,1.13C46.43,80.34,41.65,76.64,39.2,79Zm-13.46,47.3c-.11-.6.19-1.45-.68-1.6C25.18,125.34,24.88,126.18,25.74,126.33Z"/><path class="cls-1" d="M367.78,382.2c-4.69,4.24-23.49,4.66-34.1,2.37C344.45,383.12,358.65,385.46,367.78,382.2Z"/><path class="cls-1" d="M345.72,346.77c0,2.55-3,1.8-4.12,3.12C340.51,349.45,343.32,346.17,345.72,346.77Z"/><path class="cls-1" d="M321.19,382.7c3.32.92-2.38,2.68-1.89.47C316.82,381,321,384.78,321.19,382.7Z"/><path class="cls-1" d="M278.36,333.71c-7.43,12.81-14.34,37.13-33,37.66C260.18,363,267.67,346.61,278.36,333.71Zm-12.87,19Z"/><path class="cls-1" d="M210,382.51c-2.86,0-.52-4.48-.79-.86C211.7,380.84,212.37,381.57,210,382.51Z"/><path class="cls-1" d="M179.92,363.83c-2.12,1.62-6.08,1.23-8.58,2.45C170.7,365,175.94,362.87,179.92,363.83Z"/><path class="cls-1" d="M168.27,417.38c-4.4.83-8.09-4.48-11.83-6.26C160,410.78,164.77,415.46,168.27,417.38Z"/></svg>