<svg id="Layer_1" data-name="Layer 1" xmlns="http://www.w3.org/2000/svg" viewBox="0 0 250 500"><defs><style>.cls-1{fill:#236003;fill-rule:evenodd;}</style></defs><title>svge_wind</title><path class="cls-1" d="M241.37,4c.57-.1.66.29.75.67,3,2.39-3,10.32.57,12-5.94,4.49-2.92,7.07-5.19,13.37-2.07,5.35-7.26,13-11.22,19.29-13.57,21.2-29.79,41.16-49.41,56.73-5.19,4.11-9.15,8.6-13.2,12-2.07,1.72-11.69,5.16-10.47,9.26,1.41,5.25,10.56,3.34,16.41,5.35s13.11,8,17.82,12c-2,2.1-.66,4.49,0,7.35-2.73,8.4-12.35,9.74-15.18,18-8.39,0-11.69,5.06-17.73,7.35,3.39,50,12.35,97,13.77,150.13.75,28.65,5.66,56.63,7.26,84.71.57,9.26-.38,18.43.66,27.32,1.7,14.52,3.21,28.65,2.64,44.7-1.23,1.24-2.92-.38-2.64-2.67-9.15,11.55-30.55,9.46-46.11,11.36-6.88-3.05-12-7.83-19.71-10-8.11-31.71,2.45-63.42,3.87-95.41.66-13.75,2.26-25.31,2.64-37.34.38-9.83-1-19.48-.66-28.65.38-6.88,2.17-13.28,2.64-20.06.57-7,.19-13.85,1.32-20.63,1-5.83,4-11.27,4.62-17.38.57-5.06-.75-10.22-.66-15.28.19-5.54,2-11.46,2.64-17.38,1.51-14.33,2.07-29.42,0-44-4.05.67-9.52,2.39-13.86.67,3.3,34.28-1.32,74.49-11.79,104.1-4.43,12.51-12.16,24.35-17.82,36C77.39,340,71.45,351.84,65,362.92c-2.26-.19-3.77-1.05-6.6-.67-1.79-6.49-2.36-14.33-3.3-24.06-.75-6.78-5.38-13.94.66-16.62-3.87-4.58,0-6.3,0-12,1.13-2.48-1.79-.86-2-4,3.77-26.17,7.83-52.63,14.52-76.69,4.71-17.29,17.35-29.7,23.67-44-4.9-9.55-9.34-23.4-5.28-34.67-2.83-6.4-8.3-7.45-14.52-10.7-8.1-4.3-15.55-13.56-22.34-20.63C34.87,103.15,23.93,89.49,16.2,66.76,12.62,56.44,10.07,45.56,5,35.44c.94-3.82-.47-4.78-2-7.35,1.7-3.82,2.45-4.58,2.64-9.36,20.37,2.87,36,13.85,47.43,26.64,4.43,5.06,7.83,12.89,12.54,20.06C78.05,84.33,88.43,107,97.2,130.75c4.34-2.48,12.16-5.44,17.73-2.67,18-29.51,35.17-59,60.63-81.37,9.05-7.92,20.74-14.51,31.59-21.29C218.64,18.15,229.39,9.84,240.71,4ZM221.66,20.73C200.83,35.72,179,50.9,161,72.11c-3,3.63-6.79,5.92-9.81,9.26-9.43,10.32-16.6,22.83-25.08,33.43,1.32,5.35-1.7,7.83,2.64,10.6,40.64-21.11,71.29-51.38,93.54-91.3,2.07-3.82,6.6-6.69,5.94-12C226.85,20.54,221.85,20.54,221.66,20.73Zm-62.61,46.7c-3.39,4.3-8,8.31-9.15,13.94,11.88-19.2,32.53-33.24,47.43-47.27C183.38,43.75,169.24,54.53,159.05,67.43ZM12.9,36c.75,2.67.75-2.58,0,0ZM33.27,80.7c6.6,11,12.35,17.48,20.46,27.41,6.69,8.21,15,21.3,23.66,15.95,1.89-4.87-1.89-8.5-3.3-12.61C62.69,77.84,46.85,48.52,16.2,36,17.62,52.34,26.29,69,33.27,80.7Zm26.4-14.61c-3.68-2.77-6-10.41-9.9-10.7C53.64,57.88,55.9,65.61,59.67,66.09ZM20.82,73.44c9.71,10.89,16.41,30.37,28.95,40.69-3.77-9.65-12-16.24-17.16-23.4-6.32-8.79-8.2-20.15-14.43-30C17,64.56,21.58,67.81,20.82,73.44ZM61,68.76c2,1.81-1.79-2.1,0,0Zm2.64,6Zm2,8.6c.38.48-.28-.29,0,0Zm2,4c.38.48-.29-.29,0,0Zm5.84,4c1.79,3.53-1.23-2.48,0,0Zm.66,2.67c.47.48-.19-.29,0,0Zm1.32,2c1.32,2.2-1.89-3.25,0,0Zm0,8.69c.47.38-.28-.29,0,0Zm3.3,8.69a12.26,12.26,0,0,0-2.64-7.35A13.16,13.16,0,0,0,78.71,113.46Zm66.57,5.35c-6.7,3.92.94.57,0,0Zm12.45,0c.47.38-.19-.29,0,0Zm-.66,0c-4,.76-1.6,3.15,0,0Zm-84.3,15.95c-1.51-5.25-6.5-7.07-10.46-10C65.23,128.74,67.87,132.95,72.77,134.76Zm62-8.69Zm-56,10.7c-1.23-.29-1.6-1.43-3.3-1.34C74.66,137.44,78.24,138.3,78.71,136.77Zm88.26,0c-.47.19-1.32,0-1.32.67C166.22,137.34,167,137.44,167,136.77Zm3.3.67c-3.77-1.91-1.7,1.62,0,0Zm-55.35,3.34c1,1.05,2.83,0,3.3-1.34C116.62,139.35,115.49,139.82,114.92,140.78Zm22.44,2c-2.07-.1-2-2.48-4-2.67-1.89.48-1.6,3.34-3.3,4-2-.1-1.32-4.58-3.3-2.67-2.92,2.39,1.13,1.91,1.32,4.68,2.64,9.26-1.89,21.87-.66,27.32,12.82-3.63,21.41-11.08,34.23-16,2.73-3.06,6.32-8,4-14C157.45,141.45,142.65,136.1,137.37,142.78Zm40.83-1.34c-1.23.67-2.17-2-2.64,0C176.69,142,177.63,143.64,178.2,141.45Zm-88.92,4.68c.09-1.53-2.26-3.92-2.64-2.67C88,143.83,86.82,146.8,89.28,146.13Zm34.89-1.34Zm-25.65,2.67c-3.87,8.6-5.85,20.15-4.62,28.65,4.05.57,5.75,4,9.9,2,4.34-2.1,9.43-18.15,5.94-20,4.24-3.72-.57-8.31-1.32-12.7C103.33,144.6,101.91,150.62,98.52,147.46Zm73.08,6c1.23-2.77,1.32-3.92.66-7.35-1.23.1-1.41-.76-2.64-.67C170.75,148.51,170,152.33,171.6,153.48Zm-56,4.68c3.11-1.81,5-4.78,5.28-9.36C116.72,149.37,118.6,156.25,115.58,158.16Zm62.61-8c.75,2.58.75-2.67,0,0Zm-52.71,2.67c-.57,3.92.38-2.67,0,0Zm50.73,0c-1.6,2.2,2.17-1.62,0,0Zm-50.07,2.67c.75,2.58.75-2.67,0,0Zm-11.22,18.62c1.32-7.55,9.81-10.31,6.6-18.62C117.85,159.69,112.57,168.19,114.92,174.11Zm-25-15.95c.47.38-.28-.29,0,0Zm.66,7.35c-.66-2.1,1.41-6.78-1.32-6.69C89.94,160.83,87.86,165.51,90.6,165.51Zm69.78-2.67c3-.38,4-2.77,5.94-4C163.67,159.4,162.26,161.41,160.37,162.84ZM116.9,174.78c2.45,0,1.89-.76,4,0,1-1.43,3.68-7.55.66-8.69A84.17,84.17,0,0,0,116.9,174.78Zm11.88,2.67c1.6.1,3.21.1,3.3-1.34C130.48,176,129.35,176.5,128.79,177.45Zm-1.32,0c-.47.19-1.32,0-1.32.67C126.71,178,127.47,178.12,127.47,177.45Zm5.94,8h1.32c1-1.62-2.26-1.91-2-.67C133.12,184.81,133.5,184.9,133.41,185.48Zm7.26-.67c-2.83,2.1-5.28,6.49-6.6,10.7-5.56,18.43-2.45,49.37-4.62,72.68-.28,3.72-.57,7.26-.66,12-.28,25.41-4.81,53.1-7.26,76-1.13,10.7,1.7,17.67-1.32,24.07,3,9.07-1.13,18.62-2,29.32-1.6,22.64-3.39,45.56-5.94,64.66.94,1.15,3.58-.86,4.62,1.34.09,1.62-1.13,2-.66,4,4.24-7.35,21.78,7.93,23.1-4.68-7.73.48-18.67.29-20.46-7.26,2-.86,4-1.72,5.94-.76,0,1.62-1.13,2-.66,4a24.84,24.84,0,0,0,15.84,2c.94-11.17,12-18.81,8.58-30-3.21,7.45-6.22,15.09-9.24,22.73-3-8.6,7.64-17.86,6.6-26.74-4,6.49-8.11,16.33-12.54,20.06,2-8.31,7.73-12.61,9.24-21.39-5.47-2.2-12.73-2.67-17.82-5.35,0-2.39,1.32-3.53,2.64-4.68,6,5.92,24,4.49,30.27-.57,4.24-11.94.28-21.87-.66-35.43-1.13-17.48-3.11-39-1.32-52-6.13-41.07-5-82.71-6.51-124.73-.38-9.17-5.28-17.76-4-27.31C143.59,186.72,143,184.81,140.67,184.81ZM87.3,286.23c6.51-19.67,13-41.93,15.18-61.41,1.23-11.65.94-23.49-2.64-30.65H98.52c-2.55,1-4.81,2.19-7.26,3.34a239.13,239.13,0,0,0-18.48,45.37c-8.1,29-18.76,64.28-9.8,96.65-.57-2.1,2.83-3,2,0C74.28,326.54,80.6,306.48,87.3,286.23Zm-2.64-82c.47.38-.28-.29,0,0ZM72.11,234.85c0,.38-.09.76-.66.67-.38-.1-.75-.1-.66-.67,1.13-10.22,9-17.1,9.24-26-8.3,10.79-11.6,26.65-13.11,40.69-1.22,10.12-9.8,23.21-7.26,35.34C62.78,268.09,69.95,248.22,72.11,234.85Zm38.94-24.07Zm44.7,17.38a21.15,21.15,0,0,0-1.89-9.36C154.15,222.34,153.4,226.83,155.75,228.16Zm-79.68-4Zm-1.32,4.68c.38-1,1-1.72,1.32-2.67C73.91,224.92,73.34,228.55,74.75,228.83Zm77.13,2Zm-79.11,2.67c.47.38-.28-.29,0,0Zm37,5.35c-.57,3.92.38-2.67,0,0Zm0,7.35c.09-1.24,1.7-4.49,0-5.35C110.59,243.16,107.85,245.16,109.74,246.21Zm44.13,22c-.47-6.21.38-13.75-2-18.05C152.08,256.63,152.08,263.31,153.87,268.18ZM103.8,263.5c.38.48-.28-.29,0,0Zm50.73,6.69c-.09-.67-1.23-.86-1.32,0C153.87,270.09,154.15,271.14,154.53,270.19Zm-.66,2c.75,2.67.75-2.67,0,0Zm-.66,6.69c2.17.67,1.51-5.06.66-5.35C153.77,275.44,154.15,277.92,153.21,278.88Zm1.32,15.38c-1.32-5.16,1.7-11.08-1.32-14.71C153.49,284.61,152.26,291.1,154.53,294.26ZM82.67,314.89c2.07-6.59,7-13.85,7.26-20.06C87.67,301.32,82.86,308.58,82.67,314.89Zm74.4-.67c.28-1.34.38-11.27-.66-11.37C156.89,306.48,155.56,311.73,157.07,314.22Zm-37.53,26.65c1.79-12.8,1.79-21.3.66-34.67C119.17,316.7,116.53,332.46,119.54,340.86ZM79.37,322.24c.66-1.43,3.39-6.88,2-6C80.69,317.75,78.15,320.9,79.37,322.24Zm-23.66-5.35c1.7,3.53-1.23-2.58,0,0Zm108.62,4.68a.67.67,0,0,0-1.32,0C163.77,321.48,164.05,322.53,164.33,321.57Zm-106,8.69c.09-.86.09-4.87-.66-2.67C57.6,328.45,57.6,332.36,58.35,330.26Zm109.28,36c1.7,2.58.94-2.2,0,0Zm0,11.37c.47.38-.28-.29,0,0Zm0,1.34c.75,2.58.75-2.67,0,0Zm0,2.67c.47.38-.28-.29,0,0Zm.66,3.92c.09-.86.09-4.78-.66-2.67C167.54,383.84,167.54,387.75,168.29,385.56Zm-48.09-1.34c.75,2.67.75-2.58,0,0Zm48.09,7.35c.75,2.67.75-2.58,0,0Zm0,4Zm-6.6,29.32c-.85-1.62,2-2.67,0-3.25C161.32,422,160.19,424.81,161.69,424.91Zm-4,15.38c2.55,1.34,2.64-3.06,1.32-3.34C158.77,438.28,157.64,438.66,157.73,440.28Zm11.88,1.34c.09-.86.09-4.78-.66-2.67C168.86,439.81,168.86,443.82,169.62,441.62Zm-10.56,4.68c.75-.76.75-2.39.66-4a3.29,3.29,0,0,1-2-.67C160,443.72,156.41,444.1,159.05,446.3Zm4,.67c.57-.48,1.51-3.72,0-4C163.77,444.68,161,446.11,163,447Zm5.94-3.34c-.94,5,.47-2.39,0,0Zm.66,4.68c.75,2.67.75-2.67,0,0Zm-16.41,6c-.09-1.15.28-6-.66-4C152.55,451.46,152.17,456.33,153.21,454.32Zm5.85,0c-.94,5,.47-2.39,0,0Zm4.62,8.69c-1.23-3.34,2.64-7.64-.66-8.69C162.54,456.23,161.22,462.16,163.67,463Zm-21,9.26c2.83.48,4.34-.48,6.6-.67-.47-4.68.85-11.08-.66-14.61C147.17,462.73,143.4,466,142.65,472.28Zm17.07-5.35c-1.32,5.92.47-1.91,0,0Zm0,6.69Zm-18.39,2c0,1.81-.28,3.82.66,4.68,2.55.38,3.77-.57,5.28-1.34,0-1.72-.28-3.82.66-4.68A16.21,16.21,0,0,0,141.33,475.62ZM169.62,479ZM165,480.3c-.47.19-1.32,0-1.32.67C164.24,480.87,165,481,165,480.3Zm-11.79,3.34c.19-1.53,3.11-.38,2.55-2.67C154.53,481.16,151.42,482.69,153.21,483.64Zm-19.8,0c2.55-.19,6.79,2.29,7.92-.67A13.26,13.26,0,0,0,133.41,483.64Z"/><path class="cls-1" d="M3.66,32.76c-.28-.29.47.38,0,0Z"/><path class="cls-1" d="M142.65,154.15Z"/><path class="cls-1" d="M98.52,202.85c1.6-2.67.94,2.2,0,0Z"/></svg>