<svg id="Layer_1" data-name="Layer 1" xmlns="http://www.w3.org/2000/svg" viewBox="0 0 500 500"><defs><style>.cls-1{fill:#236003;fill-rule:evenodd;}</style></defs><title>svge_recycle</title><path class="cls-1" d="M253.91,28.15c2.4,3.81-3.59,8.09-5.17,11.36C245.69,35,253.46,32.55,253.91,28.15Z"/><path class="cls-1" d="M184.6,107.69c.2,3.59-.37,7.94,3.1,8.26-11.56,20.83-35.85,28.94-40.35,56.82-9.79,8.81-5.56,31.63-15.51,40.29-18,.06-19.79-21.25-35.17-26.86-3.69.88-9.43,3.77-13.45,1-5.46,1.77-7.5,7-13.45,8.27-20.5,24.72,0,60.34,14.49,80.57,16.75,23.48,46.6,41.4,74.48,46.48,2.93,3.59-8.75,7.2,0,8.26-6.58,11.57-19.89,14.5-27.93,24.8-10.54,13.47-14.11,31.2-17.59,52.68-5.79.55-5.29,4.38-8.28,9.3-7.87-.39-9.4-7.14-16.55-8.26-1.81-7.82-9-9.44-14.49-14.46C61.61,383.7,57.77,364.7,41.83,358.71c-.93-8.23-5.94-8.83-9.3-14.46-3.75-6.28-6.73-16.35-11.38-24.8C14.85,308,9,301,6.66,287.43c-10.3-59.89,10.9-95.63,36.21-132.22,5-7.22,12.93-21.37,12.41-25.83-1-8.36-14.76-13.57-21.72-14.46-1.12-6.68-3.82-11.14-1-17.56C79.62,81.27,145.33,88.3,184.6,107.69Zm-89-13.43c-.8.23-2,0-2.07,1C94.36,95.06,95.6,95.27,95.63,94.26Zm22.76,5.17c-26.87-1.93-65.88-6.63-81.73,8.26A136,136,0,0,1,73.9,136.62C39,157.5-.29,211.32,14.94,267.8c.65-13.82.75-28.18,5.17-38.22,2-.23,2.29,1.16,4.15,1,3.12-19.86,19.62-39.16,35.17-50.62,11.47-8.45,25.48-16.27,39.31-17.56,8.14,3.24,12.32,10.43,20.7,13.43,14.67-24.6,28.25-50.3,57.93-59.92-15.59-15.76-48.08-20.15-75.51-20.66C107.7,96.33,116.13,94.79,118.39,99.43ZM122.52,179c.51,3.62,1.55,6.72,1,11.36,9.65-16.24,19.82-35.71,31-49.58,3.8-4.71,10.58-9,9.31-14.46C145.95,139.69,133.45,158.53,122.52,179ZM107,181c-2.69-.42-3.12-3.08-6.21-3.1C100.3,180.93,106.77,182.2,107,181ZM84.25,183.1c2.47-.63,7.5,1.3,8.27-1C90.33,180.24,85.1,178.85,84.25,183.1Zm31,3.1c-2.6-.23-5.7-5.24-7.25-3.1C110.9,183.63,113.3,191.09,115.29,186.2Zm7.24,18.6c-.45-2,1.41-6.23-2.07-5.17C118.8,201.18,120.49,204,122.52,204.8ZM42.87,244.05Zm11.38,2.06c1.19,4.08,1.19-4.08,0,0ZM39.76,274c3.14-7.89,12.85-14.71,10.34-24.8C46.2,256.34,40.32,267,39.76,274Zm-3.1-19.63c.68.68-.44-.43,0,0Zm-5.18,10.33c1.2,4.08,1.2-4.08,0,0Zm25.87,0C50.63,276.56,39,288,38.72,302.93c8.18-11.22,19-25,21.74-38.22Zm-34.15,7.23c0-1.51.4-8.46-1-5.17C22.19,268.29,21.79,275.22,23.21,271.94Zm7.25-1c-.88,6.11.59-4.14,0,0ZM36.66,337c-.19-3.63,3.49-3.4,4.13-6.2C25.24,320,23.4,296.08,16,275,16.16,296.11,26.34,319.8,36.66,337Zm1-60.95c.68.67-.43-.44,0,0Zm-2.06,4.13c.67.68-.44-.43,0,0Zm2.06,13.43a111.54,111.54,0,0,0,5.18-14.46h-3.1C39.06,284.38,33.6,289.62,37.69,293.63ZM65.62,280.2c1.2,4.08,1.2-4.08,0,0Zm5.18,1ZM58.39,289.5c-.16-1.22.18-2.94-1-3.1-5.06,8.72-10.3,17.27-11.38,30,9.2-7.69,16.75-22.53,18.62-34.09C61.32,283.48,63.09,289.72,58.39,289.5ZM10.8,285.37Zm47.59,0Zm-5.18,49.58c7-16.57,23.57-30.53,20.69-50.62C63.76,297.28,54.29,316.4,53.21,334.95ZM11.84,288.47Zm49.65,62c3.64,1.89,4.34,6.69,8.28,8.26,2.16-22.68,16.52-44,13.45-65.08C70.72,310.14,68.76,330,61.49,350.45ZM14.94,297.76Zm27.93,15.5c-.42-5.61,4.72-11.09,3.1-14.46C43.35,303.84,36.82,307.33,42.87,313.26ZM70.8,360.77c-4.69.84-6.13-6.9-9.31-4.13C73.43,368.47,80.72,385,98.73,390.73c7.61-25.12,15.68-49.77,39.31-58.88-11.7-7.25-22.2-15.7-34.14-22.72-5,22.58-13.62,41.49-19.65,63,.52,4.3,7,2.64,7.24,7.23-3.1-1.61-7.38-3.19-9.31-3.1C85.52,350,95.79,330.64,100.8,306c-3.23-2.63-6.33-5.38-11.38-6.19C84.46,319.61,77.75,340.3,70.8,360.77ZM32.53,307.06c.3-2.15,2.79,1.53,3.1-2.07-2.49.42.57-4.7-3.1-3.09C33.87,304.46,29.49,306.18,32.53,307.06Zm3.1,2.07c1.19,4.08,1.19-4.08,0,0ZM50.1,329.79c-.21-4.73,4-10.42,2.07-13.43C50.24,319.84,43.58,327.08,50.1,329.79Zm3.1,10.33c1.7,2.44,3,5.27,6.21,6.2,1-9.69,7.36-19.5,6.2-27.89C62.75,326.91,56.17,331.71,53.21,340.11Zm96.21-14.46c-5.29.43-9.11-6-13.45-3.1C139.8,325.52,145.61,327.84,149.42,325.66ZM37.69,341.15c2.14,3,3.49,6.84,7.25,8.26,4.81-5.71-.95-12.65-4.15-16.53C41.51,337.4,37.8,337.48,37.69,341.15ZM46,351.48c5.83,6.57,11,13.82,18.62,18.6-2-7-11.35-15.44-16.55-22.72C48.79,350.16,46,349.43,46,351.48Zm67.24,13.43c-5.74,10.05,4.62,2.46,3.1-4.13C115.21,363,113.88,363.74,113.21,364.9ZM64.59,375.24c6,11.25,17.14,17.32,24.83,26.86,4.91-3.59,4.41,0,8.28,2.06V395.9c-14.11-4.16-20.53-16-31-23.76C66.57,373.77,64,372.95,64.59,375.24Z"/><path class="cls-1" d="M443.23,100.46c18,7.29,26.51-5.47,36.21-12.4,12.22,13.78,12.09,48,8.28,72.31-5.3,33.7-16.62,68.7-25.87,93-6,1.15-3.38-6.26-6.21-8.26-7.42-9.47-13.11-20.65-24.83-25.82C420.55,203,402,195,388.4,182.07c-11.72-2.76-17.78-11.17-30-13.43.51-6-3-8.32,0-16.53,8.35-6,23.41-1,34.14-5.17,5.6-2.19,15.59-10.42,15.52-15.49,0-4.86-14.77-16.27-18.61-18.59-17.57-10.63-45.25-13.22-70.36-12.4-23.6.77-49.1,5.1-60,15.49-9.34-3.22-17,7.37-25.86,5.17-10.26-2.54-7.34-17.8-10.35-28.92-1.45-5.36-6.9-12-11.37-19.63-8.22-14-15.63-31.55-30-37.19,3.31-5-2.87-4-3.1-8.26,1.62-.44.88-3.25,4.14-2.07-.31-3.82-6.62-1.65-5.18-7.23C204.95,7.77,240.54,6,271.5,5.43c20.89-.36,45.92-1.63,65.18,3.09C348.76,11.49,362,18,373.92,24S399,35.3,407,42.61c2.56,2.32,3.37,6.23,6.21,9.3,3.65,4,9.46,6.5,12.41,10.33C433.83,72.84,437.06,87.38,443.23,100.46ZM260.12,10.59c-14-.18-27.42.17-38.28,3.1C231.42,14.2,253,12.51,260.12,10.59Zm11.37,0c-.8.23-2,0-2.06,1C270.23,11.39,271.47,11.6,271.5,10.59Zm60,3.1Zm-111.73,0c-.8.23-2,0-2.06,1C218.5,14.49,219.74,14.7,219.77,13.69Zm-5.18,1c-6.62-1.19-2.26,3.16,0,0Zm108.63,2.07c-3.91.41-8.87-3.46-11.37-1C315.55,15.88,320.94,21.68,323.22,16.79Zm-56.89-1C262,17.65,260.87,28.18,256,26.08c.32-4.85,5.24-5.1,5.17-10.33-28,2.16-53,1.69-74.49,7.23C213.88,39.55,223,74.13,241.5,99.43c28.75-3.59,51.81-13.63,77.59-11.36.85-2.92-1.45-2.67-1-5.16,11.11-15.42,21.28-31.78,31-48.56-1.66-1.43-5.34-.87-6.21-3.1-17,13-25.42,40-43.45,48.55C312.89,64,325,46.81,336.68,29.19c-3.74-1.75-10.14-5.28-13.45-4.14-16.59,22.69-34.58,49.49-53.79,66.12C285.85,68.3,304.54,47.71,319.09,23c-5.38-.48-8.66-3.06-13.44-4.13-15.07,19.73-29.4,45.71-47.6,58.88a463.43,463.43,0,0,0,42.42-59.91c-3.15-1.19-4.83-.68-10.34-1-16.54,13.44-27.67,37.8-41.39,50.62,10.08-17.49,25.72-34.93,33.1-51.65C280.13,16.4,271.3,15.31,266.33,15.75Zm97.25,14.47c-3.43-1.79-9.17-6.65-13.45-4.14C354.63,26.79,360,32,363.58,30.22ZM203.22,42.61c-2.2-5.73-5.07-10.78-10.35-13.43C193.77,36.21,198,39.94,203.22,42.61Zm184.15-6.2c2.47,2.36-5.49-6.39-7.25-3.1C382.72,34.18,384.19,36.15,387.37,36.42Zm-16.56,0Zm65.18,62c-6.16-16.24-17.2-33.1-29-40.28C420.73,68.51,421.69,91.46,436,98.39Zm-63.11-62c3.19,9,11.82,11.66,17.59,17.56,16,16.34,25.25,39,35.17,59.92-2.1,6,1.16,13.43,0,21.69-11.38,18.27-32.09,27.87-56.9,30a239.5,239.5,0,0,1,71.38,57.85c6.61,1.12,13.17,12.82,16.56,10.33,8.34-33,25-80,11.37-115.7-5.75,6.82-15.9,5.37-24.83,7.23C425.8,89.63,410.08,52.31,372.89,36.42Zm-17.59,1C341.66,50.69,332,67.85,323.22,86c11.1-.69,17.45-11.65,22.76-18.59,6.17-8.07,11.25-17.22,17.59-24.8C360.34,41.36,359.07,38.15,355.3,37.45ZM406,48.81c-2.24-1.59-6.11-6.91-8.28-5.16C400.69,44.51,403.42,51,406,48.81Zm-38.28-3.09C355.66,57.77,346.76,73,335.64,86c3.17-.74,3.78,1.06,6.22,1,13.7-9.39,19.51-26.66,32.06-37.19C373.28,47,371.08,45.79,367.71,45.72ZM377,51.91c-10.17,11.54-19,24.45-29,36.16,3.16-.75,3.77,1.06,6.21,1,8.87-5.55,12.3-18.6,18.62-26.86,2.32-3,7.71-4.27,7.24-8.26A2.82,2.82,0,0,0,377,51.91ZM359.44,90.13c2.91-.85,2.68,1.46,5.17,1,7.19-9.4,17.07-21.47,20.69-31C371.5,66.63,369.34,79.13,359.44,90.13Zm18.62,5.17c6.53-1.32,17.13-17.71,15.51-23.76C388.33,79.38,381.14,85.28,378.06,95.3Zm-8.28-2.07c9.38-3,11.5-13.31,16.55-20.66C377.14,75.78,374.63,85.67,369.78,93.23Zm-146.91-9.3c-.8-2.3-.6-5.6-3.1-6.2C219.72,80.88,220.71,83,222.87,83.94ZM385.3,98.39c8.06-1.52,13.78-15.48,12.41-19.63C393.87,85.6,388.62,91,385.3,98.39Zm8.28,3.1c3.9-3,8.12-11.15,8.28-14.46C399.57,92.33,394.3,94.64,393.58,101.49ZM227,92.2c2.5,5.31,2.68-3.56,0,0Zm171.75,11.36a6.71,6.71,0,0,0,5.16,1c0-3.16,4.15-7.49,1-10.33C402.85,97.33,400.36,100,398.75,103.56Zm-168.63-2.06c1.19,4.08,1.19-4.08,0,0Zm152.07,3.1c-6-3-2.72,2.55,0,0Zm24.83,3.1Zm72.42,6.2c-1-1.93,3.1-3.46,0-4.13C478.55,111.58,476,113,479.44,113.89Zm-29,4.13h2.06V116h-2.06Zm8.28-2.07c-.8.23-2,0-2.07,1C457.49,116.75,458.72,117,458.76,116Zm-39.32,17.56c1.2,4.08,1.2-4.08,0,0Zm61,19.63c-.75-6.71,2.53-11.31-1-15.5C480.66,142.69,477.26,152.86,480.48,153.15Zm-109.67,1c-1.39-.32-2-1.47-4.13-1C365,156,371.15,156,370.81,154.18ZM476.34,181c1.11-6.6,5.73-20.25,2.07-24.8C476.1,166.35,474.21,171.8,476.34,181Z"/><path class="cls-1" d="M491.85,278.13c4.37-1.6-.23,5.74,4.15,4.13-7,29.87-16.51,57.21-26.9,83.67-2.3.57-1.48-2-3.1-2.07-.52,5.18-4.32,8.39-7.24,13.43-2.47,4.26-3.64,10.44-6.22,14.46s-8.65,7.48-12.41,12.4c-6.26,8.22-7.3,15.47-18.62,17.56a168.51,168.51,0,0,1-63.11,31c-25.06,6.49-58.66,2.8-77.59,15.49-1.32,9.16,3.64,18.6-1,24.79-26.45-3.54-37.56-22.4-57.94-32-2.35-9.31-12.06-13.81-17.59-20.66-13.3-16.48-24.76-34.46-27.93-57.85,46.26-.26,85.54-19.93,117.94-40.29C286.68,364.88,267.8,412,316,407.26c13.65-1.36,36.16-11.22,46.56-20.66,24.85-22.6,35.71-69.15,31-100.2,5.11-1,4.93,3.15,10.34-1,27,12.58,65.37,6.84,86.9-7.23Zm-2.07,7.23c.68.68-.42-.44,0,0Zm-15.51,9.3c.68.68-.43-.43,0,0Zm-33.1,2.07c4.73-.44,11.68,1.33,13.45-2.07C449.87,294.45,440.81,295.3,441.17,296.73Zm-5.17,0ZM402.89,304c.42,17.91-6.76,35.67-9.31,49.59-3.81,20.74-7.08,35.84-14.49,49.58-1.78,3.3-3.55,7.31-5.17,10.33-11.61,21.55-31.11,25.75-51.73,38.22-1.07-1.09-7.39-2.13-8.28,0,94.83-1.34,149-63,162.43-148.75-20.49,8.55-56,10.44-73.45-2.06ZM275.64,361.81c6.35-1.23,2.59-5,0,0Zm-25.87,10.33c.23-1.29,1.62-2.11-1-2.06-15.35,8.78-34.81,13.45-56.9,15.5C212.57,390.45,233.11,378.11,249.77,372.14ZM209.43,411.4c1.15-5.39,5.81-7.29,8.28-11.37-9,3.89-18.73,13.51-5.18,18.6,11.77-15.44,26.77-27.68,40.35-41.32.23-1.3,1.61-2.12-1-2.07C235,384.57,225.26,401,209.43,411.4Zm62.07-35.13c-2.82,3.15,3.15-2.82,0,0ZM217.71,430a2.85,2.85,0,0,1,3.1,2.07c7.87-5.57,19.47-12.92,22.76-19.63-1,1.81-3.24,2.28-6.21,2.07,8.92-12.1,26.83-20.72,30-35.12C253.35,398.78,234.08,412.93,217.71,430Zm-16.56-22.72c8-6.12,19.89-13.89,23.8-20.66C213.82,389.92,201.81,396.82,201.15,407.26Zm13.45,17.56c15.35-8.09,24.21-22.67,34.15-36.16-.8.23-2,0-2.07,1C235.24,400.66,222.75,410.58,214.6,424.83ZM226,436.19c1,2.83,3.26,4.32,6.2,5.16,9.27-9.56,19.51-23.73,30-34.09,5.41-5.35,15.09-7.78,10.35-15.5C259.12,408.68,242.35,422.23,226,436.19ZM184.6,393.83c-1.54,7.7.73-3.67,0,0Zm11.38-1c-.8.23-2,0-2.07,1C194.72,393.6,195.95,393.81,196,392.8ZM198,400c1.15-3.33,5.4-3.55,6.21-7.23C200.58,393,197,398.58,198,400ZM184.6,402.1c1,0,1.23.84,2.06,1-.1-1.62.14-3.59-2.06-3.1Zm70.35,4.13c-.5-3.24,2.78-2.73,3.1-5.17C255.38,400.56,252.19,404.72,254.95,406.23Zm10.35,13.43c2.7-5.22,12.17-3.69,12.41-11.37C273.64,407.56,265.92,417,265.3,419.66ZM346,417.59c1.9-3.3,8.93-6.88,7.24-10.33C351,409.76,344.67,418.3,346,417.59Zm-13.45-1c.92-.31,5.25-2.07,2.06-3.1C335.51,415.58,329.35,415.52,332.54,416.56Zm-62.08,11.36c4.81-4.16,10-7.93,14.49-12.4C277.7,412.29,271.71,428.68,270.46,427.92Zm-19.65,4.13c-3.26,6-10.85,7.77-12.41,15.49,9.18-3.91,13.8-12.39,19.65-19.63-1.78-.4-2.65,1.53-3.1,0a6.68,6.68,0,0,1,1-5.16,3.87,3.87,0,0,0,5.17,0c.24-2-1.17-2.28-1-4.13-4.37.8-4.75,5.59-8.28,7.23-.22-2.06,4.39-4.41,2.06-5.17C252.15,424.44,244.62,432.59,250.81,432.05Zm39.31-11.37c1.83-.24,5.17,1,4.13-2.06C291.9,418.33,290.37,418.87,290.13,420.69Zm25.86,1c2.59.17,3.24-1.59,4.14-3.1H317A4.92,4.92,0,0,1,316,421.72Zm5.17,6.2c-5.32,2.5,3.56,2.67,0,0Zm-80.7,7.23c1.15,4-5.63,5.3-3.1,7.23.75-3.76,8.84-5.58,7.24-8.26C244.41,435.65,242.1,435.07,240.46,435.15Zm22.76,0Zm14.49,8.26c-2.9-1.63,5.21-6.38,2.06-8.26C276.25,440.16,267,452.31,277.71,443.42Zm-9.32-6.2Zm65.18,2.06Zm-72.42,6.2c.14-2.36,6.23-4,3.1-6.2C264.35,441.86,258.61,443.87,261.15,445.48Zm25.87-1c.67.68-.45-.44,0,0Zm-21.72,4.13c.14-1.22,1.84-2.35,0-3.1C265.15,446.7,263.45,447.83,265.3,448.58Zm-20.7,0c.68.67-.42-.44,0,0Zm13.45-1c-2.59,2.92-6.93,4.09-8.28,8.26C253.41,453.94,255.43,450.44,258,447.55Zm6.21,12.4c.92-2.25,6.24-5.4,3.1-8.26C268.28,455.76,261.35,457.29,264.26,459.94Zm24.83-6.2c2.87,1.37,3.56-4.08,2.07-1C289.71,452.64,287.2,452.94,289.09,453.74Zm8.28-1a5.78,5.78,0,0,1-4.13-1C291.56,454.56,297.7,454.54,297.36,452.71Zm4.14-1c-1.21.16-2.93-.18-3.1,1C299.62,452.56,301.33,452.89,301.5,451.68Zm-42.42,5.16c-.8.23-2,0-2.07,1C257.81,457.65,259.05,457.85,259.08,456.84ZM274.6,483.7c-1.31-.06-1.43-1.33-3.1-1C269.89,485.22,275,485.71,274.6,483.7Z"/></svg>