<?xml version="1.0" encoding="utf-8"?>
<!-- Generator: Adobe Illustrator 21.1.0, SVG Export Plug-In . SVG Version: 6.00 Build 0)  -->
<svg version="1.1" id="Layer_1" xmlns="http://www.w3.org/2000/svg" xmlns:xlink="http://www.w3.org/1999/xlink" x="0px" y="0px"
	 viewBox="0 0 300 600" style="enable-background:new 0 0 300 600;" xml:space="preserve">
<style type="text/css">
	.st0{fill-rule:evenodd;clip-rule:evenodd;fill:#236003;}
</style>
<g>
	<path class="st0" d="M225.1,33.3c-0.5,8.6-2.6,10.3-1.1,19.2c20.7-0.7,31.8,8.8,48.8,12c7.2,7.4,13.1,9.9,14.7,22.8
		c0.3,2.4-1.6,5.8-1.1,8.4c0.9,4.7,5,8.6,5.7,12c2,10.7-0.4,23.8,0,34.8c4.5,112.3,0,249.2-1.1,377.9c-0.9,7.4-3.4,12.5-1.1,20.4
		c-4.3,10.2-13.1,15.8-15.9,27.6c-25,23-71.4,27.8-118,26.4c-28.8-0.9-47.5-1.7-76-6c-19-2.9-29.4-10.5-44.2-21.6
		c-16.8-12.6-21.2-14-23.8-39.6c-3.5-33.9,0.2-77.9-2.3-117.6c-2.5-41.1-2.5-92.9-2.3-144c0.2-38.5-1.4-77.2,1.1-117.6
		c2.1-33.4-2.4-59.6,19.3-73.2C45.6,71,55.3,58.1,75.4,56.1c-1.7-21,9.6-31.8,27.2-37.2C138.5,8,201.9,8,225.1,33.3z M199,32.1
		c-26.3-0.7-69.2-8.1-89.6,4.8c-6.9-0.9-10.5,1.7-13.6,4.8c15.4,25.7,83.4,19.9,111.2,6C205.1,41.7,203.1,35.8,199,32.1z M89,70.5
		c-0.4-4.8,1.5-11.9-3.4-12c1.3,7.2-1.2,22.9,10.2,22.8c0-10.8,1-13.9,2.3-24c-1.4-2.5-3.3-4.5-5.7-6C91.6,58.1,94.8,69,89,70.5z
		 M106,87.3c-0.7-10.6,3.1-17,1.1-26.4c-1.5-0.1-1.6-1.5-3.4-1.2C103,67.1,97.2,84.4,106,87.3z M110.6,88.5c2.6,1.6,6.4,2,9.1,3.6
		c0.1-5.7-5-12.2-2.3-16.8c5.6,13.3,21.8,21.7,40.8,16.8c-1.2-8.3,2.6-22-2.3-26.4c-4.8,5.2,4.6,18-3.4,19.2
		c-4.5-4.6-1.3-11.6-1.1-18c-16.1,0.1-28.6-3.9-42-3.6C114.1,67.5,107.9,82.2,110.6,88.5z M180.9,65.7c1.6,24.5,0.4,2.4,2.3-2.4
		c-1.5-0.1-1.6-1.5-3.4-1.2C179.3,63.8,180.8,64.7,180.9,65.7z M175.2,80.1c-0.6-5.8,1.6-14.5-2.3-16.8
		C172.2,69.5,168.5,79.1,175.2,80.1z M166.1,92.1c-0.5-6.1,1.6-17.8,1.1-27.6c-1.1,0-2.3,0-3.4,0C162.7,72.4,160.5,90.5,166.1,92.1z
		 M227.4,70.5c-0.3,6.1-3.8,8.8-5.7,13.2c-41,21.9-107,24.9-142.9-3.6c-3.2-2.5-4.2-5.7-7.9-7.2c-13.5-5.2-34.2,8.4-40.8,18
		c2.4,6.7,3.8,14.4,13.6,13.2c-3.2,7.7,7,5.5,9.1,10.8c4.9,0.3,4.6-4,9.1-1.2c58.9,20.7,156.3,20,200.8-12
		c2.4-7.1,7.6-11.2,6.8-21.6C259.8,73.6,244.1,72.3,227.4,70.5z M184.3,87.3c0.8,0,1.5,0,2.3,0c0.7-0.1,1.3-0.2,1.1-1.2
		c-1.6-0.3-1.9-2-3.4-2.4C184.3,84.9,184.3,86.1,184.3,87.3z M173,90.9c0.8,0,1.5,0,2.3,0c1.3-1.7,1.2-2.9-1.1-3.6
		C174.1,89,173.6,90,173,90.9z M272.8,93.3C274.4,97.3,275.6,88.7,272.8,93.3L272.8,93.3z M18.7,113.7c0.6,26.8,2,57.6,3.4,82.8
		c5.5,101.3,2.6,193.4,11.3,290.3c1,10.8-2.2,26.6,7.9,34.8c-4.9-25.3-1.1-46.9-1.1-70.8c-0.1-48-5.1-94.7-5.7-136.8
		c-0.9-59.7-1.6-111.8-4.5-170.4c-0.3,2.1,1.1,6-2.3,4.8c2.2-19.7,3.6-35.1-3.4-46.8C23.8,107.1,21.2,110.4,18.7,113.7z
		 M201.3,150.9c-0.3-2,1.5-3.2,2.3-1.2c2,5-3.4,18.9-3.4,19.2c-0.9,5.9,0.6,17.8,2.3,4.8c1.5,60.5-7.6,128-4.5,197.9
		c0.8,18,2.2,32.8,1.1,45.6c-0.3,3.8,2.9,12.5-3.4,13.2c1.6-18,2.1-46.6-1.1-68.4c-5.6,18.2,0.2,41.5-4.5,58.8
		c-1.6-94.6,14.7-212.3,3.4-289.1c-48.2,3.1-100.5,8-139.5-9.6c-6.2-2.8-10.2-10.4-18.2-8.4c-6.2,12.9-1,25.7,0,39.6
		c2.5,36.5-1.7,77.3,0,114c0.5,10.2,4.1,20.2,4.5,31.2c2.5,70.4-0.5,147.7,5.7,225.5c7.5,3.7,14.9,7.4,27.2,6
		c7.8,9.1,17.1,3.9,27.2,7.2c3.6,1.2,7.1,3.8,10.2,4.8c10.6,3.3,18.1-5.5,27.2-1.2c-31.3,13.4-63.7-7.1-93-10.8
		c-2.2,13,12.4,17,22.7,20.4c29,9.6,68.7,11.5,94.1,2.4c9.5-3.4,20.7-6.5,30.6-10.8c9.3-4,24.8-6.5,22.7-18
		c-20,6.5-44.8,22.1-63.5,15.6c6.8-1.6,14.8-2,21.6-3.6c-2.2-5.4-13,2.4-14.8-2.4c21.6-5.2,47.4-5.9,60.1-20.4
		c0.5-3.4-4.2,3-4.5-1.2c0.7-2.4,5.7-0.3,4.5-4.8c0-115.8-1-239.9-1.1-357.5c0-6.2,4.4-15.4-2.3-20.4c-5.7,4.6-9.4,19.6-13.6,15.6
		c0-0.7-0.9-1.4-1.1,0C203.9,145.3,197.2,150.1,201.3,150.9z M224,131.7C224.7,132.5,223.5,131.2,224,131.7L224,131.7z M197.9,131.7
		c-0.9,0.3-2.2,0-2.3,1.2C196.5,132.6,197.9,132.9,197.9,131.7z M227.4,150.9c-0.8-4.8,2-13.3-2.3-14.4
		C225.9,141.3,223.2,149.8,227.4,150.9z M200.2,141.3C200.9,142.1,199.7,140.8,200.2,141.3L200.2,141.3z M259.2,210.9
		c0.4-20.9,4-53.3-2.3-70.8C256,163.4,253.7,186.7,259.2,210.9z M231.9,144.9C233.2,149.7,233.2,140.2,231.9,144.9L231.9,144.9z
		 M239.9,149.7C240.6,150.5,239.4,149.2,239.9,149.7L239.9,149.7z M231.9,176.1c-0.8-7.1,4.2-13.6,1.1-21.6
		C231.6,162.3,230.1,168.9,231.9,176.1z M11.9,168.9C12.6,169.7,11.4,168.4,11.9,168.9L11.9,168.9z M13,248.1
		c-0.7-22.4,1.2-53.5-1.1-75.6C11.3,191.8,8.1,227.4,13,248.1z M272.8,177.3C274.1,182,274.1,172.6,272.8,177.3L272.8,177.3z
		 M199,188.1C199.8,188.9,198.6,187.6,199,188.1L199,188.1z M237.6,191.7C238.4,192.5,237.1,191.2,237.6,191.7L237.6,191.7z
		 M238.7,194.1C237.8,201.2,239.4,189.3,238.7,194.1L238.7,194.1z M238.7,198.9C236,202.9,242.5,196,238.7,198.9L238.7,198.9z
		 M238.7,203.7C237.8,210.8,239.4,198.9,238.7,203.7L238.7,203.7z M238.7,208.5C239.5,209.3,238.3,208,238.7,208.5L238.7,208.5z
		 M256.9,227.7C257.6,228.5,256.4,227.2,256.9,227.7L256.9,227.7z M256.9,237.3c0.1-1.6,0.2-8.7-1.1-4.8
		C255.6,234.1,255.6,241.2,256.9,237.3z M269.4,236.1C268.4,243.2,270,231.3,269.4,236.1L269.4,236.1z M254.6,244.5
		c3.2,1.9,3.1-5.2,1.1-4.8C256,242,254.5,242.3,254.6,244.5z M261.4,243.3c-1.5,0-1-2.1-2.3-2.4
		C257.9,243.3,260.9,246.6,261.4,243.3z M254.6,274.5c4.5,11-4.3,22.2,2.3,28.8c2.2-17.7,5.5-40,2.3-56.4
		C257.4,257,258.8,265.6,254.6,274.5z M255.8,256.5c1.3-1.3,0.4-5.5-1.1-7.2C255.3,251.4,253.2,256.3,255.8,256.5z M10.7,252.9
		C12,257.6,12,248.1,10.7,252.9L10.7,252.9z M235.3,254.1c0.8,0,1.5,0,2.3,0c0-0.8,0-1.6,0-2.4c-0.8,0-1.5,0-2.3,0
		C235.3,252.5,235.3,253.3,235.3,254.1z M254.6,258.9C253.7,266,255.3,254.1,254.6,258.9L254.6,258.9z M236.5,266.1
		c0-1.8,0.4-9.8-1.1-6C235.4,261.8,234.9,269.9,236.5,266.1z M22.1,270.9c-2-3.1-1.1,9.3-1.1,15.6c0,8.2-0.8,17.6,1.1,21.6
		C23.7,298.3,21.6,286.5,22.1,270.9z M235.3,274.5C233,285,236.1,271,235.3,274.5L235.3,274.5z M229.7,344.1
		c4.2-16.6,1.9-44.8,0-61.2C228.9,306.7,229.9,322.4,229.7,344.1z M15.3,303.3C15.3,314.6,20.8,308.7,15.3,303.3L15.3,303.3z
		 M247.8,304.5C248.6,305.3,247.3,304,247.8,304.5L247.8,304.5z M255.8,306.9C256.5,307.7,255.3,306.4,255.8,306.9L255.8,306.9z
		 M256.9,336.9C254,342.1,261,343.7,256.9,336.9L256.9,336.9z M15.3,339.2C16,340,14.8,338.8,15.3,339.2L15.3,339.2z M15.3,342.9
		C16,343.6,14.8,342.4,15.3,342.9L15.3,342.9z M16.4,351.3C17.2,352,15.9,350.8,16.4,351.3L16.4,351.3z M262.6,354.8
		c-2.3,16.2-4.9,43.5,0,56.4C262.9,392.7,263.4,361.3,262.6,354.8z M10.7,364.4C11.5,365.2,10.3,363.9,10.7,364.4L10.7,364.4z
		 M238.7,368.1C240.1,372.8,240.1,363.3,238.7,368.1L238.7,368.1z M13,388.4c-1.3-3.8,0.1-17.7-2.3-19.2C12,375.1,8,386.5,13,388.4z
		 M229.7,372.8C230.4,373.6,229.2,372.3,229.7,372.8L229.7,372.8z M238.7,374C237.1,383,239.5,369.8,238.7,374L238.7,374z
		 M254.6,377.6C252.3,388.2,255.4,374.2,254.6,377.6L254.6,377.6z M238.7,380C239.5,380.8,238.3,379.5,238.7,380L238.7,380z
		 M11.9,392C13.2,396.8,13.2,387.3,11.9,392L11.9,392z M234.2,404C235.5,408.8,235.5,399.3,234.2,404L234.2,404z M234.2,410
		C233.2,417.1,234.9,405.2,234.2,410L234.2,410z M261.4,413.6C260.5,420.7,262.1,408.8,261.4,413.6L261.4,413.6z M234.2,420.8
		C235,421.6,233.7,420.3,234.2,420.8L234.2,420.8z M261.4,435.2C262.2,436,261,434.7,261.4,435.2L261.4,435.2z M261.4,468.8
		c-0.2-8.7,3.1-24,0-30C262.1,448.2,258.1,464.6,261.4,468.8z M233.1,449.6c1.3-1.5,2.3-9.5,0-10.8
		C232.6,441.2,230.3,447.7,233.1,449.6z M251.2,443.6C252,444.4,250.7,443.1,251.2,443.6L251.2,443.6z M24.3,450.8
		C23.4,457.9,25,446,24.3,450.8L24.3,450.8z M230.8,461.6c3.8,1.5,2.8-8.1,1.1-8.4C232.5,457,229.9,457.5,230.8,461.6z M239.9,456.8
		C240.6,457.6,239.4,456.3,239.9,456.8L239.9,456.8z M26.6,489.2c-1.2-9.1,2.7-30-2.3-31.2C27.5,464.7,20.3,483.1,26.6,489.2z
		 M239.9,459.2C238.2,468.2,240.7,455,239.9,459.2L239.9,459.2z M249,461.6C249.7,462.4,248.5,461.1,249,461.6L249,461.6z
		 M249,477.2c-0.9-4.2,3.4-9.1,0-12C247.6,467,246.7,475.6,249,477.2z M253.5,484.4c5.7-0.5,2.6-12.6,1.1-14.4
		C255.1,475.7,254.3,480,253.5,484.4z M239.9,473.6C240.6,474.4,239.4,473.1,239.9,473.6L239.9,473.6z M239.9,476
		C240.6,476.8,239.4,475.5,239.9,476L239.9,476z M28.9,518c4-5.7,1.2-19.1-1.1-27.6C27.3,498.5,24.4,512,28.9,518z M229.7,507.2
		c3.5,0.9,2.2-3.3,5.7-2.4c-0.5-5-3.4-7.6-4.5-12C228.6,495.7,230.1,502.5,229.7,507.2z M251.2,519.2c2.1,0.3,2.5-1.4,4.5-1.2
		c-0.2-3-0.2-5.8,1.1-7.2C252.6,511.1,252.5,515.7,251.2,519.2z M228.5,524c3.3-0.5,5.2-2.5,5.7-6c-1.5-0.4-2.2-1.7-4.5-1.2
		C228.7,521.1,229.5,519.8,228.5,524z M33.4,526.4c-0.5-3.4-1.3-6.6-4.5-7.2C29.1,523,29.7,526.4,33.4,526.4z M39.1,528.8
		C41.8,535,42,524.7,39.1,528.8L39.1,528.8z M39.1,534.8C39.8,535.6,38.6,534.3,39.1,534.8L39.1,534.8z M235.3,536
		C236.1,536.8,234.9,535.5,235.3,536L235.3,536z M34.6,542c-2.8,0.5-3.4-7.5-5.7-3.6C31.7,537.9,32.2,545.9,34.6,542z M55,556.4
		c0.2-5-5.4-3.9-7.9-6C48.4,553.7,50.6,556.2,55,556.4z M171.8,558.8c-34.8,6.4-81.4,6.6-111.2-4.8
		C84.3,575.9,143,573.9,171.8,558.8z M177.5,557.6C178.2,558.4,177,557.1,177.5,557.6L177.5,557.6z M176.4,557.6
		c-0.9,0.3-2.2,0-2.3,1.2C175,558.5,176.3,558.8,176.4,557.6z M185.4,561.2C186.2,562,185,560.7,185.4,561.2L185.4,561.2z
		 M179.8,561.2C173.9,564.1,183.7,564.3,179.8,561.2L179.8,561.2z M58.4,564.8c-0.9,0.3-2.2,0-2.3,1.2C57,565.7,58.3,566,58.4,564.8
		z M188.8,572c3.2-3.4,11.2-1.8,12.5-7.2C195.1,567,163.4,573.7,188.8,572z M158.2,574.4C158.9,575.2,157.7,573.9,158.2,574.4
		L158.2,574.4z M103.8,581.6C104.5,582.4,103.3,581.1,103.8,581.6L103.8,581.6z M212.7,586.4C205.4,585,210.2,590.1,212.7,586.4
		L212.7,586.4z"/>
	<path class="st0" d="M142.3,76.5c0-1.2,1.4-0.9,2.3-1.2C144.6,76.5,143.2,76.3,142.3,76.5z"/>
	<path class="st0" d="M27.8,150.9C29.1,146.2,29.1,155.6,27.8,150.9L27.8,150.9z"/>
	<path class="st0" d="M26.6,158.1C27.9,153.4,27.9,162.8,26.6,158.1L26.6,158.1z"/>
	<path class="st0" d="M161.6,156.9c0.6,8.2-2,13.1-1.1,21.6c8.7,5.2,17.7-2.6,27.2-3.6c3.5,4.9,2.1,16,2.3,21.6
		c-4.6,8.7-16.3,9.9-26.1,13.2c-3.3,8.5,4.5,20.9-3.4,27.6c-9.5-0.4-18.2,0-25,2.4c-0.1-12.4,0.3-22.9-3.4-33.6
		c-10.1-2.9-23.7-2.2-30.6-8.4c0.4-9.7-0.8-15.3,0-22.8c11.1-0.1,17.5,4.7,29.5,3.6c3.2-5.7,1-10.1,1.1-18
		C139.8,155.5,148.7,157.5,161.6,156.9z M141.2,170.1c-0.2-1.6,4.6-3.6,1.1-4.8C141.7,166.1,137.7,168.9,141.2,170.1z M140.1,189.3
		C140.8,190.1,139.6,188.8,140.1,189.3L140.1,189.3z M117.4,197.7c1.8-3.6-5.9-3.2-5.7-1.2C114.4,196,114.2,198.7,117.4,197.7z
		 M133.2,200.1C134,200.9,132.8,199.6,133.2,200.1L133.2,200.1z"/>
	<path class="st0" d="M195.6,478.4c1.4,7.2-2.3,16.5,0,25.2c-13.6,11.3-46.4,12.3-72.6,9.6c3.3-11.2-6.7-18.8-2.3-30
		c5.9,0.8,6,5.5,11.3,1.2C151.7,494.9,180.1,486.7,195.6,478.4z"/>
</g>
</svg>
