<?xml version="1.0" encoding="utf-8"?>
<!-- Generator: Adobe Illustrator 21.1.0, SVG Export Plug-In . SVG Version: 6.00 Build 0)  -->
<svg version="1.1" id="Layer_1" xmlns="http://www.w3.org/2000/svg" xmlns:xlink="http://www.w3.org/1999/xlink" x="0px" y="0px"
	 viewBox="0 0 350 500" style="enable-background:new 0 0 350 500;" xml:space="preserve">
<style type="text/css">
	.st0{fill-rule:evenodd;clip-rule:evenodd;fill:#236003;}
</style>
<g>
	<path class="st0" d="M333.5,114.5c-6.2-27.8-28-50.9-44.8-68.5c-12.7-3.5-19.6-13.9-30.5-18.9C220.1,9.8,170.8,0.3,124.6,9.7
		c-3.7,0.8-7.2,3.3-12.4,4.7c-2.7,0.8-8.1,0.7-10.5,1.6c-6.4,2.4-13.6,8.4-21,11.8C60.2,37.4,47,52.1,34.9,67.2
		c-2.2,2.8-5.7,5-7.6,7.9c-4.5,6.5-5.3,14.7-8.6,22.1c-2.6,5.8-6.7,9.3-7.6,15c-0.8,5.1,0.6,10.3,0,15.7c-0.4,4.1-2.5,8.5-2.9,12.6
		c-1.7,22,9.4,38.9,19.1,57.5c6.7,12.8,14.4,28.2,23.8,37c5.7,5.3,14.1,9.9,15.3,18.1c24.5,11.6,30.9,38.1,37.2,64.6
		c-5.2,1.4-8.1,4.9-14.3,5.5c1,6.2-1.4,10.3-4.8,15.8c6.2,7.7,10,14.2,18.1,21.3c-3.7,7.6-14,11.7-13.4,19.7
		c0.4,5.2,9.8,9.5,10.5,15.7c1,9.2-9.4,11.5-5.7,22.1c12.1,4.9,14.1,19.3,2.9,26c2.5,0.8,3.1,3.2,2.9,6.3c10.5,1,12.6,10.6,21,11
		c0.8,2.2-1.3,2-1,3.9c4.5-0.3,6,2.4,9.5,4.7c26.4,0.3,35.9,17.8,59.2,18.1c2.5,0.3,2.2,2.9,4.8,3.2c7.8-1.1,13.3-6.3,20-10.2
		c13.6-8,28.8-14.3,42.9-20.5c2.2-5.8,8.8-8,13.4-11.8v-3.9c3.7-3.5,11.1-4,12.4-9.5c-4.6-5.1-11.5-8.3-15.3-14.2
		c5.4-8.2,12.7-14.7,16.2-24.4c-5.2-6-15.9-4.1-20-11.8c4.2-7.6,8.7-14.9,14.3-21.3c-6-4.3-15.3-5.8-16.2-14.2
		c7.2-0.2,6.6-8.7,5.7-10.2c4.7-4.5,12.9-6.1,14.3-13.4c-3.4-1.2-7.2,0.8-8.6-3.2c0.4-1.2,3-0.7,1.9-3.1c-6.8-0.4-14.2-3.8-16.2-8.7
		c-2.2-5.3,0.5-27.8,2.9-32.3c10.9-20.7,43.8-41,52.5-59.1c-0.6-6.1,5.7-9.6,8.6-15c1.8-3.3,1.6-6.8,2.9-11
		c2.3-7.7,6.9-15.4,9.5-22.8C341,151.7,337.1,130.6,333.5,114.5z M275.3,435.1c-2.1,0.1-3-0.6-2.9-2.4
		C274.5,432.6,275.5,433.4,275.3,435.1z M298.2,96.4c-4.7-2.9-4.8-9.7-8.6-13.4C294,83.1,297.4,90.7,298.2,96.4z M280.1,56.2
		c-1.3-0.8-1.9-2.1-3.8-2.4C277.2,51.9,280.5,54.5,280.1,56.2z M280.1,66.4c-3.3-0.2-4.2-2.3-4.8-4.7
		C278.6,61.9,279.5,64.1,280.1,66.4z M258.1,46c-3.8,3.1-3.9-3.6-6.7-3.9C253.9,40,255.5,45.5,258.1,46z M236.2,37.3
		c-2.6,2.1-7.5-0.6-8.6-2.4C229.7,33.2,233.5,36.9,236.2,37.3z M174.2,16c-2.2,2.2-5.6-1.1-9.5,0C163.1,14.2,172.1,15.7,174.2,16z
		 M188.5,23.1c-32.6-1.8-67.9,3-90.6,15.8C111.3,21.4,158.5,14.1,188.5,23.1z M54,58.6c2.1,0.6-2.1,2.4-1.9,3.9
		C49.1,61.2,54,60,54,58.6z M137.9,328c-9.9,3.8-24.5,11.5-37.2,7.9C104.8,324.2,122.7,327.7,137.9,328z M129.3,347.6
		c2.1-4.3,3.6-9.1,4.8-14.2c2.9-1,5.2-2.5,9.5-2.4C140.5,338,136.7,344.3,129.3,347.6z M137.9,345.3c-0.6-3.4,3.1-3.2,2.9-6.3
		C142.8,340.4,141.2,345.6,137.9,345.3z M128.4,335.8c-0.8,2-2.6,3.1-2.9,5.5C123.5,340.1,124,334.4,128.4,335.8z M116.9,349.2h-6.7
		c0.1-3.6,2.4-5.4,1.9-9.4c1.5-1.4,5.1-1,6.7-2.4C122.2,341.5,116.7,345,116.9,349.2z M113.1,357.1c0.3-1.8,4.2-0.8,4.8-2.4
		C120,355.5,115.5,357.4,113.1,357.1z M106.4,341.3c-0.2,0.9-1.7,0.7-2.9,0.8C103.7,341.2,105.3,341.5,106.4,341.3z M99.8,346.1
		c0.8-1.7,4.5-1,4.8-3.2c3,0.2,1.6,3.9,1.9,6.3C102.2,349.8,102.5,346.7,99.8,346.1z M102.6,384.7c-2-1.7-3-4.4-5.7-5.5
		c3.4-5.9,7-11.6,11.4-16.5c18.1-5.2,33.7-13.1,52.5-18.1c20.4-5.4,40.5-13,63-16.5c1.1-1.2,2.4-2.2,3.8-3.2
		c5.8,2.3,14.5-3.3,17.2,3.9c-17.5,6.7-37.3,11.6-52.5,18.1c-3.6,1.1-1.8-2.2-4.8-1.6c-4.3,3.2-11.1,9.4-18.1,5.5
		c-2.1,2.7-6.6,6.8-11.4,4.7c-4.7,1.3-8.1,7.2-14.3,4.7c-9.9,9.7-33.1,8.4-42.9,18.1c2.8,4,9-0.3,12.4-0.8c-0.5,3-2,5.2-2.9,7.9
		C108.2,381.9,106.8,384.2,102.6,384.7z M147.5,341.3c1-2.4-1.7-14.5,7.6-12.6C154.8,334.8,150.8,337.8,147.5,341.3z M153.2,341.3
		v-1.6c0.8,0.1,0.9-0.3,1-0.8C156,338.7,155.5,342.6,153.2,341.3z M169.4,333.5c-3.1,2.2-3.9,6.2-9.5,6.3c-1.7-2.8,0.7-8.1,1-11.8
		c1.5-0.1,3.6,0.4,3.8-0.8C166.8,330.4,163.2,333.6,169.4,333.5z M165.6,326.4c0.3-4.6,5.6-0.8,9.5-1.6
		C172.5,328.7,168.8,325.3,165.6,326.4z M76.8,107.6c17,12.8,36.2,23.7,53.7,35.9c0.3,0.9,0.7,1.8,1,2.6c0.2,0.5,1.1,0.7,1.4,0.1
		c0-0.1,0.2-0.4,0.4-0.9c2.2,1.5,4.3,3.1,6.4,4.7c0.7,1.7,1.4,3.4,2.2,5c0.5,1.1,2.3,0.9,2.5-0.3c0.1-0.3,0.2-0.7,0.2-1
		c1.2,0.9,2.3,1.9,3.4,2.9c0.3,0.8,0.6,1.6,0.9,2.4c0.4,0.9,1.8,1.1,2.4,0.5c3.7,3.3,7.1,6.7,10.4,10.2c0.3,4.6-1,9.4-2.6,13.9
		c-1.3,3.6-3.2,7.7-6.6,10.3c-1.1,0.9-2.1,1.1-3,1c-11-22.3-29.5-40.2-47.9-58.7c-5-6.4-9.9-12.8-14.8-19.4c-0.2-0.3-0.7,0-0.5,0.2
		c5,6.3,10,12.6,15,18.9c-7.1-7.1-14.2-14.4-20.7-22c0,0-0.1,0-0.1,0c9.2,12,19.8,23.1,30.2,34.2c10.3,13.7,19.9,27.7,28,42.2
		c2.3,11.3,3.7,26,0.3,36.6c-0.2-0.7-0.3-1.4-0.5-2c-0.1-0.3-0.6-0.2-0.6,0.1c0.1,0.7,0.1,2.3,0.2,4.2c-0.7,1.7-1.6,3.3-2.6,4.7
		c-0.1-0.3-0.1-0.7-0.2-1c-0.1-0.7-1.3-0.8-1.4,0c-0.1,0.9,0,1.9,0.1,2.8c-1.8,1.8-3.9,3.2-6.5,4.1c0,0,0,0,0,0c0,0-0.1,0-0.1,0
		c0,0,0,0,0,0.1c-1.5,0.5-3.3,0.9-5.1,1.1c-1.3-1.4-2.4-2.8-3.4-4C93.4,205,97.8,163.9,82.1,129.1c-0.7-3.4-1.6-6.7-2.8-9.8
		c0.2,0.1,0.5,0,0.4-0.2c-0.3-0.5-0.8-1-1.1-1.5c-0.7-1.8-1.6-3.5-2.6-5.2c0,0-0.1-0.1-0.1-0.2c0,0,0,0,0,0
		c-0.7-1.3-1.5-2.6-2.4-3.7c0.5,0.3,1,0.6,1.6,0.8c0.2,0.1,0.4,0.1,0.6,0.1c1.2,1,2.4,2,3.5,3.1c0.2,0.2,0.6-0.1,0.4-0.3
		c-1-1-2.1-1.9-3.2-2.9C77.1,108.9,77.4,108.2,76.8,107.6z M220.1,144.2c0.3-0.2,0.6-0.4,1-0.6c-6.7,5.9-13.6,11.8-20.3,17.7
		c0-0.1-0.1-0.1-0.1-0.2C207.6,154.9,214.4,149.1,220.1,144.2z M202.8,327.2c-2.6,1.8-6.6,2.4-10.5,3.1
		C194,328,200.1,326.1,202.8,327.2z M197.1,323.2c3.2-1.8,10.5-0.3,15.3-0.8C209.1,324.3,201.9,322.7,197.1,323.2z M72.9,123
		c1,0.3,2.2-0.5,1.5-1.4c-1.1-1.3-2-2.7-2.9-4.1c-0.7-1.7-2.9-6.6-4.4-10.3c-0.1-0.3-0.2-0.7-0.3-1c1.2,1,2.4,2,3.5,3.1
		c2.8,3.5,4.7,7.5,6.1,11.8c-0.6,0.3-1.1,0.8-0.8,1.4c1.5,4,3.4,12.6,5.9,23.5c0,2.4-0.1,4.9-0.1,7.3c-0.2,0-0.3,0.1-0.5,0.2
		C78.4,143.4,75.8,133.2,72.9,123z M85.4,162.5c6.9,27.7,17.1,61.6,32.2,78.9c-0.2,0-0.4,0.1-0.6,0.2c-16.3-14.3-26-45.5-30.4-67.7
		C86.2,170.1,85.8,166.3,85.4,162.5z M136.8,179.6c3.7,5.3,7,10.8,9.8,16.6c-0.2,0-0.3,0.1-0.3,0.3c0.1,1.6,0.2,3.2,0.3,4.7
		c-2.3-4.4-4.8-8.8-7.4-13.1C138.4,185,137.6,182,136.8,179.6z M137.6,185.6c-7.7-12.3-16.5-24-25.6-35.7c8.4,9,16.5,18.1,23.5,27.9
		c0,0,0,0,0,0.1C136.1,179.8,136.9,182.5,137.6,185.6z M177.4,177.1c0.1,0.4,0.5,0.6,0.8,0.8c-0.4,0.4-0.8,0.7-1.1,1.1
		c0-0.1,0.1-0.1,0.1-0.2C177.3,178.2,177.4,177.6,177.4,177.1z M178.8,189c0.5-0.3,0.8-0.7,0.9-1.1c0.4-0.5,0.9-1,1.3-1.5
		c14.5-16.5,32.2-30.7,48.7-45.8c-3,4.2-5.7,8.6-8.1,13.1c-15.7,17.8-23.7,40.4-30.7,61.2c-3.1,9.2-5.7,18.6-7.8,28
		c-1.8,1.5-3.9,2.6-6.3,3.4c-2.2,0.3-4.5,0.2-6.8,0c-6.1-4.4-9.8-9.2-11.6-14.4c-0.2-1.4-0.3-2.8-0.4-4.2c0.1-0.5,0.2-1.1,0.3-1.6
		c0.7-2.5,1.6-5,2.4-7.4c1.7-4.9,3.8-9.9,6.3-14.9c3.5-5.1,7.6-10,11.6-14.6C178.6,189.1,178.7,189,178.8,189z M183.6,285.1
		c-0.4,0.1-0.7,0.3-0.7,0.7c0,1.8,0,3.7,0,5.5c-0.1,0.5-0.1,1.1-0.2,1.6c-0.4-2.2-1-4.5-1.7-6.7c0.4-9.3,1.3-18.5,2.8-27.7
		c0,0,0,0,0,0c0.6,0.1,0.9-0.5,0.4-0.8c-0.1-0.1-0.2-0.1-0.3-0.2c0.2-1.4,0.5-2.8,0.8-4.2c0.5-0.5,1-1,1.5-1.5
		c0.6,1.4,1.3,2.8,2.1,4.1c-0.6,2.9-1,5.9-1.3,8.9C185.5,271.5,184.4,278.2,183.6,285.1z M150.6,244.3c-0.3-0.8-0.5-1.7-0.6-2.5
		c0.1-0.2,0.1-0.3,0.2-0.5C150.2,242.4,150.3,243.4,150.6,244.3C150.6,244.3,150.6,244.3,150.6,244.3z M152.3,219.7
		c0.1,0.3,0.3,0.6,0.4,1c0,0.1,0.1,0.1,0.2,0.2c-0.1,0.4-0.2,0.9-0.3,1.3c-0.4,1.6-0.7,3.2-0.9,4.7c-0.2-0.8-0.4-1.6-0.6-2.4
		C151.4,222.8,151.8,221.2,152.3,219.7z M154.2,216.5c-0.1,0.2-0.2,0.5-0.3,0.7c-0.2-0.4-0.3-0.8-0.5-1.2c0.4-1.2,0.9-2.5,1.4-3.7
		C154.5,213.7,154.3,215.1,154.2,216.5z M163.2,206.3c0.1-0.2,0.1-0.3,0.2-0.5c0.8-1.3,1.6-2.6,2.5-4c-0.6,0.9-1.1,1.9-1.6,2.8
		C164,205.2,163.6,205.8,163.2,206.3z M170.9,183.5c-0.3,0.3-0.6,0.5-0.9,0.8c-0.3-1.7-0.6-3.4-1-5.1c0.3,0.4,0.6,0.8,0.9,1.2
		C170.2,181.4,170.6,182.4,170.9,183.5z M151.2,210.9c-1-2.4-2.1-4.7-3.3-7c-0.3-2.2-0.5-4.5-0.9-6.7c1.9,4,3.4,8.1,4.7,12.3
		C151.6,210,151.4,210.4,151.2,210.9z M150,214c-0.2,0.5-0.4,1-0.5,1.6c-0.2-1.4-0.4-2.7-0.5-4.1C149.3,212.3,149.6,213.2,150,214z
		 M212,185.8c3.5-10.6,7.4-21,12.6-31.1c0.1-0.1,0.1-0.1,0.2-0.1c2.3-2.8,4.5-5.8,6.5-8.7c0.5,0.9,1,1.8,1.6,2.8
		c-19.1,30.8-32.8,62.5-41.4,95.4c0-4.9,1.5-9.9,3.5-14.7c0.1-0.2-0.3-0.4-0.5-0.2c-2.6,2.6-4.3,5.6-5.2,8.7c-0.5-0.2-1-0.2-1.5,0
		c1.3-5.6,2.7-11.1,4.3-16.7c5.9-20.2,13.2-42.2,26.2-60.8c-3.7,8.2-6.2,16.7-7.4,25.3C210.9,186.2,211.9,186.3,212,185.8z
		 M238.5,169.8c0,0.7,1.2,0.6,1.2,0c0.1-0.8,0.2-1.6,0.2-2.4c2.6,9,4.9,19.4,6.3,30c0.1,22.4-4.6,43.4-22.7,56.6
		c-0.5,0-1.1,0.2-1.3,0.7c0,0.1-0.1,0.2-0.2,0.3c-1.3,0.9-2.6,1.7-4,2.5c-0.1-0.3-0.1-0.6-0.3-0.8c0,0-0.1,0-0.1,0
		c-0.1,0-0.1,0-0.1,0c-0.1,0-0.1,0-0.1,0c0,0-0.1,0-0.1,0c-0.3,0.5-0.4,1-0.5,1.6c-3.3,1.8-7,3.3-11,4.6c-0.3-0.1-0.6-0.1-0.9-0.1
		c-2.7-1.4-5.3-3-7.6-4.8c-0.9-1-1.8-1.9-2.4-2.9c-0.7-1.4-1.2-2.9-1.3-4.4c0.3-0.5,0.6-0.9,0.8-1.4c0.1-0.3-0.2-0.6-0.5-0.7
		c1.3-5.4,2.8-10.8,4.4-16.2c0,0,0,0.1,0.1,0.1c0.4,0,0.4-0.5,0-0.5c0,0,0,0,0,0c8.3-28,20.1-55.4,35.1-82.5c1.7,3.5,3.4,7.7,5,12.5
		C238.3,164.6,238.3,167.2,238.5,169.8z M241.1,157.2c0.1,0.3,0.1,0.6,0.2,1c0.2,0.7,1,0.9,1.6,0.8c0.1,6.6,0.8,13.2,1.7,19.8
		c-1.3-5.7-2.7-11-4.2-15.8C240.6,161,240.9,159.1,241.1,157.2z M238.5,257.2c-0.1,0-0.2,0-0.3,0.1c-2.1,1.3-4.1,2.6-6.3,3.7
		c0.8-1.3,1.6-2.7,2.4-4c0.7,0.6,2.1,0.7,2.7-0.2c1.2-2,2.5-3.9,3.5-5.9c0.2,0.6,0.4,1.2,0.7,1.8
		C240.4,254.2,239.5,255.7,238.5,257.2z M216.4,262.9C216.4,262.9,216.4,262.9,216.4,262.9c-0.1,0-0.1,0-0.2,0.1
		C216.2,263,216.3,262.9,216.4,262.9z M216.7,265.6c0.1,0.1,0.2,0.1,0.4,0.2c-0.3,0-0.6,0-1,0C216.3,265.8,216.5,265.7,216.7,265.6z
		 M218.5,265.4c1.2-1.4,2.2-2.9,3.2-4.5c0.2-0.1,0.3-0.1,0.5-0.2c0,1.1,0,2.1,0,3.2c0,0.3,0.2,0.6,0.4,0.8c-1.4,0.4-2.9,0.7-4.3,0.9
		C218.3,265.6,218.4,265.5,218.5,265.4z M224.9,259.4c0.2-0.1,0.4-0.2,0.6-0.4c-0.2,0.3-0.4,0.6-0.6,0.9
		C224.9,259.8,224.9,259.6,224.9,259.4z M227.9,260.4c0,0.5,0,1,0,1.6c0,0.3,0.1,0.5,0.3,0.7c-1,0.4-2,0.8-3,1.2
		C226.2,262.8,227.1,261.6,227.9,260.4z M231.1,255.3c0.4-0.3,0.8-0.7,1.2-1.1c-0.4,0.7-0.8,1.5-1.2,2.2
		C231.1,256,231.1,255.6,231.1,255.3z M237.7,248.1c0.4-0.6,0.8-1.1,1.1-1.7c-0.3,0.6-0.5,1.3-0.8,2
		C238,248.3,237.9,248.2,237.7,248.1z M243.2,244.2c0-1-1.3-1.5-2.3-1.2c3.3-6.2,5.4-13.2,6.6-20.8c-0.3,9.2-1.5,17.9-4.1,25.2
		C243.4,246.3,243.3,245.2,243.2,244.2z M243.2,150.2c-0.2-1-0.3-2.1-0.5-3.1c0.2-1.3,0.5-2.6,0.8-3.8c-0.1,1.5-0.1,3-0.1,4.4
		C243.3,148.6,243.2,149.4,243.2,150.2z M189.1,248.3c0.2,0.7,0.3,1.5,0.6,2.2c-0.4-0.5-0.7-1-1-1.6
		C188.8,248.7,188.9,248.5,189.1,248.3z M181.7,249.4c-1.4,0.7-2.9,1.3-4.5,1.5c0-0.1-0.1-0.2-0.3-0.3c-0.1,0-0.1-0.1-0.2-0.1
		c1.7-0.5,3.4-1.2,5-2.1c0.1,0,0.2-0.1,0.2-0.1C181.9,248.7,181.8,249,181.7,249.4z M174.9,251.1c-0.2,0-0.5,0-0.7,0
		c0.2,0,0.3-0.1,0.5-0.1C174.8,251.1,174.8,251.1,174.9,251.1z M242.5,132.5c0-0.1,0-0.1,0-0.2c0-0.2,0-0.4-0.1-0.5
		c0.1-0.2,0.3-0.3,0.4-0.5C242.7,131.8,242.6,132.1,242.5,132.5z M240,140.9c0,0.8,0,1.7-0.1,2.5c-0.8,4.5-1.3,9-1.5,13.5
		c-1.3-3.5-2.6-6.7-4-9.3c1.2-2.2,2.4-4.3,3.7-6.5c0.1-0.2-0.2-0.3-0.3-0.1c-1.3,2-2.5,4-3.8,5.9c-0.4-0.8-0.9-1.6-1.3-2.3
		c-0.1-0.1-0.2-0.2-0.4-0.2c0.2-0.2,0.4-0.5,0.5-0.7c0.2-0.2,0.3-0.3,0.5-0.5c0.4,0,0.7-0.2,1-0.5c2.2-2.5,4-5.1,5.7-7.7
		C240.1,136.9,240,138.9,240,140.9z M174.8,181.2c0-0.1,0-0.2-0.1-0.3c-0.5-0.8-1.1-1.5-1.6-2.2c0.3-0.2,0.5-0.5,0.6-0.9
		c0,0.3,0.1,0.6,0.1,0.9c0,0,0,0,0,0c0,0,0,0,0,0c0,0.1,0,0.3,0.1,0.4c0.2,1.1,1.4,1.2,2.4,0.8C175.7,180.3,175.2,180.8,174.8,181.2
		z M168,167.3c0.1,1.8,0.3,3.7,0.5,5.6c-0.4-0.5-0.9-1-1.3-1.5c0.1-0.2,0.3-0.3,0.3-0.5c0-1.7,0.1-3.5,0.2-5.2
		C167.8,166.2,167.9,166.7,168,167.3z M160.6,160.1c0-0.2,0-0.5,0.1-0.7c0.1,0.4,0.2,0.7,0.3,1.1
		C160.9,160.4,160.7,160.3,160.6,160.1z M166.7,175.8c0.3,1.7,0.5,3.4,0.8,5.1c0.2,1,0.2,3.2,0.4,5.5c-1.1,1.1-2.2,2.3-3.3,3.5
		c-0.5-2.8-1-5.6-1.7-8.4c-0.1-0.4-0.6-0.4-0.9-0.2c1-3,1.5-6,1.7-9C164.7,173.5,165.7,174.6,166.7,175.8z M161.7,182.1
		c0.6,3.2,0.7,6.6,1,10c-1,1.3-2,2.6-3,3.9c0-0.9-0.1-1.7-0.1-2c-0.2-2-0.4-3.9-0.6-5.9C160.1,186.1,161,184.1,161.7,182.1z
		 M158.2,198.2c-0.5,0.8-1.1,1.6-1.6,2.4c-0.3-1.8-0.7-3.5-1.4-5.1c-0.1-0.1-0.3-0.2-0.3,0c-0.6,2.8-0.6,5.7-0.4,8.6
		c-0.2,0.4-0.4,0.8-0.7,1.3c-1.2-3.2-2.4-6.4-3.9-9.4c3.9-0.1,6.6-3.8,8.3-6.6C158.1,192.4,158,195.3,158.2,198.2z M147,206.8
		c0.3,4.5,0.6,9,1,13.5c-0.7,2.6-1.2,5.3-1.5,8c-0.1-4.4-0.2-8.8-1.8-13c-0.2-0.5-1.1-0.3-1,0.2c1,4.3,0.7,8.8,0.6,13.2
		c-0.1,4.3,0.7,8.4,1,12.6c-0.9,0.3-1.8,0.6-2.7,0.8c-1.1-1.6-1.5-5.7-1.7-6.8c-0.3-1.5-0.7-3.1-1.1-4.6c4.3-10.2,3.1-25,0.6-37.1
		C142.8,198,145,202.4,147,206.8z M141.1,242.6c-1.2,0.3-2.3,0.5-3.5,0.7c-0.1-0.2-0.1-0.4-0.2-0.6c-0.5-1.9-1-3.9-1.4-5.9
		c0.9-1,1.7-2.1,2.4-3.4C138.8,237.2,139.6,240.9,141.1,242.6z M135,241.5c0.2,0.8,0.3,1.5,0.5,2.3c-2.1,0.3-4.1,0.5-6,0.5
		c-0.1-0.3-0.2-0.5-0.3-0.7c-0.3-0.6-0.6-1.1-0.9-1.7c2.3-0.8,4.3-1.9,6-3.4C134.6,239.5,134.8,240.5,135,241.5z M128.2,244.2
		c-1.1,0-2.2-0.1-3.2-0.2c-0.4-0.4-0.8-0.7-1.2-1.1c1.4-0.2,2.7-0.5,4-0.8C127.8,242.8,127.9,243.5,128.2,244.2z M130.8,247.6
		c1.5-0.1,2.9-0.3,4.4-0.5c0.4-0.1,0.8-0.1,1.2-0.2c0.1,0.2,0.2,0.2,0.2,0.3c0,0,0,0.1,0,0.1c-0.4,0.2-0.7,0.4-1.1,0.6
		c-1.7-0.1-3.7-0.2-6-0.2C130,247.6,130.4,247.6,130.8,247.6z M174.3,259.4c1,0,1.5-0.6,1.6-1.3c1.1-0.2,2.1-0.6,3.1-1
		c0.4,0.1,0.9,0.3,1.4,0.4c-0.9,5.7-1.6,11.4-2.2,17.1c-1.2-5.2-2.9-10.3-5-15.3C173.5,259.3,173.8,259.4,174.3,259.4z M184.8,309.8
		c0.3,1.4,0.8,2.8,1.2,4.2c-0.5-0.1-1-0.1-1.4-0.2C184.7,312.4,184.7,311.1,184.8,309.8z M249.9,123.3c1.5-3.4,3.4-6.8,5.5-10.2
		c-2.8,5.6-4.9,11.3-6.4,17C249.3,127.9,249.6,125.6,249.9,123.3z M245.6,123.4c-0.4,1-0.7,1.9-1.1,2.9c0,0,0,0,0,0
		c-1.8,1.1-3.6,2.3-5.3,3.6c-0.5-0.1-1.1,0.1-1.4,0.6c-0.1,0.2-0.3,0.4-0.4,0.7c-0.7,0.5-1.3,1-2,1.5c3.6-3.3,7.2-6.6,10.6-10.1
		C245.9,122.9,245.7,123.2,245.6,123.4z M233,136.1c-0.7,0.9-1.3,1.7-1.9,2.6c-12.3,10.1-34.6,28.2-52.1,47.5c0,0-0.1-0.1-0.1-0.1
		c1-1.1,1.9-2.1,3-3.1c0.2-0.2,0.1-0.4,0-0.6c11.3-12.1,23.7-22.8,31.8-30.2c4.6-4.2,9.3-8.4,13.9-12.5
		C229.4,138.5,231.2,137.3,233,136.1z M175.6,167c0-0.4-0.1-0.7-0.2-1.1c0.1,0,0.2,0,0.2-0.1c0.1,0.1,0.1,0.2,0.2,0.2
		C175.7,166.3,175.7,166.7,175.6,167z M175.4,165.5C175.4,165.5,175.4,165.5,175.4,165.5C175.4,165.5,175.4,165.5,175.4,165.5
		C175.4,165.5,175.4,165.5,175.4,165.5z M171.3,161.9c0,1.1-0.2,2.2-0.2,3.3c-0.4-1.8-0.7-3.6-1.1-5.3c0.5,0.5,1.1,1,1.6,1.5
		C171.5,161.5,171.3,161.7,171.3,161.9z M164.5,161.3c-0.8-2.6-1.5-5.2-2.3-7.8c1,0.7,2,1.4,2.9,2.2
		C164.9,157.6,164.7,159.4,164.5,161.3z M158.3,150.9c-0.1,2.4-0.4,4.7-0.6,7c-1.2-3.3-2.4-6.7-3.6-10c1.5,0.9,2.9,1.8,4.3,2.8
		C158.3,150.8,158.3,150.9,158.3,150.9z M154.7,158.6c-0.9-0.8-1.9-1.6-2.8-2.5c0.1-1.4,0.2-2.8,0.4-4.2
		C153.1,154.1,153.9,156.3,154.7,158.6z M149.3,152.5c-1-2.9-1.8-5.8-2.6-8.8c0,0,0,0,0-0.1c1.1,0.6,2.1,1.2,3.2,1.9
		C149.8,147.8,149.6,150.2,149.3,152.5z M146.1,151.3c-0.3-0.2-0.6-0.4-0.9-0.7c0.1-0.4,0.2-0.8,0.3-1.2
		C145.7,150.1,145.9,150.7,146.1,151.3z M144.1,144c-0.4,1.6-0.8,3.2-1.2,4.8c-0.7-0.6-1.4-1.1-2.2-1.7c-1.3-2.8-2.6-5.6-4-8.3
		c-0.2-0.5-1.3-0.8-1.6-0.2c-0.2,0.4-1,2.1-1.8,3.3c-0.8-0.6-1.7-1.1-2.5-1.7c-0.9-2.1-1.8-4.2-2.5-6.4c5.6,2.9,11.5,5.9,17.2,9.1
		C144.8,143,144.2,143.4,144.1,144z M137.4,144.9c-1-0.7-1.9-1.4-2.9-2.1c0.6-1,1.3-1.6,1.8-0.5C136.7,143.2,137.1,144,137.4,144.9z
		 M127,133.2c0.6,2,1.3,3.9,2,5.8c-13.4-8.9-27.5-17.1-41-25.8c9.7,5.9,22.2,10.9,30.2,15.3C121,130.1,123.9,131.6,127,133.2z
		 M170.1,259c1.3,2.8,2.3,5.6,3.3,8.4c-1.2-2.8-2.4-5.6-3.5-8.5C169.9,258.9,170,258.9,170.1,259z M186.6,331.9
		c-2,2.1-6.1,2.4-9.5,3.2c-0.7-0.7-1-1.8-1-3.2C179.6,333.5,181.8,331.4,186.6,331.9z M242.9,278.3c2.1,4.9-3.6,10.2-3.8,15.8
		C236.5,288.8,242.8,284.1,242.9,278.3z M252.4,332.7c-2.6,3.7-3.1,9-7.6,11C244.1,337.4,244.8,332.1,252.4,332.7z M241.9,384.7
		c3.3-5.4,1.8-14.8,11.4-15C253.2,374.6,248.5,382.4,241.9,384.7z M227.6,349.2c0-5.5,2.2-9.2,4.8-12.6c3.3,0.6,3.7-1.2,6.7-0.8
		c-1.4,6.5,3.8,10.4,2.9,14.2c-3.5,1.1-7.3,1.9-11.4,2.4c0.8-1.7,2.9-2.3,2.9-4.7C232.1,345.7,230.2,349.7,227.6,349.2z M221.9,350
		c2.6-0.3,0.9,2.9,2.9,3.2c-1.2,1.9-3.9,2.5-6.7,3.1C218.7,353.6,221.4,352.8,221.9,350z M212.3,355.5c2.2-6.4,4.2-12.8,10.5-15.7
		c3.4,0.2,0.1,7,0,9.4C217.8,347.2,216.8,354.5,212.3,355.5z M209.5,358.7c-1.3,2.1-4.9,2.2-7.6,3.1c0.7-3.3,1.5-4.6-2.9-3.1
		c1.1-6.9,1.9-14.2,11.4-14.2C210.5,349.6,205.8,355.3,209.5,358.7z M195.2,364.2c-9.1,2.2-16.9,5.5-25.8,7.9
		c-0.4-1-1.2-1.6-2.9-1.6c2.3-3.5,10.7,1.6,12.4-3.1c-4.8,1.9-7.2,1-12.4,0c3.1-6.6,5.7-13.7,16.2-14.2c-1.7,4.1-5.4,8-3.8,12.6
		c2.5,0,5.4,0.3,6.7-0.8c-3.6-6.8,2.1-15.5,11.4-16.5C196,353.2,192.9,359.1,195.2,364.2z M148.4,370.5c-1.1,2.2-1.1,4.1,0,6.3
		c2.8-0.3,4.8-1.3,6.7-2.4c-0.8-1.4-3-2.3-1-3.9c1.2-1.1,4.1-0.8,6.7-0.8c0.5,1.6,2.4,2.2,1.9,4.7c-8.6,2.1-14.5,6.4-23.9,7.9
		C142.8,379,142.1,371.8,148.4,370.5z M147.5,365c-0.5,1.2-1.4,2-1.9,3.2C144.3,368.5,145.1,364.2,147.5,365z M149.4,368.9
		c-2.9-1,0.7-3,1-3.9C153.2,365.9,149.7,368,149.4,368.9z M160.8,368.1c-1.7-1.5-2.4,0.6-5.7,0c2.2-3.2,2.1-8.3,7.6-8.7
		C163.1,363.5,158,364.2,160.8,368.1z M131.2,370.5c0.3-1.8,4.2-0.8,4.8-2.4c0.2,4.9-6.5,10.9-9.5,15.8
		C123.9,379.6,134.5,375.3,131.2,370.5z M117.9,375.2c1.2-1.9,5.1-1.6,6.7-3.1c1.1,4.9-5.3,17.1-10.5,22.1
		C109,387,122.3,381,117.9,375.2z M106.4,414.6c-1.8-7.6,10-11.8,11.4-18.9c24.6-13.1,60.2-22.4,91.6-32.3
		c10.8-3.4,18.3-8.3,32.4-8.7c-0.9,1.9-1.7,3.9-1.9,6.3c2.2,2.4,6,3.4,8.6,5.5c-43.1,15.1-87.9,28.8-130.7,44.1
		c-3,0.4-3.7-1.1-5.7-1.6c-1.9,1.3-4.4,2.1-4.8,4.7c0.2,0.6,1,0.8,1,1.6c8.1,2.9,17.3-5.9,26.7-7.1c3.3,2.2-6.1,6.4-10.5,5.5
		c-2.6,2.6-4.9,5.4-5.7,9.5C114.7,419,107.6,419.6,106.4,414.6z M238.1,391c-4.8,0.5-7.9,2.4-12.4,3.1c4.6-4.6,7.2-10.8,12.4-15
		C240.4,381.9,235.4,385.5,238.1,391z M225.7,389.4c0.5-4.9,3.7-14.3,12.4-15C236.9,378.7,229.2,384.4,225.7,389.4z M219,397.3
		c-14.6,4.5-28.3,9.7-45.8,11.8c2-4.9,6.8-7.6,9.5-11.8c-0.9-2.1-3.5,0.7-3.8,1.6c-1.9-1.4,1.5-5.1,1.9-7.1c3.2-0.3,6-0.8,7.6-2.4
		c1.8,1.5-4.2,3.3-4.8,5.5c1.3,1,4.9-2.7,6.7-3.9c2.6,4.8-6.1,7-4.8,13.4c12.7-1.3,12.6-13.2,21-18.1c1.9,1.1-3.4,2.9-1.9,6.3
		c-2.8,1.1-3,4.3-4.8,6.3c0.3,1,1.7,1.2,1.9,2.4c12.1-1.8,11.5-14.1,21-18.1C221.5,387.6,217,392.4,219,397.3z M196.1,392.5
		c2-3.6,3.8-7.3,8.6-8.7C205.1,386.3,200,391,196.1,392.5z M217.1,379.9c1.5-0.1,3.6,0.4,3.8-0.8c2.1,2.9-8.9,8.3-10.5,13.4
		C208.7,388.2,215.1,383.8,217.1,379.9z M168.5,400.4c5.4,0.5-8.7,9.4,1.9,9.5c-3.6,2.3-9.6,2.6-13.4,4.7
		C156.2,409.2,165.8,405.6,168.5,400.4z M158.9,405.9c-1.8,0.7,4.2-4.7,3.8-7.9c4.2,0.3,4.9-2.3,8.6-2.4
		C168.3,400,163.3,402.7,158.9,405.9z M146.5,417c-3.4,0.1-4.3,2.3-7.6,2.4c1.4-4.9,7.3-6,9.5-10.2C150,410.5,145.5,413.4,146.5,417
		z M142.7,411.4c-2.5-0.3,3.6-4.2,0-5.5c3-1.2,5.4-2.9,9.5-3.1C149.6,406.1,145.3,408.1,142.7,411.4z M121.7,452.4
		c-1.9-0.2-1.9-2.1-3.8-2.4c-0.4-2.2,3.6-0.7,3.8-2.4C124.4,448.5,121.4,451,121.7,452.4z M130.3,454.8c-0.7-2.4,2.6-1.5,1.9-3.9
		C136.1,450.5,132.8,455.4,130.3,454.8z M126.5,453.2c1.1-2.8,3-4.9,2.9-8.7c3.4,0.2,4.6-1.5,7.6-1.6
		C133.9,446.7,131.2,450.8,126.5,453.2z M149.4,451.6c-2.9-0.6-2.8,1.4-5.7,0.8c1.1-5.7,5.7-8.4,7.6-13.4
		C152.6,441.7,148,446.2,149.4,451.6z M139.8,451.6c-0.2-3.6,2.4-11.6,8.6-12.6C145.9,443.5,143.4,448,139.8,451.6z M152.2,458.7
		c0.2-0.9,1.7-0.7,2.9-0.8C154.9,458.8,153.4,458.6,152.2,458.7z M156.1,458.7c0.2-0.9,1.7-0.7,2.9-0.8
		C158.8,458.8,157.2,458.6,156.1,458.7z M184.7,473.7c-0.4-1.7,1.4-1.5,2.9-1.6C187.1,473.1,186.3,473.7,184.7,473.7z M191.4,485.5
		c0.8-2.3,1.4-0.9,3.8-0.8C194.2,486,192.6,486.5,191.4,485.5z M213.3,457.1c2.2-2.4,7.5-2.2,9.5-4.7
		C227,454,219.2,458.6,213.3,457.1z M228.6,454.8c0-2.6,1.7-3.9,3.8-4.7C235,451.7,232.2,455.6,228.6,454.8z M224.7,446.1
		c0.1,1.7,4,0.3,5.7,0.8c-22,12.5-46.7,10.2-78.2,7.9c32.8-8.1,64.4-17.2,96.4-26C254.3,442.9,237.1,444.3,224.7,446.1z
		 M168.5,431.1c3.8,2.8-6.4,10.5-1.9,16.5c-4.9-0.6-6.3,1.7-10.5,1.6C158.6,441.9,165.2,437.9,168.5,431.1z M163.7,432.7
		c3.1,1.7-5.5,6.8-6.7,10.2C154.2,438.5,158.8,433.4,163.7,432.7z M183.7,439c8.8-0.9,9.2-8.7,13.4-13.4c2.2,3-5.7,10.3,1,12.6
		c8.4-1.7,10.1-9,14.3-14.2c2.2,2.1,0,7.9,3.8,8.7c9.2-1.3,8.8-10.6,14.3-15c1.6,0.2-1.3,9.8-1.9,13.4
		c-18.7,4.5-34.9,11.1-55.3,14.2c3.4-4.3,5.2-9.9,9.5-13.4C185.8,433.5,180.6,437.2,183.7,439z M193.3,422.5h3.8
		c-1.1,3.3-4,5.1-5.7,7.9C188.3,427.7,192.9,424.9,193.3,422.5z M207.6,418.5c3.3,0.6,3.7-1.2,6.7-0.8c-2.7,6.1-8.4,9.9-12.4,15
		C199.7,427.7,205.4,422.5,207.6,418.5z M230.5,414.6c-2.9,5.4-7.9,9.2-11.5,14.2C215.6,424.1,220.2,413.2,230.5,414.6z
		 M171.3,439.8c2.1-5.7,3.6-11.7,10.5-13.4C184.1,429.5,176,437.3,171.3,439.8z M237.1,412.2c3.3-1.8,6.4-3.6,11.5-3.9
		c-4,5.1-8.8,9.6-12.4,15C233.2,419.9,237.8,416.2,237.1,412.2z M242.9,425.6c-1.8,0.6-3.5,1.3-5.7,1.6c2-4.4,5.8-7.3,7.6-11.8
		C247,415.2,241.5,421.3,242.9,425.6z M206.6,413.8c-3,2.2-9.6,6.5-13.4,3.2c-4.6,3.9-9.6,7.3-19.1,7.1
		c-19.3,8.2-41.4,18.4-63.9,21.3c-0.8-5,6.6-9.6,9.5-14.2c2.4,0.1,4.6,0.1,5.7-0.8c1.3-0.5,1.8-1.7,1.9-3.2
		c36.2-13.9,81.6-20.4,116.4-35.4c3-0.1,3.2,2.1,6.7,1.6c0.3,4.5,5.1,5.2,6.7,8.7C240.7,405.3,223.2,415.8,206.6,413.8z
		 M246.7,266.5c-5,8.4-9,15.9-11.4,25.2c-2.2,8.3-1.7,18.5-10.5,25.2c-7.9,0-15.2,0.6-21.9,1.6c0.1-1.1,0.2-2,0.2-2.8
		c-0.4,0-0.8,0-1.2-0.1c-1-0.1-2.1-0.2-3.1-0.3c-6.7-13.3-10.9-28-8.3-42.3c0.1-0.5-0.9-0.8-1-0.2c-3.2,14.4,0.2,28.8,6.5,42.3
		c-0.8-0.1-1.6-0.2-2.5-0.3c-0.6-4.5-1.7-8.8-3.1-13.2c-0.1-0.4-1-0.3-0.9,0.1c0.3,1.6,0.4,3.2,0.6,4.7c-0.9-3-1.6-6-2.2-9
		c1.2-3.3,0.9-5.4-1.1-6.2c-0.1-0.5-0.2-1.1-0.3-1.6c1.1-10,2.7-19.9,4.7-29.6c0.1,0.1,0.2,0.3,0.4,0.4c2.7,2.8,5.9,5,9.5,6.6
		c-2-0.6-4.1-1.3-6.3-2.1c-0.3-0.1-0.5,0.2-0.2,0.3c4.6,1.9,8.8,3.1,12.7,3.9c3.6,0.9,7.3,1.2,11,1c1.3-0.1,2.6-0.2,3.8-0.4
		c0.1,0,0.3,0,0.4-0.1c1.3-0.2,2.5-0.6,3.7-0.9c0.5-0.1,1-0.3,1.4-0.4c0.3-0.1,0.7-0.3,1-0.4c5.6-2.1,10.7-5.7,14.7-11
		c9.4-12.6,7.7-32.5,7.8-46.6c0-12.3-1.3-24.3-2.2-36.2c-0.4-5.8-0.7-11.7-0.9-17.5c-0.2-16.1,1.8-32,10.5-48.1
		c0.1-0.2-0.3-0.4-0.4-0.2c-0.2,0.3-0.4,0.7-0.6,1c-0.1-1-1.7-1.7-2.7-1c0-0.1-0.2-0.2-0.2-0.1c-1.9,2-3.5,4.1-4.7,6.3
		c-8,9.9-17.5,19-27.4,27.9c-0.4,0.3-0.9,0.6-1.3,0.9c1.3-1.1,2.5-2.2,3.6-3.2c0.1-0.1-0.1-0.2-0.2-0.2c-5.8,4-15.5,11.6-26,21
		c-0.1,0-0.1,0-0.2,0.1c-5,3.8-9.7,7.5-14.1,11.3c0,0,0,0,0,0c-1.9-6.6-8-12.7-15.5-18.1c0-0.2-0.1-0.4-0.1-0.6
		c-0.1-0.8-1.2-1.1-2-0.9c-10.6-7.3-23.5-13.3-31.3-17.5c-10.3-5.6-20.8-11-31.1-16.4c-7.8-4.1-21-8.5-27.1-14.4
		c-0.1-0.1-0.3,0-0.2,0.1c1.8,2.3,4.4,4.4,7.4,6.5c-4.4-2.9-8.7-5.8-12.8-8.9c-0.6-0.4-1.4,0.3-0.9,0.7c1.8,1.5,3.7,2.9,5.5,4.3
		c-3.3-2.4-6.7-4.5-10.5-6.4c-0.4-0.5-0.7-1.1-1.1-1.6c-0.5-0.6-1.4-0.3-1.4,0.3c-0.4-0.1-0.7,0-1,0.1c-1.4-0.7-2.8-1.5-4.2-2.1
		c-0.1,0-0.2,0.1-0.1,0.1c1.4,0.7,2.6,1.4,3.9,2.1c-0.3,0.2-0.5,0.6-0.4,1.1c1.8,5.3,3.8,10.2,6.5,15c0.1,1.3,0.4,2.2,0.7,2.8
		c3.7,17.1,8,34.2,12.3,51.3c2,25.5,5.7,51,23.7,72.6c8,9.5,17.8,13.9,27.6,11.2c3.8,0.6,7.4,0.3,10.4-1.2c1.1-0.3,2.2-0.6,3.3-1.1
		c0.5-0.2,0.9-0.4,1.3-0.6c0.6-0.2,1.1-0.5,1.7-0.7c0.9,0.9,2.7,0.8,3.1-0.5c0.1-0.4,0.2-0.9,0.3-1.3c0.4-0.2,0.8-0.4,1.3-0.7
		c0.1-0.1,0.1-0.1,0.2-0.2c1.1,3.2,3.1,5.8,6,7.9c0.3,0.5,0.6,1.1,0.9,1.6c0.6,0.9,1.9,0.9,2.7,0.4c0.7,0.3,1.5,0.5,2.2,0.8
		c2.5,9.9,8,19.2,11.8,28.8c-0.1,2.7-0.2,5.3-0.2,8c-2.6,6.1-4.3,12.5-5.1,18.8c-0.1,0.9,1.6,1,1.8,0.2c1.2-5.1,2.1-10.2,3.3-15.3
		c0.1,6.5,0.4,13,1.2,19.5c-22,1.4-47.5,3.3-61.5-7.4c3.9-15.7-6.9-26.9-15.3-37.8c-7-9.2-11.9-19.9-19.1-29.1
		c-4.3-5.5-11.2-9.7-15.3-15c-3.8-5-6.1-11.3-9.5-16.5c-9.7-14.6-22.3-34-27.7-54.3c0.3-2.8,3.6,2,3.8-0.8
		c-4.9-7.7-7.4-16.7-6.7-27.6c2-29.3,21.2-51.5,41-67.7c12.4-10.2,19-14.2,37.2-22.1c12.4-5.3,22.4-7.3,35.3-9.5
		c4.1-0.7,7.7-2.7,11.4-3.1c14.2-1.8,27.8,2.7,42-0.8c9.8,5.6,27.3,4.8,32.4,14.2c9.1,0.6,14.8,4,22.9,5.5
		c14.4,11.5,27.4,23.7,38.2,41c9.4,15.1,20.8,26.4,21,46.5c0.3,35.3-8.5,68-27.7,92.9C270.3,240.3,256,251,246.7,266.5z
		 M290.6,219.3c2.5-4.3,6.3-14.2,11.4-18.9C298.7,207.1,296,214.3,290.6,219.3z M305.8,189.3c-2.6-3.7,3.5-7.1,1.9-12.6
		C311.3,178.4,306.5,186,305.8,189.3z M309.7,175.9c-2.1-4.9,2.4-11.1,1.9-17.3C315,164.6,309.7,170.2,309.7,175.9z M312.5,154.7
		c-1.6-3.4-1.3-11.8-1-14.2C313.2,145,313.6,152.1,312.5,154.7z M333.5,142.1c-1.1,2.5-1.1-2.1-1-3.2
		C333.7,136.4,333.6,141,333.5,142.1z"/>
	<path class="st0" d="M214.3,450c-8.9,1.8-14.5,1.5-21,5.5C201.4,454.7,207.7,452.2,214.3,450z"/>
</g>
</svg>
