<?xml version="1.0" encoding="utf-8"?>
<!-- Generator: Adobe Illustrator 21.1.0, SVG Export Plug-In . SVG Version: 6.00 Build 0)  -->
<svg version="1.1" id="Layer_1" xmlns="http://www.w3.org/2000/svg" xmlns:xlink="http://www.w3.org/1999/xlink" x="0px" y="0px"
	 viewBox="0 0 420 470" style="enable-background:new 0 0 420 470;" xml:space="preserve">
<style type="text/css">
	.st0{fill-rule:evenodd;clip-rule:evenodd;fill:#236003;}
</style>
<g>
	<path class="st0" d="M371.6,175C372,174.8,371.1,175.2,371.6,175L371.6,175z"/>
	<path class="st0" d="M306.8,215c-5.1-7.6-15.2-12.6-18.4-21.2C293.8,200.8,306.6,206.9,306.8,215z"/>
	<path class="st0" d="M301.1,226.6c-8.7-9.6-21.1-18.4-31.1-28c-2.8-2.7-7.8-5.9-6.9-9.7c7.4,1.1,8.8,9.1,14.7,12.9
		c2.1,1.4,5,1.6,7.2,3c7.7,5,14.9,12.3,19.8,18.5C303.8,224.6,302.1,225.1,301.1,226.6z"/>
	<path class="st0" d="M293.8,239.1c-22.7-19.5-52.5-40.7-76.7-60.9c-7.1-5.9-17-11-19.5-19.6c18.4,7.5,31.5,21,46.6,31.8
		c7.7,5.5,16.1,10.4,23.2,16.2c10,8.1,18.6,17.7,31.7,22.6C299.9,233.4,295.2,236.2,293.8,239.1z M287.3,227.6
		C286.8,227.8,287.6,227.4,287.3,227.6L287.3,227.6z M234.2,187.3c15.2,13.8,34.1,28.6,51.9,39.3C271.7,213.7,253,197.8,234.2,187.3
		z M232.6,185.1C232,185.3,232.9,184.9,232.6,185.1L232.6,185.1z M232,184.3C228.8,181,229.9,184.8,232,184.3L232,184.3z
		 M226.1,182.3C221.9,177.8,222.8,181.7,226.1,182.3L226.1,182.3z M219.5,176.9C219,177.2,219.9,176.8,219.5,176.9L219.5,176.9z
		 M217.1,175.1C216.6,175.4,217.5,174.9,217.1,175.1L217.1,175.1z M209.3,168.9c2,0.4,4,5.4,5.8,2.7
		C213,171.1,211.1,167.8,209.3,168.9z"/>
	<path class="st0" d="M260.8,280.6c-3.2-1.4-5.7-3.2-9.7-4.2c-11-13.4-33.7-20.9-38.8-37.4c4.5-14.4,3.7-31.6,11.4-38.1
		c25.5,13.9,48.3,29.1,65.8,47C286.5,268.1,272,272,260.8,280.6z M277.6,255.6c-12.5-2.4-19.5,2.9-30.6,2.4c-6.5-4-10-9.2-9.8-15.4
		c7.3-3.6,20.6,1.2,26.2-4.8c-12.2-7.9-21.2-20.1-37.8-24.1c-1.8,11.6-9.9,26.1-2.7,34.7c10.3,8.4,20.9,16.5,31.9,24.5
		C264.2,270.2,282.7,268.8,277.6,255.6z M276.5,248.5C275.9,248.8,276.8,248.3,276.5,248.5L276.5,248.5z M263.7,274.5
		C263.2,274.8,264,274.3,263.7,274.5L263.7,274.5z M265.8,248.4c1.4-0.3,1.8,2.3,2.7,0.7C268.1,248.7,266.2,246.9,265.8,248.4z
		 M264.6,247.4C264,247.7,264.9,247.3,264.6,247.4L264.6,247.4z M255.4,252.6c0.8,1.2,2.7,1.1,3.5,0.2
		C256.8,252.7,256.5,250.8,255.4,252.6z M253.3,252.7C249.4,253.3,255.2,254.8,253.3,252.7L253.3,252.7z M225.4,208.7
		C222.5,208.8,227.9,210.1,225.4,208.7L225.4,208.7z M222.1,213.5c-0.7,3.9-3,9.9-0.9,9.7C221,221.3,224.7,216.3,222.1,213.5z"/>
	<path class="st0" d="M287.6,194.1c-2-1.7-5.8-2.5-5.1-5.6C283.9,190.6,288.3,191.1,287.6,194.1z"/>
	<path class="st0" d="M238.6,383.1c-0.4,1.5-2.5,0.6-4.3,0.2C235.2,382.4,236.7,382.5,238.6,383.1z"/>
	<path class="st0" d="M222.2,438.6C224.7,439.9,219.4,438.6,222.2,438.6L222.2,438.6z"/>
	<path class="st0" d="M281.7,189c-0.6,1.4-2.6-0.6-1.7-1.7C281.5,187.4,280.6,188.7,281.7,189z"/>
	<path class="st0" d="M273.6,216.2c-0.3,0.7-1.5,0.3-1.4-0.3C272.8,215.1,272.8,216,273.6,216.2z"/>
	<path class="st0" d="M271.1,214.9C272.6,217.1,269.5,212.8,271.1,214.9L271.1,214.9z"/>
	<path class="st0" d="M269.2,213.8C271.7,215.2,266.3,213.9,269.2,213.8L269.2,213.8z"/>
	<path class="st0" d="M228.9,382c-0.7,1.8-3.7,0.6-5.8,0.4C225,380.5,225.4,381.5,228.9,382z"/>
	<path class="st0" d="M217.8,380.5c-3.2,1.4-11.5-1.5-14.5-2.3C206.4,376.5,213.1,379.9,217.8,380.5z"/>
	<path class="st0" d="M169.1,421.9c-5.7-0.3-11-5.3-16-7.6C158.8,414.6,164.2,419.5,169.1,421.9z"/>
	<path class="st0" d="M154.3,412.1C156.6,414.2,151.9,412.4,154.3,412.1L154.3,412.1z"/>
	<path class="st0" d="M151.2,410.1c-0.5,1.4-2.3-0.4-2.7-0.7C149.4,407.8,149.8,410.4,151.2,410.1z"/>
	<path class="st0" d="M146.1,407.6c-10.7-5.4-20.1-16-25.1-26C128.4,390.8,136.3,399.7,146.1,407.6z"/>
	<path class="st0" d="M153.5,292.3c-2.7,0.2-4.7,1.2-8,0.5C147.3,291.6,151.6,290.8,153.5,292.3z"/>
	<path class="st0" d="M127.2,370.8c-1.6,0-0.7-1.4-1.7-1.7C126.1,367.7,128.1,369.7,127.2,370.8z"/>
	<path class="st0" d="M124.1,365.7c-2.6-1.2-3.7-3.2-3.6-5.8C122.1,361.7,123.7,363.4,124.1,365.7z"/>
	<path class="st0" d="M140.6,292.2C142.9,293.2,135.8,290.1,140.6,292.2L140.6,292.2z"/>
	<path class="st0" d="M119.9,380.2c-0.5-0.8-2.4-0.8-1.6-2.3C119.8,378.2,120.3,378.9,119.9,380.2z"/>
	<path class="st0" d="M111.1,366.3c3-0.9,3.1,2.1,2.7,3.8C111.9,369.3,112.8,367.1,111.1,366.3z"/>
	<path class="st0" d="M124.9,295.2c-4.5,2.6-9,5.2-13.9,7.1c-3.7,3.6-5.5,10.1-9.6,13.2C103.6,300.9,113.7,297.3,124.9,295.2z"/>
	<path class="st0" d="M101.6,381.9C102.7,384.3,99.7,379.9,101.6,381.9L101.6,381.9z"/>
	<path class="st0" d="M81.6,370.2c2.9,9.4,6.6,18.5,11.3,26.9c-0.3,1.5-0.7,0.6-1.5,0.3C88.7,388,80.2,381.7,81.6,370.2z"/>
	<path class="st0" d="M95.2,364.2c-4.2-6.4-5.3-14.4-6.8-22.1C91.5,349,93.2,356.7,95.2,364.2z"/>
	<path class="st0" d="M48.6,36.1c2,1.2-2,0.2-2.8-0.1C43.7,34.8,47.7,35.8,48.6,36.1z"/>
	<path class="st0" d="M410.8,325.3c-0.7,2.1-3.5,1.4-3.3,4.8c-11,3.9-13.1,16-20.1,23.6c-9.1,10-20.7,17.8-30,26.2
		c-0.4,1.3,0.4,5.8,0.8,8.3c-12.8,5.3-24.3,12.4-36.7,18.3c0.9,3.8,7.7,4.6,7.9,8.7c-6.6,6.2-16.3,9.5-25.3,13
		c-12.7,4.9-24.2,10.3-39.4,12.1c0,2.9,4.1,6.4,3,8.2c-0.6,2.3-4.9-0.6-4.4,3.3c-13.8-0.9-25.7,1-41.5-2.7c-1.4,2.8,0.7,3.7-0.1,6.2
		c-6.9,1.2-17.9,1.7-25.7-3.2c-3.9,3.6-0.7,5.7-0.9,9.7c-17.4,0.5-33.6-4.7-50.1-11.6c-2,0.1-0.5,5-3.2,4.2
		c-15.3-9.4-34.4-16.3-47.6-27.7c-3.8-3.3-9.1-9.9-18-11.2c-3,1.9,0.6,5.8-1.9,7.6c-11.2-11.6-23.3-27.4-27.8-44.6
		c-3.3-12.8-6.4-24.5,0.6-40.8c3.3-7.6,9.7-14.7,15.2-21.1c-3.6-16-18.7-28.2-27.2-43.8c-3.3-6-5.9-14.2-8.9-22
		c-4.5-11.6-7-23.3-7.4-37.1c-0.3-9.5-1.1-18.7,1.7-30.6c2.5-10.4,6.8-21.2,10.5-31.5c3.5-9.7,11-18.1,17.3-26.8
		c5.8-8,9-16.3,17.7-19.9c4.6-8.2,12.1-10.8,20.4-16.1c4.6-2.9,20.1-9.5,19.7-16.3c-0.3-4.7-9.5-6.6-14.4-8.5
		c-10.4-4.1-21.4-10-33.1-13.7c-15.5-4.8-29-5.1-43.4-6.9c-5-5.9-4.4-13.3-5.9-20c6.9-1,14.2,1.7,22,3.5c7.9,1.9,19.8,5.2,25.3,4.9
		c5.4-0.2,8.8-5.3,12.7-8.1c15.9,2.7,31.6,15.5,44.9,24c6.5,4.1,15.3,12.8,23.7,14.4c5.6,1.2,17.3-1.8,25.6-2.4
		c21.4-1.7,43.1,0.3,64.3,3.3c21.9,3.1,51.6,9.9,73.2,19.7c23.1,10.4,43.7,24.3,60.6,39c16.9,14.6,34.8,27.7,40.3,48.9
		c13.3,20.3,19,57.2-1,80.4c-6.7,7.8-17.9,17.4-26.6,18.3c-2.1,0.2-4.8-0.7-7.7-0.6c-1.9,0.1-4.1,1.1-6,1
		c-14-0.4-29.7-8.2-42.1-15.2c-8.5,4.7-11.1,17.8-22.4,18.7c-12.1,8.6-28.3,11.5-41.1,19.1c-17.2-11.8-29.6-26.1-49-36.7
		c-1.7-2.7-1.9-6.2-3.5-8.9c3-16.4,3.7-28.1,2-43.5c-5.9-6.5-13-14.7-22.9-17.4c0.3-7.3-4.5-12-7.9-17.4c-0.9-3.7-1.2-7.9-2.1-11.7
		c-1-3.8-3.7-7.2-3.3-10.1c-6.6-9.9-20-25.8-6.4-38.1c-8.3-6.3-15.7-13.1-24.7-19c-2.8-0.9-3.3,1.7-5.4,1.8
		c-10.2-1.6-23.3,8-31.9,13.3C68,124,45.8,155,38.3,204.7c-5.7,37.4,8.9,67.3,27.6,92.3c7.7-3.6,4.4-14.6,7.3-21.2
		c4.7-10.6,16.1-24,25.3-30.4c21.3-14.9,55.8-10.9,82.7,4c5.6,3.1,9.2,9.2,14.5,14.1c2.9,2.7,6.9,4.3,9.1,6.6
		c12.2,12.1,21.2,26.4,32.6,36.5c15.3,9.5,36.9,21.7,58.8,23c0.1,3.5-3.5,1.8-3.5,5.4c9.1,0,19.6,1.7,28.3,1.3
		c3.8-0.2,7-2.5,10.3-1.2c2.7,1.9,2.8,5,1.4,9c9.9,1.6,15.7-2.6,23.7-3.5c1.2-0.9,1.5-3.2,2.5-4.3c2.4,2.9,8.6-0.4,8.1,5.1
		c2.6-4.8,15.5-5.7,21.8-10.2c2.2,0.2,1.3,2.5,3.2,1.4c5.5-2.2,8.2-8.3,13.4-11C407.6,322.4,407.9,324.5,410.8,325.3z M381.6,354.1
		c3.5-3.5,8.8-8.6,9.6-13.1C387.2,343.6,382.5,349.5,381.6,354.1z M363.9,370.9c-3.8-0.3-4.2,4.1-8,3.6c0.2-1.1-2.1-1-1.6-2.2
		c-0.5-2.2,4.9-2.6,2.2-6.3c14.1-7.3,24.2-18.4,36-30.3c-8.1,4.8-18.7,6.2-27.5,10c-1.9-2.2-2.2-2-4.8-3.7
		c-9.6,3.7-18.6,8.4-29.7,10.1c-3.1-4,0.7-10.1,0.7-14.7c-3-0.6-2.8,3.3-5.7,2.9c-11,0.5-24.9,6.8-38.3,1.8c0-0.9-0.9-1.3-0.9-2.1
		c0.4-3.6,3.2-3.9,3.9-7.1c-4.3-2-9.7-0.9-13.9-1.5c-14.3-2.3-26.5-10.5-33.3-16.2c-8.3-7-13.4-10.8-21.3-18.2
		c-4.5-4.2-10.6-7.6-14.3-11.6c-1.8-1.9-2.4-4.7-4.1-6.6c-6.7-7.6-20-15.9-29.3-20.8c-4-4.6-12-7.9-18.3-10
		c-24.7-8.6-45.3,3.2-58,15c-1.3,6.5-7.6,9.1-10.1,14.9c-5,11.5-5.6,25.3-6.8,36.8c17.3,18.4,42.5,32.7,72,44.8
		c-2,1,0.4,1.5,0.8,2.7c5.2,0.9,7.1,3.5,11.7,4.7c1.7,0.9,0.2-2.9,1.9-2c3.5,8.4,28,6.1,34,13.2c-3-1.7-18.3-4.4-27.8-6.2
		c13.7,11.4,31.2,20.8,47.6,30.8c5.2,0.7,8.9,3,11.9,4.1c6,2.2,14,1.8,15.6,6.3c-36-8.5-60.7-26.6-81.4-44.6
		c-16.1-5.7-35.9-14-51.2-21.8c-1.4,5,4.8,8.8,3.5,12c-2.3-4.2-8-9.1-5.9-13.8c-3.5-1.4-6.1-3.3-9.6-4.8c-0.4,7.9,2.8,13.9,5.9,20
		c-0.4,5.4,2.8,12.3,6.3,15.2c-0.9-0.4-0.5-1.5-0.9-2.1c1.8,2.1,2.4,3.9,0.7,5.8c-4-2.2-3.9-6.5-6.3-9.6
		c1.6,11.9,13.9,13.1,14.9,24.1c-12.7-11.1-18.8-25.5-23.7-40.5c0.1-1.1,1.1-1.1,1.2-2.2c-5.5-6.1-3.5-15.9-13.8-19.5
		c-11.3,8.2-7.4,27.9-7,37.4c-5.8-11.9-4.2-32.1,4.7-39.8c-2.7-1.5-3.7-1.3-6.2-0.9c-4.5,9.1-10.6,19.9-11.9,31.2
		c-1.1,9.6,3.1,18.1,2.5,24.8c-8.5-15.8-2.4-40.8,6.3-58c-1.6,3.3-6.4,3.3-8.7,6.5c-6.8,9.5-3.1,28-5.6,37.7
		c2.7,7.6,3.8,16.1,8.8,22.6c1.8-2.5-1.7-4.9,0.8-6c21.1,13.3,33.4,37.5,60.2,49.4c6.3,2.8,11,3.1,16.6,5.3
		c3.6,1.4,6.6,4.3,10.1,5.6c8.8,3.2,16.7,1.3,25.4,4.3c-0.2-3.5-1.8-6.2-3.6-8.9c-2.4-2-6.1,1.2-6.5-2.8c6.6-1.3,9.1,4.9,14.2,3.5
		c-1.7-0.3-2.7-1-3.1-2c10.6,1,21.4,7.3,33.1,5c0.3-3.4-1.7-5.6-2.2-8.6c2.3,4.1,11.9,7.1,17.3,5.5c-4.2-0.7-7.3-2.1-9-4.1
		c12.6,5.7,25.9,3.7,34.5-0.9c-0.9-1.4-3.2-4.8-0.6-6.3c3.5,0.2,1.7,3.2,4,4.1c1.4-2.6-1.5-3-0.1-5.6c22.6,0.1,40.4-6.6,56.7-15.3
		c0.3,0.9,1.2,1.4,2.4,1.8c1.4-1.2,2.2-3.1,3.8-4c-4.1-2.6-6.5-6.1-9.5-7.9c3.3-0.8,2.7-2.1,4.1-5.2c9-6.7,21.2-8.9,31.9-13.3
		c0.8-2.3-2.4-2.5-1.7-4.8C354.8,378.4,359,374.2,363.9,370.9z M379.8,355.5C378,357.4,382.4,352.9,379.8,355.5L379.8,355.5z
		 M359.6,371c5.2-6.3,15.1-10.1,17.8-17.3C372.4,360.1,360.6,364.2,359.6,371z M370.5,259c4.2-3.2,9.1-5.5,15.6-5.5
		c2.2-6,9.1-8.1,12.3-12.5c6.3-8.3,8.3-23.8,7.9-35.3c-1.1-29.8-26.2-59.2-49-77.7c-6.8-5.5-15-9.5-19.6-16.5
		C299,87.3,243.4,68.6,194.9,66.8c-5,2.2-17.1-1.6-16.5,5.9c9.8-0.9,21.2,0.3,30.3,1.8c9.9,1.7,20.9,1.2,30.7,3.1
		c23.4,4.6,51.2,14.9,68.9,25.5c13.7,8.2,26.6,13.9,34.7,22.1c7.1,3.3,11.4,8.2,14.6,13.5c25.6,22.2,51.2,56.6,36.6,96.3
		c-9.6,11.9-20.1,22.5-43.7,14.8c-4.3-2.7-11.4-9.6-16.4-5.9C334.1,256.5,357.8,258.3,370.5,259z M367.1,366.7
		c1.7,0.3,4.4-2.1,3.5-2.9C369.6,364.9,367.9,365.2,367.1,366.7z M366,368.3C364.2,370.2,368.5,365.6,366,368.3L366,368.3z
		 M389.6,212.8c0-1.8-1.1-4.3-1.3-6.5c-1.2-12-6.7-26.6-16.3-38.7c-19.4-24.4-41.6-46.9-77.8-62.4c-7.6-3.2-15.1-7.2-22-9.7
		c-7.8-2.8-17.3-4-25.5-6.8c-11.2-3.8-23.9-5.8-36.7-7.7c-14.8-2.2-32.7-3.2-42.9,0.1c6.5,2.6,9.6,10.8,16.2,12.6
		c4.9,1.4,9.1-1.7,15.2-0.6c50.8,36.8,98,75.5,142,115.8c1.6,6.3-3.8,15.1-7.3,21.2C354,251.8,389.3,243.9,389.6,212.8z
		 M325.1,401.1c3.5-1.9,7.6-2.9,10.6-5.5C331.3,395.7,325.4,397.9,325.1,401.1z M338.4,346.6C337.8,346.9,338.7,346.5,338.4,346.6
		L338.4,346.6z M336,347.3C332.2,345.9,338.7,348.3,336,347.3L336,347.3z M352.7,246.6c1.1,0.2,6,1.8,4.2,0.4
		C355.8,246.8,350.9,245.2,352.7,246.6z M360.1,151.7C358.5,149.6,361.5,153.9,360.1,151.7L360.1,151.7z M288.7,430
		c0.6,0,3.7-0.3,1.8-1.4C290.8,429.9,286.8,428.9,288.7,430z M293.1,338.7c6.7,0.3,14.2,1.6,19.4-0.2
		C305.9,337.9,295.3,335.8,293.1,338.7z M278.3,431.8c3.1,0.4,5.6,0,7.5-1.3C283.2,430.9,279.5,429.6,278.3,431.8z M327.7,231.8
		c0-0.5,0.3-1.2-0.4-1.3C327.4,231,327.1,231.7,327.7,231.8z M324.6,236C324,236.3,324.9,235.8,324.6,236L324.6,236z M269,434.5
		c2.3-0.2,5,0.3,6.1-1.6C272.6,432.8,270.6,433.4,269,434.5z M42.8,33.4c-0.4-0.1-0.8-0.1-0.8,0.4c0.6,0,1.4,0.6,2,0.5
		c-3.6,0.6-13.7-4.8-17.8-3.1c-0.3,1.4-0.7,2.7-1,4.1C51.1,41.9,72.9,45.8,98.3,55c1,1.4,3.2,2.1,4.2,3.5
		c15.4,3.6,20.1,14,33.8,16.9c9.8,12.5,30.6,19.7,41.3,33c-4.4,1.9-4.9,10.5-11.4,11.5c8.5,15.9,14.5,33.1,17.4,52
		c10.3,6.3,20.5,12.7,28.7,20c1.6,17.9-3.2,35.3-4.6,54.1c10.3,8.3,24.9,19.5,36.6,28.8c7.4,5.8,12.3,13.2,21.6,8.4
		c1.3-1.7-2.1-1-0.8-2.7c29.4-12.5,52.8-34.5,63.4-69.5c-1.1-5.1-7.7-7.3-8.4-12.6c-14.1-11.7-29.3-27.2-44.4-38.1
		c-5.5-4-11.6-7.3-16.4-12.1c-13.6-13.5-29.8-25.7-45.8-37.8c-5.9-4.5-11.6-9.1-17.2-11.6c-4.5-2-8.6-0.4-13.3-1.4
		c-5-1-6.1-3.6-9.9-6.1c-2.3-1.5-5.2-1.9-7.7-3.7c-2-1.5-3-3.9-5.1-5.6c-9.7-7.7-19.4-13.4-31.2-18.8c-7.5-7.5-21.5-13-32.7-18.5
		c-10.1-5-18.7-11.3-29.6-13.4c-1.4,2.4,2.7,2,1,4.6c-3.6,3.8-11.4,5.3-18.3,1.7c1.1-0.6,2.3-0.7,1.3-2.2
		C47.4,34,45.1,35.2,42.8,33.4z M327,202.5C325.3,200.4,328.4,204.8,327,202.5L327,202.5z M310,254.8
		C309.4,255.1,310.3,254.6,310,254.8L310,254.8z M265.6,436.8C262.8,436.8,268.1,438.1,265.6,436.8L265.6,436.8z M261.6,441.4
		C261.1,441.7,262,441.2,261.6,441.4L261.6,441.4z M247.9,444.9c1.4,1.8,11.7,3.8,12.9,0C257,442.8,250.3,442.6,247.9,444.9z
		 M274.4,327.3C273.9,327.6,274.7,327.2,274.4,327.3L274.4,327.3z M238,447.4c-5.3-0.5,6.5,2.5,7,0.5
		C242.1,447.8,241.3,447.2,238,447.4z M249.9,316.4c2.5,5,15.8,9.9,21.1,10.1C262.4,324,257.5,319.5,249.9,316.4z M304.6,106.6
		C301.8,106.6,307.1,107.9,304.6,106.6L304.6,106.6z M219,445.9c1.7,0.5,2.3-0.4,3.1-1.1C220.1,443.7,219.8,445.2,219,445.9z
		 M214.5,452.8c1.3,0.2,2.3,0.2,3-0.5C216.2,452.2,214.2,450.9,214.5,452.8z M296.8,103.4C296.3,103.7,297.2,103.2,296.8,103.4
		L296.8,103.4z M295.6,102.5C295.1,102.8,296,102.3,295.6,102.5L295.6,102.5z M210.5,448.8C209.9,449,210.8,448.6,210.5,448.8
		L210.5,448.8z M209,449C206.1,449,211.5,450.3,209,449L209,449z M266.2,149.9c1.3,0.5,0.9,1.9,2.3,2.4
		C269.3,150.9,266.5,148.9,266.2,149.9z M190.9,444c-0.9,1.3,3.5,2.5,5.3,1.9C193.5,445.7,193.5,444.2,190.9,444z M191.1,449
		c-1,1.7-2.7,2.5-3.3,4.8c1.2,0.6,0.8,2,3.1,2C191.8,453.1,193.4,450.9,191.1,449z M263.2,147.3
		C262.7,147.6,263.6,147.1,263.2,147.3L263.2,147.3z M262.6,147.1c0-0.5,0.3-1.2-0.4-1.3C262.2,146.3,261.9,147,262.6,147.1z
		 M217,289.8c-0.9,1.2,3.1,2.2,1.2,0.9C217.7,290.2,215.7,288.2,217,289.8z M160,453.2c0.9,0.3,4.9,1.3,2.9,0.1
		C162,453,158,452,160,453.2z M147,445.1c1.8,1,6.5,3.1,8,2.6C152.8,446.8,149.7,443.9,147,445.1z M141.3,444.9
		c2.4,1.4,3.8,2.8,6.6,2.2C146.6,446.3,142.2,444.3,141.3,444.9z M229.5,68.4C229,68.7,229.9,68.2,229.5,68.4L229.5,68.4z
		 M125.1,437.9c4.1,1.5,11,6.4,13.7,5.2C134.3,441.1,128.7,436,125.1,437.9z M164,246.5c4.8,3.5,11.5,8.8,16,10.7
		C175.2,253.5,169.9,246.4,164,246.5z M150.6,359.8C145.8,357.7,152.9,360.8,150.6,359.8L150.6,359.8z M213.7,65.8
		C213.2,66.1,214.1,65.6,213.7,65.8L213.7,65.8z M210.2,65.6C207.4,65.6,212.7,66.9,210.2,65.6L210.2,65.6z M203.9,79.5
		c1.2,0.3,1.8,0,2.3-0.7C205.1,78.5,204.4,78.9,203.9,79.5z M136.9,354.5C134,354.6,139.4,355.9,136.9,354.5L136.9,354.5z
		 M206.7,65.3C206.2,65.6,207,65.1,206.7,65.3L206.7,65.3z M135,353.5C132.2,353.5,137.5,354.8,135,353.5L135,353.5z M142.6,243.1
		c5-0.7,12.3,3.7,16.3,3.4C154.4,244.9,147.5,240.6,142.6,243.1z M196.8,64.8C192.9,63.3,199.4,65.8,196.8,64.8L196.8,64.8z
		 M81.7,398.8c5.9,9.9,15.3,20.8,28.1,25.5C99.4,416.3,91.4,407.1,81.7,398.8z M189.1,79c0.2-0.8,1.3-0.2,1.6-0.8
		C189.5,77.1,187.2,78.3,189.1,79z M180.4,64.5c4.1,1,11,1.8,10.8-0.5C188,64.6,183.8,64,180.4,64.5z M120,241.9
		c5.4-1.8,13-0.6,18.5-2.3C131,238,121.7,238.1,120,241.9z M171.4,72.2c3,0.8,4.2-1,4.5-3.9C173.5,68.2,170.1,69.7,171.4,72.2z
		 M125.3,243.8c1.3,0.2,2.3,0.2,3-0.5C126.7,242.8,125.7,242.9,125.3,243.8z M117.9,247.6c-6.5-2.4-14.6,3.4-15.2,9.3
		c3.8-8.9,18.3-6.7,21.8-13.3c-2.6-0.3-3.9,1.4-6.7,0.9C117.2,246.3,119.9,246.7,117.9,247.6z M101.4,336
		C100.8,336.2,101.7,335.8,101.4,336L101.4,336z M165.1,68.8C162.5,70.3,167.1,71.2,165.1,68.8L165.1,68.8z M96.9,333.6
		c1,0.4,2.6,3,3.9,1.6C99,335.2,98.7,332,96.9,333.6z M78.5,409.1C78,409.4,78.9,409,78.5,409.1L78.5,409.1z M111,243.5
		c2.7-0.3,5.1-1.2,7.6-1.9C115.3,241,113,242.1,111,243.5z M74,404.3C73.4,404.6,74.3,404.1,74,404.3L74,404.3z M72.2,411.3
		c0-0.5,0.3-1.2-0.4-1.3C71.9,410.5,71.6,411.2,72.2,411.3z M60.5,374.4c-0.7,4.5,2.7,9.5,1.2,12.7c-3.8-3.7-2.4-12.8-6.5-14.6
		c1.3,10.5,6.4,21.9,16.9,24.6C65.9,391.1,64.1,380.1,60.5,374.4z M65.2,402.2c1.2,0.1,1.4,3.3,2.4,1.8
		C66.8,403.6,66.7,400.5,65.2,402.2z M63.8,396.2c-0.1,1.4,0.1,2.7,1.3,3.4C65.2,398.2,65,397,63.8,396.2z M91,267.1
		c3.9-1.6,8.9-9.8,8.2-12.9C96.1,257.6,90.7,261.7,91,267.1z M78.5,321.1C78,321.4,78.9,320.9,78.5,321.1L78.5,321.1z M84.7,281.1
		c0-1.9,1.6-1.4,1.5-3.3C84.3,276.4,83.7,280.8,84.7,281.1z M83,285c-0.5-1.9,2.6-2.5,0.8-3.5C83.3,281.8,81.6,284.4,83,285z
		 M70.4,327.8c0.6-0.8,1.4-1.2,1.9-2C71,325,69.1,327.3,70.4,327.8z M81.9,274.8c-0.4-1.2,2.5-1.5,0.6-2.3
		C82.2,272.8,80.3,274.3,81.9,274.8z M57.7,359.4c-1,3.4,0.1,5.8,0.8,8.3C59.7,364.2,59.2,361.6,57.7,359.4z M65.5,330.3
		C65,330.6,65.9,330.2,65.5,330.3L65.5,330.3z M68.4,315.5C67.9,315.8,68.8,315.4,68.4,315.5L68.4,315.5z M59.7,342.6
		c-0.8,3.8-2.3,8,0.4,10C59.5,347.8,61.9,345.1,59.7,342.6z M63.2,334.1C62.7,334.4,63.5,333.9,63.2,334.1L63.2,334.1z M57.5,357.5
		C56.9,357.8,57.8,357.3,57.5,357.5L57.5,357.5z M76.9,274.8C76.4,275.1,77.3,274.7,76.9,274.8L76.9,274.8z M75.6,280.1
		c-0.1-1.9,1.6-1.4,1.5-3.3C75.2,275.4,74.6,279.8,75.6,280.1z M60.7,341.5c1.5-0.2,0.9-2.9-0.4-1.3c0.4,0.1,0.8,0.3,0.5,0.8
		C60.4,340.9,59.9,341.3,60.7,341.5z M123.3,84.7c0-0.5,0.3-1.2-0.4-1.3C123,83.8,122.7,84.5,123.3,84.7z M68.5,300.7
		c0.6-0.8,1.4-1.2,1.9-2C68.5,298.1,66.2,299.7,68.5,300.7z M113.8,82.4c3,0.2,2.9,1.9,5.1,2.5C120.4,82.7,114.9,81.5,113.8,82.4z
		 M51.3,356.6c0.1,1.1-1.7,3.2-0.2,3.7C52.5,359.6,52.4,357.4,51.3,356.6z M108.6,89.1c-2.6-1.2-2.7-0.6-6.1-1.5
		C90,94.4,78.2,102.1,68,112.1c1.4,4.3-4.9,3.8-2.2,6.3c-1.7,0.9-2.1-1-3.5-0.2c-0.3,5.2-5.3,7.6-7.9,11.7
		c-4.6,7.3-6.9,16.1-10.9,24c-7.1,14.4-14.9,33.2-13.4,51.9c9.6-58.3,38.9-103.4,86.1-118.5c-1.3-1.7-7-3.9-8.2-1.4
		C110,86.2,109.9,88.5,108.6,89.1z M55.6,332.9C55.1,333.2,56,332.7,55.6,332.9L55.6,332.9z M45.8,358.4
		C45.3,358.7,46.2,358.2,45.8,358.4L45.8,358.4z M27.5,231.2c-0.3,2.2-0.2,4.2,1.6,5.3C28.3,234.8,29.6,232.1,27.5,231.2z
		 M25.9,220.2c0.9,2.4-0.9,6.3,1.7,7.8C28.1,225.2,27.5,220.3,25.9,220.2z M50.3,128.9C47.5,128.9,52.8,130.2,50.3,128.9L50.3,128.9
		z M49.2,133.5C50.8,130,47.4,131.7,49.2,133.5L49.2,133.5z M26.3,218.5C25.8,218.8,26.6,218.3,26.3,218.5L26.3,218.5z M26.2,216
		C25.7,216.2,26.5,215.8,26.2,216L26.2,216z M63.5,33.5c0.7,0.2,1.1-0.8,0.3-1.2C63.7,33,62.6,33,63.5,33.5z M18.4,39.8
		C19.8,36.9,16.5,38.7,18.4,39.8L18.4,39.8z M17.4,29.1c-0.1,0.4-0.2,0.8-0.3,1.2c0.7,0.2,0.7,0.7,1.2,0.9c0.2-0.7,1.1-0.6,1.1-1.6
		C18.8,29.4,18.1,29.2,17.4,29.1z"/>
	<path class="st0" d="M304.8,375.7c-2.3,2.6-6,1.1-9,1.5c-14.3,2-27.6,8.1-44.5,6.5c-0.7-0.3-0.2-0.7,0.1-0.6
		C270.7,382.7,284.8,375,304.8,375.7z"/>
	<path class="st0" d="M210,330.2c-6.7,4.5-17,5.8-27.1,8.3c-6.5,1.6-12.2,6.5-18.8,6.6c-7.1,0.1-14.1-1.7-20.4-1.3
		c-6.2,0.5-12.3,3.8-20.3,1.2c10.4-0.9,20.6-4,31.6-3.5c4,0.2,7.8,1.6,11.9,1c7.2-0.9,14.4-4.8,21.6-6.5
		C196.2,334.3,203.1,332,210,330.2z"/>
	<path class="st0" d="M137.9,406.2c-4.3-1-8-6.8-11.1-10.1C131.5,396.9,133.3,403.6,137.9,406.2z"/>
	<path class="st0" d="M134,293.1c-1.4,1.5-3.7,1.7-6.1,1.6C130,294.2,131.6,293.1,134,293.1z"/>
	<path class="st0" d="M100.7,379.8c-1.3-1.2-1.3-3.1-2.5-4.3C98.8,375,101.2,378,100.7,379.8z"/>
</g>
</svg>
