<?xml version="1.0" encoding="utf-8"?>
<!-- Generator: Adobe Illustrator 21.1.0, SVG Export Plug-In . SVG Version: 6.00 Build 0)  -->
<svg version="1.1" id="Layer_1" xmlns="http://www.w3.org/2000/svg" xmlns:xlink="http://www.w3.org/1999/xlink" x="0px" y="0px"
	 viewBox="0 0 250 500" style="enable-background:new 0 0 250 500;" xml:space="preserve">
<style type="text/css">
	.st0{fill-rule:evenodd;clip-rule:evenodd;fill:#236003;}
</style>
<g>
	<path class="st0" d="M241.4,4c0.6-0.1,0.7,0.3,0.8,0.7c3,2.4-3,10.3,0.6,12c-5.9,4.5-2.9,7.1-5.2,13.4c-2.1,5.3-7.3,13-11.2,19.3
		c-13.6,21.2-29.8,41.2-49.4,56.7c-5.2,4.1-9.1,8.6-13.2,12c-2.1,1.7-11.7,5.2-10.5,9.3c1.4,5.3,10.6,3.3,16.4,5.3
		c5.8,2,13.1,8,17.8,12c-2,2.1-0.7,4.5,0,7.4c-2.7,8.4-12.4,9.7-15.2,18c-8.4,0-11.7,5.1-17.7,7.4c3.4,50,12.4,97,13.8,150.1
		c0.8,28.6,5.7,56.6,7.3,84.7c0.6,9.3-0.4,18.4,0.7,27.3c1.7,14.5,3.2,28.7,2.6,44.7c-1.2,1.2-2.9-0.4-2.6-2.7
		c-9.1,11.6-30.6,9.5-46.1,11.4c-6.9-3.1-12-7.8-19.7-10c-8.1-31.7,2.5-63.4,3.9-95.4c0.7-13.8,2.3-25.3,2.6-37.3
		c0.4-9.8-1-19.5-0.7-28.6c0.4-6.9,2.2-13.3,2.6-20.1c0.6-7,0.2-13.8,1.3-20.6c1-5.8,4-11.3,4.6-17.4c0.6-5.1-0.8-10.2-0.7-15.3
		c0.2-5.5,2-11.5,2.6-17.4c1.5-14.3,2.1-29.4,0-44c-4.1,0.7-9.5,2.4-13.9,0.7c3.3,34.3-1.3,74.5-11.8,104.1
		c-4.4,12.5-12.2,24.4-17.8,36C77.4,340,71.5,351.8,65,362.9c-2.3-0.2-3.8-1.1-6.6-0.7c-1.8-6.5-2.4-14.3-3.3-24.1
		c-0.8-6.8-5.4-13.9,0.7-16.6c-3.9-4.6,0-6.3,0-12c1.1-2.5-1.8-0.9-2-4c3.8-26.2,7.8-52.6,14.5-76.7c4.7-17.3,17.4-29.7,23.7-44
		c-4.9-9.6-9.3-23.4-5.3-34.7c-2.8-6.4-8.3-7.4-14.5-10.7c-8.1-4.3-15.6-13.6-22.3-20.6c-14.9-15.7-25.8-29.3-33.6-52.1
		C12.6,56.4,10.1,45.6,5,35.4c0.9-3.8-0.5-4.8-2-7.4c1.7-3.8,2.5-4.6,2.6-9.4c20.4,2.9,36,13.8,47.4,26.6
		c4.4,5.1,7.8,12.9,12.5,20.1c12.4,18.9,22.8,41.5,31.6,65.3c4.3-2.5,12.2-5.4,17.7-2.7c18-29.5,35.2-59,60.6-81.4
		c9.1-7.9,20.7-14.5,31.6-21.3c11.5-7.3,22.2-15.6,33.6-21.4C241,4,241.2,4,241.4,4z M221.7,20.7c-20.8,15-42.7,30.2-60.6,51.4
		c-3,3.6-6.8,5.9-9.8,9.3c-9.4,10.3-16.6,22.8-25.1,33.4c1.3,5.3-1.7,7.8,2.6,10.6c40.6-21.1,71.3-51.4,93.5-91.3
		c2.1-3.8,6.6-6.7,5.9-12C226.8,20.5,221.9,20.5,221.7,20.7z M159.1,67.4c-3.4,4.3-8,8.3-9.1,13.9c11.9-19.2,32.5-33.2,47.4-47.3
		C183.4,43.7,169.2,54.5,159.1,67.4z M12.9,36C13.7,38.7,13.7,33.4,12.9,36L12.9,36z M33.3,80.7c6.6,11,12.4,17.5,20.5,27.4
		c6.7,8.2,15,21.3,23.7,15.9c1.9-4.9-1.9-8.5-3.3-12.6C62.7,77.8,46.8,48.5,16.2,36C17.6,52.3,26.3,69,33.3,80.7z M59.7,66.1
		c-3.7-2.8-6-10.4-9.9-10.7C53.6,57.9,55.9,65.6,59.7,66.1z M20.8,73.4c9.7,10.9,16.4,30.4,28.9,40.7c-3.8-9.6-12-16.2-17.2-23.4
		c-6.3-8.8-8.2-20.2-14.4-30C17,64.6,21.6,67.8,20.8,73.4z M61,68.8C63,70.6,59.2,66.7,61,68.8L61,68.8z M63.6,74.8
		C64,75.2,63.3,74.5,63.6,74.8L63.6,74.8z M65.6,83.4C66,83.9,65.3,83.1,65.6,83.4L65.6,83.4z M67.6,87.4
		C68,87.9,67.3,87.1,67.6,87.4L67.6,87.4z M73.4,91.4C75.2,94.9,72.2,88.9,73.4,91.4L73.4,91.4z M74.1,94.1
		C74.6,94.6,73.9,93.8,74.1,94.1L74.1,94.1z M75.4,96.1C76.7,98.3,73.5,92.8,75.4,96.1L75.4,96.1z M75.4,104.8
		C75.9,105.2,75.1,104.5,75.4,104.8L75.4,104.8z M78.7,113.5c-0.1-3.2-1.2-5.4-2.6-7.4C76.2,109.4,77.4,111.5,78.7,113.5z
		 M145.3,118.8C138.6,122.7,146.2,119.4,145.3,118.8L145.3,118.8z M157.7,118.8C158.2,119.2,157.5,118.5,157.7,118.8L157.7,118.8z
		 M157.1,118.8C153.1,119.6,155.5,122,157.1,118.8L157.1,118.8z M72.8,134.8c-1.5-5.3-6.5-7.1-10.5-10
		C65.2,128.7,67.9,132.9,72.8,134.8z M134.7,126.1C135.2,126.5,134.4,125.8,134.7,126.1L134.7,126.1z M78.7,136.8
		c-1.2-0.3-1.6-1.4-3.3-1.3C74.7,137.4,78.2,138.3,78.7,136.8z M167,136.8c-0.5,0.2-1.3,0-1.3,0.7C166.2,137.3,167,137.4,167,136.8z
		 M170.3,137.4C166.5,135.5,168.6,139.1,170.3,137.4L170.3,137.4z M114.9,140.8c1,1.1,2.8,0,3.3-1.3
		C116.6,139.3,115.5,139.8,114.9,140.8z M137.4,142.8c-2.1-0.1-2-2.5-4-2.7c-1.9,0.5-1.6,3.3-3.3,4c-2-0.1-1.3-4.6-3.3-2.7
		c-2.9,2.4,1.1,1.9,1.3,4.7c2.6,9.3-1.9,21.9-0.7,27.3c12.8-3.6,21.4-11.1,34.2-16c2.7-3.1,6.3-8,4-14
		C157.5,141.4,142.6,136.1,137.4,142.8z M178.2,141.4c-1.2,0.7-2.2-2-2.6,0C176.7,142,177.6,143.6,178.2,141.4z M89.3,146.1
		c0.1-1.5-2.3-3.9-2.6-2.7C88,143.8,86.8,146.8,89.3,146.1z M124.2,144.8C124.6,145.3,123.9,144.5,124.2,144.8L124.2,144.8z
		 M98.5,147.5c-3.9,8.6-5.8,20.2-4.6,28.7c4.1,0.6,5.8,4,9.9,2c4.3-2.1,9.4-18.1,5.9-20c4.2-3.7-0.6-8.3-1.3-12.7
		C103.3,144.6,101.9,150.6,98.5,147.5z M171.6,153.5c1.2-2.8,1.3-3.9,0.7-7.4c-1.2,0.1-1.4-0.8-2.6-0.7
		C170.7,148.5,170,152.3,171.6,153.5z M115.6,158.2c3.1-1.8,5-4.8,5.3-9.4C116.7,149.4,118.6,156.3,115.6,158.2z M178.2,150.1
		C179,152.7,179,147.5,178.2,150.1L178.2,150.1z M125.5,152.8C124.9,156.7,125.9,150.1,125.5,152.8L125.5,152.8z M176.2,152.8
		C174.6,155,178.4,151.2,176.2,152.8L176.2,152.8z M126.1,155.5C126.9,158.1,126.9,152.8,126.1,155.5L126.1,155.5z M114.9,174.1
		c1.3-7.5,9.8-10.3,6.6-18.6C117.8,159.7,112.6,168.2,114.9,174.1z M89.9,158.2C90.4,158.5,89.7,157.9,89.9,158.2L89.9,158.2z
		 M90.6,165.5c-0.7-2.1,1.4-6.8-1.3-6.7C89.9,160.8,87.9,165.5,90.6,165.5z M160.4,162.8c3-0.4,4-2.8,5.9-4
		C163.7,159.4,162.3,161.4,160.4,162.8z M116.9,174.8c2.5,0,1.9-0.8,4,0c1-1.4,3.7-7.5,0.7-8.7C119.8,168.9,118.3,171.7,116.9,174.8
		z M128.8,177.5c1.6,0.1,3.2,0.1,3.3-1.3C130.5,176,129.4,176.5,128.8,177.5z M127.5,177.5c-0.5,0.2-1.3,0-1.3,0.7
		C126.7,178,127.5,178.1,127.5,177.5z M133.4,185.5c0.5,0,0.8,0,1.3,0c1-1.6-2.3-1.9-2-0.7C133.1,184.8,133.5,184.9,133.4,185.5z
		 M140.7,184.8c-2.8,2.1-5.3,6.5-6.6,10.7c-5.6,18.4-2.5,49.4-4.6,72.7c-0.3,3.7-0.6,7.3-0.7,12c-0.3,25.4-4.8,53.1-7.3,76
		c-1.1,10.7,1.7,17.7-1.3,24.1c3,9.1-1.1,18.6-2,29.3c-1.6,22.6-3.4,45.6-5.9,64.7c0.9,1.1,3.6-0.9,4.6,1.3c0.1,1.6-1.1,2-0.7,4
		c4.2-7.4,21.8,7.9,23.1-4.7c-7.7,0.5-18.7,0.3-20.5-7.3c2-0.9,4-1.7,5.9-0.8c0,1.6-1.1,2-0.7,4c4.6,2.1,9.7,3.2,15.8,2
		c0.9-11.2,12-18.8,8.6-30c-3.2,7.5-6.2,15.1-9.2,22.7c-3-8.6,7.6-17.9,6.6-26.7c-4,6.5-8.1,16.3-12.5,20.1c2-8.3,7.7-12.6,9.2-21.4
		c-5.5-2.2-12.7-2.7-17.8-5.3c0-2.4,1.3-3.5,2.6-4.7c6,5.9,24,4.5,30.3-0.6c4.2-11.9,0.3-21.9-0.7-35.4c-1.1-17.5-3.1-39-1.3-52
		c-6.1-41.1-5-82.7-6.5-124.7c-0.4-9.2-5.3-17.8-4-27.3C143.6,186.7,143,184.8,140.7,184.8z M87.3,286.2c6.5-19.7,13-41.9,15.2-61.4
		c1.2-11.7,0.9-23.5-2.6-30.7c-0.5,0-0.9,0-1.3,0c-2.5,1-4.8,2.2-7.3,3.3c-6.8,12.9-13.7,28.5-18.5,45.4c-8.1,29-18.8,64.3-9.8,96.7
		c-0.6-2.1,2.8-3,2,0C74.3,326.5,80.6,306.5,87.3,286.2z M84.7,204.2C85.1,204.6,84.4,203.9,84.7,204.2L84.7,204.2z M72.1,234.8
		c0,0.4-0.1,0.8-0.7,0.7c-0.4-0.1-0.8-0.1-0.7-0.7c1.1-10.2,9-17.1,9.2-26c-8.3,10.8-11.6,26.6-13.1,40.7
		c-1.2,10.1-9.8,23.2-7.3,35.3C62.8,268.1,69.9,248.2,72.1,234.8z M111.1,210.8C110.5,214.8,111.4,208.1,111.1,210.8L111.1,210.8z
		 M155.8,228.2c0.1-3.8-0.8-6.8-1.9-9.4C154.2,222.3,153.4,226.8,155.8,228.2z M76.1,224.2C76.5,224.6,75.8,223.9,76.1,224.2
		L76.1,224.2z M74.8,228.8c0.4-1,1-1.7,1.3-2.7C73.9,224.9,73.3,228.5,74.8,228.8z M151.9,230.8
		C152.3,231.2,151.6,230.6,151.9,230.8L151.9,230.8z M72.8,233.5C73.2,233.9,72.5,233.2,72.8,233.5L72.8,233.5z M109.7,238.9
		C109.2,242.8,110.1,236.2,109.7,238.9L109.7,238.9z M109.7,246.2c0.1-1.2,1.7-4.5,0-5.3C110.6,243.2,107.9,245.2,109.7,246.2z
		 M153.9,268.2c-0.5-6.2,0.4-13.8-2-18.1C152.1,256.6,152.1,263.3,153.9,268.2z M103.8,263.5C104.2,264,103.5,263.2,103.8,263.5
		L103.8,263.5z M154.5,270.2c-0.1-0.7-1.2-0.9-1.3,0C153.9,270.1,154.2,271.1,154.5,270.2z M153.9,272.2
		C154.6,274.9,154.6,269.5,153.9,272.2L153.9,272.2z M153.2,278.9c2.2,0.7,1.5-5.1,0.7-5.3C153.8,275.4,154.2,277.9,153.2,278.9z
		 M154.5,294.3c-1.3-5.2,1.7-11.1-1.3-14.7C153.5,284.6,152.3,291.1,154.5,294.3z M82.7,314.9c2.1-6.6,7-13.8,7.3-20.1
		C87.7,301.3,82.9,308.6,82.7,314.9z M157.1,314.2c0.3-1.3,0.4-11.3-0.7-11.4C156.9,306.5,155.6,311.7,157.1,314.2z M119.5,340.9
		c1.8-12.8,1.8-21.3,0.7-34.7C119.2,316.7,116.5,332.5,119.5,340.9z M79.4,322.2c0.7-1.4,3.4-6.9,2-6
		C80.7,317.8,78.1,320.9,79.4,322.2z M55.7,316.9C57.4,320.4,54.5,314.3,55.7,316.9L55.7,316.9z M164.3,321.6c0-0.7-1.1-0.9-1.3,0
		C163.8,321.5,164.1,322.5,164.3,321.6z M58.4,330.3c0.1-0.9,0.1-4.9-0.7-2.7C57.6,328.4,57.6,332.4,58.4,330.3z M167.6,366.3
		C169.3,368.8,168.6,364.1,167.6,366.3L167.6,366.3z M167.6,377.6C168.1,378,167.4,377.3,167.6,377.6L167.6,377.6z M167.6,379
		C168.4,381.5,168.4,376.3,167.6,379L167.6,379z M167.6,381.6C168.1,382,167.4,381.4,167.6,381.6L167.6,381.6z M168.3,385.6
		c0.1-0.9,0.1-4.8-0.7-2.7C167.5,383.8,167.5,387.8,168.3,385.6z M120.2,384.2C121,386.9,121,381.6,120.2,384.2L120.2,384.2z
		 M168.3,391.6C169,394.2,169,389,168.3,391.6L168.3,391.6z M168.3,395.6C168.8,396.1,168,395.3,168.3,395.6L168.3,395.6z
		 M161.7,424.9c-0.8-1.6,2-2.7,0-3.2C161.3,422,160.2,424.8,161.7,424.9z M157.7,440.3c2.5,1.3,2.6-3.1,1.3-3.3
		C158.8,438.3,157.6,438.7,157.7,440.3z M169.6,441.6c0.1-0.9,0.1-4.8-0.7-2.7C168.9,439.8,168.9,443.8,169.6,441.6z M159.1,446.3
		c0.8-0.8,0.8-2.4,0.7-4c-0.8,0-1.4-0.3-2-0.7C160,443.7,156.4,444.1,159.1,446.3z M163,447c0.6-0.5,1.5-3.7,0-4
		C163.8,444.7,161,446.1,163,447z M169,443.6C168,448.6,169.4,441.2,169,443.6L169,443.6z M169.6,448.3
		C170.4,451,170.4,445.6,169.6,448.3L169.6,448.3z M153.2,454.3c-0.1-1.1,0.3-6-0.7-4C152.5,451.5,152.2,456.3,153.2,454.3z
		 M159.1,454.3C158.1,459.3,159.5,451.9,159.1,454.3L159.1,454.3z M163.7,463c-1.2-3.3,2.6-7.6-0.7-8.7
		C162.5,456.2,161.2,462.2,163.7,463z M142.6,472.3c2.8,0.5,4.3-0.5,6.6-0.7c-0.5-4.7,0.8-11.1-0.7-14.6
		C147.2,462.7,143.4,466,142.6,472.3z M159.7,466.9C158.4,472.9,160.2,465,159.7,466.9L159.7,466.9z M159.7,473.6
		C160.2,474.1,159.5,473.4,159.7,473.6L159.7,473.6z M141.3,475.6c0,1.8-0.3,3.8,0.7,4.7c2.5,0.4,3.8-0.6,5.3-1.3
		c0-1.7-0.3-3.8,0.7-4.7C145.1,474.2,143.2,475,141.3,475.6z M169.6,479C170.1,479.4,169.3,478.7,169.6,479L169.6,479z M165,480.3
		c-0.5,0.2-1.3,0-1.3,0.7C164.2,480.9,165,481,165,480.3z M153.2,483.6c0.2-1.5,3.1-0.4,2.5-2.7
		C154.5,481.2,151.4,482.7,153.2,483.6z M133.4,483.6c2.5-0.2,6.8,2.3,7.9-0.7C138.8,482.5,135.9,482.5,133.4,483.6z"/>
	<path class="st0" d="M3.7,32.8C3.4,32.5,4.1,33.1,3.7,32.8L3.7,32.8z"/>
	<path class="st0" d="M142.6,154.1C142.4,153.9,143,154.5,142.6,154.1L142.6,154.1z"/>
	<path class="st0" d="M98.5,202.9C100.1,200.2,99.5,205.1,98.5,202.9L98.5,202.9z"/>
</g>
</svg>
