<svg id="Layer_1" data-name="Layer 1" xmlns="http://www.w3.org/2000/svg" viewBox="0 0 400 300"><defs><style>.cls-1{fill:#236003;fill-rule:evenodd;}</style></defs><title>svge_solar</title><path class="cls-1" d="M372.8,41.2c4,8.08,5.73,23.27,1.25,31.36-.07,11.24-4.55,34.22,2.5,45.22-.37,7.54,2.6,15.81,4.36,24.79,3.19,16.28,7.32,32.32,10.6,49.6,1.52,8,5.23,19.78,4.36,25.53-.59,3.93-4.85,7.12-6.86,10.94-2.22,4.23-2.93,9-6.86,10.21-5.78-3.44-12.12-6.24-18.07-9.48.15-31.19-8.76-65.16-13.72-97-16.22,32.71-28.71,69-43.63,102.83-2.43,5.5-5.4,11.17-7.48,16.78-3.84,10.34-4.77,22.15-12.47,28.45-.83,6.31-4,9.89-6.23,14.58-42.29-5.53-77.49-23.16-114.69-35-25.68-8.17-51.26-13.59-76.67-24.8-7.86-3.47-15.12-8.61-23.06-10.94-8.82-2.59-17.67-4.35-26.18-7.29-11.58-4-22.15-8.33-34.91-12.4-.37-8.11,3.08-8.46,1.87-14.59C18.82,168.08,30,146.1,41.81,124.34c2.2-4.06,5.82-7,8.1-10.94,3.43-5.89,5.71-12.52,9.35-18.23,7-11,13.81-22.45,21.19-33.55,3.86-5.8,5.6-11.69,8.73-18.23,5.37-11.23,14.1-20.2,18.08-34.28,3.21-1.55,5.65.71,6.85-5.1,31.18,1.29,66.41,10.95,100.36,13.86,26.95,2.3,54.18,11.62,81,13.86,15.75,1.31,31.73,1.95,46.75,4.38C351.41,37.57,361.84,40.57,372.8,41.2ZM122.22,10.56ZM139,9.83c-.48.17-1.23,0-1.25.73C138.29,10.4,139,10.55,139,9.83Zm-29.3,3.65ZM22.48,174.66c2.4,1.32,2.36,5.51,3.12,8.75,33.22,16.57,70,28.07,107.22,38.65,11.84,3.37,23,10.28,34.91,13.86,8.43,2.53,16.75,4.59,24.93,7.29,24.55,8.11,49.63,14.86,74.18,23.34,9.38-11.28,15.22-26.11,22.44-39.38,2.48-4.54,6.11-8.73,8.11-13.13,2.28-5,3.45-10.93,5.61-16,8.85-20.93,20.3-40.61,28.67-62,4.14-10.58,7.77-18.55,11.84-28.45,5.64-13.7,12.13-25.69,18.08-37.93,3-6.07,8.07-11.5,8.11-19-80.57-18.36-171.54-21-252.46-37.2C83.16,64.3,54,120.89,22.48,174.66ZM109.13,14.94c-1.7,2.22,1.89-2,0,0Zm69.19,5.84Zm190.74,42.3c-19.63,32.2-32.76,72.21-49.86,106.48-5.83,11.68-11.59,24-15,36.47,14.76-31.86,30.68-62.6,44.25-94.81,4.6-10.91,11.72-20.93,13.72-33.55,4.23-5,6.49-12.35,10-18.23-.1-.86.11-2.07-.62-2.19C370.38,58.77,369.76,61,369.06,63.07Zm-4.36,46c0-1.07.23-6-.62-3.65C364.09,106.45,363.85,111.34,364.7,109Zm3.12-2.92c.4.48-.26-.3,0,0Zm-.63,28.45c.18-8.12,2.9-20.86,0-27.72C367.39,116.69,364.57,128.17,367.19,134.55Zm-3.73-21.15c.4.48-.26-.3,0,0Zm-5,1.46c.72,2.88.72-2.88,0,0Zm6.23,5.1Zm-1.24,2.92Zm5,96.27c0,.77.29,1.85.62.73,3.79-3.39.94,4.84,3.12,4.37,1.19.31,1.57,1.57,3.12,1.46-.42-2,1.29-1.41,1.87-2.19-5.12-17.2-2.91-38-10-52.51,1.89-16.82-4.63-35.05-10.6-47.41C356.45,156.87,365.47,189.56,368.44,219.15Zm1.87-76.58c.63-5.57,2.13-10.4,0-14.58C370.47,132.57,368.76,137.49,370.31,142.57Zm1.87,27c-.8-9.51,5-20.24.62-27C373.51,152.58,368.11,162.23,372.18,169.56Zm-3.12-19.69c.73,2.88.73-2.88,0,0Zm6.24,35c1.51-9.37,4.76-19.2.62-27.72C376.09,166.7,371,177.18,375.3,184.88Zm-44.88-19.69c.41.47-.26-.31,0,0Zm-5.61,3.64s0,.68,0,.73C321.85,173.52,327.8,168.21,324.81,168.83ZM281.17,260c-1.56,3.75-4.67,8.54-3.74,13.13,3.23-1.63,4.86-6.78,6.23-10.21,12.5-31.17,28-60.79,40.52-90.43.66,0,.49-.93-.63-.73C310.71,200.91,293.22,231,281.17,260Zm96.62-59.81c-.9-9.72,6.83-17.49,1.25-24.07C378.18,184.72,375.81,193.94,377.79,200.19ZM323.56,182c.41.47-.26-.31,0,0ZM19.37,184.14c.62,0,.74.59,1.25.73-.06-1.15.08-2.53-1.25-2.19ZM380.91,215.5c-.71-10.48,7-20.12,1.24-27.71C381.1,195.85,375.68,209.13,380.91,215.5Zm-61.09-26.25c.72,2.88.72-2.88,0,0ZM18.74,200.19Zm364,24.07c.78-7.27,7.47-17.08,3.12-23.34C384.75,208.09,381.48,216.66,382.78,224.26ZM59.26,209.67Zm242.48,0Zm-239.37,0c-.48.17-1.23,0-1.25.73C61.62,210.24,62.36,210.38,62.38,209.67ZM385.9,224.26c1.49-4.09,5.09-9.59,3.74-14.59C388.87,214.62,385.31,220.16,385.9,224.26ZM78,214.77c-4.37-1.45-10.69-4.5-15-3.65C67.95,211.91,73.83,215.47,78,214.77Zm223.16,19c2.29-5.6,6.25-13.1,6.86-18.24C305.74,221.15,301.91,228.82,301.12,233.74ZM68,221.34Zm3.12.73c.59-1.81-3.57-.21-1.25,0C70.88,222,72.57,223.29,71.11,222.07Zm215.68,17.51c-3.44,6.62-10.33,12.18-8.72,19,5.8-9.26,14.43-25.41,18.08-37.19C291.81,226.25,290,233.39,286.78,239.57ZM106,226.44ZM148.4,240.3c-8.89-3.78-20.43-7.73-30.54-10.94-2.33-.74-9-4-8.1-2.19C122.81,230.86,134.94,239.52,148.4,240.3Zm228.77-10.94c.72,2.88.72-2.88,0,0Zm-77.3,6.56ZM122.22,241c-.73.11-1.77-.13-1.87.73C121.08,241.65,122.12,241.88,122.22,241Zm1.87.73c-.49.16-1.23,0-1.25.73C123.33,242.32,124.07,242.47,124.09,241.76Zm3.74,1.46c-.49.16-1.23,0-1.25.73C127.07,243.78,127.81,243.93,127.83,243.22Zm56.73,8Zm6.85,1.46c-1.88-.71-3.71-1.49-5.61-2.19C186.17,252.55,190.27,254,191.41,252.7Zm12.47,4.38c-.38-.42-3-1.71-3.12,0C202.31,256.13,203.35,259.22,203.87,257.08Zm88.52,2.19c.09-.86,1.11-1.65,0-2.19C292.31,257.94,291.28,258.73,292.39,259.26Zm-72.93,2.92c-2.58-1.05-12-4.23-10-2.92,2.1,1,3.73,2.45,6.86,2.19a3.85,3.85,0,0,0,.62,2.18c13.05,3.45,26.61,10.19,38.65,12.4C244.25,272.06,230.36,266.64,219.46,262.18ZM273.07,268c2.43-.41,5.28-6.16,3.12-7.29C274.38,262.25,273.49,264.86,273.07,268Zm18.08-7.29c-3.64,6,.34,4.3,0,0Zm-45.5,8c-1.22-2.62-9.73-4-10-2.92A60.26,60.26,0,0,1,245.64,268.75ZM210.11,268c-.73.11-1.77-.13-1.87.73C209,268.63,210,268.87,210.11,268Zm37.4,0c-.49.16-1.23,0-1.25.73C246.75,268.58,247.5,268.73,247.52,268Zm40.51.73Zm-75.43,0c-.73.12-1.77-.13-1.87.73C211.47,269.36,212.5,269.6,212.6,268.75Zm1.87,1.46c4.86,2.08-3.38-2.13,0,0Zm3.12,1.46Zm54.23,1.46c1.1-.16,3.12.74,2.49-1.46C272.89,271.46,272,271.84,271.82,273.12Zm-36.16,7.3c-.48.16-1.23,0-1.25.73C234.9,281,235.65,281.12,235.67,280.42Zm3.12.73c-.73.11-1.77-.13-1.87.73C237.65,281.76,238.68,282,238.78,281.15Z"/><path class="cls-1" d="M160.87,35.36c.9,3.67-3.48,3.84-2.5,8.75-2.15,4-6.13,6.68-8.73,11.67-.62,1.19-.42,3.77-1.25,5.11-1.57,2.54-4.47,4.27-6.23,7.29-4.59,7.87-12,27.8-21.19,28.44-4.87.34-13.34-5.82-20.57-6.56-4.22-.43-7.72.13-11.84-2.92-1.58-2.29,1.67-4.63,0-7.29,9.17-13.09,15.44-29.59,24.93-42.3.49-4.53,3-6.68,4.36-10.22C130.14,27.29,149.42,32.11,160.87,35.36Zm-41.77,0c2.45-.34,3.24,1.53,4.36-.73-1.55-.38-2.22-1.78-3.12-2.92C119.71,32.67,119.74,34.4,119.1,35.36Zm16.21,2.92a4.35,4.35,0,0,0,4.36-2.92C137,34.86,136.22,36.67,135.31,38.28Zm11.22-.73c.41.47-.26-.31,0,0ZM122.84,48.49c-3.83.86-1.56,3.51,0,0ZM142.79,58c1.56.12,2-1.12,2.49-2.19C143.72,55.66,143.33,56.9,142.79,58Zm-28.05,7.29c4.8-.79,12.09-6.17,11.22-8.75C122.73,60,118.1,61.91,114.74,65.26Zm-7.48-1.46c.09-.86,1.11-1.65,0-2.19C107.17,62.48,106.15,63.27,107.26,63.8Zm33-2.19c-.48.16-1.23,0-1.25.73C139.53,62.18,140.28,62.32,140.29,61.62Zm-34.91,2.92Zm29.3,8.75c.85-1.92,2.62-2.76,3.12-5.11C135.6,68.08,133.77,72.17,134.69,73.29ZM119.1,76.93Zm-9.35,5.83c2.69-1.48,8.3-3.39,8.1-5.83C115.7,79.52,111.56,79.78,109.75,82.76Zm14.34,1.46c2-.52,4.69-.34,5-2.92A10.57,10.57,0,0,0,124.09,84.22ZM95.42,82.76c.41.48-.26-.3,0,0Z"/><path class="cls-1" d="M274.31,55.78c-9.81,24.26-20.93,47-34.91,66.37-16.85,2.87-33.68-7-43.63-8,.62-13.71,9.5-23.43,15-34.28,5.68-11.28,10.19-23.31,17.46-32.82,12.83-3.41,26.55,2.77,42.39,2.19C271.31,52,273.43,53.17,274.31,55.78ZM250,52.13c.91,2.42,1.55-2.84,0,0Zm8.73,2.92c.07-1.38,2.06-.51,1.87-2.19C258.83,51.86,256.86,54.17,258.73,55.05Zm5.61.73h1.24c0-.93.8-1,.63-2.19H265C264.93,54.53,264.17,54.6,264.34,55.78ZM246.89,58.7c1.74.52,6.07-1.42,8.1-2.92C251.77,56.15,248.15,56,246.89,58.7Zm-21.2.73c1.59-.08,2.18-1.34,3.11-2.19C226.86,56.89,226.27,58.15,225.7,59.43Zm43,.73c.72,2.88.72-2.88,0,0Zm-26.8.73c-.48.16-1.22,0-1.24.73C241.14,61.45,241.89,61.59,241.9,60.89Zm9.36,2.19c.4.48-.26-.3,0,0Zm-9.36,9.48c4.24-1.92,15.13-3.59,13.1-8C251,67.62,245.56,69.06,241.9,72.56ZM239.41,66Zm-19.95,6.56c.93-.85,2.55-.91,3.12-2.19C220.94,70,218.43,72.23,219.46,72.56Zm19.95-1.46Zm14.34,5.1c3.51-1,7.06-1.95,8.1-5.83C259,72.12,255.88,73.6,253.75,76.2Zm-16.21-3.65Zm3.12.73Zm-1.25.73ZM223.2,81.31c2.89-2,11-1.69,9.35-6.56C229.55,77.82,225.18,79.08,223.2,81.31Zm20.57-.73c2.8.36,7.22-4.35,6.23-3.65C247.83,78,244.91,78.27,243.77,80.58Zm-6.24-2.92Zm-1.87.73c-1.7,2.22,1.9-2,0,0Zm15.59,7.29c1.65.63,3.78-1.78,2.49-2.19C253.57,85,251.43,84.19,251.25,85.69Zm-10,0c.41.47-.25-.31,0,0Zm-1.87.73Zm10.6,0Zm-18.7.73c-.73.12-1.77-.13-1.87.73C230.17,87.76,231.2,88,231.31,87.14Zm-3.12,1.46Zm0,4.38c3.31-.26,6.58-.56,8.1-2.91-2.33.58-3.66,2.34-3.75,0C231.88,92,228.86,91.08,228.19,93Zm26.18-1.46Zm-2.5,5.11Zm-37.4,3.65c4.86-1.18,2.59-3.83,0,0Zm19.32,3.65c.69,1.76,3.23-1.14,1.87-1.46C235.66,103.66,233.94,102.87,233.8,103.92Zm-29.29,2.91c.41.48-.26-.3,0,0Zm9.35,2.19c.15-2,3.52-.26,3.12-2.92C215.47,106.12,212.57,108.18,213.85,109Zm24.93,2.91c0-1.2,1.73-.41,1.87-1.46C239.38,109.86,237.22,111.63,238.78,111.94ZM235,117Z"/><path class="cls-1" d="M345.38,65.26c.63,2.2-1.39,1.29-2.5,1.46.25,1.4,2.42.58,1.87,2.91-5.48,22.28-18.93,35.23-26.8,54.7-.51,2.06.88,1.89.63,3.65-5.17,3.66-9.39,8.46-13.72,13.12-12.61-4.93-27.88-6.76-40.51-11.67-5.5-6.27-.4-12.86,3.12-20.42,7.61-16.39,17.17-46.36,29.3-54C311.41,60,333.21,59.73,345.38,65.26ZM311.1,67.45c4.33-.68,6.93-.5,9.35-2.19C317.92,64.05,313.54,66.22,311.1,67.45Zm8.72,3.64c2.62-1.56,6.44-1.7,8.1-4.37A13.45,13.45,0,0,0,319.82,71.1Zm14.34-2.19a2,2,0,0,0-1.25-2.19C332,67.79,332,69.55,334.15,68.91Zm-23.69-1.46c-.48.16-1.23,0-1.24.73C309.71,68,310.45,68.16,310.47,67.45Zm21.19.73c-.38-.21-2.4-1.82-2.49,0C329.56,68.39,331.57,70,331.66,68.18Zm-25.56,8.75c3.63-3,10.34-2.49,13.09-6.56C314.34,71.5,307.43,74.1,306.11,76.93Zm-16.84-4.38c-3.08,1-1,3.45,0,0Zm15,.73ZM303,74c-4.12,1.5-8.79,2.35-11.22,5.84A58.3,58.3,0,0,0,303,74Zm24.93,1.46Zm11.22,4.38c.5-.78,2-6,.62-4.38C340.25,77.33,337.32,78.83,339.15,79.85Zm-13.72-2.92Zm-1.87,1.46c.14-.92,1-1.49-.62-1.46-4.91,4.71-13.12,5.56-18.08,10.21C311.71,87.69,317.09,80.67,323.56,78.39Zm8.73,2.19c.27-1.39,1.35-1.83,1.25-3.65C331.68,76.06,330.86,80,332.29,80.58Zm-28.67.73c2-.55,6.93-1.58,5.61-3.65C308.24,79.91,304.35,78.76,303.62,81.31Zm19.94.73a6,6,0,0,0,3.75-2.18C325.4,79.82,324.13,80.51,323.56,82Zm-41.77,3.65c1.92-.23,5.4-2.39,3.75-4.38C285,83.61,282.32,83.38,281.79,85.69Zm4.37,5.1c4.34-1.79,11.58-7.74,13.09-8C293.49,83.8,289.94,87.44,286.16,90.79Zm34.91-7.29A1.75,1.75,0,0,0,322.94,82,1.76,1.76,0,0,0,321.07,83.49Zm3.12-.73c-10.91,9.86-29,11.3-39.27,21.88,6.92-2.76,13.92-6.77,21.19-10.21,7-3.29,15.78-4.29,19.95-11.67Zm3.12,7.3c.45-1.65,2.37-1.6,2.49-3.65h-1.87C328.6,88.28,325.24,89,327.3,90.06Zm8.1-3.65c-3.09,1-1,3.45,0,0Zm-31.16,2.92c.4.48-.26-.3,0,0Zm-1.25.73Zm29.92,0c-1.7,2.22,1.9-2,0,0Zm-28,10.94c6.68-2.16,16.08-5,17.45-10.94C317.4,94.76,310.13,96.72,304.86,101Zm-14.34-8Zm-12.46.73c.91,2.42,1.54-2.84,0,0Zm53,0c.41.48-.26-.31,0,0Zm-44.26.73c-3.2,1.76,2.15,1.89,0,0Zm38,.73c.4.48-.26-.3,0,0Zm-47.38,8c2.13-1.17,6.77-3.23,5.61-5.83C282,99.77,277.12,101.59,277.43,103.19Zm29.92.73c1,2.49-.07,2.19-1.24,3.64,2.41-.85,7.51-2.36,7.48-3.64-1.16-.7-2.09,2.18-2.49,0,2.26-.93,7.6-5.44,6.85-5.11C313.7,99.68,311.31,102.72,307.35,103.92Zm10-1.46Zm-34.9,10.94c6.21-2.7,16.22-4.84,18.07-10.21C297.12,106.73,284.72,108.72,282.42,113.4Zm-10-7.29c.91,2.42,1.55-2.84,0,0Zm6.24,1.46c2,.17,6-1.23,5-2.19C281.57,106.67,280,104.85,278.68,107.56Zm-1.87,13.13c10.11-3.73,20-7.75,28.67-13.13A182.65,182.65,0,0,0,276.81,120.69Zm23.69-5.83c1-1.47,4.1-.55,4.36-2.92C303.33,112.38,299.16,113.49,300.5,114.86Zm16.83,0c-.14-1.38.7-1.61.62-2.92h-1.87C316.16,113.3,316.49,114.38,317.33,114.86Zm-15,3.65c4.37-1.21,8.4-2.82,11.22-5.84C309.4,114.09,304.71,114.93,302.37,118.5ZM294.26,117Zm-1.87.73Zm-2.49,1.46a4.46,4.46,0,0,0,1.87-1.46C290.94,117.66,288.33,118.92,289.9,119.23Zm-1.25,0c-.48.16-1.23,0-1.24.73C287.89,119.8,288.63,119.94,288.65,119.23Zm-2.49,1.46c.4.48-.26-.3,0,0ZM313,122.88c1.68.5,1.2-1.51,1.86-2.19C313.47,120.56,312.85,121.29,313,122.88Zm-3.12,0Zm-8.1,3.65c2.72.27,3.85-1.32,5-2.92A10.61,10.61,0,0,0,301.74,126.53Zm-24.93-.73h1.87v-1.46h-1.87Zm6.85,1.46a11.77,11.77,0,0,0,6.24-2.92C287.12,124.5,284.23,124.51,283.66,127.26Zm8.73-.73c-.43,2,1.29,1.41,1.87,2.19-.59-1.36,1.87-2.44,0-2.92C294.16,126.64,293.28,126.59,292.39,126.53Zm13.09,2.92Zm-1.24.73c.4.48-.26-.3,0,0Zm.62,6.56a3.58,3.58,0,0,0-3.12-.73C300.78,138.21,305,137.93,304.86,136.74Z"/><path class="cls-1" d="M131.57,95.17Z"/><path class="cls-1" d="M116,113.4c-.53,6.8-4.48,12.3-7.48,17.5-8.81,15.29-19.4,29.46-26.81,47.41a3.12,3.12,0,0,1-2.49.73A44.07,44.07,0,0,0,78,184.14c-11.42,3.93-25.75-7.36-35.53-10.21-1.41-2.87.45-5.54-.62-8,10.59-19.22,22-37.42,32.41-56.89,2.75-.43,4.34-2.22,5-5.11C91.24,101.72,107.88,108.59,116,113.4Zm-28.67-3.65c1.55,2.84.91-2.42,0,0Zm15.58,2.92c-.53-.62-1.78.53-1.87.73C100.44,114.68,103.33,113.17,102.89,112.67Zm-3.74,6.57Zm3.12,5.83c.72,2.88.72-2.88,0,0Zm-10.6,8Zm-13.72,8c1.08.18,3.69-1.38,1.87-2.19C79.76,140.3,77.77,139.43,78,141.11Zm11.22-.73Zm-12.47,1.46Zm-.62.73c-.48.17-1.23,0-1.25.73C75.33,143.14,76.07,143.28,76.09,142.57Zm-1.87.73c-.48.17-1.23,0-1.25.73C73.46,143.87,74.2,144,74.22,143.3Zm7.48.73Zm-10.59,1.46Zm6.23,2.19Zm1.25,8.75c.54-1.12,3.92-2.64,2.49-3.65C80.53,153.91,77.16,155.41,78.58,156.43Zm5.61.73c3.83-.86,1.56-3.51,0,0Zm-21.19,8c.41.47-.26-.31,0,0Zm-2.49,1.46Zm-1.25.73c.41.48-.26-.3,0,0ZM69.86,171c1.6-.36,5.17-2.16,3.74-3.65C73.21,169.59,70.24,168.8,69.86,171Zm10-1.46Zm-15,4.38c1.42.2,2.34-.18,2.49-1.46C66.26,172.64,64.24,171.74,64.87,173.93Zm6.86,1.46Zm-2.49,2.19c-.73.12-1.77-.12-1.87.73C68.1,178.2,69.13,178.43,69.23,177.58Z"/><path class="cls-1" d="M168.35,128.72c-8,25.17-21,44.49-31.79,66.37.39,1.48,3.15.2,2.49,2.92-2.5,1.45-4.89,3-7.48,4.38-1.52-.41-3.21-.63-3.12-2.92-1.09,2.12-4.25,1.84-5.61,3.65-7-3.61-17.27-9.85-25.56-7.3-3.52-.74-4.76-4.16-6.85-6.56,6-12.87,13.12-25.24,20.57-37.93,5.56-9.46,7.65-20.55,13.71-27.71C135.21,111.21,155.07,123.75,168.35,128.72Zm-33-2.92c3.21-1.76-2.14-1.88,0,0Zm14.34,3.65a2.65,2.65,0,0,0,2.49-1.45C150.72,127.78,149.8,128.16,149.65,129.44Zm-11.22.73a1.75,1.75,0,0,0,1.87-1.46A1.75,1.75,0,0,0,138.43,130.17Zm6.86,8.75c-.11-1,3.61-.94,1.25-2.19C146.64,137.73,142.92,137.68,145.28,138.92Zm-21.19,4.38c-8.1,4.73-.53,2,0,0Zm15.58,0Zm-21.82,5.11c-1.7,2.22,1.9-2,0,0Zm2.5,4.38c.72,2.88.72-2.88,0,0ZM119.1,155Zm6.86,8Zm8.1,0c-.44,2.73,3.24.05,3.74-.73C135.9,161.74,135.53,163,134.06,163Zm-10.6,8c-6.18,3.6,1.32.43,0,0Zm2.49,5.1c1.81-.8,4.22-.9,4.36-3.65C127.14,171.67,127.17,174.62,126,176.12Zm-9.35,5.11c-.48.16-1.23,0-1.25.73C115.85,181.79,116.59,181.94,116.61,181.23ZM95.42,190c1.43-.76,3.76-.46,5-1.46a2,2,0,0,0-1.25-2.19C99.37,189.26,94.26,186,95.42,190Zm41.14-2.92c.72,2.88.72-2.88,0,0Z"/><path class="cls-1" d="M226.32,143.3c-1.17,18.32-10,27.26-17.45,40.12-6,10.37-11.44,20.78-16.83,32.08-2.25.77-3.45,2.77-5,4.38-12.46,1.81-23-5.65-35.53-8-1.19-3.43-.56-7.86-3.74-7.29,1.51-11.36,8-22.32,14.34-33.55,8.38-14.88,12.07-32.52,26.18-39.39,10.16,2.21,19.08,5.87,30.54,6.56A57.42,57.42,0,0,0,226.32,143.3ZM192,138.92c.93-.12,2.3.26,2.49-.73C193.7,137.25,192.2,137.23,192,138.92Zm-5,0c-.74.11-1.77-.12-1.87.73C185.91,139.54,186.95,139.78,187,138.92Zm1.25,8c1-2.2,4.64-1.39,5-4.38C191.4,143.32,187.57,145.58,188.29,147Zm-3.12-1.46c.15-1,1-1.23,1.25-2.19C185.14,142.66,183.63,145.19,185.18,145.49Zm-4.36,3.64c-.1-1,2.53-2.2.62-2.91C181.53,147.19,178.9,148.42,180.82,149.13Zm13.71-.73a27.56,27.56,0,0,0-9.35,5.84C189.1,153.24,191.45,150.4,194.53,148.41Zm-3.74,7.29c-3.15,2.72,9-3.16,9.35-5.11C195.22,153,192,154.63,190.79,155.7Zm-13.09-2.19ZM218.22,155c.4.48-.26-.3,0,0Zm-3.12,1.46Zm-16.21,2.19c-.34-1,2.43-1.78.62-2.19C199.59,157.18,196.83,157.91,198.89,158.62Zm-14.34.73a6,6,0,0,0,3.74-2.19A6,6,0,0,0,184.55,159.35Zm-1.25.73ZM197,164.45c1.61,1.52,5.28-1.15,3.74-2.92C200.32,163.45,197.2,162.23,197,164.45Zm13.71.73c2.46.17,6.47-1.64,5-3.65C214.59,163.37,211.86,163.34,210.73,165.19Zm-29.3,0c.41.47-.26-.31,0,0Zm-10.6,2.91h1.25v-1.46h-1.25Zm6.86-.73Zm-8.1,1.46Zm5.61,0Zm29.3,1.46Zm-20.57.73c.41.47-.26-.31,0,0Zm-10.6,6.56c3.19.42,7.46-3.79,10-6.56C180,173.2,175.27,173.77,173.33,177.58Zm29.3-5.83Zm-31.79,2.19c-1.7,2.22,1.9-2,0,0Zm19.95,4.38c1.52-.41,3.21-.62,3.12-2.92C192.38,175.8,190.7,176,190.79,178.31Zm-13.71,5.11c.41.47-.26-.31,0,0Zm-13.09.73Zm-1.24.73Zm21.82,0c-3.21,1.76,2.14,1.88,0,0Zm-18.08,13.85c4.39-4.58,11.45-6.05,15-11.67C175.59,189.46,168.18,193.9,166.48,198.73Zm33.66-9.48c.91,2.41,1.55-2.84,0,0Zm-16.21,6.56c.17-1.5,2.32-.68,2.49-2.19C185.49,193.83,181.92,194.56,183.93,195.81Zm-11.22,5.84c2.58-.64,4.28-2.29,6.86-2.92v-1.46c-.62,0-.74-.59-1.25-.73C177.43,199.39,173.67,198.88,172.71,201.65ZM192,203.11c1.28.64,2.8-1.89,1.25-2.19C193.13,202,192.25,202.15,192,203.11Zm-14.34,1.46c-.73.11-1.77-.13-1.87.73C176.56,205.18,177.59,205.42,177.7,204.56ZM187,206Zm-11.84,6.57c1-2.2-3.22-1.92-3.12-.73C173.85,211.25,173.7,212.89,175.2,212.59Zm7.48,1.46a1.76,1.76,0,0,0,1.87-1.46A1.76,1.76,0,0,0,182.68,214Zm-.62-.73c-.74.11-1.77-.13-1.88.73C180.92,213.93,182,214.17,182.06,213.32Z"/><path class="cls-1" d="M298.63,159.35c4.17,16.56-4.37,27.39-10.6,41.58-2.83,6.43-5,14.15-8.1,19.69-1.32,2.34-3.66,4.09-5,6.56-2.08,3.85-3.22,9.11-5.61,12.4-1.22,1.66-6.59,3.86-7.48,6.56-13.46,3.58-22.29-6.06-34.28-9.48-10-2.84-16.47-1.76-22.44-8.75,13.14-25.88,24.74-50.16,38.65-75.85a16.07,16.07,0,0,0,8.1-5.1C267.08,151.52,284.9,153,298.63,159.35Zm-43-5.1c1.42.2,2.34-.18,2.49-1.46A2.64,2.64,0,0,0,255.61,154.24Zm6.86,1.46c1.09-.42,3.66.88,3.74-.73C264.83,154.66,262.83,153.3,262.47,155.7Zm11.84,1.46c-.93.13-2.3-.26-2.49.73C272.76,157.76,274.13,158.15,274.31,157.16Zm-19.94,4.38c2.74.05,3.91-1.74,5-3.65C257.19,158.52,255.89,160.16,254.37,161.53Zm8.72-1.46Zm21.19-.73c-.74.12-1.77-.12-1.87.73C283.15,160,284.19,160.2,284.29,159.35Zm-21.82,4.38c-1.19,4.44-6.09,4.53-8.1,8,3.85-2.55,10.71-5.45,11.84-8.75C266.13,164.6,263.57,163.3,262.47,163.72Zm16.21-.73c-.48.16-1.23,0-1.25.73C277.92,163.56,278.66,163.7,278.68,163Zm11.84,6.56c-.33-1.05,2.43-1.78.62-2.19C291.22,168.12,288.46,168.85,290.52,169.56Zm-51.74,2.92c1.27-1.67,4.09-1.53,5-3.65C242.38,167.36,237.75,171.21,238.78,172.47Zm19.32,2.19c4.55-.76,8.55-2.16,10.6-5.84C265,169.71,258,174.15,258.1,174.66Zm15.59-4.38Zm-3.12,2.19a1.75,1.75,0,0,0,1.87-1.46A1.75,1.75,0,0,0,270.57,172.47Zm-17.45,0c-1.7,2.22,1.89-2,0,0Zm-2.5,24.07c13.1-7.05,25.61-14.77,36.16-24.8C273.24,178.27,262.91,188.54,250.63,196.54Zm5-19c-.33-1.05,2.43-1.78.62-2.19C256.31,176.14,253.55,176.87,255.61,177.58Zm-20.57.73c.09-.86,1.11-1.65,0-2.19C235,177,233.94,177.77,235,178.31ZM260,179c.41.48-.26-.3,0,0Zm-23.68,17.51c7.95-4.8,17.8-11.26,22.44-17.51C251.61,184.81,240.55,189.85,236.29,196.54Zm4.36,9.48c6.84.89,10.07-8.59,18.7-8,8-6.42,17.15-11.54,24.94-18.23C268.06,189.68,257.24,197.38,240.66,206Zm-8.73-22.61c.09-.86,1.11-1.66,0-2.19C231.84,182.09,230.82,182.88,231.93,183.42Zm3.74,4.37c2.33-.91,9.61-2.18,6.23-5.1C240.25,184.88,237.08,185.31,235.67,187.79Zm28.05-4.37Zm18.07,2.91c-.48.16-1.22,0-1.24.73C281,186.9,281.78,187,281.79,186.33Zm-13.09,8.75c4.35-.76,9.33-4.63,10-7.29C275.48,190.37,271.9,192.5,268.7,195.08Zm-37.4-4.38Zm47.37,3.65c2,.55,3.74-2.84,2.49-3.65C280.54,192.16,278.42,191.86,278.68,194.36ZM250,192.17c-1.7,2.22,1.9-2,0,0Zm-5.61,5.1a19.53,19.53,0,0,1,4.36-3.64C246.36,193.29,243,195.59,244.4,197.27Zm-10.6,0Zm35.54,2.92Zm-43,10.21c6.29-1.63,9.87-6.45,14.34-10.21C235.51,202.25,227.44,208.47,226.32,210.4Zm20.57,2.92c6.48-.2,8.41-5.71,15-5.84.81-2.41,7.62-4.91,5-6.56C260.92,205.91,253.42,209,246.89,213.32Zm25.55-6.57c1.24-1.47,2.95-2.38,3.74-4.38C274.08,202.38,270.65,204.6,272.44,206.75Zm-24.31,15.31c5.92-3.77,12.33-7,17.45-11.67C259.5,213.49,251,217.61,248.13,222.07Zm-1.87-8.75c-.49.16-1.23,0-1.25.73C245.5,213.88,246.25,214,246.27,213.32Zm21.19,2.91c.4.48-.26-.3,0,0Zm3.74,4.38c1.28.64,2.8-1.89,1.24-2.19C272.39,219.57,270.86,219,271.2,220.61Zm-41.14-.73c-7.29,3.15,1,.73,0,0Zm22.44,5.83c2.14-1.17,7.47-2.43,6.24-5.11C257,222.75,253.93,223.26,252.5,225.72Zm-36.15-2.92Zm29.92,0Zm3.12,3.65c.72,2.88.72-2.88,0,0Zm8.1,1.46c-.48.17-1.22,0-1.25.73C256.72,228.47,257.47,228.62,257.48,227.9Zm-33,2.19c-1.09.42-3.67-.88-3.74.73C221.8,230.4,224.37,231.7,224.45,230.09Zm23.69,3.65c2,.64,2-1.12,2.49-2.19C249.44,231.86,247.95,231.81,248.13,233.74Zm15,1.46c1.59-.08,3.21-.14,3.12-2.18C264.62,233.09,263,233.14,263.1,235.19Zm-26.18,0c.4.48-.26-.3,0,0Zm6.23,2.92h1.25v-1.46h-1.25ZM255,240.3a2.86,2.86,0,0,0,3.11-1.46C257.52,238.09,254.9,238.18,255,240.3Zm-6.24-.73c.41.48-.26-.31,0,0Zm13.09,2.19Z"/><path class="cls-1" d="M196.4,37.55c-.77,4.18,13.17,2.14,16.83,5.83-1.88,11.09-8,19.74-12.46,28.44-6.54,12.64-14.58,23.1-20.57,37.2-10,2.74-16.29-3.16-24.31-5.11-5-1.21-10.58.31-11.84-5.83,5.73-17.56,18.26-32.32,26.8-48.86,2.82-5.46,4.57-11.43,10-12.4S191,41.19,196.4,37.55Zm-8.1,10.94c1.25-2.67,6-1.28,6.23-5.11C190.69,42.57,188.19,47.13,188.29,48.49Zm-8.11-3.65Zm21.2.73c-.61,2.65,3.48,1.56,3.12,0C202.95,45.49,202.57,44.2,201.38,45.57Zm-17.45,5.11a4.47,4.47,0,0,0,1.87-1.46C185,49.11,182.36,50.36,183.93,50.68Zm19.94,1.46c2.28,0,3.34-1.44,4.36-2.91A4.34,4.34,0,0,0,203.87,52.13Zm-11.22,0c1.46-.24,2.69-.75,3.12-2.19C194.32,50.19,193.09,50.69,192.65,52.13Zm-10.59-.73c-1.7,2.22,1.89-2,0,0Zm9.35,1.46Zm0,5.11c1.5,0,4.4-2.07,3.12-2.92C194,56.66,191.6,56,191.41,58Zm-23.06,3.65c3.09-1,1-3.45,0,0Zm19.32-1.46c.91,2.41,1.56-2.84,0,0Zm-11.22.73c.41.47-.26-.31,0,0Zm-3.12,2.19a1.75,1.75,0,0,0,1.87-1.46A1.75,1.75,0,0,0,173.33,63.07Zm-7.48,5.11c.05-1.15,1.59-.57,1.24-2.19C165.82,65.35,164.3,67.89,165.86,68.18Zm3.74,5.11c3.18-1,10.09-5,8.1-7.29C175.6,69.14,171.69,70.14,169.59,73.29ZM187,68.18Zm-7.48,6.56c1.36-2.56,6.92-4,6.23-6.56C184.25,70.52,178.93,72.27,179.57,74.74Zm-18.08,0Zm15,2.19c1.28.64,2.8-1.89,1.25-2.19C177.55,75.78,176.67,76,176.45,76.93Zm-1.25.73Zm9.35.73Zm-1.25.73c-.49.16-1.23,0-1.24.73C182.54,79.69,183.29,79.83,183.31,79.12ZM157.13,82c1.08.19,3.69-1.37,1.87-2.18C158.93,81.23,156.93,80.36,157.13,82Zm23.69-1.45c-1.7,2.21,1.89-2,0,0Zm-15,2.91c1.28.64,2.79-1.89,1.24-2.19C166.95,82.35,166.07,82.54,165.86,83.49Zm8.1,4.38c.93-.85,2.55-.91,3.12-2.18C175.43,85.29,172.92,87.54,174,87.87Zm-24.31,8c2.19-.84,2.4-4,3.74-5.83A6.4,6.4,0,0,0,149.65,95.9Z"/></svg>