<svg id="Layer_1" data-name="Layer 1" xmlns="http://www.w3.org/2000/svg" viewBox="0 0 350 500"><defs><style>.cls-1{fill:#236003;fill-rule:evenodd;}</style></defs><title>svge_lightbulb</title><path class="cls-1" d="M333.51,114.5c-6.19-27.84-28-50.92-44.84-68.53-12.73-3.52-19.58-13.94-30.53-18.9C220.06,9.79,170.75.27,124.57,9.74c-3.67.75-7.19,3.29-12.41,4.73-2.73.76-8.09.69-10.5,1.58-6.4,2.37-13.58,8.37-21,11.82C60.15,37.38,47,52.11,34.89,67.23c-2.2,2.76-5.68,5-7.63,7.88-4.5,6.54-5.28,14.67-8.59,22.06-2.58,5.76-6.73,9.29-7.63,15-.81,5.06.57,10.3,0,15.75-.43,4.06-2.55,8.5-2.87,12.61-1.68,22,9.4,38.88,19.08,57.49,6.66,12.79,14.45,28.15,23.85,37,5.67,5.34,14.08,9.88,15.27,18.11,24.48,11.56,30.87,38.05,37.21,64.59-5.25,1.44-8.05,4.9-14.31,5.51,1,6.17-1.38,10.25-4.77,15.76,6.24,7.74,10,14.21,18.13,21.27-3.71,7.57-14,11.72-13.36,19.69.45,5.24,9.81,9.53,10.5,15.75,1,9.18-9.43,11.52-5.73,22.06,12.13,4.94,14.1,19.29,2.87,26,2.49.83,3.12,3.2,2.86,6.3,10.5,1,12.62,10.64,21,11,.79,2.23-1.34,2-1,3.94,4.51-.32,6,2.42,9.54,4.73,26.43.26,35.86,17.78,59.15,18.11,2.54.27,2.18,2.93,4.77,3.16,7.77-1.07,13.33-6.3,20-10.24,13.56-8,28.78-14.34,42.93-20.48,2.16-5.83,8.77-8,13.35-11.81v-3.94c3.72-3.5,11.05-4,12.41-9.46-4.58-5.14-11.53-8.34-15.27-14.18,5.38-8.16,12.69-14.73,16.22-24.41-5.17-6-15.93-4.06-20-11.82a119.83,119.83,0,0,1,14.31-21.27c-6-4.25-15.28-5.76-16.22-14.18,7.21-.23,6.59-8.72,5.72-10.24,4.68-4.54,12.91-6.14,14.31-13.39-3.43-1.21-7.19.76-8.59-3.16.41-1.23,3-.67,1.91-3.14-6.82-.45-14.23-3.78-16.22-8.66-2.16-5.3.5-27.83,2.86-32.29,10.94-20.75,43.77-41,52.47-59.08-.61-6.07,5.66-9.64,8.59-15,1.81-3.3,1.58-6.78,2.86-11,2.33-7.74,6.92-15.39,9.54-22.84C341,151.7,337.08,130.55,333.51,114.5Zm-58.2,320.57q-3.12.22-2.86-2.36Q275.58,432.5,275.31,435.07Zm22.9-338.69c-4.71-2.93-4.83-9.66-8.59-13.39C294,83.09,297.39,90.74,298.21,96.38ZM280.08,56.21c-1.27-.79-1.87-2.13-3.82-2.36C277.22,51.86,280.48,54.48,280.08,56.21Zm0,10.24c-3.28-.18-4.15-2.35-4.77-4.73C278.59,61.9,279.47,64.06,280.08,66.45ZM258.14,46c-3.77,3.06-3.91-3.56-6.68-3.94C253.92,40,255.52,45.46,258.14,46ZM236.2,37.3c-2.61,2.11-7.52-.58-8.59-2.36C229.74,33.24,233.48,36.89,236.2,37.3ZM174.18,16c-2.17,2.25-5.59-1.11-9.54,0C163.12,14.24,172.14,15.7,174.18,16Zm14.31,7.09c-32.64-1.83-67.91,3-90.64,15.75C111.3,21.36,158.47,14.08,188.49,23.13ZM54,58.57c2.14.58-2.11,2.37-1.91,3.94C49.08,61.24,54,60,54,58.57Zm84,269.38c-9.91,3.84-24.52,11.5-37.21,7.87C104.82,324.15,122.72,327.68,137.92,328Zm-8.59,19.69a66.14,66.14,0,0,0,4.77-14.18c2.88-1,5.18-2.54,9.54-2.37C140.55,338,136.74,344.31,129.34,347.64Zm8.59-2.36c-.58-3.38,3.11-3.22,2.86-6.3C142.78,340.42,141.24,345.6,137.92,345.28Zm-9.54-9.46c-.8,2-2.62,3.1-2.87,5.51C123.46,340.09,124,334.37,128.39,335.82Zm-11.45,13.39h-6.68c.07-3.61,2.42-5.35,1.91-9.45,1.5-1.39,5.11-1,6.68-2.37C122.24,341.55,116.68,345,116.94,349.22Zm-3.82,7.88c.31-1.85,4.16-.76,4.77-2.36C120,355.54,115.54,357.44,113.12,357.09Zm-6.68-15.75c-.15.92-1.74.67-2.87.78C103.73,341.2,105.32,341.47,106.44,341.34Zm-6.68,4.73c.75-1.74,4.48-1,4.77-3.15,3,.18,1.61,3.92,1.91,6.3C102.24,349.8,102.53,346.67,99.77,346.07Zm2.86,38.59c-2-1.73-3-4.38-5.72-5.51a95.82,95.82,0,0,1,11.45-16.55c18.13-5.24,33.67-13.14,52.48-18.11,20.36-5.38,40.52-13,63-16.54a21.49,21.49,0,0,1,3.81-3.15c5.78,2.28,14.46-3.31,17.17,3.94-17.5,6.69-37.25,11.58-52.47,18.12-3.61,1.14-1.83-2.17-4.77-1.57-4.29,3.24-11.09,9.37-18.13,5.51-2.06,2.72-6.65,6.81-11.45,4.72-4.72,1.27-8.14,7.23-14.31,4.73-9.92,9.66-33.05,8.42-42.93,18.12,2.84,4,9-.3,12.4-.79-.5,3-2,5.18-2.86,7.87C108.17,381.91,106.8,384.19,102.63,384.66Zm44.84-43.32c1-2.37-1.68-14.5,7.63-12.6C154.8,334.79,150.79,337.79,147.46,341.34Zm5.73,0v-1.57c.81.14.9-.31,1-.79C156,338.66,155.54,342.56,153.19,341.34Zm16.22-7.87c-3.1,2.17-3.88,6.24-9.54,6.3-1.67-2.79.69-8.09,1-11.82,1.51-.07,3.64.38,3.81-.78C166.83,330.39,163.18,333.57,169.41,333.47Zm-3.82-7.09c.31-4.63,5.58-.81,9.54-1.58C172.49,328.74,168.84,325.28,165.59,326.38ZM76.84,107.62c17,12.77,36.17,23.69,53.69,35.89.32.88.66,1.76,1,2.65a.83.83,0,0,0,1.38.15c0-.09.19-.44.36-.88q3.27,2.32,6.43,4.72c.71,1.68,1.42,3.37,2.16,5a1.32,1.32,0,0,0,2.46-.28c.05-.35.17-.67.23-1,1.17.95,2.3,1.93,3.44,2.9.3.8.57,1.6.91,2.4a1.58,1.58,0,0,0,2.42.46,136.14,136.14,0,0,1,10.39,10.25c.26,4.61-1,9.43-2.56,13.88-1.29,3.64-3.17,7.67-6.58,10.34a4.05,4.05,0,0,1-3,1c-11-22.27-29.53-40.16-47.92-58.66-5-6.38-9.95-12.81-14.76-19.36-.19-.25-.68,0-.48.23q7.54,9.38,15,18.9c-7.1-7.15-14.17-14.38-20.75-22,0,0-.11,0-.08,0,9.18,12,19.83,23.08,30.19,34.18a371.33,371.33,0,0,1,28,42.21c2.27,11.34,3.72,26,.26,36.6-.17-.67-.3-1.35-.48-2-.07-.28-.64-.22-.6.07.09.67.13,2.26.24,4.22a22.44,22.44,0,0,1-2.64,4.73c-.06-.34-.15-.67-.2-1-.11-.73-1.33-.76-1.4,0a13.8,13.8,0,0,0,.07,2.83,16.63,16.63,0,0,1-6.51,4.14l0,0s-.09,0-.08,0v.05a20.87,20.87,0,0,1-5.13,1.05c-1.27-1.41-2.44-2.82-3.41-4C93.39,205,97.78,163.9,82.07,129.14a73.29,73.29,0,0,0-2.82-9.8c.19.11.49,0,.36-.24-.34-.54-.76-1-1.12-1.54a44.74,44.74,0,0,0-2.55-5.17l-.08-.15h0a36,36,0,0,0-2.36-3.75c.54.27,1,.55,1.59.81a1.4,1.4,0,0,0,.61.07c1.19,1,2.37,2,3.51,3.05.23.21.58-.09.37-.31-1-1-2.08-1.94-3.15-2.88C77.09,108.9,77.43,108.19,76.84,107.62Zm143.22,36.63c.33-.18.64-.38,1-.56-6.71,5.93-13.57,11.77-20.31,17.68a1.44,1.44,0,0,0-.11-.19C207.63,154.86,214.42,149.12,220.06,144.25ZM202.8,327.17c-2.6,1.79-6.64,2.39-10.5,3.15C194,328,200.13,326.15,202.8,327.17Zm-5.73-3.94c3.2-1.82,10.48-.28,15.27-.79C209.14,324.25,201.86,322.71,197.08,323.22ZM72.92,123c1,.31,2.19-.46,1.51-1.37a33.2,33.2,0,0,1-2.91-4.13c-.69-1.68-2.86-6.61-4.41-10.28-.1-.34-.19-.66-.28-1,1.2,1,2.37,2,3.52,3.09a36.69,36.69,0,0,1,6.05,11.77c-.61.25-1.07.77-.84,1.39,1.46,4,3.38,12.63,5.9,23.51,0,2.44-.09,4.88-.08,7.33a2.3,2.3,0,0,0-.48.19C78.39,143.35,75.76,133.18,72.92,123ZM85.4,162.53c6.88,27.68,17.07,61.65,32.24,78.85a.9.9,0,0,0-.57.2c-16.34-14.3-26-45.46-30.43-67.66C86.2,170.1,85.79,166.3,85.4,162.53Zm51.43,17.11a122.18,122.18,0,0,1,9.8,16.64c-.18,0-.35.07-.34.26.09,1.58.22,3.16.32,4.73q-3.45-6.66-7.38-13.07C138.43,185,137.59,182,136.83,179.65Zm.8,5.94c-7.71-12.28-16.51-24-25.58-35.71,8.4,9,16.55,18.14,23.49,27.87,0,0,0,0,0,.05C136.14,179.84,136.89,182.52,137.62,185.59Zm39.82-8.52a1.55,1.55,0,0,0,.79.78L177.09,179c0-.09.13-.14.14-.24C177.27,178.15,177.39,177.62,177.44,177.07ZM178.81,189a1.86,1.86,0,0,0,.86-1.11l1.31-1.5c14.47-16.46,32.23-30.67,48.67-45.75a120.69,120.69,0,0,0-8.09,13.08c-15.69,17.79-23.75,40.43-30.71,61.17a278.28,278.28,0,0,0-7.76,28,21,21,0,0,1-6.31,3.44,31.89,31.89,0,0,1-6.82,0c-6.06-4.38-9.83-9.23-11.62-14.42-.16-1.39-.35-2.78-.41-4.15.07-.55.18-1.08.26-1.63.75-2.51,1.57-5,2.39-7.4a115.24,115.24,0,0,1,6.32-14.93,159.36,159.36,0,0,1,11.62-14.63Zm4.74,96.1a.8.8,0,0,0-.69.74c0,1.84,0,3.67,0,5.49-.06.53-.13,1.05-.18,1.58a60.68,60.68,0,0,0-1.7-6.7,243.23,243.23,0,0,1,2.75-27.71h0c.58.14.91-.54.4-.79l-.3-.15c.23-1.41.52-2.82.78-4.22.51-.48,1-1,1.45-1.5a26.48,26.48,0,0,0,2.08,4.07,83.29,83.29,0,0,0-1.33,8.91C185.53,271.48,184.43,278.24,183.56,285.06Zm-33-40.74a22.84,22.84,0,0,1-.64-2.55c.06-.15.1-.31.16-.46a12.66,12.66,0,0,0,.49,3Zm1.7-24.65c.12.32.27.63.39,1,0,.08.12.1.17.16-.11.43-.22.86-.31,1.29a33.27,33.27,0,0,0-.92,4.75,20.31,20.31,0,0,0-.61-2.36C151.39,222.83,151.81,221.23,152.27,219.67Zm1.88-3.17c-.09.24-.2.48-.28.72l-.47-1.18c.42-1.24.9-2.47,1.4-3.69C154.48,213.71,154.35,215.11,154.16,216.49Zm9.08-10.17.2-.52c.81-1.32,1.63-2.64,2.53-4-.56.92-1.1,1.89-1.64,2.83C164,205.23,163.59,205.77,163.24,206.32Zm7.67-22.84-.87.79c-.31-1.71-.58-3.43-1-5.13.29.4.58.8.87,1.21C170.23,181.42,170.58,182.43,170.91,183.48Zm-19.68,27.42q-1.57-3.54-3.3-7c-.29-2.23-.54-4.46-.86-6.68a95.43,95.43,0,0,1,4.74,12.32C151.61,210,151.43,210.44,151.23,210.89ZM150,214c-.19.52-.36,1-.54,1.55-.16-1.38-.36-2.75-.52-4.13C149.27,212.32,149.61,213.18,150,214ZM212,185.77a216.61,216.61,0,0,1,12.61-31.07,1.61,1.61,0,0,0,.17-.14c2.33-2.84,4.45-5.76,6.51-8.71.52.87,1,1.82,1.55,2.84-19.11,30.78-32.84,62.49-41.4,95.37a40.26,40.26,0,0,1,3.5-14.72c.1-.23-.32-.44-.51-.25a20.46,20.46,0,0,0-5.19,8.75,1.81,1.81,0,0,0-1.5,0c1.31-5.58,2.71-11.15,4.31-16.67,5.85-20.21,13.2-42.24,26.24-60.83a93.14,93.14,0,0,0-7.41,25.3C210.85,186.19,211.88,186.27,212,185.77Zm26.46-16c0,.66,1.16.65,1.22,0,.08-.8.16-1.58.24-2.37a196.48,196.48,0,0,1,6.27,30c.1,22.36-4.62,43.38-22.67,56.64a1.34,1.34,0,0,0-1.31.73c0,.12-.12.23-.17.35-1.28.88-2.64,1.71-4,2.51a5.51,5.51,0,0,0-.26-.81s-.08,0-.12,0-.08,0-.15,0-.09,0-.15,0-.1,0-.12,0a6.34,6.34,0,0,0-.54,1.58,69.42,69.42,0,0,1-11,4.61c-.31-.05-.62-.08-.93-.13a47.16,47.16,0,0,1-7.6-4.83,20.81,20.81,0,0,1-2.44-2.93,12.94,12.94,0,0,1-1.32-4.41,8,8,0,0,0,.83-1.41c.13-.31-.15-.59-.5-.73,1.32-5.43,2.79-10.82,4.37-16.19,0,0,0,.11.13.11a.23.23,0,1,0,0-.46s0,0,0,0c8.28-28,20.09-55.35,35.06-82.48a104.41,104.41,0,0,1,5,12.45C238.29,164.58,238.34,167.15,238.5,169.78Zm2.63-12.54c.1.31.13.64.24,1a1.37,1.37,0,0,0,1.6.76,164.33,164.33,0,0,0,1.69,19.81c-1.25-5.66-2.69-11-4.23-15.84C240.64,161,240.89,159.12,241.13,157.24Zm-2.61,99.91a1.44,1.44,0,0,0-.35.09c-2.06,1.32-4.15,2.56-6.25,3.68.8-1.34,1.6-2.67,2.37-4a1.82,1.82,0,0,0,2.67-.17c1.23-2,2.46-3.91,3.53-5.88a8.77,8.77,0,0,0,.72,1.75A36.44,36.44,0,0,1,238.52,257.15Zm-22.12,5.76a.09.09,0,0,1,0,0l-.22,0Zm.26,2.68a1.08,1.08,0,0,0,.36.17c-.32,0-.64,0-1,0C216.26,265.75,216.45,265.67,216.65,265.6Zm1.84-.15a42.57,42.57,0,0,0,3.17-4.47l.48-.2q0,1.6,0,3.2a1,1,0,0,0,.4.79,30.45,30.45,0,0,1-4.31.86A1.12,1.12,0,0,0,218.5,265.45Zm6.38-6.06.64-.36c-.21.31-.41.63-.63.94C224.88,259.78,224.88,259.58,224.88,259.39Zm3.07,1.06c0,.52,0,1,0,1.56a1.07,1.07,0,0,0,.31.71c-1,.44-2,.84-3,1.2C226.19,262.76,227.1,261.61,227.95,260.44Zm3.11-5.17c.42-.35.78-.73,1.18-1.09-.4.72-.76,1.46-1.17,2.18C231.07,256,231.07,255.63,231.06,255.27Zm6.67-7.14c.4-.56.76-1.15,1.14-1.72-.27.65-.46,1.33-.77,2A1.45,1.45,0,0,0,237.73,248.13Zm5.49-4c0-1-1.28-1.47-2.25-1.24a65.33,65.33,0,0,0,6.62-20.83c-.26,9.21-1.51,17.9-4.11,25.25C243.36,246.27,243.26,245.21,243.22,244.15Zm0-93.94-.51-3.06c.24-1.29.54-2.56.82-3.84-.1,1.48-.11,3-.15,4.45C243.28,148.58,243.24,149.4,243.19,150.21Zm-54.1,98.07c.16.74.33,1.47.57,2.2-.38-.51-.69-1-1-1.56C188.79,248.71,188.93,248.49,189.09,248.28Zm-7.34,1.14a16.05,16.05,0,0,1-4.51,1.53.51.51,0,0,0-.27-.29l-.22-.13a19.72,19.72,0,0,0,5-2.13l.23-.1C181.9,248.67,181.82,249,181.75,249.42Zm-6.82,1.69c-.23,0-.46,0-.7,0,.16,0,.3-.09.45-.11Zm67.57-118.58v-.17a3.52,3.52,0,0,0-.06-.54l.42-.46C242.73,131.75,242.61,132.15,242.49,132.54ZM240,140.9c0,.81,0,1.65-.06,2.49a100.8,100.8,0,0,0-1.52,13.55,88.84,88.84,0,0,0-4-9.32c1.21-2.17,2.41-4.35,3.66-6.52.1-.16-.19-.31-.3-.14-1.29,2-2.5,4-3.75,5.94-.43-.81-.85-1.61-1.28-2.3a.74.74,0,0,0-.36-.24l.52-.74.5-.45a1.52,1.52,0,0,0,1-.49,61.89,61.89,0,0,0,5.73-7.73C240.09,136.92,240,138.91,240,140.9Zm-65.2,40.32a1.43,1.43,0,0,0-.12-.3c-.51-.77-1.09-1.48-1.63-2.24a1.31,1.31,0,0,0,.56-.93c0,.3.07.61.12.91,0,0,0,0,0,0h0c0,.13,0,.26.05.39.18,1.06,1.41,1.19,2.37.8C175.68,180.34,175.2,180.78,174.76,181.22ZM168,167.3c.11,1.84.31,3.7.55,5.56-.43-.52-.87-1-1.31-1.55.1-.17.25-.31.25-.53,0-1.75.1-3.47.17-5.19C167.8,166.15,167.9,166.73,168,167.3Zm-7.41-7.16c0-.24,0-.48.07-.72l.31,1.09C160.87,160.37,160.74,160.25,160.61,160.13Zm6.06,15.7c.28,1.71.51,3.42.8,5.13.17,1,.2,3.21.35,5.47q-1.68,1.7-3.26,3.49c-.48-2.81-1-5.61-1.73-8.38-.11-.4-.57-.42-.89-.23a37,37,0,0,0,1.74-9C164.7,173.45,165.72,174.61,166.68,175.83Zm-5,6.25c.59,3.21.66,6.63,1,10q-1.56,1.9-3,3.88c0-.93-.08-1.69-.11-2-.18-2-.37-3.91-.56-5.86A35.76,35.76,0,0,0,161.69,182.08Zm-3.54,16.15c-.54.79-1.07,1.58-1.58,2.39a25.65,25.65,0,0,0-1.36-5.1c-.05-.12-.31-.15-.34,0a31,31,0,0,0-.38,8.62c-.23.42-.44.84-.66,1.27A99.42,99.42,0,0,0,150,196c3.91-.11,6.57-3.76,8.27-6.57A74.15,74.15,0,0,0,158.15,198.23ZM147,206.78c.32,4.52.64,9,1,13.54a58.88,58.88,0,0,0-1.51,8c-.12-4.42-.17-8.75-1.75-13-.2-.54-1.13-.31-1,.23,1,4.34.74,8.82.64,13.21s.75,8.42,1,12.65c-.92.29-1.83.56-2.73.81-1.1-1.65-1.49-5.68-1.73-6.79-.33-1.54-.73-3.08-1.08-4.62,4.32-10.24,3.06-25,.63-37.09C142.77,198,145,202.36,147,206.78Zm-5.89,35.85c-1.2.3-2.33.48-3.48.69-.06-.2-.14-.44-.18-.59-.48-1.95-1-3.91-1.39-5.88a20,20,0,0,0,2.43-3.36C138.83,237.17,139.55,240.95,141.09,242.64ZM135,241.48c.16.75.33,1.5.49,2.25a45.84,45.84,0,0,1-6,.52c-.1-.27-.19-.54-.28-.73-.26-.57-.57-1.11-.86-1.66a17.86,17.86,0,0,0,6-3.38C134.57,239.49,134.8,240.49,135,241.48Zm-6.85,2.74c-1.1,0-2.17-.09-3.22-.21-.4-.37-.82-.73-1.2-1.11a22.92,22.92,0,0,0,4-.82A13.38,13.38,0,0,0,128.16,244.22Zm2.64,3.35q2.19-.21,4.38-.46c.44-.08.78-.13,1.17-.2a.7.7,0,0,0,.25.25s0,.06,0,.09c-.35.18-.71.41-1.06.56-1.69-.1-3.73-.16-6-.24Zm43.46,11.85a1.4,1.4,0,0,0,1.57-1.3,15.28,15.28,0,0,0,3.12-1l1.36.38q-1.38,8.52-2.16,17.1a87,87,0,0,0-5-15.31C173.51,259.32,173.84,259.4,174.26,259.42Zm10.55,50.34q.52,2.1,1.24,4.19c-.47-.06-1-.1-1.42-.16C184.68,312.44,184.74,311.09,184.81,309.76Zm65.14-186.43a87.8,87.8,0,0,1,5.48-10.16,83.84,83.84,0,0,0-6.37,17C249.32,127.88,249.56,125.62,249.95,123.33Zm-4.33.07c-.38,1-.7,1.92-1.05,2.88h0c-1.84,1.11-3.57,2.33-5.29,3.55a1.36,1.36,0,0,0-1.43.62l-.4.65c-.68.5-1.34,1-2,1.53,3.6-3.31,7.17-6.64,10.62-10.05A7.71,7.71,0,0,0,245.62,123.4ZM233,136.06c-.66.85-1.27,1.74-1.9,2.6-12.35,10.05-34.58,28.18-52.08,47.54l-.08-.11c1-1.06,1.93-2.1,3-3.08a.39.39,0,0,0,0-.56c11.34-12.07,23.74-22.84,31.81-30.22,4.61-4.21,9.29-8.37,13.95-12.54C229.44,138.49,231.22,137.3,233,136.06ZM175.58,167c0-.36-.11-.72-.16-1.08.12,0,.2,0,.17-.14l.21.24C175.73,166.34,175.66,166.67,175.58,167Zm-.22-1.47a0,0,0,0,0,0,0l0,0Zm-4-3.68c0,1.11-.16,2.21-.25,3.31-.39-1.77-.71-3.55-1.08-5.33.54.51,1.06,1,1.58,1.54C171.48,161.54,171.32,161.66,171.31,161.85Zm-6.76-.56q-1.13-3.91-2.31-7.82c1,.73,2,1.45,2.94,2.2C164.93,157.55,164.68,159.42,164.54,161.3Zm-6.28-10.35c-.12,2.36-.35,4.7-.59,7-1.24-3.32-2.43-6.67-3.61-10q2.19,1.36,4.29,2.77C158.34,150.83,158.26,150.87,158.26,150.95Zm-3.51,7.61q-1.4-1.25-2.83-2.46c.12-1.41.23-2.83.38-4.24C153.08,154.1,153.93,156.32,154.75,158.56Zm-5.4-6.08c-1-2.88-1.84-5.79-2.58-8.77,0,0,0,0,0-.06,1.08.61,2.15,1.23,3.22,1.86C149.8,147.83,149.58,150.15,149.35,152.47Zm-3.24-1.13-.86-.65c.11-.4.17-.82.28-1.22C145.71,150.1,145.92,150.72,146.11,151.34Zm-2-7.34c-.35,1.63-.79,3.24-1.22,4.85-.73-.55-1.45-1.12-2.19-1.66-1.31-2.79-2.6-5.58-4-8.34-.25-.5-1.27-.83-1.63-.2a26.74,26.74,0,0,1-1.83,3.31l-2.5-1.68c-.89-2.12-1.76-4.24-2.53-6.42,5.63,2.9,11.47,5.89,17.17,9.05A1.48,1.48,0,0,0,144.06,144Zm-6.64.88c-1-.69-1.94-1.4-2.93-2.08.63-1,1.32-1.63,1.84-.47C136.71,143.18,137.06,144,137.42,144.89ZM127,133.2c.57,2,1.26,3.91,2,5.85-13.36-8.85-27.51-17.07-41-25.79,9.71,5.88,22.24,10.89,30.23,15.27C121,130.09,123.93,131.64,127,133.2ZM170.08,259a78.53,78.53,0,0,1,3.26,8.44c-1.24-2.82-2.41-5.64-3.48-8.47Zm16.5,72.93c-2,2.06-6.06,2.35-9.54,3.15a3.86,3.86,0,0,1-1-3.15C179.62,333.49,181.77,331.35,186.59,331.89Zm56.29-53.56c2.05,4.86-3.56,10.18-3.81,15.75C236.53,288.83,242.85,284.09,242.87,278.33Zm9.54,54.35c-2.57,3.66-3.09,9-7.63,11C244.13,337.39,244.76,332.13,252.41,332.68Zm-10.49,52c3.29-5.42,1.81-14.78,11.45-15C253.16,374.63,248.49,382.38,241.92,384.66Zm-14.32-35.44c0-5.5,2.25-9.17,4.77-12.6,3.31.63,3.67-1.18,6.68-.79-1.36,6.54,3.85,10.4,2.86,14.18a67.48,67.48,0,0,1-11.45,2.36c.84-1.66,2.9-2.33,2.86-4.72C232.08,345.65,230.2,349.71,227.61,349.22Zm-5.72.79c2.63-.34.89,2.93,2.86,3.15-1.19,1.9-3.91,2.55-6.68,3.15C218.67,353.65,221.45,352.8,221.89,350Zm-9.54,5.51c2.15-6.36,4.15-12.84,10.49-15.75,3.44.18.07,7,0,9.45C217.78,347.15,216.78,354.52,212.34,355.52Zm-2.86,3.16c-1.32,2.05-4.93,2.23-7.63,3.15.72-3.35,1.52-4.58-2.86-3.15,1.14-6.94,1.94-14.16,11.45-14.18C210.55,349.64,205.8,355.3,209.48,358.67Zm-14.31,5.51c-9.06,2.24-16.88,5.49-25.76,7.88a2.65,2.65,0,0,0-2.86-1.58c2.29-3.48,10.7,1.63,12.4-3.15-4.78,1.88-7.18,1-12.4,0,3.13-6.61,5.7-13.67,16.22-14.18-1.68,4.14-5.43,8-3.82,12.6,2.54,0,5.45.3,6.68-.79-3.58-6.82,2.14-15.55,11.45-16.54C196,353.18,192.9,359.13,195.17,364.18Zm-46.75,6.3a6.46,6.46,0,0,0,0,6.3,15.14,15.14,0,0,0,6.68-2.36c-.84-1.39-3-2.3-1-3.94,1.23-1.08,4.14-.78,6.68-.79.55,1.65,2.36,2.25,1.91,4.73-8.58,2.11-14.47,6.43-23.85,7.88C142.8,379,142.09,371.82,148.42,370.48Zm-1-5.51c-.49,1.17-1.41,2-1.91,3.15C144.31,368.51,145.14,364.21,147.46,365Zm1.91,3.94c-2.89-1,.67-3,1-3.94C153.22,365.93,149.66,368,149.37,368.91Zm11.45-.78c-1.7-1.47-2.43.64-5.73,0,2.21-3.16,2.09-8.25,7.64-8.66C163.09,363.5,158,364.24,160.83,368.12Zm-29.58,2.36c.31-1.85,4.16-.76,4.78-2.36.2,4.9-6.49,10.91-9.54,15.75C123.86,379.59,134.52,375.31,131.25,370.48Zm-13.35,4.73c1.2-1.89,5.07-1.58,6.68-3.15,1.06,4.89-5.31,17.1-10.5,22.05C109,387,122.3,381,117.89,375.21Zm-11.45,39.38c-1.79-7.59,10-11.8,11.45-18.9,24.61-13.13,60.24-22.37,91.59-32.29,10.8-3.41,18.32-8.27,32.44-8.66A17.17,17.17,0,0,0,240,361c2.16,2.41,6,3.43,8.59,5.51-43.13,15.07-87.88,28.8-130.71,44.11-3,.38-3.73-1.12-5.73-1.58-1.91,1.31-4.44,2.11-4.77,4.72.18.64,1,.79,1,1.58,8.12,2.89,17.34-5.88,26.72-7.09,3.32,2.24-6.06,6.41-10.49,5.51-2.58,2.59-4.86,5.44-5.73,9.46C114.7,419,107.63,419.62,106.44,414.59ZM238.1,391c-4.76.53-7.91,2.39-12.41,3.15,4.63-4.58,7.23-10.83,12.41-15C240.38,381.92,235.45,385.53,238.1,391Zm-12.41-1.58c.48-4.86,3.7-14.27,12.41-15C236.89,378.68,229.24,384.42,225.7,389.39ZM219,397.26c-14.61,4.47-28.26,9.74-45.79,11.82,2-4.92,6.76-7.55,9.54-11.82-.87-2.14-3.51.66-3.82,1.58-1.94-1.4,1.45-5.06,1.91-7.09,3.2-.25,6-.81,7.63-2.37,1.76,1.51-4.17,3.35-4.77,5.51,1.26,1,4.94-2.71,6.68-3.93,2.63,4.82-6.12,7-4.77,13.39,12.69-1.34,12.62-13.21,21-18.11,1.87,1.09-3.43,2.89-1.9,6.3-2.79,1.11-3,4.33-4.78,6.3.34,1,1.68,1.24,1.91,2.36,12.14-1.79,11.49-14.14,21-18.12C221.5,387.63,217,392.39,219,397.26Zm-22.9-4.73c2-3.59,3.85-7.33,8.59-8.67C205.14,386.35,200,391,196.12,392.54Zm21-12.6c1.51-.07,3.64.38,3.82-.79,2.08,2.9-8.93,8.28-10.5,13.39C208.65,388.16,215.12,383.82,217.11,379.94Zm-48.66,20.48c5.43.45-8.7,9.44,1.91,9.45-3.55,2.31-9.58,2.59-13.36,4.72C156.2,409.18,165.78,405.57,168.46,400.41Zm-9.54,5.51c-1.8.74,4.19-4.66,3.82-7.87,4.18.3,4.9-2.25,8.58-2.37C168.31,400,163.31,402.73,158.92,405.93Zm-12.4,11c-3.37.11-4.27,2.26-7.63,2.36,1.41-4.87,7.34-6,9.54-10.24C150,410.46,145.47,413.43,146.51,417Zm-3.82-5.51c-2.46-.34,3.63-4.21,0-5.52,3-1.17,5.38-2.91,9.54-3.15C149.62,406.14,145.31,408.08,142.7,411.45Zm-21,41c-1.95-.23-1.87-2.13-3.81-2.37-.41-2.17,3.56-.74,3.81-2.37C124.39,448.47,121.45,451,121.71,452.4Zm8.59,2.36c-.71-2.42,2.62-1.51,1.91-3.93C136.09,450.54,132.82,455.38,130.29,454.76Zm-3.81-1.57c1.08-2.79,3-4.91,2.86-8.67,3.44.21,4.6-1.45,7.63-1.58C133.9,446.72,131.21,450.8,126.48,453.19Zm22.9-1.58c-2.92-.58-2.8,1.36-5.72.79,1.07-5.69,5.71-8.42,7.63-13.39C152.59,441.69,148,446.23,149.37,451.61Zm-9.54,0c-.25-3.63,2.45-11.62,8.59-12.61C145.93,443.52,143.39,448,139.83,451.61Zm12.41,7.09c.15-.92,1.74-.66,2.86-.79C154.94,458.84,153.36,458.57,152.24,458.7Zm3.81,0c.16-.92,1.74-.66,2.87-.79C158.76,458.84,157.18,458.57,156.05,458.7Zm28.63,15c-.45-1.69,1.36-1.5,2.86-1.58A2.65,2.65,0,0,1,184.68,473.67Zm6.68,11.82c.83-2.29,1.43-.89,3.82-.79A2.62,2.62,0,0,1,191.35,485.48Zm21.95-28.36c2.18-2.4,7.47-2.23,9.54-4.72C227,454,219.19,458.6,213.3,457.13Zm15.27-2.37c0-2.58,1.67-3.87,3.82-4.72C235,451.74,232.2,455.61,228.56,454.76Zm-3.82-8.66c.12,1.74,4,.34,5.73.79-22,12.5-46.7,10.21-78.24,7.87,32.84-8.07,64.35-17.23,96.36-26C254.26,442.92,237.13,444.3,224.75,446.1Zm-56.29-15c3.81,2.8-6.38,10.49-1.91,16.53-4.89-.63-6.26,1.66-10.5,1.58C158.64,441.94,165.24,437.93,168.46,431.14Zm-4.77,1.57c3.08,1.72-5.49,6.84-6.68,10.24C154.18,438.49,158.75,433.38,163.68,432.71Zm20,6.3c8.82-.86,9.15-8.72,13.36-13.39,2.21,3-5.67,10.34,1,12.61,8.44-1.69,10.06-9,14.31-14.18,2.18,2.14,0,7.91,3.82,8.67,9.22-1.32,8.76-10.62,14.31-15,1.57.23-1.32,9.76-1.91,13.39-18.74,4.48-34.94,11.06-55.34,14.17,3.39-4.29,5.2-9.88,9.54-13.38C185.8,433.46,180.61,437.21,183.72,439Zm9.54-16.54h3.82c-1.08,3.31-4,5.1-5.73,7.88C188.26,427.74,192.94,424.87,193.26,422.47Zm14.31-3.94c3.31.63,3.67-1.18,6.68-.79-2.75,6.13-8.38,9.88-12.41,15C199.65,427.73,205.4,422.53,207.57,418.53Zm22.9-3.94c-2.95,5.45-7.91,9.22-11.45,14.18C215.6,424.06,220.23,413.18,230.47,414.59ZM171.32,439.8c2.06-5.66,3.61-11.74,10.49-13.39C184.07,429.45,176,437.26,171.32,439.8Zm65.83-27.56c3.25-1.78,6.41-3.64,11.45-3.94-4,5.06-8.75,9.58-12.4,15C233.17,419.94,237.83,416.23,237.15,412.24Zm5.73,13.38a24.4,24.4,0,0,1-5.73,1.58c2-4.39,5.78-7.31,7.63-11.82C247,415.22,241.51,421.35,242.87,425.62ZM206.62,413.8c-3,2.19-9.56,6.45-13.36,3.15-4.55,3.85-9.55,7.34-19.08,7.09-19.28,8.24-41.36,18.35-63.92,21.26-.84-5,6.63-9.65,9.54-14.17,2.35.1,4.6.12,5.73-.79,1.28-.52,1.78-1.69,1.91-3.15,36.25-13.93,81.56-20.36,116.4-35.44,3-.13,3.19,2.09,6.68,1.57.33,4.46,5.13,5.22,6.68,8.67C240.69,405.29,223.24,415.81,206.62,413.8Zm40.07-147.29c-5,8.38-9,15.91-11.45,25.2-2.2,8.34-1.68,18.52-10.49,25.2a160.49,160.49,0,0,0-21.94,1.58c.11-1.08.16-2,.2-2.76-.4,0-.79,0-1.2-.07-1-.13-2.05-.21-3.08-.32-6.66-13.33-10.88-28-8.34-42.32.1-.54-.89-.78-1-.23-3.2,14.36.18,28.81,6.52,42.26l-2.48-.26a76.94,76.94,0,0,0-3.08-13.23c-.14-.42-1-.35-.95.11.25,1.59.43,3.16.64,4.74q-1.3-4.47-2.16-9c1.2-3.35.86-5.44-1.1-6.21l-.26-1.61q1.71-15,4.71-29.63c.12.12.22.26.36.37a31,31,0,0,0,9.49,6.6c-2-.58-4.1-1.26-6.28-2.09-.25-.1-.48.21-.22.31a74.41,74.41,0,0,0,12.67,3.94,36.66,36.66,0,0,0,11,1,32.1,32.1,0,0,0,3.84-.43l.42-.06a28.22,28.22,0,0,0,3.73-.94c.48-.14,1-.28,1.43-.45l1-.4a32.62,32.62,0,0,0,14.69-11c9.4-12.61,7.74-32.52,7.77-46.6,0-12.28-1.28-24.32-2.21-36.23-.38-5.84-.71-11.66-.88-17.5-.2-16.08,1.84-32,10.49-48.06.11-.21-.25-.39-.38-.18s-.37.69-.57,1c-.07-1-1.7-1.73-2.72-1,0-.09-.16-.15-.25-.06a30.68,30.68,0,0,0-4.73,6.34c-8,9.95-17.49,19-27.4,27.86-.43.3-.87.59-1.31.88,1.27-1.1,2.5-2.17,3.63-3.18.12-.1-.06-.24-.19-.15a290.06,290.06,0,0,0-26,21c-.06,0-.13,0-.18.06-5,3.77-9.7,7.52-14.12,11.32h0c-1.88-6.6-8-12.7-15.49-18.14,0-.2-.09-.4-.12-.61-.14-.79-1.15-1.06-2-.92-10.64-7.28-23.47-13.29-31.34-17.55-10.3-5.57-20.76-11-31.14-16.42-7.85-4.13-21-8.51-27.12-14.39-.1-.09-.29,0-.2.13a35.14,35.14,0,0,0,7.38,6.5C79.86,108,75.56,105.06,71.4,102c-.58-.43-1.43.25-.86.71,1.81,1.46,3.66,2.89,5.53,4.3a71.83,71.83,0,0,0-10.47-6.36c-.39-.53-.73-1.09-1.14-1.61a.81.81,0,0,0-1.43.33,1.6,1.6,0,0,0-1,.08c-1.38-.73-2.75-1.46-4.18-2.13-.1,0-.19.08-.09.13,1.36.67,2.64,1.42,3.94,2.15a.9.9,0,0,0-.38,1.06,93.38,93.38,0,0,0,6.47,15,5.91,5.91,0,0,0,.75,2.8c3.66,17.15,8,34.22,12.33,51.27,2,25.54,5.7,51,23.7,72.57,8,9.53,17.82,13.86,27.61,11.24a17,17,0,0,0,10.42-1.17,22.49,22.49,0,0,0,3.31-1.07c.51-.21.89-.39,1.3-.57s1.14-.49,1.71-.74c.86.88,2.75.79,3.14-.46.14-.43.22-.87.35-1.3.42-.24.83-.43,1.26-.7a1.85,1.85,0,0,0,.19-.18,15.85,15.85,0,0,0,6,7.88c.3.53.56,1.08.89,1.61a2,2,0,0,0,2.72.36c.7.29,1.46.54,2.23.78,2.47,9.86,8,19.16,11.75,28.83-.1,2.65-.18,5.3-.18,8a67.39,67.39,0,0,0-5.07,18.82c-.1.85,1.6,1,1.8.2,1.22-5.08,2.1-10.2,3.34-15.26.11,6.53.45,13,1.19,19.53-22,1.39-47.53,3.32-61.54-7.41,3.94-15.67-6.94-26.95-15.27-37.81-7-9.17-11.92-19.88-19.08-29.15-4.25-5.5-11.16-9.65-15.26-15-3.84-5-6.07-11.28-9.54-16.54-9.66-14.63-22.28-34-27.66-54.35.26-2.77,3.55,2,3.81-.79-4.92-7.66-7.4-16.72-6.67-27.57,2-29.34,21.19-51.45,41-67.74,12.39-10.17,19-14.22,37.21-22.06,12.43-5.34,22.41-7.28,35.3-9.45,4.11-.69,7.69-2.68,11.45-3.15,14.18-1.77,27.81,2.71,42-.79C204,31.83,221.54,31,226.65,40.45c9.13.61,14.84,4,22.9,5.51,14.41,11.55,27.4,23.65,38.16,41,9.42,15.15,20.82,26.43,21,46.47.3,35.28-8.47,68-27.67,92.94C270.29,240.31,256,251,246.69,266.52Zm43.89-47.26c2.46-4.28,6.35-14.18,11.45-18.9C298.73,207.08,296,214.27,290.58,219.25Zm15.26-29.93c-2.57-3.73,3.46-7.11,1.91-12.61C311.34,178.38,306.52,186,305.84,189.32Zm3.82-13.39c-2.13-4.93,2.41-11.13,1.91-17.33C315,164.6,309.7,170.17,309.66,175.93Zm2.86-21.27c-1.57-3.37-1.3-11.78-1-14.18C313.2,145,313.61,152.07,312.52,154.67Zm21-12.6c-1.1,2.55-1.08-2.12-1-3.15C333.66,136.37,333.63,141,333.51,142.06Z"/><path class="cls-1" d="M214.25,450c-8.87,1.75-14.53,1.52-21,5.51C201.45,454.7,207.69,452.23,214.25,450Z"/></svg>