<svg id="Layer_1" data-name="Layer 1" xmlns="http://www.w3.org/2000/svg" viewBox="0 0 500 470"><defs><style>.cls-1{fill:#236003;fill-rule:evenodd;}</style></defs><title>svge_nuclear</title><path class="cls-1" d="M434.09,154.49c-.44-11.55-7-21.09-17.14-23.09-17-3.33-22.93,13.07-30.39,23.19-11.68,1-23.91,1.38-34.95,3.28-2.75-32.13-3.31-79.73-22.35-106.93-4.44-6.29-16.11-19.59-22.19-23-22.18-12.56-48.6-2.07-61.54,5.23-16,9-29.47,27.51-41.58,46-6.56,10.06-15.57,17.79-20.27,28.79C116.93,82.37,59,114.36,74,178.91c-15.41,15.85-.27,35.32,20,35,5,5.92,11.74,10.81,16.12,17.17C96.92,238.4,81.72,245.4,68.81,253.3c-18.51,11.26-35.68,23.26-50.52,39.58-3.92,4.28-9,9.79-10.33,12.48-20,39.79,43.93,48.85,78.68,50.05a7.26,7.26,0,0,1,4.3-1.35,147.59,147.59,0,0,0,23.89-1.31,13.84,13.84,0,0,1,1.85,0c8.7-2,17.62-3.41,26.52-5.23,3.51,32.64,12.38,64.83,29.08,91.46,0,.24-.09.48-.13.71a.66.66,0,0,0,.92.67c.19.26.33.55.52.8q.94,1.44,2,2.83c-.06.61-.12,1.2-.14,1.86-.08,1,1.41,1.61,1.83.57.06-.08.08-.19.14-.26a42.19,42.19,0,0,0,4.06,3.95,1.79,1.79,0,0,0,0,.48c0,.87.89,1.12,1.63.92,1.19,1,2.49,1.89,3.79,2.78a1.26,1.26,0,0,0,1,.64,55.37,55.37,0,0,0,13,6.17,1.44,1.44,0,0,0,2.11.62,39.21,39.21,0,0,0,19.09.78c17.79-4.09,31.73-15.35,43.51-28.56,9.63-1.64,22.1-1.79,26.68-8.75,4.8-7.37.62-15.34-2.64-23.24A297.89,297.89,0,0,0,311,364.53c8.81,4,20.21,5.07,28.78,6.69,12,2.27,24.17,8,36.9,8.49,16.29.64,37.14,0,46.72-6.92,7.09-5.16,15.25-22.62,18.68-31,4.77-11.67.74-16.85-2.24-27.1-6.15-21-14.61-37.55-24.73-54,7.21-5.56,16.19-15.21,27.13-21.84,2.75-1.69,6-1.34,8.64-3.24,6.66-4.86,14.9-13.51,21.75-20,7.19-6.77,17.56-16.56,20.28-23.06C503.9,166.63,461.17,156.19,434.09,154.49Zm5.57,178.3c2.07,1.08-.56,5.24-.36,7.56C437.06,337.58,439.16,336.67,439.66,332.79Zm-21.73-195.5c2.12,0,2.49,1.11,3.76,1.63C421.72,140.62,415.92,139.6,417.93,137.29Zm.28,15.32c0,3-4.6-.11-5.38,1.88-1-.42-.31-1.94-1.63-2.18C413.51,150.45,416.51,149.47,418.21,152.62ZM389.48,257.11A210.85,210.85,0,0,1,340.83,278c5.49-22.85,9.51-45.9,12.67-68.41,10.21,8.83,17.59,19.52,27.21,28.75.95,1.3.51,3.47,0,5.73C386.52,246.53,389,251.16,389.48,257.11Zm-9.65,14.48c1.72-3,5.57-3.2,8-5.24C388.81,267.75,380.86,272.93,379.83,271.59ZM177.45,436.39c.41.36.82.7,1.27,1C177.51,441.89,177.25,441.5,177.45,436.39Zm.1-2.7c0-1.26.14-2.62.23-4.2a.77.77,0,0,0-1.51-.27c-.32,1-.56,1.81-.82,2.48-.4-.43-.84-.86-1.23-1.31.29-2.95.79-6.82.82-8a71.42,71.42,0,0,0,6,8,1,1,0,0,0-.69.7c-.38,1.6-.72,3-1,4.19C178.69,434.74,178.12,434.21,177.56,433.69Zm-3.42-.37c.12.13.28.3.43.46C174.28,434.13,174.17,433.93,174.14,433.32Zm-27.72-90.86c0-.18-.08-.35-.1-.53a2.81,2.81,0,0,1,1.3-.41c0,.38.05.77.08,1.12C147.24,342.61,146.78,342.52,146.42,342.46ZM136.26,237.68c0-.33.1-.58.11-.89-.07-.13-.2-.19-.27-.32a9.55,9.55,0,0,1-1-1.53,4.1,4.1,0,0,1,1.58-4.9,4.56,4.56,0,0,1,1.67-.61c.24-.56.44-1.14.64-1.75,3.73-1.36,7.59-2.6,11.35-3.93,0,0,0,.09,0,.13q-2.18,11.44-3.55,23.08C143.2,243.74,139.56,240.58,136.26,237.68Zm56-110.2c1.23-1.36,2.46-2.72,3.73-4,9.49,3.07,16.27,7.86,26.46,10.45a19.47,19.47,0,0,0-8.32-4.35c19.26,3,37.19,18,55.8,21.41,2.48,3.51,7,5.76,10.59,8.56-3,.3-9.44-4.16-14.22-5.41,8.74,7,18.62,8.43,27.77,14.5-41.72,13.5-84.12,26.1-125.31,40.34,3.14-15.76,6.78-31.41,11.31-46.78,3.08-10.41,6-21.15,9.75-31.62.59-1.21,1.22-2.38,1.86-3.58C191.94,127.14,192.16,127.29,192.31,127.48Zm115.33,50.21c12.35,6.36,22.41,14.16,33.63,21.25-1.23,11.12-2.71,24.7-4.88,38.75q-4.77,23.15-11.2,45.88c-25.06,13.67-55.08,20.5-89.42,31-24.68-16.76-53-31.11-72.75-51.13,1.38.76,2.22,1.82,3.55,2.54-1.68-2-3.79-4.12-6.07-6.38.62-4.82,1.3-9.66,2.07-14.5,1.34-9.08,2.9-18.13,4.57-27.18A1456.08,1456.08,0,0,1,307.64,177.69Zm36,36c1.2,9.37-1.7,29.62-6.63,38.25l.22-1.25C340.31,240.29,340.33,227.8,343.69,213.68ZM231.6,444.62l-.05,0c-1.38.35-2.75.64-4.17.9a1.2,1.2,0,0,0-.21-.42,58.46,58.46,0,0,0,9.68-3.81,17.27,17.27,0,0,1-1.13,2.11C234.38,443.87,233,444.27,231.6,444.62Zm-67.36-55.74c-2.86-14.64-5.23-29.59-7.07-44.68,16.38-4.1,33.59-5.5,48.18-12.21,12.93,1,21.18-4.29,32.31-5.68,18.93,11,39.45,20.89,59.23,31.26a318.08,318.08,0,0,1-19.81,37.33c-6.47-.71-7.11-1.64-13.16-3.39-.8,4.22-10.44,6.47-13.37,12.86-3.7,8.06-3.11,16.65,1.12,22.52-17.12,15.62-40.5,26-61.58,8.87C176.44,424.64,169.26,406,164.25,388.88Zm60.25-73.51c-18.55,8.07-43.48,13.09-68.69,16.76-.17-1.94-.34-3.86-.52-5.81,1.25-19.69,3.23-37.66,3.43-49.91a.51.51,0,0,0-.26-.38c.23-2.09.47-4.21.75-6.31A755.13,755.13,0,0,0,224.49,315.37Zm-20.38-16c7.71,2.53,18.4,10.24,25.43,16C219.81,309.67,212.44,306.55,204.11,299.35ZM155.51,222c-.24,1.89-.49,3.78-.68,5.68-1.37,5.26-2.69,10.56-3.92,15.9.4-3.51.84-7.06,1.32-10.57q1.17-5.4,2.48-10.77C155,222.14,155.27,222.06,155.51,222Zm-.62,32.28a.62.62,0,0,0-.16-.14c1.41-7.62,2.67-15.27,3.95-22.93.25-1.13.55-2.26.8-3.42l-.53,3.79Q156.71,242.87,154.9,254.25Zm-1.6,10.8a2.69,2.69,0,0,1-.06.61,3,3,0,0,1,0-.66S153.3,265,153.3,265.06Zm-2.18-1.81c-.45,3.34-.87,6.71-1.32,10.06.32-3.39.78-6.77,1.24-10.14C151.08,263.2,151.12,263.23,151.12,263.25ZM150,278.34c.82-3.81,1.6-7.63,2.37-11.42-.07,2-.14,4-.17,6q-1.4,10.62-2.51,21.21c-.14,1.57-.34,3.18-.48,4.76a173.66,173.66,0,0,1,.18-20.29A.42.42,0,0,0,150,278.34Zm36.7-154.71.08.06q-7,17.23-12.31,35.15c-.48,1.14-1,2.25-1.5,3.36,2.26-9.52,4.75-19,7.77-28.21Q183.51,128.72,186.68,123.63ZM170.75,172l-.06.37,0-.28A.58.58,0,0,0,170.75,172Zm-10.37,34.14c-.52,2.08-1,4.22-1.6,6.31-.25.11-.51.2-.76.29.34-2.12.62-4.27,1-6.38q1.71-6,3.69-12C161.91,198.28,161.11,202.21,160.37,206.12Zm159.42,95.8-2.2,6.79c-5.38,13-10.62,26-16.2,38.75-18.25-6.55-33.14-15.27-49.19-23.32C272.53,313.74,299.58,312.45,319.79,301.92Zm-19.31,59.89c.58.17,1.12.33,1.65.47a309.56,309.56,0,0,1-16.15,34c-1-.26-2-.56-3-.84A242.27,242.27,0,0,0,300.49,361.81Zm-35.07,49.95.16-.88.46.08A6.55,6.55,0,0,0,265.41,411.75Zm-9.81,19c-1.17,2.08-2.24,3.6-1.8,1.1a1.22,1.22,0,0,0-.74-1.38c.38-.29.72-.61,1.11-.92A11.65,11.65,0,0,0,255.61,430.79Zm-.71,2.69.09,0c-.06,0-.11.09-.17.13A.25.25,0,0,0,254.89,433.48Zm52.55-84.77a4.28,4.28,0,0,1-.77-.2q1.75-3.49,3.39-7.07C309.2,343.87,308.34,346.3,307.44,348.71ZM202.59,445.58a1.37,1.37,0,0,0-.24-.49,41.28,41.28,0,0,0,4.14,1.12,4.2,4.2,0,0,0-.51,0C204.81,446,203.73,445.78,202.59,445.58Zm-1.4-.87a1.46,1.46,0,0,0-.88.46,48.36,48.36,0,0,1-6.38-1.76c.06-.59.14-1.28.21-2A41.3,41.3,0,0,0,201.18,444.71Zm-7.3,1.32c-.29.88-.53,1.68-.69,2.28.11-.6.25-1.42.39-2.4Zm5.56,1.84c-1,4.55-1.85,4.3-2.51-.69C197.73,447.43,198.59,447.63,199.44,447.86Zm6.42,1.5c-3.79,8.06-3,5.5-3-.61C203.82,449,204.82,449.18,205.87,449.37Zm18.68-3.54a.32.32,0,0,0-.08.21c-.73.09-1.49.16-2.21.25C223,446.14,223.77,446,224.55,445.83Zm15.88-5.55a2.07,2.07,0,0,0-.4-.65,85.3,85.3,0,0,0,9.34-6.16c-.92,1.44-1.88,2.86-2.79,4.3-.36-.93-1.77-1.49-2.45-.53a16.82,16.82,0,0,0-2.08,3.72c-.41.2-.87.38-1.33.56C240.65,441.21,240.58,440.82,240.43,440.28Zm72.39-100.35c4.38-12.4,9.18-25,13.87-37.85l.5-.17c-4.73,14.36-10.18,28.5-15.92,42.44C311.78,342.88,312.33,341.4,312.82,339.93Zm30.27-151.14c-6.08-5.29-15.69-8.25-19.58-14.94,6.62-1.4,14.21-1.47,19.91-4.08C347.9,174.77,344.06,180.18,343.09,188.79ZM316.82,171.7c.33-1,.06-1.68-.68-2,2-.82,4.4.16,9,.65C322.66,171.18,320.31,172.21,316.82,171.7Zm-134.93,37c1.49-1.78,4.63-1.42,6.51-2.66C190.16,207.7,184.16,208.58,181.89,208.65Zm24.66-8c3.93-2.75,9.6-3.09,14.07-5.12C220.34,198.63,211.43,200,206.55,200.65Zm16-4.77c2.29-2.26,6-2.6,9.59-3C234.2,192.31,225.58,195.7,222.58,195.87Zm11.72-3.62c15.79-6.61,34.09-9.84,50.33-15.81C273.11,184.19,251.76,188.68,234.3,192.26Zm56.55-16.61c.52-1.57,2.07-1.81,4.22-1.16C295.57,177.45,292.62,175.74,290.85,175.65ZM203.61,92.39a8.49,8.49,0,0,1-.85,1.09c.26-.37.47-.76.67-1.12C203.52,92.38,203.57,92.36,203.61,92.39Zm-32.79,66c-1.84,7.41-3.59,14.84-5.2,22.31-1.16,3-2.23,6.12-3.29,9.19.87-3.85,1.75-7.69,2.75-11.49a.07.07,0,0,0-.13,0,202.26,202.26,0,0,0-5.39,19.89c-1,3-1.92,6-2.79,9,.43-2.13.86-4.28,1.34-6.41,3.68-16.42,8.06-32.78,14.24-48.41C171.86,154.42,171.36,156.39,170.83,158.34ZM147.2,328.82c0,1.52.08,3,.1,4.51l-1.78.22a320.7,320.7,0,0,1-.9-40.44A344.5,344.5,0,0,0,147.2,328.82ZM164,414.18a.69.69,0,0,0,.28-.75q-3.79-16-5.93-31.78c2.35,7.94,5.05,15.8,8.06,23.51A92.55,92.55,0,0,0,174.88,422c-.22-.08-.41-.05-.45.16-.17,2.55-.43,5-.73,7.52A59.43,59.43,0,0,1,164,414.18Zm17.23,22.33s0,.13,0,.17h0A.29.29,0,0,0,181.25,436.51Zm5,.56a1.34,1.34,0,0,0-2.53.17c-.15.28-.23.52-.37.78-.17-1.94-.44-3.9-.74-5.87a53.27,53.27,0,0,0,8.83,7.58c-.39.84-.71,1.58-1,2.26-1.18-.5-2.31-1-3.39-1.59C186.86,439.38,186.59,438.26,186.29,437.07Zm3.21,7.08c-2,4.58-1.49,3.36-2-1C188.16,443.49,188.8,443.83,189.5,444.16Zm-3,5.83a23.58,23.58,0,0,1-2.12-1.61C186,440.52,186.33,445.53,186.53,450Zm5.11-4.83a.9.9,0,0,1,.12.07,64.06,64.06,0,0,0-.55,7.61c-.43-.23-.85-.51-1.28-.76C190.82,448.37,191.35,446.2,191.63,445.16Zm4,9.81c-.53-.21-1-.49-1.48-.71C195.21,450.22,195.68,450.46,195.67,455Zm5.14,1.83c-.67-.21-1.38-.45-2-.68C202.37,448.9,201.2,451.78,200.82,456.8Zm5,1.23c-.32-.08-.64-.11-1-.17C206.2,453.87,206.31,451.65,205.83,458Zm3.47-8.12c.6.09,1.14.23,1.79.3C209.48,454.21,208.86,456.92,209.3,449.91Zm6.91.68c-.17.15-.36.16-.47,0Zm6.28-.08c-1.19,2.68-2.1,4.38-1.57.08C221.45,450.54,222,450.55,222.49,450.51Zm4.56-.47a3.85,3.85,0,0,1,.68-.12C226.35,452.15,226.63,451.89,227.06,450Zm9.05-2.12c.8-.23,1.55-.5,2.3-.76.09,0,.12.08.21.13a37.6,37.6,0,0,0-4.19,2.87C235,449.39,235.6,448.62,236.11,447.91ZM337.29,292.1A267.39,267.39,0,0,1,364,281.17c-5.53,5.1-16.69,9.76-27.15,12.7C337,293.27,337.13,292.7,337.29,292.1ZM350,212.38c-.62,2.73-1.26,5.47-1.84,8.23a117.92,117.92,0,0,0,.9-14.55c.55.38,1,.82,1.57,1.23Q350.31,209.84,350,212.38Zm-.08-16.67A94.24,94.24,0,0,1,351,178.33a164.42,164.42,0,0,1,.35,18.64C350.84,196.55,350.35,196.13,349.91,195.72Zm-5.41,7.62c.77,2,1,12.15-1.15,6.46ZM326,63.71c-6.83-4.78-9.93-12-17.29-16.44C316.84,47.94,326.48,54.67,326,63.71ZM308,45.24c-.16.91-1.32.52-2.13.58C306.11,44.94,307.22,45.32,308,45.24Zm-2.93-.52c-3-.77-4.07-2.8-6.36-4C300.23,37.47,308.32,39.93,305.11,44.72ZM287.33,31.07c-.5,2-2.82,1.54-5.21,1C281.66,28.75,285.38,31.15,287.33,31.07Zm-9.67,8.75c-3.74,3.51-11.58,7.05-17,4.59-7.54,3.68-14.54,13.9-22.52,13.15C245.88,45.67,260,41.13,277.66,39.82Zm-12.58,14c3.29-.5,2.11,1.89,3.6,2.55,15.49-8.11,40,1.79,49.6,10.76S334,91.65,338.46,106.91c4.31,14.7,11.05,31.85,6.93,51.77-12.66,2-25.37,4-36.73,7.76-29.91-20.72-70.55-38.66-106.88-52.43,3.31-7.75,8.35-13.23,15-16.39,1.48-4.05-2.94.91-1.47-3.13C229.48,77.65,244,61.22,265.08,53.78ZM111.32,111.21a7,7,0,0,1-3.26,1.33C105.67,111.69,110.07,110.83,111.32,111.21Zm-1.17,17.91c.88,3.51-4.93,7.83-7,11.12C99.28,135.62,107.54,132.14,110.15,129.12ZM77.44,176.65c-2.54-.78-.07-4.86-2-6.07C77.1,168.82,78.59,173.95,77.44,176.65Zm13-44.39c2.49-6.58,7.68-9.5,14-10.83C99.31,124.07,96.59,134.61,90.4,132.26ZM92,168.77c2.33.11.62,2.87,2.48,3.29C92.35,174.74,88.75,169.85,92,168.77Zm39-48.35c9.84-2.58,20.28,1,29.36-.48-3.79-2.81-13-3.1-17.63-3.15,6.84-2.67,15.07-3.36,25.51-1.16,2.61.18,2.17,2.37,2.27,4.21,3.67,1.39,5.68-2.5,8,.47l-.21.38a13.57,13.57,0,0,1,3,.63c.22.06.35.13.54.18-1.7,4.23-3.18,8.57-4.53,13-13.45,23.85-20,53.3-25.17,80.32-1.21.43-2.41.82-3.62,1.26a109.94,109.94,0,0,0-13.1,6.85,8.88,8.88,0,0,1-6.6,1.34,27.56,27.56,0,0,1-6.52,1.41c-2.74-7.07-13-10.93-13.7-19.61-.74-9.62,8.33-19.72-.11-27.65-2.07-1.37-5.78-1.66-7.48-3.25-.91-6.79-5.12-13.83-3.39-20.64C99.22,147.86,119.91,123.3,130.93,120.42ZM97.14,190.66l3,.53c-.32,1.3-.65,2.57.46,3C99,196.39,95.36,193.28,97.14,190.66Zm1.31,21.2c8,4,9.08,12.55,17.24,16.43C109.6,226.76,99.37,216.78,98.45,211.86ZM20.23,316.12c-1-2.77-1.64-8.76,1-11.27,1.09.73.84,6.4,3.43,3.48C27.32,312.05,20.09,312.12,20.23,316.12ZM26,300.94c-2.31-3.95,2.59-7.92,4.74-9.65C34.47,293.12,27.06,298.2,26,300.94Zm2.41,26.15c2.86,1.66,3.53,4.77,7,6C32.31,334.8,27.27,330.83,28.36,327.09Zm12.71,8c8.94-1.77,15.45,5.09,23,7A27.8,27.8,0,0,1,41.07,335.09Zm32,7.62c.5-2,2.82-1.54,5.22-1C77.23,343,75.48,343.27,73.08,342.72ZM29.84,318.79C26.47,291.94,53.46,286,58.67,270.54a303.76,303.76,0,0,1,60.8-34.91c3.88.18,3.6,3.07,6.36,4-.2.59-.41,1.22-.56,1.81a8.68,8.68,0,0,1,3.82,3.41,36.67,36.67,0,0,1,1.9,3.61c.22-.72.43-1.37.7-2.08,4.41,4.07,9.06,8.13,13.86,12.16-.35,2.19-.68,4.35-1,6.54A350.68,350.68,0,0,0,142.08,334c-7.57,1-15.08,1.82-22.29,2.62-8.37,2.29-16.81,3.87-25.45,3.13C69.55,339.8,42.62,334.61,29.84,318.79Zm80.91,27.77a73.94,73.94,0,0,1,24.85-3.2C128.14,345.55,121.38,348.62,110.76,346.57Zm25.8-3c1.12-1.22,2.82-1.54,5.27-1C140.76,343.81,139,344.12,136.56,343.55ZM148,346.41a107.83,107.83,0,0,0,2.06,12.2c.37,4.53.84,9,1.46,13.46,0,.49.06,1,.11,1.49-2-8.91-3.54-17.91-4.72-26.92C147.29,346.57,147.63,346.48,148,346.41Zm21.91,82.21c1.08,1.35,2.17,2.63,3.37,3.87-.08.72-.21,1.43-.33,2.12C171.84,432.67,170.88,430.66,169.93,428.62Zm4.8,8.79c.47-1,.85-1.85,1.12-2.33a6.39,6.39,0,0,1,.49.42c0,.77-.13,2.09-.33,3.94C175.57,438.78,175.13,438.08,174.73,437.41Zm4.09,5.62c.57-1.37,1.2-2.79,1.68-4.15l.55.36c0,1.83.15,4.19.27,6.41A30.23,30.23,0,0,1,178.82,443Zm30.32,15.52c2-4.53,3.38-11,3.12-2.47-.07,1.17,1.91,1.74,2.55.78,4.33-6.05,3-5.82,1.84.75a1.25,1.25,0,0,0,.5,1.18A47.76,47.76,0,0,1,209.13,458.55Zm10.22,0c3.38-4.17,5.34-13.05,4.73-3a1.51,1.51,0,0,0,2.81.88c.86-1.36,1.71-2.71,2.61-4.07a1.55,1.55,0,0,0,1.84,1.3.5.5,0,0,0,.83.38,102.39,102.39,0,0,1,11.17-7.15,1.39,1.39,0,0,0,1.9-.57c.14-.28.29-.55.43-.81a91.77,91.77,0,0,0,8.87-5.89c-.92.95-1.85,1.92-2.82,2.83C242.36,451.7,231.12,457.34,219.35,458.58Zm150.54-85.81c6.61-3.75,21.31-2.4,28.56-1.57C390.09,373.91,379.07,374.38,369.89,372.77Zm29.52-1.4c.67-2.93,4.75-1.24,6.55-2.63C408.29,371.21,401.42,370.9,399.41,371.36Zm10.14-5.82c2.73-4,7.14-5.68,9.83-9.67C419.5,359.12,415.1,366.09,409.55,365.55Zm3.31-12.75c8.53-7.42,8.27-24.67,9.85-38.28C427.39,327.34,423.58,349.76,412.85,352.8Zm12.32-52.14c1.59,1.15,3.12,2.31,2.14,5.14C425.47,304.81,425.11,302.88,425.17,300.67Zm2.35,54.75c-.64-2.5,3-9,4.28-12.6C434.11,347.52,429.32,352.43,427.52,355.42Zm5-33.44c.16-.9,1.31-.5,2.13-.58C434.42,322.3,433.3,321.93,432.49,322Zm-4.92,4.84c2-2.56.15,4.16,0,5.74C425.53,335.1,427.43,328.39,427.58,326.82Zm3.65-26c-1.57-4.44-5.86-7.07-7-11.74C427.55,292.31,431.48,295.17,431.23,300.79ZM408.6,354c-1.25-3.29,4.68-6.68,5.07-11.5C415.87,347,409.64,350,408.6,354Zm5.59-20c-3.64,11.18-15.7,25.95-27.82,31.27-13.2,5.8-46.31-.39-60.87-9.9-3.15,1.24-6.56.54-9.86-.74a424.31,424.31,0,0,0,20.07-56.75c21.22-8.49,42.06-21.5,61.59-27.89,6.22,2.87,5.11,9.91,7.35,15.61C411,301.59,420,316.3,414.18,334Zm7.09-39.73c-.7,1.28-.85-.24-2-.35C419.75,292.76,421.44,293.31,421.28,294.24Zm-2.44-9c-6.63-2.2-11.41-12.64-14.67-19.75C411.37,270.53,413.54,278.92,418.83,285.22Zm-1.44-8.84c-.67-4.21-6.41-5-6.38-9.7C416,267.19,418.51,277.27,417.39,276.38Zm30.76-42.17c.93-1.81,2.59-2.63,3.75-4.09C453.16,230.44,451,235.65,448.15,234.21ZM446,223.36c-7.14,6.71-15.91,15.21-22.55,18.85-2,1.07-5.72.91-8.51,2.28-3.11,1.58-4.71,5.26-7.85,4.34-16.08-17.15-34.45-32.78-52.33-48.77.09-.76.23-1.54.32-2.3a.7.7,0,0,0-1.37-.24c-.12.42-.2.87-.33,1.32l-1.5-1.35a164.28,164.28,0,0,0-.75-20.34c.39-2.49.85-5,1.41-7.64,10.77-3,25.08-1.31,35.28-5.15,11.12,14.3,40.22,25.51,47.36.82,12.64,1.52,20.11,6.43,28.38,10.8C471.85,197.29,460.74,209.6,446,223.36Zm22.89-15c-2.47-.66,1.61-1.36.66-3.71C472.73,206.09,470.09,206.89,468.93,208.37Z"/><path class="cls-1" d="M232.07,80.31c-.82.08-2-.33-2.13.58C230.75,80.83,231.86,81.21,232.07,80.31Z"/><path class="cls-1" d="M166.34,120.07c-1.51.26-4.88-2-5.05.05C162.8,119.88,166.17,122.1,166.34,120.07Z"/><path class="cls-1" d="M229,137a1,1,0,0,0-2-.35C228.18,136.72,228.33,138.24,229,137Z"/><path class="cls-1" d="M230.83,138.24Z"/><path class="cls-1" d="M236.68,139.28c-6.07-2.17-2.65,2.44,0,0Z"/><path class="cls-1" d="M239.48,140.74c-.81.08-2-.33-2.12.58C238.12,141.23,239.28,141.64,239.48,140.74Z"/><path class="cls-1" d="M251.52,146.71a26.56,26.56,0,0,1-7.48-3.25C243.59,146,249.93,148.23,251.52,146.71Z"/><path class="cls-1" d="M471,219.24Z"/><path class="cls-1" d="M471.68,221.24c1.21-3.61-1.8,5.32,0,0Z"/><path class="cls-1" d="M471.2,229.74Z"/><path class="cls-1" d="M262.48,153.42c.24-3-10.69-6.15-9.33-4.51C256.23,150.42,258.18,152.68,262.48,153.42Z"/><path class="cls-1" d="M238.75,269.3c21.58,5.85,37,3.21,48.21-9.52,11.47-13,10.23-38.05-4.5-48.46-21.6-15.23-57.21-2.45-62.26,20.37C216.7,247.58,225.55,259.28,238.75,269.3Zm.73-26.55Zm2-5.38Zm-.2,6.63c1.37-1.87,6.7.46,5.57,2.9A23,23,0,0,1,241.23,244Zm12.09,6c-1.69-.53-2-2-1.3-4.06l3.93.7C255.61,248.48,253.08,247.34,253.32,250Zm4.1-.23c3.06-3.16.87,3.32,0,0Zm21.72-14.24Zm.66-3.69c-1.32-1.06-1.69-2.7-1.14-5C280,227.9,280.39,229.56,279.79,231.83Zm-8.3,1.36c1.79-3.44.49,3.87,0,0Zm-.83,4.63c-2.79,4.06,2.93-4.28,0,0Zm-5.22-16.18c4.36,3.27-1.47,11.41-2.64,14.78-2.13.06-1.64-1.65-1.47-3.13-2.49,1.58-1.84,7.43-7,5.44a16.25,16.25,0,0,0,2-11.1C260.61,227.32,262.4,223.63,265.44,221.64Zm-8-.47c-.34-.48.53.72,0,0ZM255,217.87l3,.53c.27,1.43-4.24,1.58-1.5,2.6C254.84,223.75,253.83,219.59,255,217.87Zm-.15,6.65c.13,6.17-3.8,11-5.89,16.11-2.45-.31-4.78-.7-5.73-2C247,233.76,247.07,223.94,254.84,224.51Zm-12.07-.24c2.13.49-.28,4,0,5.7,2.38-.95,2.35-5.25,4.24-6.87,3.87,2.31-1.34,7.72-2.78,10-2.76-3.83-1.53-.12-5.05.06C239.09,228.5,241.58,227.25,242.77,224.27Zm-6.59,19.79c-1.28-.52-.41-2.45-.3-3.86C239.9,240.63,236,242.21,236.18,244.06Z"/></svg>