<svg xmlns="http://www.w3.org/2000/svg" viewBox="0 0 226.69 131.69"><defs><style>.cls-1{fill:none;stroke:#236003;stroke-linecap:round;stroke-linejoin:round;stroke-width:0.4px;}</style></defs><title>dark_green</title><g id="Layer_2" data-name="Layer 2"><g id="master-artboard"><path class="cls-1" d="M114.7,105.49c-.6,1.1,20.5,10.9,20.1,11.6-.7,1.2-17-10.4-17.6-9.4-.7,1.2,16.8,8.5,16.3,9.4s-16-8.4-16.3-7.9c-.5.9,14.3,7.4,14,8.1-.6,1-16.2-8.9-16.9-7.8-.5.9,15.6,7.6,15,8.6-.3.5-13.6-7.2-14.1-6.3-.3.5,15.2,8,14.8,8.6s-11.1-6.5-11.3-6.1c-.6,1.1,12.7,6.4,12.3,7.1-.3.5-13.9-8.6-14.3-7.9s11.2,5.3,10.7,6.2c-.1.3-8.5-4.3-8.9-3.8-.4.7,11.7,6,11.4,6.6s-12.9-8.1-13.3-7.4c-.5.9,9.2,4.3,8.7,5s-10.7-5.9-10.9-5.6c-.4.7,13.5,6.9,13.1,7.5-.5.8-12.6-6.9-13-6.2-.3.5,11.2,5.5,10.8,6.2-.2.4-9-4.1-9.2-3.7-.5.8,10.4,5,9.9,5.7-.3.6-9.8-4.7-10-4.3s6.4,2.8,6,3.5c-.1.1-3.2-1.6-3.3-1.4-.3.5,4.3,1.9,4.1,2.3-.1.2-6.3-3.4-6.4-3.2-.3.5,5.6,2.7,5.3,3.1-.1.1-3-.6-3.1-.4-.3.5,2.9,1,2.6,1.5-.2.3-5.8-3.4-5.9-3.1-.3.4,5.7,2.9,5.5,3.2s-4.2-1.3-4.3-1.1,3.1,1.2,2.8,1.6c-.1.1-1.5.8-1.5.9-.2.3,2.7,1.2,2.6,1.5,0,.1-1.3.2-1.3.3s.6,0,.4.3-5.5-2.2-5.6-2,4.7,2.4,4.6,2.6-4.4-2.6-4.6-2.3,4.4,2.4,4.3,2.5-4.2-.4-4.3-.2,2.4,1.3,2.3,1.4a17.85,17.85,0,0,1-2.3.2l1,.6"/><path class="cls-1" d="M117.3,2.29c-3.6,6.2,108.2,56.6,105.7,61-2.6,4.6-104.8-69.8-108.9-62.6-4.3,7.4,114.9,57.8,111.2,64.2-3.1,5.4-107.1-66.6-109.7-62-3.2,5.6,114.6,57.4,110.8,64C223.2,72.39,117.9-1,115,4.09c-2.2,3.9,107.7,57.4,105.6,61-2.3,3.7-100.7-67.2-104.7-60.3-4.4,7.5,107.6,56.4,105.1,60.7-2.7,4.6-100.3-61.2-102.4-57.6-4.1,7.1,105.9,56.2,103.7,59.9-2.8,4.8-102.2-64.6-105.6-58.7-2.4,4.1,106.8,51.9,102.6,59.2-2.2,3.8-98.4-61.9-101-57.5-4,7,101.8,49,97.5,56.3C214,70.09,120,7,117,12.19c-3.8,6.6,103.5,50.8,99.6,57.5-1.8,3.1-99.2-61.2-101.8-56.9-2.8,4.9,102.2,52,99.1,57.2-2.9,5-94.6-59.3-97.2-54.7-3.6,6.3,99.2,51.8,96.9,55.9-2.9,5-93.6-57.6-95.9-53.6-2.9,5,94.2,48.7,91.8,53-1.9,3.3-91.3-58.7-94.1-53.8-2.3,4.1,100.7,53.3,98.6,56.9-3.6,6.2-93-58.4-95.5-54s95,47.9,92,53.1c-2.1,3.7-91.4-56.2-93.1-53.3-3.9,6.8,96.3,50.6,94.1,54.3-2.6,4.5-89.6-60-93.3-53.6-2.2,3.8,94.1,48.7,91.7,52.9-3.5,6.1-91.6-58-94.5-53-1.7,3,98.1,49.5,95,54.9-1.7,3-91.1-55.9-92.8-53-3.8,6.5,96,47.9,92.8,53.6-2.1,3.6-91-57.5-94.1-52.1-3.6,6.2,91.3,45.2,88,50.8-3.4,5.8-86.4-53-88.2-49.9-2.4,4.2,93.3,45.3,89.6,51.8-3,5.2-86.6-55.5-89.7-50.1-2.6,4.5,87.9,44.3,85.1,49.1-3.2,5.6-82-52.3-84.9-47.3-2.7,4.7,87.4,46.1,85.5,49.4-3,5.2-81.9-53.6-84.7-48.7-3.3,5.7,89.4,45.8,86.9,50.2-2.4,4.2-84.9-55.7-88-50.4-2.3,4,89.4,47.6,87.6,50.6-2.2,3.8-88.3-56.6-91-51.8-2.2,3.9,90.3,46.6,87.9,50.8-3.1,5.3-85.8-55.8-88.9-50.4-1.7,3,91.4,45.9,88.4,51.1-2.8,4.8-90-55.7-92.4-51.7-2.9,5.1,95.7,48.2,92.6,53.5-1.6,2.8-89.1-57.1-92-52-3.6,6.3,94,46,90.4,52.2-2.5,4.3-91.8-60.2-95.1-54.5-2.6,4.5,99.7,49.1,96,55.4-3,5.3-95.5-60.7-98.6-55.2-1.8,3.2,99.4,51.4,96.8,55.9-3.5,6.1-94.1-62.2-97.9-55.7-3.2,5.5,99.4,51.8,97,56-2.2,3.9-91.8-59.4-94.6-54.5-1.8,3.1,96.1,50.8,94,54.3-3.4,5.9-93.2-57.6-95.1-54.2-3.2,5.6,98.2,48,94.5,54.5-3,5.2-92.5-58.1-94.6-54.4-1.8,3.1,94,50.2,92.2,53.2-3,5.2-93.1-57.2-95.2-53.5-3.3,5.7,99.6,49.1,95.9,55.4-2.2,3.8-99.5-61.8-102.3-57.1s103,50.6,99.2,57.3c-2.3,4-93-62.4-96.9-55.7-1.9,3.3,100,50.2,96.7,55.8-3.9,6.8-96.5-62.9-99.8-57.2C88.1,31,190.8,79.09,188.5,83c-2.1,3.7-95.4-60.2-97.9-55.8-3.3,5.7,100.5,50,97,56-2.5,4.3-95.1-61.1-97.9-56.3-2.4,4.2,102.1,51.6,99,57.1-1.7,3-98-59.7-99.8-56.7-2.6,4.5,104,54.5,101.6,58.6-2.3,3.9-103.2-62.5-105.1-59-2.5,4.3,107.6,54.6,104.3,60.2-2,3.5-102.9-68.1-107-61-2.1,3.7,108.2,54.3,104.6,60.4-2.3,4-103.4-62.4-105.6-58.8C77.5,35,188.4,84.09,186.1,88c-3.9,6.8-103.8-68.6-107.8-61.7-3.8,6.6,108.1,55.7,105.2,60.8C181.1,91.19,81.3,19.49,77.6,26c-2.8,4.9,106.7,57,104.7,60.5-3.9,6.8-102.2-62.9-104.3-59.3C74.7,33,187.4,84,184.7,88.79,180.7,95.69,76.5,23,74.2,27c-3.8,6.5,112.5,58.5,109.7,63.3-2.1,3.6-106-65.7-108.1-62.1-4,6.9,106.5,56.7,104.4,60.3-3.9,6.8-101.1-66.6-104.8-60.2-4.4,7.6,111,58.4,108.5,62.7-2.9,4.9-106.5-65.8-108.6-62.1-2.2,3.9,111,56,107.5,62.1-3.8,6.6-109.9-69.2-113-63.7-3.1,5.3,114.6,60.5,112.2,64.8C178,99,73.2,23.69,70.3,28.79c-3.2,5.6,110.9,54.7,106.9,61.7-2.1,3.6-106.1-67.9-109.5-61.9-3,5.2,111.9,57.9,109,62.9-2.4,4.2-109.2-68.4-111.9-63.7-3.1,5.3,115.6,62.1,113.6,65.6S69.4,23.19,66.1,29C63.6,33.39,178,84.29,174,91.29c-3.1,5.3-110.5-68-112.5-64.5-2.1,3.7,118.8,61,115.5,66.7-3.8,6.5-113.1-72.7-116.4-67.1s119.2,58,114.5,66.1c-2.6,4.5-109.5-68.8-112.3-64-4.4,7.7,117.7,59.8,114.2,65.9-3.1,5.4-113.7-76.2-118.4-68.1-4.5,7.8,119.7,58.6,115.2,66.5C170,99.39,64.2,23.59,61,29.19c-3.4,5.9,115,60.7,112.5,65-3.8,7.1-109-72.4-113.1-65.4-3.6,6.2,117,60.1,113.7,65.7-2.9,5-114.5-69.5-116.8-65.6-3.4,5.9,120,58.1,115.1,66.5-3.6,6.2-113.3-73.5-116.9-67.4-2.6,4.4,118.8,57.6,114,65.8-4.3,7.5-116.5-70.9-119-66.6-2.8,4.9,120.8,63.3,118.1,68.2-3.8,6.5-116.9-73-120.1-67.5-3.9,6.7,122.3,62.7,118.9,68.6-3.2,5.5-118.6-71.9-121-67.7-3.5,6.1,121.6,61.8,117.9,68.1-2.9,5-118.1-77.2-122.3-70-3.4,5.8,128.3,65.1,124.4,71.8-4.1,7.1-121.3-78.6-125.7-71.1-3.8,6.6,125,65.5,122.1,70.5-3.5,6.1-120.1-78.6-124.8-70.4-3.5,6,127.2,64.1,123.2,71.1-3.5,6.1-119.4-73.9-121.6-70.1-4.8,8.3,130.5,63.7,125.5,72.5-3.9,6.8-129.6-79.1-132.2-74.7-4.4,7.6,132,68.8,128.8,74.3-5,8.7-123.2-81-127.9-72.7-4.4,7.6,128.3,66.2,124.9,72.1-3.6,6.2-125.2-81-129.4-73.8-4.9,8.5,135.8,70.8,132.5,76.5C157,111.19,32.2,18.79,28,26.09c-3.2,5.6,138.7,68.7,133.8,77.2-4.5,7.9-133.9-81.4-136.4-77s135.1,70.1,131.6,76c-3.8,6.6-131.1-81-133.9-76.2C19.7,32,161,94.59,156.2,102.89c-3.6,6.2-132.3-83.2-136-76.9-3.4,5.9,141.5,69,136,78.5-3.3,5.8-132.3-85.9-136.7-78.3-2.9,5.9,140.3,74.6,137.4,79.6-3.8,6.6-135.9-84.2-138.7-79.2-4.9,8.5,142.9,73,138.8,80.1-2.8,4.8-137.8-84-140.6-79.1-3.7,6.3,138.4,73.6,135.7,78.4-4.5,7.8-132.5-84-135.8-78.2-4.1,7,139.8,71.7,135.9,78.5C148.9,112,18.3,22.49,15,28.09,9.9,37,154,100,150.4,106.29c-3,5.2-133.1-86.3-138.2-77.6-4.5,7.8,140.5,74.3,137.5,79.4-3.5,6.1-138.7-88.9-143.2-81.2-3.4,5.9,146.4,72.9,141.3,81.6C144.6,114.09,13.5,21,9.1,28.69c-4.3,7.5,144.1,76.1,141,81.4-4.1,7.2-139.4-90.3-144-82.2-2.7,4.6,144.2,76.3,141.2,81.5-2.5,4.4-141.4-89.8-145.8-82.2-2.9,5,151,75.4,145.9,84.2-4.7,8.2-141.2-92.1-145.9-83.9s148.8,78.8,145.7,84.1c-5.9,10.2-141.1-94-146.8-84.2-3.5,6.1,146.4,76.3,142.9,82.5-4,6.9-135.8-84.7-139.2-78.7-5.1,8.9,141.8,72.5,137.8,79.5-3.5,6-134.7-81.6-137.1-77.3-3.6,6.2,141.8,76,139.3,80.4C140,120.89,6.5,25.09,1.8,33.39c-5.2,9,143.3,70.8,138.1,79.8-4.4,7.5-133.1-83.9-136.2-78.5-4.4,7.6,143.4,70.4,138.1,79.7C139.1,119,6.6,30.29,3.2,36.19c-2.7,4.7,141.7,71.3,137.1,79.2C134.7,125.09,3.6,30.09.8,35.09c-2.5,4.4,140.8,72.2,136.9,79C133.9,120.69,4.4,31.29,1,37c-3.7,6.4,137.9,69.8,133.7,77.2-2.7,4.6-129.4-82.3-133-76-4.2,7.3,141.7,71.6,137.2,79.2C136.1,122.19,8,36.59,4.9,42s113.8,55.3,109.3,63.1C111.3,110,8.9,36.89,5.1,43.49c-2.6,4.6,106.7,54,103.4,59.7-4.1,7.1-102.9-67-106.6-60.7-4.4,7.6,109.6,57.4,107,61.8C106,109.39,6.3,37.19,2.2,44.19s104.3,53.5,101.4,58.6c-3.9,6.7-98.4-60.8-101-56.2s102.9,49.9,98.8,57C98.1,109.39,4,40,.4,46.19c-2.1,3.6,102,52.8,99.3,57.3-3.9,6.7-92.7-61.9-96.4-55.6-3.3,5.7,99.4,49.8,96.1,55.5C95.5,110.19,2.7,42,.3,46.29-3,52,101.7,96.19,98,102.69,94.4,109,2.9,45.09,1.2,48.09c-3.8,6.6,100.8,53.9,98.9,57.1-3.4,6-95.6-61.1-98.4-56.2-3.8,6.6,98.2,52.3,96.3,55.6-3,5.1-92.6-56.8-94.7-53.1-2.5,4.3,92.9,48.7,90.7,52.4C91.7,108,8.1,48.09,5,53.59c-1.7,3,87.4,46.5,85.7,49.5-2.6,4.5-85.5-51.8-87.4-48.5-2.9,5.1,90.5,45.1,87.4,50.5-2.5,4.3-83.9-55-86.9-49.9-1.6,2.7,86.7,41.7,83.1,48-2.7,4.6-81.6-52-83.7-48.3C.8,59.09,89.8,99,87.3,103.39c-2,3.5-84.4-52.5-86.7-48.5-2.8,4.8,86.4,45.2,84.4,48.7-1.7,3-82.4-51.3-84.3-48-3.2,5.5,84.5,41.8,81.5,47C79.9,106.69,7.4,53,4.3,58.39,2.4,61.69,84,101,82.5,103.59c-3.1,5.3-76.5-50.5-79.3-45.5C1,62,82.6,98.69,80.3,102.59,78.7,105.39,6.6,54,3.8,58.89c-1.7,3,81.3,43,79.6,45.9-2.3,3.9-79.1-48.9-81.2-45.4-2.9,5,80.8,43.4,79.4,45.8C80,108,4.5,57.49,2.9,60.19c-2.2,3.9,76.6,39.5,74.6,43.1-1.9,3.3-70.5-43.7-72.2-40.8-3,5.2,76.5,37.7,73.7,42.5-2,3.5-72.8-45.5-75.3-41.3-2.3,4,69.2,35.7,67.3,38.9-2.6,4.5-68.5-42.1-69.7-39.9-2.3,3.9,74.7,37.1,72.1,41.6-2.3,4.1-68-40.9-69.4-38.6-2.8,4.9,68.8,34.9,66.7,38.5-2.4,4.1-64.7-40-66.6-36.9-1.6,2.8,62,32.9,60.7,35.1-2,3.5-60.8-39.7-63.2-35.6s65.8,34,64.1,37c-2.3,4-62.8-39.3-64.7-36-1.4,2.4,64.9,32.2,62.6,36.1C62.4,106,2.1,67.19.8,69.39s62.8,32.7,61.2,35.3c-1.2,2.1-56.7-35.8-58.8-32.2-1.6,2.9,57.4,30.4,56.2,32.4-2.1,3.6-52.1-33.2-54-29.8-1.1,1.9,50.1,25.1,48.4,28-.9,1.6-48.5-29.3-49.6-27.3-1.9,3.3,47.8,24,46.2,26.7-1.1,1.9-44.6-28.6-46-26.2C2.8,79,53,100.39,51.3,103.39c-1.6,2.8-46.3-28.2-47.2-26.7-1.9,3.2,45.6,23.3,44.3,25.6C46.8,105,6.2,75.09,4.7,77.69c-1.2,2,46.9,23.5,45.4,26.2-1.3,2.2-47.8-29-48.6-27.5-1.8,3.1,50,24.7,48.2,27.8-1.2,2.1-45-27.2-46.3-25s43.4,23.2,42.6,24.6c-1.6,2.8-41.9-26.6-43.6-23.6-1,1.7,44.1,22.7,42.9,24.8-1.6,2.7-40-25.6-41.4-23-.9,1.6,37.3,18.6,36,20.8-.9,1.6-36-22.2-37.4-19.7-.7,1.2,35.9,17.5,34.5,19.9-.9,1.5-31.6-19.3-32.6-17.5-.7,1.2,32.2,17.1,31.6,18.2C34.9,105.59,5.4,85.49,4.5,87c-.6,1.1,28.8,15.2,28.2,16.3-1,1.7-29.2-17.7-30-16.4-.6,1,29.1,14.3,28,16.2S2.4,86.89,1.8,88c-.9,1.5,29.2,14.2,28.1,16.2-1,1.7-25-15-25.9-13.4s21.7,10.2,20.7,11.9c-.9,1.5-22.3-14.2-23-13-1,1.7,26.6,12.9,25.5,14.7-.6,1-21.6-11.7-22.1-10.8-.7,1.3,19.4,9.4,18.6,10.8-.4.7-21.5-12.2-22-11.4-.6,1.1,18.8,9.2,18.1,10.4-.4.7-19-10.8-19.5-9.9-.8,1.3,17.1,8.7,16.6,9.6-.3.6-13.6-6.9-14.1-6.1-.3.5,14,7.4,13.7,7.9S1.1,96.79.8,97.49c-.5.9,9.1,4.4,8.8,5.1-.2.3-8.2-5.1-8.6-4.6-.4.7,8.8,4.3,8.5,4.9-.2.4-5.5-3.1-5.7-2.8-.3.6,6.6,2.9,6.2,3.6-.2.3-5.5-1.4-5.7-1.1-.3.5,2,.6,1.7,1-.1.1-3-.2-3.1,0s2.6,1.1,2.4,1.4-3.1-1.9-3.2-1.7,1.5.5,1.3.8-3.2-.8-3.2-.7,3.3,1.8,3.2,1.9-3.1-.8-3.2-.6l1.1.6"/></g></g></svg>